<?xml version="1.0" encoding="UTF-8"?>
<svg version="1.1" xmlns="http://www.w3.org/2000/svg" width="3450" height="1950">
<path d="M0 0 C1.41850719 0.0023229 1.41850719 0.0023229 2.8656711 0.00469273 C3.86231293 0.00242718 4.85895476 0.00016162 5.88579786 -0.00217259 C9.2539326 -0.00854523 12.62202743 -0.00768109 15.99016756 -0.00685817 C18.39469385 -0.00984804 20.79921966 -0.01325017 23.20374483 -0.01703578 C29.07980725 -0.02498361 34.9558602 -0.02809181 40.83192689 -0.02864816 C45.61907502 -0.0291233 50.40621985 -0.03117798 55.19336694 -0.03434879 C68.78959162 -0.04316956 82.38580839 -0.04776718 95.98203594 -0.04701831 C96.71594008 -0.04697836 97.44984422 -0.0469384 98.20598787 -0.04689723 C98.94079938 -0.04685635 99.67561089 -0.04681547 100.43268942 -0.04677335 C112.2825021 -0.04636884 124.1322827 -0.05588508 135.98208613 -0.0700356 C148.17280972 -0.08447684 160.36351778 -0.09130122 172.55425012 -0.09044182 C179.388291 -0.09011199 186.22229846 -0.09276257 193.05633157 -0.10361987 C199.50691929 -0.11340277 205.95743721 -0.11331123 212.40802759 -0.10610324 C214.75711985 -0.10506922 217.10621669 -0.10734855 219.45530123 -0.1134637 C273.16432989 -0.2440439 328.08875 9.00534645 376.49187654 33.1384055 C377.37391756 33.56669652 378.25595857 33.99498753 379.16472811 34.43625706 C406.49034869 47.75166745 430.72692868 65.02251175 452.49187654 86.1384055 C453.17636873 86.80098363 453.86086092 87.46356175 454.56609529 88.146218 C462.73324154 96.08691842 470.57052029 104.06648499 477.49187654 113.1384055 C478.40820351 114.30273542 479.32489422 115.46677914 480.24187654 116.630593 C506.45962845 150.31441318 524.13269269 189.86706881 534.49187654 231.1384055 C534.69909334 231.95003148 534.90631014 232.76165745 535.11980623 233.59787816 C539.07314677 249.27667125 541.57074607 265.09131565 543.49187654 281.1384055 C543.61192049 282.13581761 543.73196443 283.13322972 543.85564607 284.16086644 C550.8780335 345.80298557 542.91126521 410.11380988 524.49187654 469.1384055 C524.14930818 470.24699925 523.80673982 471.355593 523.45379061 472.4977805 C506.65561667 526.35213122 480.10353147 580.25081968 443.74236482 623.63645238 C441.93020952 625.81302001 440.18252785 628.03920546 438.42937654 630.2634055 C426.16369862 645.55142706 412.94621767 659.7555955 399.11687654 673.6384055 C398.28486727 674.47508763 397.45285799 675.31176976 396.59563631 676.17380589 C391.72202107 681.03474086 386.73040039 685.67449338 381.49187654 690.1384055 C380.48250283 691.01571162 379.47336923 691.89329412 378.46453279 692.771218 C349.615379 717.47693628 317.77560455 738.51931132 283.60320467 755.11155003 C282.17003379 755.80858018 280.73910764 756.51024099 279.31023592 757.21604222 C219.24194632 786.87050515 153.04207927 800.5901368 86.25530428 800.36545628 C83.84770647 800.36489019 81.44010831 800.36521257 79.0325107 800.36634129 C72.58375228 800.3669081 66.13507039 800.35526437 59.68632954 800.34119338 C53.60340744 800.32887335 47.52047844 800.32793747 41.43754596 800.32588963 C29.41096427 800.32154186 17.38441013 800.30831319 5.35784334 800.28928441 C-6.30589227 800.27084921 -17.96962031 800.25673041 -29.6333676 800.24826878 C-30.35562643 800.24774334 -31.07788527 800.24721789 -31.82203073 800.24667652 C-35.44637821 800.24406593 -39.07072574 800.24153864 -42.69507331 800.23905271 C-72.63277597 800.21841135 -102.57044645 800.18311527 -132.50812346 800.1384055 C-131.94447244 790.98557209 -130.84780336 782.01922135 -129.39456755 772.96799535 C-129.17616106 771.58369939 -128.95820852 770.19933175 -128.74066424 768.81490004 C-128.14610613 765.03960596 -127.54519202 761.26534805 -126.94317259 757.49123763 C-126.290541 753.39244192 -125.64394036 749.29269423 -124.99657923 745.19306344 C-123.86929901 738.05944295 -122.73826166 730.92642635 -121.60469061 723.79380292 C-119.9429955 713.33797118 -118.28723577 702.88120594 -116.6328396 692.42421714 C-113.89814363 675.13984283 -111.15894005 657.85618598 -108.41708952 640.5729453 C-104.54333329 616.15438449 -100.67617496 591.7347817 -96.81072237 567.31490521 C-95.4710119 558.85140719 -94.1311829 550.38792793 -92.79136 541.92444771 C-92.45817615 539.81976311 -92.12499559 537.71507798 -91.79181834 535.61039234 C-89.47266435 520.96031894 -87.15271797 506.31037124 -84.83210277 491.66052923 C-75.815711 434.74066455 -66.82210615 377.81731292 -57.87660164 320.88625771 C-56.43385371 311.70462332 -54.98978968 302.52319608 -53.54558879 293.34179014 C-49.1166751 265.1849104 -44.68967526 237.02772969 -40.26672941 208.86991185 C-40.07299602 207.63655305 -39.87926263 206.40319426 -39.67965853 205.13246095 C-39.48339796 203.8830133 -39.28713739 202.63356566 -39.08492953 201.34625596 C-34.98054253 175.21670791 -30.87348009 149.08758362 -26.7620154 122.95914811 C-24.56392885 108.98949027 -22.36837025 95.01944009 -20.17625189 81.04884446 C-18.69705754 71.62316607 -17.2149123 62.19795478 -15.73039973 52.77311254 C-14.86910924 47.30434154 -14.00921904 41.83535917 -13.15283972 36.36581677 C-12.36515202 31.33519027 -11.57373158 26.30516624 -10.77925295 21.27560788 C-10.49071622 19.44457552 -10.20359641 17.61331925 -9.91797179 15.78183037 C-9.5319093 13.30761024 -9.14088407 10.83422657 -8.74851042 8.36100072 C-8.63639111 7.63453447 -8.52427181 6.90806823 -8.40875494 6.15958786 C-7.3664346 -0.34361856 -6.55071519 0.0248186 0 0 Z M128.49187654 136.1384055 C114.0990138 225.65519572 99.90323982 315.20323972 85.07964338 408.78961664 C83.17974918 420.78434794 81.27964415 432.77904584 79.37944072 444.77372816 C79.06623793 446.75078635 78.75304556 448.72784619 78.43985552 450.7049064 C73.15562284 484.06185922 67.86094744 517.41710703 62.53987688 550.76820439 C61.65498386 556.31453284 60.77065875 561.86095173 59.88643831 567.40738744 C59.32753126 570.91294521 58.76859618 574.41849851 58.20964998 577.92405003 C58.07533217 578.76648542 57.94101436 579.60892081 57.80262631 580.47688454 C56.25251163 590.19846568 54.69986323 599.91963484 53.14303708 609.64014351 C52.20347069 615.50760903 51.2664801 621.37548187 50.33162749 627.24370027 C49.80641983 630.53976738 49.27945778 633.83552871 48.74982065 637.13088864 C48.18841131 640.62446359 47.63165816 644.11874881 47.07610506 647.61325902 C46.91286115 648.62137828 46.74961725 649.62949754 46.58142656 650.66816586 C46.43594503 651.58945594 46.2904635 652.51074601 46.14057344 653.45995396 C46.01424311 654.24936155 45.88791279 655.03876914 45.75775427 655.85209817 C45.47311805 658.29971155 45.44666231 660.67649033 45.49187654 663.1384055 C134.67683367 664.11970705 223.4199585 652.90585867 290.04290193 587.87229222 C298.58528078 579.41930024 306.3970869 570.82737843 313.49187654 561.1384055 C314.22922029 560.19610081 314.96656404 559.25379613 315.72625154 558.28293675 C354.50839353 508.430006 373.51395051 444.22034758 380.80437654 382.2634055 C380.88577883 381.57536839 380.96718111 380.88733128 381.05105013 380.17844456 C382.69058216 366.08892112 383.69343664 351.95427441 383.61687654 337.7634055 C383.61276766 336.79209691 383.60865877 335.82078831 383.60442537 334.82004613 C383.31889994 297.26577712 377.63271731 260.45377684 359.49187654 227.1384055 C358.93886873 226.09426488 358.38586092 225.05012425 357.81609529 223.974343 C336.5687256 185.53638065 297.59157324 161.50684548 256.49187654 149.1384055 C228.36342031 141.09542505 199.46845685 137.5985533 170.30437654 136.5134055 C169.23284334 136.47320287 168.16131014 136.43300023 167.05730623 136.39157933 C154.20652447 135.99080982 141.34730396 136.10430553 128.49187654 136.1384055 Z " fill="#6150A1" transform="translate(473.5081234574318,449.8615944981575)"/>
<path d="M0 0 C1.18736252 -0.01191879 1.18736252 -0.01191879 2.39871216 -0.02407837 C17.08278608 -0.13746522 31.46248585 1.50865259 45.625 5.5625 C46.71373413 5.87006226 46.71373413 5.87006226 47.82446289 6.18383789 C77.6617443 15.05074345 106.46184534 34.01213984 122.75878906 60.8684082 C124.63581816 64.17947333 124.63581816 64.17947333 127.625 66.375 C127.728125 65.10527344 127.83125 63.83554687 127.9375 62.52734375 C128.68107251 55.10078244 129.96715115 47.76063724 131.20898438 40.40454102 C131.62803738 37.91948782 132.04091599 35.43346227 132.453125 32.94726562 C132.71838778 31.36191852 132.98400003 29.77662983 133.25 28.19140625 C133.37294434 27.4508046 133.49588867 26.71020294 133.62255859 25.94715881 C134.12409008 22.99242497 134.67543687 20.22368939 135.625 17.375 C184.795 17.375 233.965 17.375 284.625 17.375 C283.99690096 25.54028757 283.29914382 33.40236492 281.99824524 41.44151306 C281.83483369 42.47806642 281.67142214 43.51461978 281.50305873 44.58258384 C280.95916772 48.02452097 280.40793721 51.46523993 279.85668945 54.90600586 C279.4608488 57.40121308 279.06546798 59.89649329 278.67050743 62.39183998 C277.81638099 67.78158631 276.95909006 73.17081412 276.09894371 78.55960274 C274.83246244 86.49425826 273.57206755 94.429872 272.31300605 102.36570784 C270.22162845 115.54666602 268.12567431 128.72689233 266.0269165 141.90667725 C263.06436564 160.51113454 260.10728403 179.11645814 257.15187532 197.7220512 C256.76502842 200.15742009 256.37817085 202.59278728 255.99130964 205.0281539 C255.863594 205.83214909 255.73587837 206.63614429 255.60429256 207.46450298 C255.34622471 209.08908856 255.08815672 210.71367412 254.83008857 212.33825965 C254.1851734 216.39812401 253.5402691 220.4579901 252.89538693 224.5178597 C251.47450646 233.46284877 250.05315173 242.40776229 248.63126089 251.35259081 C242.30598499 291.14364261 236.00187597 330.93787399 229.74370646 370.73954606 C229.03628051 375.23817313 228.32843801 379.73673461 227.6205768 384.23529321 C224.72789046 402.61897449 221.83606097 421.0027842 218.95639008 439.38850933 C217.80457899 446.74082025 216.64922107 454.09256859 215.49123889 461.44391006 C214.84191051 465.56706384 214.19409041 469.69043568 213.55123329 473.81460381 C210.909154 490.75847988 208.0992588 507.66130891 205.00927734 524.52978516 C204.86753814 525.30835522 204.72579894 526.08692529 204.5797646 526.88908839 C189.9269695 607.10889644 160.05129103 683.31116505 103.625 743.375 C102.70460938 744.35919922 102.70460938 744.35919922 101.765625 745.36328125 C96.79117225 750.51539302 91.22699931 754.92850447 85.625 759.375 C84.65820312 760.15875 83.69140625 760.9425 82.6953125 761.75 C68.78603302 772.79248142 53.71299934 781.89148295 37.625 789.375 C36.94711426 789.69919922 36.26922852 790.02339844 35.57080078 790.35742188 C-33.31730419 823.25441778 -119.91534249 825.01355176 -191.75097656 800.56640625 C-223.04281499 789.40124324 -250.84437505 772.90562495 -274.375 749.375 C-275.13039063 748.66601562 -275.88578125 747.95703125 -276.6640625 747.2265625 C-306.89802973 718.40823253 -323.416762 674.02826352 -324.46875 632.69116211 C-324.50183214 629.33684013 -324.51574992 625.9844838 -324.50537109 622.63012695 C-324.49996303 620.54826735 -324.50537535 618.46661913 -324.51171875 616.38476562 C-324.51105862 615.0416662 -324.5097788 613.6985669 -324.5078125 612.35546875 C-324.50668457 611.15817139 -324.50555664 609.96087402 -324.50439453 608.72729492 C-324.375 605.375 -324.375 605.375 -323.375 599.375 C-271.235 599.375 -219.095 599.375 -165.375 599.375 C-164.385 609.275 -164.385 609.275 -163.375 619.375 C-159.90195024 637.94245833 -153.45824926 654.29769711 -139.375 667.375 C-138.79878906 667.96796875 -138.22257812 668.5609375 -137.62890625 669.171875 C-121.90478004 684.50958601 -98.75504954 689.4679366 -77.4375 689.41015625 C-45.31333227 688.83114093 -17.63005498 679.88279045 5.9375 657.4375 C26.33924678 635.90954215 37.38419488 606.75229572 43.94824219 578.30175781 C44.62146877 575.3902714 45.32871152 572.48856182 46.0390625 569.5859375 C52.23150193 543.61764311 56.43945714 517.03769423 60.22167969 490.61865234 C60.625 488.375 60.625 488.375 61.625 486.375 C60.93921875 487.0659375 60.2534375 487.756875 59.546875 488.46875 C44.3878597 503.60650441 28.39043039 516.94158624 9.625 527.375 C8.92745605 527.77283691 8.22991211 528.17067383 7.51123047 528.58056641 C-40.78122237 556.01873014 -99.47110628 563.14532716 -153.16552734 548.62011719 C-180.86831256 540.68330962 -204.30680367 528.28012555 -225.375 508.375 C-226.21289062 507.61316406 -227.05078125 506.85132813 -227.9140625 506.06640625 C-242.84994875 491.94560523 -253.88103052 474.46461602 -263.375 456.375 C-263.75736816 455.65280273 -264.13973633 454.93060547 -264.53369141 454.18652344 C-299.60305194 386.96628375 -295.04189016 301.81954175 -273.59375 231.234375 C-258.55360453 183.74348089 -235.95940451 139.49288864 -203.95117188 101.25976562 C-202.45238093 99.4675311 -200.96780895 97.66432138 -199.484375 95.859375 C-188.38371818 82.49145511 -176.15034625 69.98814338 -162.375 59.375 C-161.28855733 58.50093956 -160.20402749 57.62449789 -159.12109375 56.74609375 C-125.49820311 29.6147513 -85.96299285 10.93057996 -43.375 3.375 C-42.47507324 3.21128906 -41.57514648 3.04757812 -40.64794922 2.87890625 C-27.14037552 0.52680491 -13.67649249 0.07173249 0 0 Z M-70.375 166.375 C-71.62023438 167.43654297 -71.62023438 167.43654297 -72.890625 168.51953125 C-89.94330175 183.40040483 -102.91126563 201.40688165 -113.375 221.375 C-114.29539062 223.07849609 -114.29539062 223.07849609 -115.234375 224.81640625 C-134.34102893 261.29658842 -141.23377032 306.67681312 -129.06738281 346.41772461 C-119.91785689 374.5695262 -103.04687865 400.1878305 -76.375 414.375 C-50.09468957 425.86706795 -20.53968745 425.95120506 6.25 416.125 C8.38768446 415.23831634 10.51238145 414.31985218 12.625 413.375 C13.22989258 413.1073584 13.83478516 412.8397168 14.45800781 412.56396484 C29.65040543 405.73856246 43.00901015 396.36400329 55.01171875 384.84765625 C57.625 382.375 57.625 382.375 60.69140625 379.87109375 C65.34159382 375.91440952 68.86114314 371.15874066 72.625 366.375 C73.44484375 365.35921875 74.2646875 364.3434375 75.109375 363.296875 C103.33963679 327.95689151 118.61127715 281.31054977 114.16015625 236.109375 C110.37581259 203.78577727 97.5148121 173.470368 72.6875 151.8125 C28.40706364 116.95343308 -31.09600381 132.27368967 -70.375 166.375 Z " fill="#AE3892" transform="translate(2543.375,711.625)"/>
<path d="M0 0 C1.10123199 0.00182281 2.20246399 0.00364563 3.33706665 0.00552368 C19.18385905 0.04969161 34.696495 0.36892652 50.3125 3.3125 C51.71580566 3.56193359 51.71580566 3.56193359 53.14746094 3.81640625 C88.52529809 10.23361554 120.63880707 23.9695181 147.3125 48.3125 C148.10785156 49.03695312 148.90320312 49.76140625 149.72265625 50.5078125 C191.69367657 90.62825873 206.70138796 150.8510964 208.42626953 207.01708984 C209.07133105 238.13015117 207.34983172 270.85682071 200.3125 301.3125 C199.3125 302.3125 199.3125 302.3125 196.99538749 302.4366985 C195.95685239 302.43631878 194.91831729 302.43593906 193.84831142 302.43554783 C192.65499909 302.43753888 191.46168675 302.43952993 190.23221344 302.44158131 C188.89100974 302.43872772 187.54980623 302.43578212 186.20860291 302.43275452 C184.79705793 302.43319009 183.38551303 302.43406475 181.97396857 302.43534368 C178.07687944 302.43759129 174.17981754 302.43356375 170.28273189 302.42856562 C166.0870729 302.4242651 161.89141557 302.42570726 157.695755 302.4264679 C150.42042105 302.42699339 143.14509603 302.42384399 135.86976433 302.41823006 C125.35073108 302.41011842 114.83170217 302.40750018 104.31266613 302.40624207 C87.24807379 302.40405102 70.18348623 302.3973895 53.11889648 302.38793945 C36.53784204 302.3787667 19.95678889 302.3716852 3.37573242 302.36743164 C2.35444266 302.36716892 1.33315289 302.36690619 0.28091495 302.36663551 C-4.84236677 302.36533051 -9.96564851 302.3640668 -15.08893025 302.36282361 C-57.62179014 302.35244934 -100.15464482 302.33482959 -142.6875 302.3125 C-143.01799908 305.81657958 -143.34375086 309.32108545 -143.66870117 312.82568359 C-143.80800678 314.30173317 -143.80800678 314.30173317 -143.95012665 315.80760193 C-144.66305174 323.53445925 -145.03851939 331.17389002 -145 338.9375 C-144.99508545 340.16041748 -144.9901709 341.38333496 -144.98510742 342.64331055 C-144.62221515 370.99915444 -137.21864003 399.92832885 -117.4375 421.125 C-101.07166252 436.52980385 -79.69069877 440.81943516 -57.86254883 440.2890625 C-30.37114712 439.04122583 -7.23917869 428.26569058 13.3125 410.3125 C13.80492187 409.88710937 14.29734375 409.46171875 14.8046875 409.0234375 C22.10638233 402.68541813 28.42947658 396.02202167 34.3125 388.3125 C35.10914063 387.27351563 35.90578125 386.23453125 36.7265625 385.1640625 C40.41110954 380.30334083 43.9631322 375.40805506 47.3125 370.3125 C55.89725056 370.85052793 64.2939748 371.80816824 72.7722168 373.24609375 C74.52588814 373.53651047 74.52588814 373.53651047 76.31498718 373.83279419 C80.13151108 374.4663211 83.94662031 375.10794954 87.76171875 375.75 C90.42861589 376.19554825 93.09576485 376.63958135 95.76289368 377.08374023 C101.3268808 378.01123552 106.89011411 378.94314449 112.45288086 379.87792969 C118.88410562 380.95861334 125.31636562 382.03295064 131.74923199 383.10381603 C137.95571064 384.13707814 144.16156793 385.17402285 150.36710548 386.21292114 C153.00285109 386.6541626 155.63878675 387.09424244 158.27487755 387.53341675 C161.94251067 388.14534663 165.60940829 388.76150067 169.27612305 389.37890625 C170.37059753 389.5607547 171.46507202 389.74260315 172.5927124 389.92996216 C174.08320351 390.18228104 174.08320351 390.18228104 175.60380554 390.43969727 C176.46999858 390.58496353 177.33619162 390.7302298 178.22863293 390.87989807 C180.3125 391.3125 180.3125 391.3125 182.3125 392.3125 C180.8974696 397.06816916 178.88311436 401.26828731 176.4375 405.5625 C176.04602783 406.25214844 175.65455566 406.94179687 175.2512207 407.65234375 C164.80949437 425.75323172 152.55210049 443.01398597 138.3125 458.3125 C137.22509634 459.57985226 136.14164406 460.85060738 135.0625 462.125 C116.56009504 483.34454135 93.66309394 501.14150842 69.31054688 515.16064453 C67.9594509 515.93953881 66.61186543 516.72454941 65.26757812 517.51513672 C-0.4671643 556.12587429 -81.50244023 564.98174179 -155.0625 546.6875 C-185.15764166 538.75498811 -212.71806797 524.56365865 -235.51953125 503.328125 C-237.58972547 501.40340389 -239.71703109 499.57502513 -241.875 497.75 C-255.34169914 485.98329605 -266.16398895 469.92394034 -274.6875 454.3125 C-275.02587891 453.69616699 -275.36425781 453.07983398 -275.71289062 452.44482422 C-292.97385997 420.57143771 -300.99767024 384.42077657 -301.6875 348.3125 C-301.71328125 347.36745605 -301.7390625 346.42241211 -301.765625 345.44873047 C-303.79689432 264.61690682 -279.07450693 180.38409526 -230.6875 115.3125 C-230.04433838 114.44189941 -230.04433838 114.44189941 -229.38818359 113.55371094 C-226.56241892 109.74559889 -223.65574997 106.01040146 -220.6875 102.3125 C-219.86894531 101.28769531 -219.05039063 100.26289062 -218.20703125 99.20703125 C-211.64469786 91.19732057 -204.42018976 83.83551087 -197.125 76.5 C-196.40082382 75.76792328 -196.40082382 75.76792328 -195.66201782 75.02105713 C-158.53076326 37.5769939 -109.98316983 13.89550556 -58.375 4.5 C-56.76878784 4.20754395 -56.76878784 4.20754395 -55.13012695 3.90917969 C-36.78113124 0.77666013 -18.58783534 -0.06395882 0 0 Z M-86.8125 141.5 C-99.51934006 156.02210293 -109.54768518 172.54764557 -117.125 190.25 C-117.6204834 191.40314697 -117.6204834 191.40314697 -118.12597656 192.57958984 C-118.43374023 193.32547363 -118.74150391 194.07135742 -119.05859375 194.83984375 C-119.32599365 195.48687256 -119.59339355 196.13390137 -119.86889648 196.80053711 C-121.09298829 200.55677945 -121.83048034 204.45591154 -122.6875 208.3125 C-58.0075 208.3125 6.6725 208.3125 73.3125 208.3125 C73.45685748 196.12403286 73.45685748 196.12403286 72.25 184.1875 C72.12133545 183.40600586 71.9926709 182.62451172 71.86010742 181.81933594 C67.72616943 158.94804683 57.11001425 132.15738328 37.3125 118.3125 C-4.92000475 91.0890962 -54.42826779 107.35124232 -86.8125 141.5 Z " fill="#7C4A9C" transform="translate(1321.6875,711.6875)"/>
<path d="M0 0 C1.38896988 0.00273422 1.38896988 0.00273422 2.80599976 0.00552368 C16.5339661 0.05101045 29.89365965 0.51318633 43.375 3.3125 C44.66011475 3.56193359 44.66011475 3.56193359 45.97119141 3.81640625 C69.5757771 8.47265329 90.2368496 17.2595228 108.375 33.3125 C109.05949219 33.91320312 109.74398437 34.51390625 110.44921875 35.1328125 C137.04449124 60.05576563 148.81314901 99.40010336 150.49801636 134.90478516 C150.67577057 140.593956 150.70329482 146.28105485 150.69067383 151.97265625 C150.68755533 154.88581343 150.71092666 157.79790786 150.73632812 160.7109375 C150.83452486 189.54586968 146.45749561 217.88418418 141.86687255 246.26865458 C141.10055905 251.02064196 140.3454995 255.7744206 139.58894348 260.52796936 C138.25167293 268.92091989 136.90749612 277.31274165 135.55914307 285.70391846 C133.45862585 298.77779777 131.37290728 311.85401672 129.28926253 324.93059421 C125.34326081 349.6930223 121.38332688 374.45320545 117.41467094 399.21201134 C117.0957714 401.20151095 116.77687254 403.19101066 116.45797633 405.1805108 C116.24490086 406.50982046 116.0318213 407.83912945 115.81873764 409.16843779 C114.07185747 420.06660184 112.32815343 430.96527176 110.58565017 441.86413639 C108.76723361 453.23754661 106.94630457 464.61055181 105.1229561 475.98317248 C104.11048366 482.29850262 103.09905195 488.61399505 102.09026146 494.92991447 C101.15481897 500.78616061 100.21627715 506.64190132 99.2752552 512.49725342 C98.93102769 514.6426166 98.58794167 516.78816328 98.2460556 518.93390083 C97.78163591 521.84758067 97.31319162 524.7605847 96.84367371 527.67344666 C96.70828019 528.52906706 96.57288667 529.38468747 96.43339032 530.26623577 C95.48913992 536.08422017 95.48913992 536.08422017 94.375 538.3125 C45.205 538.3125 -3.965 538.3125 -54.625 538.3125 C-53.95597948 530.95327426 -53.17080864 523.77625386 -52.00205994 516.50265503 C-51.83942439 515.47174999 -51.67678885 514.44084496 -51.50922495 513.37870038 C-50.96780701 509.95227616 -50.42127544 506.52668811 -49.87475586 503.10107422 C-49.48332878 500.63044274 -49.09223456 498.15975852 -48.70144653 495.68902588 C-47.85991083 490.37260972 -47.01624455 485.05653833 -46.1707592 479.74074936 C-44.93861227 471.99330399 -43.71149344 464.24506818 -42.48571212 456.4966134 C-40.48353126 443.8406209 -38.47886626 431.18502343 -36.47192383 418.52978516 C-36.35197261 417.77339753 -36.23202139 417.0170099 -36.10843528 416.23770143 C-34.78015696 407.86216271 -33.45136774 399.48670516 -32.12207031 391.11132812 C-31.64492853 388.104982 -31.16779572 385.09863444 -30.69067383 382.09228516 C-30.51415252 380.98003379 -30.51415252 380.98003379 -30.33406513 379.8453127 C-28.34152561 367.28969806 -26.35303006 354.73344625 -24.36738878 342.17673886 C-23.25901371 335.16862709 -22.14875508 328.16082523 -21.03330803 321.1538353 C-16.50668201 292.71385618 -12.10244152 264.26240624 -8.08032227 235.74658203 C-7.90944906 234.54232818 -7.73857586 233.33807434 -7.56252468 232.09732795 C-0.85586212 185.70024829 -0.85586212 185.70024829 -15.625 142.3125 C-17.22326609 140.2385098 -18.9034502 138.28721889 -20.625 136.3125 C-20.625 135.6525 -20.625 134.9925 -20.625 134.3125 C-21.1921875 134.04179688 -21.759375 133.77109375 -22.34375 133.4921875 C-24.70835112 132.2693972 -26.88675292 130.87743896 -29.125 129.4375 C-47.56266078 118.41790682 -72.41628343 117.94763357 -92.93896484 122.8671875 C-117.89341525 129.66579329 -136.76009105 146.06150925 -149.72412109 168.18847656 C-155.72402871 179.07019137 -160.31535771 190.67901044 -164.625 202.3125 C-165.03081299 203.39845459 -165.03081299 203.39845459 -165.44482422 204.50634766 C-169.27719213 214.99250336 -171.70201785 225.76932822 -173.9362793 236.68896484 C-174.08735748 237.42385911 -174.23843566 238.15875337 -174.39409196 238.91591716 C-177.80889806 255.60379739 -180.55675865 272.3816508 -183.19556594 289.20678687 C-183.86535883 293.46555396 -184.54450832 297.72283096 -185.2224884 301.9803009 C-186.37568061 309.22926043 -187.52357125 316.47904132 -188.6675415 323.72946167 C-190.452198 335.03979301 -192.24846725 346.34826467 -194.04638672 357.65649414 C-194.65084448 361.45922985 -195.25520007 365.26198178 -195.85949707 369.06474304 C-196.00888426 370.00480408 -196.15827145 370.94486513 -196.31218553 371.91341287 C-197.81057845 381.34404881 -199.30545178 390.77524199 -200.80039167 400.20642579 C-205.20339675 427.98212389 -209.63517069 455.75316097 -214.09091187 483.52044678 C-215.04996221 489.49861917 -216.00510105 495.47740916 -216.95913601 501.45638371 C-217.6556827 505.81764751 -218.35495793 510.17847024 -219.05508995 514.53915977 C-219.37368762 516.52684408 -219.69118236 518.51470553 -220.00748634 520.50275612 C-220.4311483 523.16436419 -220.85881642 525.82529661 -221.28759766 528.48608398 C-221.40996198 529.2610705 -221.5323263 530.03605701 -221.65839863 530.83452797 C-222.51081523 536.08413045 -222.51081523 536.08413045 -223.625 538.3125 C-272.795 538.3125 -321.965 538.3125 -372.625 538.3125 C-372.01920746 531.64878209 -371.39283325 525.1612309 -370.32887268 518.58415222 C-370.20095943 517.77454991 -370.07304617 516.96494759 -369.94125676 516.13081187 C-369.51580116 513.44366247 -369.08517853 510.75736835 -368.65454102 508.07104492 C-368.34401763 506.11674196 -368.03381705 504.16238768 -367.72391033 502.20798683 C-366.87547416 496.86332057 -366.02251578 491.51938456 -365.16880703 486.17555833 C-364.25071293 480.42350968 -363.33687767 474.67078434 -362.42254639 468.9181366 C-360.8428371 458.98279212 -359.26052153 449.04786563 -357.67642212 439.11322021 C-355.3847882 424.74111976 -353.09723389 410.36837198 -350.81086385 395.99543333 C-349.74975384 389.32493659 -348.68846173 382.65446882 -347.62712097 375.98400879 C-347.52124251 375.31856366 -347.41536406 374.65311854 -347.30627716 373.96750841 C-345.68155709 363.75633734 -344.05598681 353.54530184 -342.42988586 343.33435059 C-342.32164516 342.65465825 -342.21340446 341.97496591 -342.10188373 341.27467683 C-341.66456141 338.52853644 -341.22723668 335.78239643 -340.78991106 333.03625657 C-335.50367424 299.84173763 -330.22603874 266.64585696 -324.953125 233.44921875 C-324.76055579 232.23688529 -324.56798658 231.02455183 -324.36958194 229.77548099 C-322.65678406 218.99242114 -320.94405894 208.20934973 -319.23146725 197.42625713 C-316.72793839 181.66322187 -314.22372778 165.90029504 -311.71899414 150.13745117 C-311.37628217 147.9806592 -311.03357041 145.82386719 -310.69085884 143.66707516 C-309.28585427 134.82498679 -307.88083321 125.98290104 -306.47571707 117.1408304 C-301.18807657 83.86536501 -295.90696322 50.58886829 -290.625 17.3125 C-241.125 17.3125 -191.625 17.3125 -140.625 17.3125 C-144.05625 42.475 -144.05625 42.475 -145.70507812 52.92578125 C-145.82689453 53.71597656 -145.94871094 54.50617187 -146.07421875 55.3203125 C-146.18080811 55.99723145 -146.28739746 56.67415039 -146.3972168 57.37158203 C-146.7027057 59.64891615 -146.7027057 59.64891615 -146.625 63.3125 C-146.05338135 62.67973145 -146.05338135 62.67973145 -145.47021484 62.03417969 C-116.20706856 29.80712345 -80.10515155 9.07831784 -36.625 2.3125 C-34.94398193 2.0486853 -34.94398193 2.0486853 -33.22900391 1.77954102 C-22.13965586 0.20921336 -11.18870478 -0.04574082 0 0 Z " fill="#C5278D" transform="translate(3223.625,711.6875)"/>
<path d="M0 0 C0.64404785 0.22123535 1.2880957 0.4424707 1.95166016 0.67041016 C12.4051005 4.28215397 22.27657645 8.73526358 32 14 C32.63824707 14.34401855 33.27649414 14.68803711 33.93408203 15.04248047 C45.14708782 21.17973421 55.10115988 28.78782043 64 38 C62.75214512 42.5754679 60.2276278 44.95839414 56.91015625 48.1328125 C55.0860203 49.91591471 53.41377612 51.75511424 51.75 53.6875 C48.73283281 57.18714213 45.63120277 60.60257089 42.5 64 C39.46095466 67.30013347 36.43843541 70.6094976 33.5 74 C30.09255081 77.93167214 26.56870327 81.75361244 23.04467773 85.58032227 C20.51259884 88.33473428 18.00964732 91.10742499 15.5625 93.9375 C12.45035362 97.52959184 9.23116661 101.01540855 6 104.5 C-0.18991098 111.17899037 -6.20436497 117.97498784 -12 125 C-16.3894995 124.57852581 -18.50860083 121.62292212 -21.3125 118.5625 C-35.56821343 103.69646384 -57.16369065 91.25338389 -78.09765625 90.76171875 C-93.48383969 90.40890916 -93.48383969 90.40890916 -108 95 C-108.92554688 95.42410156 -109.85109375 95.84820313 -110.8046875 96.28515625 C-123.8997095 102.79639295 -133.9590152 113.24715941 -139 127 C-141.69078541 135.35937335 -140.99373751 145.99883266 -137.25 153.86328125 C-130.92077281 164.68230398 -119.71672578 170.47978722 -108.875 176.0625 C-107.27676392 176.88995728 -107.27676392 176.88995728 -105.64624023 177.73413086 C-93.63630026 183.8470776 -81.27167655 189.11709216 -68.89875793 194.44145203 C-28.22769437 211.98617998 14.95074887 232.8173267 32.6875 276.33984375 C49.02506688 321.90026091 38.8345911 374.83332679 19.13037109 417.63476562 C-5.96632262 470.1481066 -56.57273486 507.6080168 -110.35791016 526.84326172 C-128.27366341 533.09698052 -147.07598821 537.39795629 -166 539 C-167.01602295 539.08612549 -168.0320459 539.17225098 -169.07885742 539.26098633 C-226.18746002 543.73548299 -284.24292583 531.29622355 -328.69970703 493.55712891 C-332.23094435 490.47169563 -335.6266404 487.25770156 -339 484 C-339.86109375 483.19046875 -340.7221875 482.3809375 -341.609375 481.546875 C-350.2145353 473.2624039 -357.18062021 463.77444437 -364 454 C-362.54604538 450.72306675 -360.7318044 448.38588974 -358.3125 445.75 C-357.51199219 444.87601563 -356.71148438 444.00203125 -355.88671875 443.1015625 C-351.82626296 438.72787567 -347.74190358 434.37640588 -343.65380859 430.02856445 C-338.99624619 425.07372321 -334.39055042 420.07600328 -329.8046875 415.0546875 C-325.9880608 410.88634862 -322.12158193 406.76449232 -318.26147461 402.63647461 C-314.00773917 398.08549438 -309.77525669 393.51564435 -305.55688477 388.93188477 C-302.81176261 385.95223857 -300.05351547 382.98567665 -297.28125 380.03125 C-296.33765625 379.02481445 -296.33765625 379.02481445 -295.375 377.99804688 C-294.15782469 376.70099444 -292.93916003 375.40533744 -291.71875 374.11132812 C-288.65671111 370.84727973 -285.73984541 367.54568229 -283 364 C-279.2097098 365.50933256 -277.41322011 367.68201518 -274.9375 370.875 C-267.70850603 379.93502205 -260.1050847 388.76949156 -251 396 C-250.1946582 396.6492041 -250.1946582 396.6492041 -249.37304688 397.31152344 C-227.92707219 414.47977162 -204.13717132 425.28440771 -176.109375 423.79296875 C-156.8406286 421.63632036 -140.33838741 413.22468967 -127.7734375 398.3671875 C-117.45088053 384.79708452 -112.4287366 369.06865585 -114 352 C-117.51956682 337.97644101 -125.99615986 329.71717822 -138.125 322.4375 C-155.13807652 312.54105591 -173.34686122 303.97846114 -191.70410156 296.91650391 C-223.25502298 284.64670113 -261.22965626 265.17199487 -278 234 C-278.68449219 232.78957031 -278.68449219 232.78957031 -279.3828125 231.5546875 C-296.62846876 199.43852525 -291.14605363 157.54476007 -281.28125 124.02734375 C-271.79100372 93.31657825 -256.15256939 67.1431898 -234 44 C-233.47954102 43.44699219 -232.95908203 42.89398437 -232.42285156 42.32421875 C-219.8970782 29.05723106 -205.87431513 18.01861942 -190 9 C-188.87851563 8.34644531 -187.75703125 7.69289063 -186.6015625 7.01953125 C-170.58926288 -2.08066763 -152.964411 -8.12554396 -135 -12 C-133.91501221 -12.24556641 -133.91501221 -12.24556641 -132.80810547 -12.49609375 C-90.25995285 -21.69158643 -40.48843596 -14.22566669 0 0 Z " fill="#904598" transform="translate(1896,727)"/>
<path d="M0 0 C49.17 0 98.34 0 149 0 C148.41152455 7.06170535 147.83342195 13.89399142 146.70387268 20.84860229 C146.57595943 21.65905921 146.44804617 22.46951613 146.31625676 23.30453235 C145.89153177 25.98869756 145.46055152 28.67181799 145.02954102 31.35498047 C144.71895094 33.30941748 144.40875257 35.26391677 144.09891033 37.21847248 C143.25116652 42.55905837 142.39794375 47.89875633 141.54380703 53.23832297 C140.62513495 58.98765437 139.71164313 64.73780898 138.79754639 70.48786926 C137.21833752 80.41736357 135.63597044 90.34635031 134.05142212 100.2749939 C131.75921892 114.63790503 129.47182536 129.00157888 127.18586385 143.3654846 C126.12476793 150.03290072 125.06346938 156.70028459 124.00212097 163.36766052 C123.89624251 164.03279626 123.79036406 164.697932 123.68127716 165.38322336 C122.05669645 175.58875797 120.43108625 185.79412827 118.80488586 195.99940491 C113.16381739 231.40075064 107.53313074 266.80372737 101.91323972 302.20844269 C101.13690004 307.09920465 100.36046576 311.98995159 99.58403093 316.88069844 C97.88810905 327.56329309 96.19229597 338.24590501 94.49655151 348.92852783 C94.31489293 350.07291171 94.13323435 351.21729559 93.94607097 352.39635777 C93.04330608 358.08349397 92.14057526 363.77063557 91.23790359 369.45778656 C89.34491774 381.38409429 87.45147043 393.31032847 85.55682027 405.23637193 C84.65420982 410.91804166 83.75201506 416.59977687 82.85071707 422.28165495 C77.62594289 455.19745269 72.30691994 488.09709636 67 521 C17.5 521 -32 521 -83 521 C-76.10430708 475.02871383 -76.10430708 475.02871383 -73.32592773 457.66625977 C-72.99994875 455.62002846 -72.67413386 453.573771 -72.34846306 451.52749062 C-71.65652315 447.18204374 -70.9634724 442.83677623 -70.26946449 438.49165916 C-69.14027354 431.42184564 -68.0137801 424.35160355 -66.88749695 417.28132629 C-65.25547029 407.03793985 -63.62224024 396.79474595 -61.98809814 386.55169678 C-57.96724235 361.34829991 -53.95122447 336.14413184 -49.93516693 310.93997002 C-49.14752239 305.99689473 -48.35976455 301.05383751 -47.57196808 296.11078644 C-41.10367235 255.52464677 -34.65301474 214.93573836 -28.21828006 174.34426447 C-27.13136568 167.48790295 -26.04411763 160.63159436 -24.95684818 153.77528914 C-23.99990337 147.74074525 -23.0430389 141.70618863 -22.08618164 135.67163086 C-21.93033081 134.68874308 -21.93033081 134.68874308 -21.77133147 133.68599899 C-19.19785189 117.45597816 -16.62603838 101.22569502 -14.05679876 84.99500245 C-12.51749862 75.27155992 -10.9764261 65.54839935 -9.43397635 55.82545596 C-8.37368961 49.1412628 -7.31553179 42.45673756 -6.25906307 35.77193993 C-5.62020458 31.73301285 -4.97923898 27.69442243 -4.33762467 23.65593231 C-4.04315822 21.79973724 -3.74957093 19.94340246 -3.45692241 18.0869199 C-3.0611165 15.57680467 -2.66220838 13.06720212 -2.26248169 10.55770874 C-2.14803764 9.8270104 -2.03359359 9.09631206 -1.91568154 8.34347135 C-1.4525529 5.45388382 -0.92767212 2.78301636 0 0 Z " fill="#9E4095" transform="translate(2077,729)"/>
<path d="M0 0 C49.5 0 99 0 150 0 C138.42075951 74.10713913 138.42075951 74.10713913 133.77242088 103.3054409 C132.82902136 109.23280774 131.88693588 115.16038315 130.94490051 121.08796692 C129.39559653 130.83574415 127.84546211 140.58338911 126.29498702 150.33098012 C123.13996047 170.16636294 119.98672047 190.00202989 116.83333206 209.83767319 C116.05404179 214.73958999 115.27469791 219.64149826 114.49531174 224.54339981 C108.84476101 260.08263089 103.20278558 295.62321339 97.56736332 331.16484576 C96.05862107 340.68017237 94.54953157 350.19544386 93.04020691 359.7106781 C92.82720607 361.05351476 92.61420535 362.39635144 92.40120476 363.73918813 C91.55564224 369.06991216 90.71007115 374.40063482 89.86446083 379.73135126 C87.37910289 395.39907466 84.89495382 411.06698881 82.4126839 426.73520178 C80.85480704 436.56790543 79.29547687 446.40037793 77.73502785 456.2326737 C76.83186481 461.92379238 75.92938671 467.61501756 75.02869606 473.30652809 C74.20154054 478.53332674 73.3725292 483.75982755 72.54205763 488.98610032 C72.24181712 490.87768664 71.94225914 492.76938145 71.64345777 494.66119564 C71.23630174 497.23840006 70.82664228 499.81519494 70.41638184 502.39190674 C70.30143932 503.12336531 70.18649681 503.85482387 70.06807119 504.60844785 C69.18739685 510.11418531 68.09602418 515.5198791 67 521 C17.83 521 -31.34 521 -82 521 C-80.85139227 506.06809953 -80.85139227 506.06809953 -79.68609619 498.93121338 C-79.49128107 497.69763488 -79.49128107 497.69763488 -79.2925303 496.43913561 C-78.86172715 493.71935721 -78.42356089 491.00082068 -77.98535156 488.28222656 C-77.66965348 486.29902511 -77.35441861 484.31574987 -77.03960419 482.33240795 C-76.1778638 476.91181973 -75.30967694 471.49228116 -74.44043255 466.07289195 C-73.5034753 460.22377725 -72.57267753 454.37368219 -71.64117432 448.5236969 C-70.02880119 438.40285443 -68.41275996 428.28260338 -66.79418945 418.16275024 C-64.34300976 402.83711163 -61.89816786 387.51046628 -59.45486307 372.18357046 C-58.58436671 366.72302139 -57.71374962 361.26249156 -56.84312868 355.80196235 C-56.62350044 354.42445158 -56.40387529 353.04694031 -56.18425322 351.66942855 C-54.62328673 341.87883398 -53.06143283 332.08838131 -51.49894953 322.2980287 C-45.34616571 283.74485811 -39.21332234 245.18856173 -33.09757519 206.62949896 C-32.45578682 202.5831187 -31.81390537 198.53675322 -31.1720047 194.49039078 C-27.4800809 171.21737087 -23.78894282 147.94422641 -20.09973145 124.67077637 C-18.38302138 113.84098843 -16.66528582 103.01136365 -14.94639325 92.1819219 C-13.90876719 85.64431804 -12.87228806 79.10653401 -11.83684039 72.5685848 C-11.19927375 68.54489531 -10.56049328 64.52139914 -9.92140532 60.49795103 C-9.63592068 58.69922194 -9.35088177 56.900422 -9.06642199 55.10153055 C-6.15833308 36.71465983 -3.06055733 18.36334396 0 0 Z " fill="#4754A4" transform="translate(158,729)"/>
<path d="M0 0 C20.6520737 -0.58405186 40.28345852 4.9652516 55.57592773 19.36694336 C70.77788682 34.28426598 78.0668364 53.10909608 78.328125 74.27734375 C78.16281111 102.39850798 67.40310771 127.07835075 47.890625 147.15234375 C26.2166986 168.22459649 -0.68085473 177.71188388 -30.54296875 177.3671875 C-50.00201804 176.83573594 -66.73304847 169.15760436 -80.859375 155.96484375 C-94.92745078 141.0692341 -101.72599836 122.03180179 -101.2890625 101.6171875 C-99.69852065 70.94739138 -86.2836614 46.44425456 -63.91503906 25.75537109 C-45.91854165 9.77849143 -23.9482388 1.17334336 0 0 Z " fill="#A13F95" transform="translate(2197.109375,421.84765625)"/>
<path d="M0 0 C13.810995 12.82449536 21.84685703 30.57256994 22.66015625 49.3046875 C23.37307862 80.40033795 13.35190103 106.15198029 -7.8125 128.875 C-29.71410852 149.80233768 -56.02240951 158.79385931 -85.9296875 158.46484375 C-104.93029339 157.96742951 -122.25446913 150.04538339 -136.01171875 137.0859375 C-150.72371795 121.49336609 -156.86599478 102.42511766 -156.6875 81.25 C-155.82676368 53.21825899 -141.97859201 28.17772945 -121.9375 9.1640625 C-88.53899712 -21.35596306 -36.41099475 -30.48797334 0 0 Z " fill="#4C53A4" transform="translate(333.6875,440.75)"/>
</svg>
