<?xml version="1.0" encoding="UTF-8"?><svg id="Layer_2" xmlns="http://www.w3.org/2000/svg" viewBox="0 0 262.02 246.16"><defs><style>.cls-1{fill:#fff0ec;stroke-width:0px;}.cls-2{fill:none;stroke:#e21e80;stroke-width:8px;}</style></defs><g id="Layer_1-2"><path class="cls-1" d="m111.93,4.5c8.43-1.72,33.27-.18,48.59,5.6,24.47,9.24,48.04,17.2,53.09,34.75,5.31,18.45,53.7,77.89,37.81,109.49-15.13,30.09-51.46,71.68-60.57,74.62-30.9,9.96-60.12,13.4-69.95,9.2-8.76-3.74-49.5-8.85-61.56-22.5-6.85-7.75-47.71-32.72-47.46-65.4.03-4.51-2.14-57.55,15.3-80.33,10.79-14.1,13.13-31.96,19.64-35.44,9.34-5,21.69-21.53,29.23-23.99,3.87-1.26,27.95-4.38,35.88-6Z"/><path class="cls-2" d="m234.01,73.12c1.14,2.15,2.29,4.31,3.45,6.47,10.31,19.24,20.81,38.85,20.55,58.53-.15,21.74-13.54,43.57-30,62m6-127c-1.04-1.93-2.06-3.87-3.08-5.79-10.2-19.23-19.82-37.39-34.92-47.21m38,53l-3.54,1.87s0,0,0,0m3.53-1.88l-3.53,1.89s0,0,0,0m-34.47-54.88c-15.31-9.87-35.6-11.59-57.72-13.46-2.08-.18-4.17-.35-6.28-.54m64,14l-2.18,3.35s0,0,0,0m2.17-3.36l-2.17,3.36s0,0,0,0m-61.83-17.36c-1.96-.16-3.92-.33-5.88-.5-22.69-1.94-45.64-3.91-62.12,5.5-17.82,10.17-28.5,34.29-38.85,57.66l-.15.34c-.67,1.48-1.34,2.96-2.01,4.43C13.13,95.28,3.61,116.27,4.01,138.12c.29,23.33,12.53,47.3,30,64,17.47,16.7,40.03,26.38,64,33M132.01,6.12l-.35,3.98s0,0,.01,0m.34-3.99l-.33,3.99s0,0-.01,0m-33.66,225.01c23.97,6.48,48.62,9.9,71,4,22.38-5.76,42.4-20.57,59-39m-130,35l1.07-3.86s0,0-.01,0m-1.05,3.86l1.04-3.86s0,0,0,0m128.95-31.14l-2.97-2.68s0,0,0,0m2.98,2.67l-2.98-2.66s0,0,0,0m0,0c-16.29,18.08-35.66,32.3-57.02,37.8h-.01s-.01,0-.01,0c-21.36,5.63-45.19,2.43-68.93-3.99m125.97-33.81c16.29-18.24,28.84-39.12,28.98-59.36h0v-.03c.13-10.15-2.82-20.48-7.35-31.09-3.62-8.48-8.12-16.89-12.68-25.41-1.17-2.18-2.34-4.37-3.5-6.56M131.67,10.1c2.14.19,4.25.37,6.34.54,10.02.85,19.45,1.65,28.24,3.17,10.58,1.83,19.85,4.67,27.59,9.66m0,0c7.63,4.97,13.91,12.36,19.77,21.38,4.8,7.4,9.18,15.64,13.76,24.29,1.02,1.93,2.06,3.88,3.11,5.85M99.07,231.26c-23.67-6.54-45.5-15.98-62.29-32.03-16.86-16.12-28.49-39.11-28.76-61.16h0s0-.02,0-.02c-.39-20.9,8.77-41.09,18.75-63.09.63-1.39,1.26-2.79,1.9-4.19h0s0-.03,0-.03l.09-.21c5.19-11.72,10.34-23.34,16.36-33.31,6.06-10.04,12.78-18.01,20.88-22.63,8.11-4.63,18.19-6.35,29.6-6.56,9.6-.18,19.77.69,30.14,1.57,1.97.17,3.95.34,5.94.5"/></g></svg>