<?xml version="1.0" encoding="UTF-8" standalone="no"?>
<!DOCTYPE svg PUBLIC "-//W3C//DTD SVG 1.1//EN" "http://www.w3.org/Graphics/SVG/1.1/DTD/svg11.dtd">
<svg width="100%" height="100%" viewBox="0 0 412 512" version="1.1" xmlns="http://www.w3.org/2000/svg" xmlns:xlink="http://www.w3.org/1999/xlink" xml:space="preserve" xmlns:serif="http://www.serif.com/" style="fill-rule:evenodd;clip-rule:evenodd;stroke-linejoin:round;stroke-miterlimit:2;">
    <path d="M387.013,286.658C379.648,274.024 370.916,262.089 362.451,250.007C353.372,237.032 344.263,224.159 341.856,208.712C339.681,194.888 342.098,181.053 345.135,167.433C348.348,153.091 352.04,138.833 352.999,124.24C353.592,115.068 353.025,105.806 352.292,96.653C351.516,87.263 350.264,77.891 348.235,68.619C344.584,51.825 338.097,32.083 321.24,21.962C318.141,20.112 314.722,18.783 311.186,17.935C299.449,10.029 285.458,5.34 270.105,4.955C248.863,4.428 227.988,11.537 209.565,20.455C188.103,30.819 168.67,44.334 150.636,58.848C133.195,72.863 116.956,88.055 101.94,104.083C88.588,118.312 76.353,133.279 66.033,149.361C51.546,171.932 40.285,196.146 31.733,220.899C14.044,271.993 7.004,327.533 18.382,380.072C23.697,404.622 33.451,428.76 49.097,449.64C62.304,467.283 80.977,481.243 102.621,490.292C147.741,509.133 201.19,507.956 249.174,498.356C273.538,493.49 297.326,486.096 319.796,476.306C342.233,466.55 364.877,454.236 380.3,436.457C397.352,416.846 403.217,392.946 404.856,368.804C405.825,354.482 406.01,340.123 403.042,325.99C400.122,312.229 394.268,299.093 387.013,286.658Z" style="fill:rgb(30,48,243);fill-rule:nonzero;"/>
</svg>
