<?xml version="1.0" encoding="UTF-8" standalone="no"?>
<!DOCTYPE svg PUBLIC "-//W3C//DTD SVG 1.1//EN" "http://www.w3.org/Graphics/SVG/1.1/DTD/svg11.dtd">
<svg width="100%" height="100%" viewBox="0 0 65 104" version="1.1" xmlns="http://www.w3.org/2000/svg" xmlns:xlink="http://www.w3.org/1999/xlink" xml:space="preserve" xmlns:serif="http://www.serif.com/" style="fill-rule:evenodd;clip-rule:evenodd;stroke-linejoin:round;stroke-miterlimit:2;">
    <path d="M49.656,30.835C52.642,31.072 55.392,31.309 58.141,31.546C58.757,31.593 59.373,31.688 59.894,31.926C60.937,32.352 61.459,33.205 61.554,34.39C61.648,35.954 61.364,37.423 60.794,38.845C60.145,40.537 59.417,42.198 58.614,43.822C56.668,47.808 54.533,51.699 52.216,55.482C47.618,62.876 43.068,70.223 38.612,77.712C36.479,81.267 34.726,85.012 32.735,88.614C30.745,92.264 28.659,95.913 26.668,99.563C25.578,101.601 23.729,102.596 21.691,103.212C19.321,103.923 16.857,102.501 16.098,100.131C15.529,98.331 15.482,96.481 16.193,94.775C17.473,91.695 18.943,88.708 20.411,85.722C20.885,84.774 21.644,84.016 22.591,83.447C24.014,82.594 24.772,82.878 25.151,84.443C25.199,84.585 25.199,84.727 25.294,85.106C25.625,84.632 25.862,84.348 26.052,84.016C29.23,78.885 32.126,73.584 34.726,68.137C38.802,59.606 43.352,51.358 47.903,43.064C48.566,41.831 49.372,40.694 50.083,39.462C50.273,39.13 50.463,38.845 50.699,38.419C49.04,38.324 47.523,38.229 46.054,38.134C45.627,38.087 45.39,38.324 45.154,38.704L43.447,41.404C42.262,43.396 40.508,44.296 38.186,44.106C37.522,44.059 36.811,44.059 36.148,43.87C34.347,43.443 33.446,41.831 33.92,40.03C34.062,39.509 34.3,39.035 34.536,38.56C39.039,30.503 43.495,22.493 48.045,14.482C49.372,12.16 50.889,9.932 52.311,7.61C52.501,7.278 52.69,6.994 52.927,6.567C52.263,6.52 51.789,6.52 51.267,6.425C50.083,6.235 49.467,5.572 49.324,4.529C49.23,3.723 49.514,3.202 50.273,2.869C50.746,2.68 51.078,2.349 51.457,2.064C51.884,1.732 52.5,1.401 53.069,1.401C55.344,1.258 57.524,1.164 59.752,1.164C60.558,1.164 61.412,1.306 62.217,1.495C63.876,1.875 64.634,3.107 64.16,4.718C63.919,5.596 63.535,6.429 63.023,7.183C61.174,9.743 59.563,12.492 58.141,15.383C55.731,20.244 53.122,25.004 50.32,29.65C50.13,29.982 49.94,30.314 49.656,30.835Z" style="fill:rgb(26,26,26);fill-rule:nonzero;"/>
    <path d="M14.534,50.648C13.112,50.743 11.785,50.838 10.411,50.885C8.278,51.027 6.097,51.169 3.964,51.265C3.49,51.312 3.064,51.312 2.59,51.265C0.741,51.075 -0.302,49.605 0.078,47.805C0.125,47.615 0.172,47.425 0.268,47.283C2.4,41.69 3.916,35.955 5.337,30.172C6.949,23.773 8.608,17.374 10.267,11.022C10.599,9.791 10.978,8.558 11.31,7.326C11.784,5.666 12.732,4.576 14.533,4.387C16.429,4.197 18.278,3.866 20.173,3.724C28.705,3.202 37.237,2.254 45.721,1.259C47.854,1.022 50.034,0.832 52.168,0.69C52.926,0.643 53.684,0.69 54.395,0.88C56.196,1.306 56.955,3.013 56.244,4.672C56.007,5.192 55.675,5.667 55.344,6.141C54.49,7.468 53.637,8.748 52.831,10.075C50.651,13.772 48.518,17.469 46.291,21.119C44.062,24.769 41.787,28.419 39.512,32.068C38.849,33.111 38.185,34.106 37.522,35.101C37.332,35.386 37.142,35.718 36.858,36.191L37.901,36.191C41.835,36.239 45.769,36.239 49.703,36.286C49.987,36.286 50.319,36.334 50.603,36.381C52.405,36.761 53.305,38.419 52.641,40.126C52.405,40.742 51.978,41.31 51.551,41.832C49.608,44.392 47.617,46.904 45.721,49.51C44.821,50.743 44.015,52.117 43.304,53.492C39.464,60.792 35.673,68.043 31.928,75.39C28.042,82.926 24.25,90.558 20.411,98.094C20.126,98.663 19.794,99.231 19.321,99.705C18.183,100.89 16.666,100.796 15.481,99.705C14.628,98.9 14.154,97.952 14.107,96.815C13.964,94.681 13.775,92.501 13.822,90.32C13.964,82.547 14.249,74.774 14.391,67C14.486,61.74 14.486,56.478 14.533,51.217C14.628,51.075 14.58,50.885 14.533,50.648L14.534,50.648Z" style="fill:rgb(226,30,128);fill-rule:nonzero;"/>
</svg>
