<svg xmlns="http://www.w3.org/2000/svg" version="1.1" xmlns:xlink="http://www.w3.org/1999/xlink" xmlns:svgjs="http://svgjs.dev/svgjs" viewBox="0 0 800 800"><defs><linearGradient x1="50%" y1="0%" x2="50%" y2="100%" id="ccchaos-grad"><stop stop-color="hsl(235, 89%, 53%)" stop-opacity="1" offset="0%"></stop><stop stop-color="rgb(227, 29, 128)" stop-opacity="1" offset="100%"></stop></linearGradient></defs><g stroke-width="1" stroke="url(#ccchaos-grad)" fill="none" stroke-linecap="round"><path d="M374.4 74.84C384.51 76.54 394.58 80.4 404.6 85.87 414.65 91.89 424.68 98.24 434.71 104.26 444.81 109.03 454.97 112.69 465.22 115.14 475.62 115.99 486.18 116.03 496.93 115.7 507.92 114.92 519.18 114.76 530.71 115.64 542.52 117.43 554.64 120.88 567.02 126.04 579.63 132.55 592.43 140.62 605.31 149.98 618.19 160.15 630.94 171.02 643.36 182.26 655.4 193.45 666.76 204.49 677.19 215.2 686.75 225.29 695 234.89 701.7 243.99 707.12 252.36 710.74 260.36 712.46 268.11 712.83 275.3 711.37 282.47 708.18 289.74 704.13 296.71 698.84 303.96 692.65 311.59 686.61 319.09 680.46 327.06 674.65 335.54 670.18 343.97 666.82 352.94 664.89 362.47 665.12 371.97 667.1 382.05 670.83 392.7 676.62 403.35 683.56 414.36 691.21 425.7 699.75 437.09 708.05 448.85 715.62 460.97 722.69 473.15 728.21 485.71 731.89 498.57 734.11 511.44 734.12 524.51 731.91 537.63 728.02 550.5 722.04 563.13 714.21 575.22 705.08 586.58 694.55 596.95 682.95 605.95 670.72 613.7 657.93 619.69 644.86 623.72 631.82 626.38 618.88 627.19 606.2 626.36 593.97 625.04 582.16 623.04 570.85 621.04 560.11 620.42 549.83 621.22 539.99 624.17 530.67 630.11 521.66 638.85 512.87 650.35 504.46 664.3 496.12 679.73 487.78 695.51 479.66 710.5 471.4 723.21 462.97 732.3 454.62 737.28 446 737.3 437.09 732.4 428.2 723.98 418.97 712.67 409.4 700.15 399.82 689.03 389.9 680.39 379.66 675.7 369.42 676.31 359.11 681.52 348.8 690.3 338.52 701.85 328.27 713.69 318.11 723.98 308.01 731.83 298.05 735.39 288.28 734.13 278.63 728.52 269.22 718.58 260.11 705.36 251.15 690.27 242.53 674.38 234.32 658.97 226.27 645.19 218.64 633.64 211.47 624.71 204.44 618.77 197.87 615.3 191.77 613.79 182.94 614.8 167.31 617.88 160.33 616.66 155.63 614.32 151.17 610.16 146.92 604.24 142.4 597.09 138.03 588.42 133.82 578.52 129.28 567.77 124.87 556.22 120.61 544.16 116.07 531.71 111.72 519.08 107.62 506.48 103.34 493.79 99.39 481.27 95.85 469.05 92.3 456.84 89.27 444.95 86.83 433.43 84.54 421.94 82.96 410.8 82.13 400.03 81.6 389.26 81.9 379.08 83.01 369.49 84.43 359.87 86.65 350.79 89.6 342.22 92.8 333.57 96.67 325.38 101.14 317.57 105.72 309.57 110.79 301.84 116.28 294.26 121.72 286.32 127.46 278.34 133.45 270.21 139.24 261.5 145.19 252.45 151.28 242.99 157.06 232.88 162.96 222.32 168.95 211.39 174.62 200.06 180.42 188.62 186.35 177.32 192.01 166.29 197.88 155.93 203.95 146.59 209.85 138.28 216.04 131.45 222.52 126.29 228.92 122.41 235.66 120.12 242.76 119.24 249.84 118.89 257.3 119.17 265.12 119.62 272.96 119.2 281.17 118.04 289.71 115.84 298.28 111.98 307.17 106.99 316.34 101.14 325.54 94.45 335 87.94 344.68 82.29 354.38 77.67 364.29 75.07 374.39 74.84" stroke-dasharray="16 13" transform="rotate(0, 400, 400)" opacity="0.05"></path><path d="M376.9 86.4C386.68 88.05 396.49 91.79 406.33 97.11 416.19 103.03 426.11 109.35 436.1 115.48 446.15 120.52 456.33 124.56 466.63 127.47 477.07 128.81 487.7 129.26 498.53 129.18 509.55 128.44 520.82 128.04 532.33 128.39 544.03 129.37 555.96 131.77 568.06 135.72 580.27 140.9 592.54 147.66 604.76 155.81 616.86 164.92 628.69 174.97 640.05 185.66 650.94 196.59 661.06 207.67 670.18 218.67 678.42 229.32 685.35 239.63 690.78 249.55 695.04 258.87 697.63 267.8 698.49 276.42 698.2 284.5 696.29 292.41 692.9 300.28 688.85 307.78 683.78 315.41 677.99 323.26 672.46 330.91 666.92 338.92 661.75 347.33 657.88 355.65 655.04 364.46 653.5 373.77 653.94 383.05 655.94 392.89 659.51 403.29 664.95 413.7 671.42 424.46 678.54 435.55 686.51 446.65 694.29 458.09 701.46 469.81 708.27 481.52 713.73 493.47 717.57 505.54 720.17 517.49 720.78 529.4 719.38 541.07 716.46 552.36 711.59 563.1 704.95 573.03 697.05 582.16 687.73 590.12 677.28 596.64 666.13 602.05 654.27 605.84 642 607.96 629.58 609.16 617.09 609.02 604.71 607.87 592.6 606.85 580.77 605.78 569.32 605.31 558.31 606.58 547.7 609.58 537.48 614.79 527.71 622.75 518.25 633.16 509.05 645.75 500.2 660.09 491.49 675.19 482.86 689.98 474.44 703.46 465.99 714.36 457.45 721.59 449.03 724.92 440.43 723.7 431.63 718.11 422.87 709.56 413.87 698.63 404.61 686.83 395.36 676.49 385.85 668.51 376.09 664.14 366.33 664.63 356.57 669.3 346.85 677.3 337.15 688 327.53 699.19 318.03 709.24 308.59 717.4 299.31 721.88 290.25 722.06 281.28 718.27 272.58 710.3 264.18 698.94 255.91 685.36 247.97 670.42 240.43 655.28 233.01 641.02 225.99 628.33 219.41 617.72 212.92 609.66 206.84 603.93 201.19 600.25 192.95 598.52 178.19 599.55 171.49 599.25 166.93 598.23 162.57 595.8 158.39 591.88 153.94 587 149.61 580.64 145.4 573 140.88 564.53 136.48 555.06 132.21 544.84 127.67 534.14 123.32 522.99 119.2 511.61 114.91 500.03 110.95 488.42 107.39 476.9 103.82 465.35 100.76 453.97 98.28 442.86 95.96 431.76 94.33 420.93 93.45 410.41 92.87 399.9 93.12 389.91 94.16 380.44 95.54 370.93 97.69 361.88 100.57 353.24 103.71 344.5 107.52 336.07 111.91 327.9 116.43 319.49 121.45 311.2 126.88 302.92 132.28 294.26 137.99 285.45 143.95 276.41 149.74 266.85 155.69 256.96 161.78 246.71 167.59 235.99 173.51 225 179.5 213.85 185.2 202.58 191 191.49 196.91 180.82 202.55 170.67 208.35 161.42 214.33 153.37 220.11 146.41 226.13 140.94 232.4 137.06 238.55 134.27 245.02 132.83 251.79 132.52 258.51 132.44 265.57 132.7 272.98 132.89 280.37 132.05 288.11 130.39 296.18 127.66 304.25 123.36 312.65 118.06 321.36 112.05 330.06 105.36 339.06 98.96 348.32 93.48 357.58 89.06 367.11 86.58 376.89 86.4" stroke-dasharray="20 13" transform="rotate(3.64, 400, 400)" opacity="0.09"></path><path d="M380.83 97.95C390.32 99.56 399.89 103.16 409.54 108.32 419.21 114.11 429 120.38 438.89 126.58 448.86 131.84 458.97 136.24 469.24 139.59 479.62 141.44 490.2 142.36 500.97 142.62 511.89 142.06 523.01 141.59 534.3 141.6 545.72 141.95 557.28 143.45 568.91 146.3 580.54 150.21 592.12 155.63 603.52 162.46 614.71 170.3 625.51 179.26 635.73 189.07 645.43 199.36 654.29 210.07 662.12 220.95 669.09 231.76 674.79 242.44 679.06 252.88 682.28 262.91 683.98 272.62 684.12 282.03 683.3 290.98 681.08 299.69 677.59 308.26 673.62 316.47 668.83 324.67 663.48 332.95 658.47 341.02 653.54 349.29 648.99 357.84 645.68 366.28 643.32 375.09 642.15 384.32 642.77 393.5 644.78 403.15 648.19 413.29 653.29 423.43 659.31 433.84 665.91 444.48 673.32 455.12 680.6 465.97 687.36 476.95 693.88 487.88 699.23 498.85 703.16 509.72 706.06 520.39 707.18 530.79 706.48 540.7 704.43 550.16 700.58 558.86 695.05 566.61 688.33 573.59 680.21 579.37 670.93 583.78 660.89 587.35 650.06 589.56 638.68 590.49 627.04 591 615.18 590.69 603.26 589.96 591.47 589.86 579.83 590.24 568.43 591.63 557.36 594.94 546.6 600.07 536.17 607.32 526.1 616.95 516.33 628.57 506.82 641.77 497.62 656.03 488.6 670.42 479.72 683.94 471.04 695.78 462.4 704.84 453.76 710.29 445.24 712.11 436.63 709.82 427.92 703.69 419.25 695.14 410.43 684.64 401.45 673.56 392.48 663.99 383.32 656.64 374 652.59 364.68 652.96 355.42 657.13 346.26 664.38 337.11 674.23 328.08 684.73 319.22 694.46 310.39 702.78 301.76 707.98 293.37 709.42 285.05 707.31 277 701.24 269.27 691.79 261.62 679.9 254.32 666.23 247.39 651.79 240.54 637.57 234.07 624.24 228 612.42 221.98 602.63 216.33 594.89 211.07 589.1 203.32 584.3 189.24 581.63 182.75 581.1 176.14 579.89 163.27 571.2 156.91 563.3 152.39 556.92 147.98 549.48 143.7 541.16 139.16 532.34 134.8 522.88 130.67 512.97 126.39 502.8 122.42 492.37 118.85 481.84 115.28 471.22 112.2 460.6 109.69 450.07 107.36 439.54 105.7 429.14 104.77 418.92 104.15 408.69 104.34 398.87 105.32 389.44 106.63 379.96 108.71 370.81 111.5 361.94 114.57 352.96 118.28 344.15 122.58 335.46 127.03 326.54 131.97 317.61 137.32 308.59 142.67 299.23 148.33 289.67 154.25 279.86 160.02 269.66 165.97 259.2 172.05 248.5 177.89 237.57 183.83 226.56 189.85 215.62 195.59 204.84 201.41 194.47 207.33 184.78 212.98 175.79 218.76 167.86 224.69 161.2 230.41 155.61 236.32 151.44 242.45 148.71 248.44 146.84 254.69 146.06 261.22 146.1 267.67 146.11 274.42 146.2 281.49 146 288.52 144.68 295.88 142.48 303.56 139.24 311.21 134.54 319.2 128.97 327.5 122.84 335.78 116.2 344.38 109.95 353.27 104.66 362.15 100.43 371.34 98.1 380.82 97.95" stroke-dasharray="21 7" transform="rotate(7.28, 400, 400)" opacity="0.13"></path><path d="M385.96 109.51C395.16 111.06 404.5 114.52 413.94 119.5 423.41 125.14 433.03 131.33 442.78 137.55 452.59 142.99 462.56 147.71 472.7 151.49 482.92 153.84 493.32 155.27 503.88 155.96 514.54 155.7 525.35 155.32 536.27 155.17 547.24 155.09 558.26 155.89 569.25 157.8 580.16 160.55 590.91 164.68 601.38 170.15 611.56 176.63 621.25 184.31 630.3 192.96 638.8 202.28 646.43 212.24 653.02 222.6 658.81 233.14 663.38 243.77 666.61 254.34 668.93 264.74 669.87 274.93 669.43 284.89 668.21 294.52 665.79 303.92 662.3 313.13 658.49 322.04 654.03 330.85 649.14 339.63 644.67 348.19 640.32 356.84 636.37 365.64 633.58 374.32 631.67 383.23 630.83 392.42 631.61 401.58 633.63 411.06 636.87 420.88 641.64 430.71 647.23 440.66 653.33 450.69 660.21 460.7 666.98 470.76 673.33 480.76 679.53 490.67 684.72 500.42 688.69 509.87 691.79 519.08 693.33 527.82 693.23 535.91 691.96 543.54 689.02 550.33 684.53 556.1 678.93 561.27 671.96 565.32 663.83 568.2 654.94 570.56 645.18 571.92 634.78 572.43 624.03 572.96 612.92 573.18 601.64 573.47 590.34 574.76 579.07 576.89 567.92 580.28 556.98 585.59 546.25 592.66 535.78 601.59 525.6 612.45 515.66 624.78 505.98 638.11 496.55 651.87 487.32 665.22 478.25 677.26 469.38 687.37 460.59 694.63 451.87 698.4 443.26 698.89 434.65 695.69 426.01 689.18 417.42 680.71 408.76 670.7 400.01 660.36 391.29 651.54 382.45 644.78 373.53 641.03 364.61 641.29 355.81 644.99 347.16 651.52 338.51 660.55 330.03 670.34 321.75 679.67 313.49 688.01 305.45 693.75 297.68 696.25 289.95 695.64 282.5 691.37 275.37 683.81 268.29 673.74 261.54 661.58 255.15 648.19 248.81 634.47 242.81 621.04 237.18 608.52 231.56 597.48 226.28 588.08 221.33 580.41 213.97 572.57 200.4 565.08 194.05 563.37 187.52 562.06 174.69 555.8 168.3 550.02 163.78 545.34 159.35 539.64 155.06 533.03 150.52 525.99 146.16 518.19 142.02 509.79 137.76 501.12 133.8 492.02 130.23 482.61 126.67 473.09 123.6 463.38 121.08 453.57 118.74 443.74 117.06 433.86 116.09 423.99 115.44 414.12 115.57 404.48 116.48 395.07 117.71 385.62 119.7 376.34 122.39 367.2 125.37 357.96 128.98 348.76 133.16 339.56 137.51 330.17 142.35 320.69 147.6 311.06 152.87 301.18 158.47 291.1 164.33 280.82 170.06 270.32 175.99 259.67 182.07 248.95 187.92 238.23 193.88 227.62 199.93 217.33 205.71 207.41 211.57 198.11 217.51 189.65 223.2 182 228.99 175.48 234.91 170.22 240.61 165.95 246.47 162.95 252.52 161.19 258.41 160.02 264.52 159.68 270.88 159.87 277.13 159.78 283.65 159.56 290.47 158.89 297.21 157.04 304.27 154.29 311.63 150.56 318.95 145.51 326.6 139.73 334.55 133.53 342.49 126.98 350.74 120.9 359.31 115.82 367.86 111.81 376.74 109.61 385.95 109.51" stroke-dasharray="31 25" transform="rotate(10.92, 400, 400)" opacity="0.16"></path><path d="M391.95 121.06C400.89 122.56 409.97 125.88 419.19 130.65 428.43 136.12 437.83 142.19 447.36 148.39 456.94 153.97 466.69 158.96 476.58 163.13 486.52 165.98 496.62 167.94 506.84 169.11 517.1 169.27 527.46 169.12 537.85 168.99 548.22 168.69 558.57 169 568.78 170.16 578.86 171.93 588.69 174.9 598.13 179.08 607.25 184.17 615.82 190.46 623.7 197.8 631.02 205.89 637.47 214.78 642.9 224.26 647.6 234.12 651.16 244.27 653.49 254.57 655.03 264.9 655.36 275.19 654.47 285.35 652.98 295.35 650.47 305.17 647.06 314.81 643.48 324.25 639.38 333.54 634.98 342.73 631.04 351.75 627.26 360.75 623.88 369.77 621.59 378.69 620.09 387.71 619.54 396.85 620.46 405.96 622.47 415.24 625.54 424.7 630.01 434.15 635.17 443.55 640.8 452.85 647.15 462.13 653.43 471.26 659.36 480.17 665.22 488.96 670.22 497.42 674.16 505.41 677.4 513.17 679.26 520.32 679.67 526.75 678.01 535.39 665.9 547.55 655.96 551.03 648.2 552.88 639.54 554.09 630.18 554.88 620.39 556.06 610.15 557.35 599.62 559.1 588.98 562.04 578.24 566.04 567.51 571.38 556.89 578.47 546.38 587.13 536.04 597.32 525.91 608.92 515.97 621.48 506.25 634.48 496.74 647.39 487.41 659.44 478.26 669.85 469.28 678.2 460.41 683.72 451.66 685.97 443.01 685.27 434.41 681.35 425.85 674.59 417.34 666.31 408.83 656.83 400.31 647.22 391.8 639.12 383.27 632.94 374.71 629.48 366.15 629.64 357.77 632.9 349.58 638.74 341.39 646.95 333.4 656.02 325.65 664.87 317.9 673.11 310.4 679.22 303.17 682.59 295.97 683.29 289.05 680.67 282.45 674.94 275.87 666.72 269.6 656.25 263.67 644.21 257.75 631.4 252.15 618.33 246.89 605.65 241.59 593.87 236.59 583.29 231.89 574.1 227.1 566.55 222.55 560.43 218.24 555.55 211.62 550.72 198.84 544.77 192.57 542.01 185.97 538.86 172.8 528.49 166.27 521.01 161.74 515.43 157.39 509.08 153.26 502.05 149.02 494.78 145.09 486.96 141.53 478.68 138 470.29 134.95 461.54 132.43 452.51 130.1 443.46 128.41 434.18 127.41 424.73 126.73 415.28 126.81 405.88 127.63 396.54 128.79 387.18 130.68 377.84 133.26 368.5 136.12 359.1 139.61 349.63 143.66 340.07 147.89 330.4 152.6 320.58 157.73 310.61 162.9 300.52 168.41 290.27 174.18 279.92 179.87 269.53 185.76 259.12 191.8 248.83 197.65 238.72 203.63 228.93 209.68 219.64 215.51 210.87 221.41 202.87 227.39 195.81 233.12 189.57 238.95 184.45 244.88 180.53 250.6 177.41 256.46 175.4 262.46 174.37 268.3 173.69 274.34 173.55 280.58 173.7 286.7 173.35 293.07 172.7 299.69 171.48 306.23 169.08 313.06 165.79 320.17 161.61 327.23 156.26 334.6 150.32 342.27 144.12 349.91 137.69 357.87 131.82 366.15 126.98 374.41 123.18 383.01 121.13 391.95 121.06" stroke-dasharray="13 10" transform="rotate(14.56, 400, 400)" opacity="0.20"></path><path d="M398.45 132.62C407.12 134.06 415.93 137.22 424.88 141.79 433.85 147.06 442.97 152.98 452.22 159.12 461.5 164.78 470.92 169.99 480.46 174.5 490.03 177.83 499.71 180.31 509.44 182.01 519.19 182.66 528.96 182.88 538.69 182.92 548.37 182.6 557.92 182.65 567.27 183.28 576.43 184.29 585.27 186.27 593.66 189.29 601.7 193.08 609.15 198 615.88 203.96 622.09 210.68 627.44 218.28 631.82 226.6 635.54 235.43 638.22 244.73 639.78 254.36 640.7 264.18 640.54 274.14 639.34 284.11 637.68 294.07 635.17 303.95 631.92 313.71 628.62 323.37 624.92 332.9 621.02 342.29 617.6 351.58 614.36 360.78 611.52 369.9 609.68 378.97 608.56 388 608.28 397.01 609.32 406.01 611.31 415.02 614.22 424.04 618.38 433.05 623.14 441.84 628.31 450.38 634.16 458.88 639.96 467.08 645.46 474.89 650.96 482.6 655.74 489.85 659.6 496.53 663.96 505.94 665.1 520.86 661.69 526.21 658.08 529.32 653.24 531.76 647.3 533.61 640.64 535.58 633.07 537.27 624.76 538.91 616 541.2 606.7 543.92 597.02 547.33 587.16 552 577.09 557.78 566.93 564.83 556.78 573.38 546.66 583.2 536.63 594.14 526.72 606 516.94 618.33 507.34 630.59 497.88 642.34 488.59 652.9 479.47 661.61 470.48 668.23 461.63 672.12 452.91 673 444.29 671.3 435.75 666.82 427.3 659.95 418.9 651.93 410.54 643.02 402.23 634.14 393.95 626.74 385.68 621.11 377.46 617.92 369.23 618 361.22 620.84 353.45 626.04 345.67 633.46 338.13 641.79 330.84 650.11 323.55 658.12 316.52 664.45 309.76 668.48 303.02 670.29 296.56 669.15 290.4 665.14 284.24 658.76 278.38 650.05 272.83 639.58 267.26 628 261.98 615.74 256.99 603.36 251.95 591.39 247.17 580.14 242.64 569.89 238 560.91 233.57 553.15 229.34 546.57 222.79 539.13 210.03 529.17 203.72 525.33 197.09 521.82 183.86 512.56 177.33 506.29 172.82 501.71 168.48 496.42 164.37 490.47 160.18 484.35 156.28 477.62 152.75 470.35 149.27 462.98 146.25 455.15 143.76 446.9 141.45 438.61 139.76 429.97 138.74 421 138.02 412.03 138.05 402.95 138.79 393.79 139.87 384.63 141.65 375.37 144.1 366.01 146.83 356.62 150.18 347.1 154.08 337.46 158.17 327.76 162.73 317.94 167.72 308.01 172.76 298.06 178.15 288.05 183.81 278.06 189.42 268.18 195.24 258.44 201.23 248.97 207.06 239.84 213.03 231.18 219.08 223.16 224.93 215.73 230.87 209.14 236.87 203.53 242.66 198.66 248.53 194.83 254.49 192.07 260.24 189.92 266.12 188.64 272.12 188.11 277.95 187.66 283.95 187.52 290.12 187.43 296.17 186.69 302.43 185.52 308.92 183.72 315.32 180.76 321.97 176.97 328.89 172.39 335.75 166.8 342.89 160.77 350.33 154.6 357.72 148.35 365.43 142.71 373.45 138.12 381.45 134.55 389.78 132.65 398.44 132.62" stroke-dasharray="35 38" transform="rotate(18.2, 400, 400)" opacity="0.24"></path><path d="M405.05 144.17C413.43 145.55 421.95 148.55 430.59 152.9 439.24 157.95 448.03 163.69 456.91 169.73 465.82 175.42 474.84 180.79 483.92 185.59 493.02 189.36 502.17 192.35 511.32 194.58 520.45 195.77 529.54 196.45 538.52 196.82 547.4 196.67 556.09 196.66 564.51 197.01 572.71 197.49 580.54 198.71 587.87 200.78 594.85 203.43 601.23 207.08 606.88 211.7 612.05 217.01 616.4 223.23 619.84 230.22 622.72 237.78 624.65 245.94 625.59 254.56 626.01 263.51 625.49 272.73 624.1 282.12 622.37 291.62 619.95 301.17 616.93 310.68 613.95 320.2 610.67 329.63 607.26 338.94 604.34 348.22 601.63 357.38 599.29 366.41 597.88 375.42 597.1 384.31 597.06 393.08 598.19 401.85 600.14 410.51 602.9 419.03 606.76 427.55 611.15 435.72 615.88 443.51 621.24 451.26 626.56 458.6 631.64 465.46 636.78 472.24 641.3 478.49 645.03 484.15 650.63 498.45 644.73 513.72 637.84 517.27 632.23 519.88 625.73 522.52 618.47 525.39 610.74 529.06 602.42 533.33 593.67 538.42 584.67 544.68 575.38 551.99 565.92 560.4 556.39 569.96 546.8 580.46 537.22 591.65 527.7 603.3 518.23 614.98 508.89 626.18 499.64 636.55 490.52 645.49 481.55 652.48 472.68 657.45 463.94 659.86 455.34 659.54 446.82 657.03 438.4 652.14 430.1 645.28 421.84 637.6 413.67 629.29 405.59 621.13 397.52 614.4 389.52 609.3 381.61 606.37 373.69 606.36 366.02 608.82 358.62 613.41 351.21 620.07 344.06 627.65 337.17 635.39 330.27 643.08 323.65 649.47 317.3 653.99 310.94 656.7 304.86 656.84 299.07 654.39 293.25 649.77 287.72 642.85 282.47 634.06 277.17 623.97 272.14 612.85 267.37 601.23 262.51 589.56 257.88 578.17 253.47 567.38 248.93 557.45 244.56 548.46 240.36 540.47 235.97 533.59 231.71 527.63 227.56 522.44 221.04 516.23 208.01 506.13 201.5 501.24 196.96 498.08 192.52 494.5 188.21 490.43 183.73 486.34 179.43 481.67 175.36 476.41 171.22 471.07 167.38 465.15 163.91 458.67 160.49 452.13 157.51 445.07 155.05 437.52 152.78 429.94 151.09 421.91 150.06 413.46 149.32 405.01 149.29 396.35 149.96 387.52 150.95 378.69 152.62 369.69 154.93 360.55 157.52 351.4 160.7 342.11 164.43 332.7 168.36 323.32 172.75 313.84 177.56 304.33 182.46 294.91 187.7 285.53 193.22 276.3 198.72 267.29 204.45 258.56 210.35 250.23 216.13 242.32 222.06 234.99 228.08 228.38 233.94 222.35 239.89 217.17 245.91 212.92 251.73 209.29 257.64 206.57 263.62 204.73 269.42 203.28 275.32 202.48 281.33 202.18 287.18 201.74 293.16 201.4 299.3 200.92 305.32 199.69 311.51 197.95 317.91 195.54 324.21 192.05 330.74 187.81 337.5 182.89 344.2 177.13 351.16 171.07 358.39 165.01 365.58 158.96 373.06 153.59 380.83 149.26 388.58 145.92 396.65 144.17 405.03 144.17" stroke-dasharray="38 2" transform="rotate(21.84, 400, 400)" opacity="0.28"></path><path d="M411.32 155.73C419.41 157.04 427.6 159.88 435.89 164 444.18 168.81 452.57 174.34 461.03 180.23 469.5 185.9 478.03 191.37 486.58 196.4 495.12 200.54 503.66 204 512.14 206.76 520.58 208.52 528.91 209.73 537.07 210.53 545.11 210.71 552.9 210.84 560.36 211.13 567.61 211.34 574.43 212.06 580.73 213.42 589.39 216.44 602.71 227.56 607.07 235.61 609.24 241.79 610.56 248.63 611.01 256.02 611.06 263.81 610.31 271.99 608.83 280.45 607.13 289.14 604.85 297.98 602.11 306.88 599.48 315.88 596.63 324.87 593.71 333.79 591.29 342.73 589.07 351.58 587.19 360.29 586.16 369 585.69 377.58 585.86 385.97 587.07 394.36 588.98 402.58 591.58 410.58 595.16 418.57 599.18 426.14 603.49 433.26 608.38 440.36 613.25 446.99 617.91 453.12 622.67 459.19 626.91 464.74 630.48 469.75 636.53 482.81 633.15 498.49 627.61 503.19 622.98 506.8 617.48 510.65 611.24 514.92 604.54 520.01 597.23 525.77 589.43 532.35 581.35 539.92 572.92 548.38 564.24 557.68 555.45 567.78 546.51 578.44 537.52 589.41 528.51 600.43 519.5 611.1 510.56 620.99 501.66 629.83 492.84 637.11 484.14 642.44 475.5 645.87 466.98 646.96 458.59 645.64 450.25 642.49 442.03 637.34 433.93 630.61 425.87 623.34 417.92 615.64 410.08 608.19 402.25 602.11 394.52 597.49 386.9 594.81 379.27 594.74 371.93 596.84 364.86 600.85 357.77 606.78 350.96 613.63 344.42 620.76 337.86 628.03 331.58 634.34 325.57 639.17 319.53 642.57 313.76 643.79 308.26 642.72 302.72 639.72 297.44 634.54 292.41 627.47 287.32 619.01 282.47 609.3 277.84 598.79 273.11 587.87 268.58 576.85 264.24 566.03 259.75 555.67 255.41 545.94 251.21 536.95 246.83 528.83 242.55 521.5 238.36 514.92 233.96 509.17 229.63 503.98 225.38 499.21 220.9 495.02 216.48 490.99 212.16 486.98 207.63 483.26 203.2 479.36 198.92 475.17 194.49 471.08 190.24 466.58 186.23 461.63 182.16 456.68 178.4 451.23 174.99 445.27 171.64 439.29 168.73 432.81 166.32 425.85 164.09 418.86 162.42 411.4 161.38 403.49 160.62 395.58 160.54 387.42 161.13 379.05 162.02 370.7 163.57 362.15 165.74 353.46 168.18 344.8 171.19 336.02 174.73 327.17 178.47 318.39 182.67 309.6 187.29 300.87 192.01 292.29 197.07 283.87 202.42 275.7 207.78 267.82 213.37 260.32 219.15 253.33 224.85 246.76 230.7 240.82 236.67 235.61 242.5 230.93 248.43 227.03 254.43 223.96 260.28 221.34 266.2 219.47 272.19 218.29 278.02 217.27 283.95 216.67 289.96 216.36 295.83 215.73 301.82 215.01 307.93 214.02 313.93 212.23 320.08 209.89 326.4 206.91 332.64 202.93 339.07 198.3 345.7 193.12 352.27 187.27 359.08 181.25 366.12 175.33 373.12 169.54 380.39 164.45 387.92 160.39 395.43 157.3 403.23 155.69 411.31 155.73" stroke-dasharray="32 32" transform="rotate(25.480000000000004, 400, 400)" opacity="0.32"></path><path d="M416.9 167.28C424.66 168.53 432.49 171.2 440.37 175.08 448.27 179.64 456.21 184.93 464.18 190.63 472.15 196.22 480.13 201.72 488.08 206.92 496 211.36 503.87 215.24 511.63 218.5 519.32 220.83 526.86 222.6 534.17 223.92 541.34 224.54 548.23 224.98 554.75 225.41 563.99 225.84 579.52 228.96 585.53 232.27 590.31 236.92 595.63 250.63 596.14 259.45 595.94 265.92 595.07 272.86 593.59 280.18 591.99 287.77 589.93 295.61 587.5 303.62 585.24 311.78 582.83 320.02 580.38 328.26 578.43 336.58 576.67 344.85 575.22 353.01 574.54 361.21 574.34 369.27 574.69 377.15 575.95 385.05 577.82 392.75 580.26 400.21 583.56 407.67 587.23 414.69 591.15 421.27 595.59 427.84 600.01 433.95 604.26 439.59 610.61 447.81 620.3 462.05 623.05 468.23 624.2 474.28 620.96 485.99 616.62 492.24 612.88 496.99 608.33 502.11 603.05 507.73 597.34 514.1 591.02 521.12 584.18 528.83 577.05 537.31 569.52 546.46 561.7 556.16 553.71 566.3 545.52 576.66 537.2 586.97 528.83 597.02 520.4 606.42 511.97 614.82 503.54 622.07 495.15 627.72 486.83 631.48 478.55 633.53 470.34 633.48 462.25 631.34 454.2 627.72 446.24 622.47 438.41 615.95 430.61 609.14 422.92 602.07 415.34 595.31 407.79 589.85 400.33 585.7 393 583.26 385.67 583.12 378.62 584.9 371.85 588.37 365.07 593.6 358.56 599.72 352.32 606.21 346.05 613.01 340.05 619.12 334.31 624.08 325.78 629.01 309.88 626.82 302.47 619.67 297.53 612.91 292.8 604.77 288.26 595.62 283.62 585.83 279.14 575.59 274.83 565.23 270.36 554.98 266.03 545.03 261.81 535.53 257.41 526.61 253.1 518.31 248.87 510.63 244.45 503.64 240.09 497.21 235.8 491.25 231.31 485.86 226.9 480.77 222.57 475.86 218.07 471.31 213.68 466.76 209.44 462.12 205.08 457.65 200.91 452.95 196.97 447.97 193 443.04 189.32 437.75 186 432.06 182.75 426.38 179.91 420.28 177.55 413.76 175.38 407.22 173.74 400.26 172.7 392.89 171.93 385.51 171.8 377.91 172.31 370.12 173.11 362.36 174.53 354.43 176.54 346.41 178.82 338.43 181.65 330.39 184.98 322.36 188.52 314.44 192.51 306.58 196.9 298.88 201.41 291.37 206.27 284.11 211.42 277.19 216.61 270.57 222.03 264.4 227.65 258.77 233.23 253.53 238.97 248.91 244.83 244.98 250.6 241.46 256.47 238.62 262.43 236.47 268.25 234.59 274.16 233.28 280.14 232.45 285.98 231.58 291.9 230.95 297.91 230.4 303.78 229.4 309.76 228.19 315.85 226.62 321.83 224.24 327.94 221.31 334.2 217.79 340.37 213.38 346.71 208.45 353.22 203.09 359.68 197.23 366.33 191.31 373.19 185.59 380.02 180.08 387.07 175.3 394.35 171.53 401.62 168.67 409.13 167.21 416.89 167.28" stroke-dasharray="35 31" transform="rotate(29.12, 400, 400)" opacity="0.35"></path><path d="M421.42 178.84C428.83 180.01 436.26 182.51 443.71 186.15 451.16 190.44 458.61 195.46 466.04 200.94 473.47 206.4 480.85 211.87 488.16 217.15 495.43 221.83 502.59 226.05 509.6 229.75 516.52 232.62 523.25 234.95 529.71 236.82 539.04 238.42 555.57 240.24 562.52 241.23 572.85 245.35 581 258.39 581.1 265.3 580.76 270.45 579.86 276.1 578.45 282.18 577.02 288.53 575.21 295.21 573.13 302.14 571.25 309.25 569.26 316.52 567.28 323.88 565.76 331.34 564.43 338.82 563.37 346.26 563 353.75 563.04 361.16 563.54 368.43 564.85 375.73 566.65 382.86 568.94 389.8 571.98 396.73 575.32 403.29 578.85 409.46 582.87 415.63 586.86 421.41 590.71 426.83 596.52 434.8 605.67 449.25 608.49 455.97 610 462.82 608.22 477.04 604.92 484.9 601.98 490.73 598.29 496.99 593.91 503.73 589.14 511.07 583.76 518.96 577.86 527.38 571.67 536.3 565.06 545.63 558.11 555.23 550.98 564.96 543.6 574.61 536.04 583.92 528.38 592.72 520.62 600.69 512.79 607.52 504.94 613.18 497.08 617.27 489.24 619.62 481.41 620.45 473.62 619.47 465.92 616.71 458.23 612.79 450.63 607.56 443.13 601.34 435.65 595.03 428.26 588.59 420.99 582.5 413.73 577.63 406.58 573.92 399.55 571.7 392.51 571.52 385.75 573 379.26 575.96 372.76 580.53 366.52 585.95 360.54 591.78 354.53 598.04 348.77 603.85 343.25 608.8 335.03 614.34 319.64 615.4 312.42 610.57 307.59 605.48 302.93 598.98 298.45 591.36 293.86 582.94 289.41 573.84 285.09 564.35 280.64 554.68 276.29 545.01 272.04 535.52 267.62 526.32 263.29 517.51 259.03 509.16 254.59 501.29 250.21 493.91 245.91 486.97 241.43 480.52 237.03 474.42 232.73 468.59 228.28 463.13 223.95 457.8 219.77 452.52 215.5 447.46 211.42 442.33 207.58 437.07 203.73 431.92 200.16 426.54 196.94 420.91 193.79 415.31 191.05 409.41 188.77 403.19 186.66 396.98 185.06 390.44 184.02 383.57 183.24 376.7 183.07 369.68 183.5 362.55 184.2 355.44 185.5 348.25 187.35 341.03 189.45 333.87 192.08 326.73 195.2 319.68 198.52 312.75 202.28 305.97 206.43 299.43 210.71 293.08 215.33 287.05 220.25 281.41 225.22 276.04 230.44 271.13 235.87 266.77 241.28 262.71 246.86 259.23 252.58 256.34 258.24 253.72 264.01 251.66 269.87 250.12 275.63 248.69 281.48 247.63 287.4 246.86 293.22 245.91 299.11 245.01 305.07 244.05 310.93 242.56 316.88 240.77 322.92 238.58 328.86 235.63 334.92 232.15 341.09 228.16 347.2 223.42 353.44 218.26 359.82 212.82 366.15 207.01 372.65 201.26 379.32 195.8 385.96 190.6 392.79 186.14 399.8 182.66 406.8 180.05 414.01 178.74 421.41 178.84" stroke-dasharray="32 6" transform="rotate(32.76, 400, 400)" opacity="0.39"></path><path d="M424.61 190.39C431.63 191.5 438.64 193.82 445.61 197.21 452.58 201.22 459.52 205.95 466.38 211.17 473.23 216.44 479.99 221.82 486.63 227.11 493.23 231.94 499.68 236.43 505.92 240.49 512.1 243.83 518.03 246.7 523.67 249.13 531.78 251.57 545.85 254.57 551.63 255.74 563.06 263.69 565.17 279.92 563.5 287.02 562.27 292.14 560.75 297.63 559.02 303.43 557.52 309.4 555.95 315.6 554.41 321.97 553.29 328.44 552.35 335.02 551.64 341.64 551.54 348.31 551.79 354.98 552.42 361.6 553.75 368.23 555.49 374.79 557.62 381.23 560.4 387.67 563.43 393.84 566.6 399.72 570.21 405.61 573.8 411.23 577.25 416.6 582.53 424.61 591.05 439.88 593.86 447.39 595.6 455.21 594.98 471.93 592.58 481.19 590.34 487.88 587.41 494.96 583.84 502.45 579.92 510.36 575.43 518.67 570.43 527.3 565.15 536.19 559.44 545.23 553.37 554.28 547.11 563.21 540.56 571.81 533.79 579.86 526.91 587.25 519.88 593.7 512.73 598.97 505.54 603.11 498.28 605.8 491 606.89 483.71 606.72 476.43 604.99 469.18 601.8 461.94 597.73 454.76 592.63 447.64 586.8 440.54 581.01 433.52 575.2 426.59 569.77 419.67 565.45 412.84 562.15 406.11 560.15 399.39 559.92 392.92 561.13 386.7 563.63 380.47 567.57 374.48 572.31 368.73 577.48 362.95 583.17 357.4 588.58 352.07 593.38 344.12 599.27 329.13 602.91 322.04 600.14 317.29 596.62 312.69 591.74 308.24 585.71 303.68 578.81 299.24 571.09 294.92 562.77 290.46 554.08 286.1 545.14 281.83 536.12 277.4 527.15 273.05 518.34 268.77 509.78 264.34 501.51 259.97 493.58 255.68 486.02 251.23 478.81 246.88 471.93 242.62 465.35 238.25 459.07 234 453.01 229.92 447.1 225.76 441.41 221.8 435.77 218.08 430.13 214.36 424.61 210.92 419.02 207.81 413.31 204.79 407.65 202.16 401.83 199.95 395.82 197.92 389.82 196.37 383.62 195.34 377.22 194.56 370.82 194.35 364.38 194.7 357.92 195.31 351.48 196.47 345.06 198.15 338.71 200.08 332.41 202.51 326.22 205.4 320.2 208.48 314.28 211.99 308.6 215.88 303.2 219.9 297.97 224.26 293.1 228.92 288.63 233.64 284.37 238.62 280.56 243.81 277.24 249.02 274.12 254.4 271.49 259.93 269.34 265.42 267.32 271.04 265.71 276.76 264.47 282.41 263.17 288.15 262.09 293.97 261.14 299.7 259.88 305.52 258.56 311.4 257.07 317.2 255.01 323.07 252.62 329.03 249.83 334.91 246.34 340.88 242.4 346.94 238.02 352.95 233.04 359.07 227.77 365.3 222.33 371.49 216.65 377.82 211.13 384.27 205.96 390.7 201.1 397.28 196.99 404 193.81 410.71 191.44 417.58 190.26 424.6 190.39" stroke-dasharray="36 29" transform="rotate(36.4, 400, 400)" opacity="0.43"></path><path d="M426.27 201.95C432.88 202.98 439.43 205.13 445.91 208.26 452.38 211.99 458.77 216.4 465.04 221.33 471.3 226.37 477.44 231.58 483.41 236.8 489.34 241.7 495.08 246.36 500.6 250.7 511.41 257.53 521.1 262.78 529.34 266.73 539.94 269.68 550.79 277.22 550.93 284.62 550.18 290.78 548.13 298.7 545.21 308.05 543.49 315.5 540.73 331.77 540.03 340.38 540.17 346.21 540.59 352.13 541.32 358.09 542.65 364.07 544.32 370.07 546.3 376.06 548.84 382.05 551.56 387.89 554.4 393.57 557.63 399.26 560.82 404.82 563.9 410.25 567.15 415.74 570.13 421.14 572.79 426.51 575.4 431.98 577.55 437.48 579.19 443.04 581.83 454.73 582 467.18 579.66 480.67 576.03 495.34 569.98 511.19 561.89 527.81 552.79 544.56 542.11 560.61 530.31 574.48 518.04 585.53 505.07 592.17 491.79 593.38 485.1 592.41 478.38 590.14 471.66 586.69 464.94 582.61 458.23 577.74 451.56 572.34 444.89 567.1 438.27 561.92 431.72 557.1 425.18 553.3 418.7 550.4 412.3 548.59 405.91 548.33 399.73 549.29 393.79 551.37 387.83 554.73 382.08 558.81 376.55 563.34 370.99 568.42 365.63 573.38 360.47 577.92 355.26 582.19 350.24 585.56 345.39 587.87 335.51 589.85 326.21 586.54 317.46 578.45 308.31 567.02 299.52 552.55 291.1 536.5 282.15 519.85 273.45 503.32 265.07 487.61 256.22 472.73 247.75 458.87 239.87 445.92 235.86 439.71 232.04 433.63 228.45 427.66 224.89 421.79 221.6 415.96 218.63 410.15 215.74 404.38 213.23 398.58 211.11 392.73 209.17 386.89 207.67 380.98 206.66 375 205.76 366.06 206.94 348.66 208.97 340.29 211.82 332.15 220.04 317.11 225.27 310.38 232.89 301.95 241.74 295.01 251.52 289.74 261.44 284.84 272.05 281.35 283.12 278.98 294.03 275.91 305.32 272.89 316.86 269.24 328.17 263.41 339.78 256.13 351.65 247.39 357.53 242.28 363.49 236.99 369.53 231.64 375.54 226.17 381.65 220.93 387.86 216.1 394.05 211.61 400.35 207.84 406.76 204.96 413.15 202.83 419.66 201.79 426.26 201.95" stroke-dasharray="33 36" transform="rotate(40.04, 400, 400)" opacity="0.47"></path><path d="M426.3 213.5C438.63 216.18 450.58 222.53 461.98 231.42 473.31 240.98 483.96 250.96 493.68 260.38 503.14 267.94 511.46 274.17 518.38 279.18 527.25 283.59 536 291.42 536.01 297.47 535.48 302.2 533.93 308.44 531.71 316.06 530.41 324.04 529.23 333.18 528.53 343.17 529.68 353.3 531.83 364.05 534.98 375.21 540.04 386.38 545.42 397.45 550.65 408.44 556.53 419.6 561.29 431 564.52 442.82 567.22 455.22 567.81 468.44 566.24 482.51 563.65 497.25 558.9 512.64 552.26 528.09 544.76 543 535.7 556.57 525.48 567.57 514.79 575.76 503.29 579.83 491.33 579.17 479.22 575.34 466.86 567.83 454.49 557.99 442.13 549.08 429.82 541.52 417.73 537.04 405.63 537.79 394.28 542.32 383.67 549.36 372.97 558.64 362.92 566.92 353.49 572.6 343.85 575.91 334.69 574.81 325.99 569.46 316.94 561.08 308.2 549.49 299.79 535.86 290.95 521.1 282.35 505.78 274.1 490.67 265.47 475.85 257.26 461.71 249.65 448.39 241.95 435.55 235.1 423.29 229.38 411.51 224.03 399.9 220.13 388.49 217.98 377.29 216.65 366.09 217.31 355.59 219.81 345.95 223.13 336.4 228.16 327.9 234.64 320.64 241.67 313.61 249.89 307.93 259.04 303.61 268.39 299.26 278.45 295.88 289 293.11 299.49 289.34 310.37 285.27 321.5 280.42 332.48 273.57 343.74 265.47 355.2 256.29 366.54 245.79 378.17 235.4 390.02 226.22 401.84 218.48 413.96 213.95 426.29 213.5" stroke-dasharray="36 38" transform="rotate(43.68, 400, 400)" opacity="0.51"></path><path d="M424.69 225.06C436.1 227.5 447 233.29 457.26 241.48 467.44 250.46 476.86 260.11 485.32 269.56 493.56 277.62 500.68 284.66 506.49 290.63 513.96 296.65 521.23 305.98 521.33 311.55 521.1 315.48 520.07 320.63 518.53 327.01 517.87 333.55 517.31 341.25 517.14 349.97 518.55 358.76 520.73 368.42 523.65 378.85 528.2 389.28 532.94 400.01 537.5 411.01 542.69 422.16 546.93 433.81 549.89 446 552.52 458.56 553.39 471.82 552.41 485.63 550.65 499.62 547 513.74 541.63 527.33 535.55 539.95 527.99 550.83 519.26 558.98 510.09 564.56 500.05 566.45 489.42 564.37 478.64 559.94 467.47 552.68 456.14 543.76 444.81 535.96 433.39 529.43 422.05 525.48 410.71 526 399.95 529.68 389.79 535.56 379.57 543.65 369.86 551.22 360.66 556.94 351.29 561.11 342.3 561.74 333.7 558.75 324.81 553.17 316.19 544.47 307.88 533.51 299.21 521.16 290.8 507.72 282.75 493.96 274.42 480.05 266.53 466.42 259.25 453.37 251.95 440.56 245.48 428.32 240.08 416.71 235.05 405.23 231.37 394.2 229.31 383.69 227.98 373.18 228.47 363.65 230.67 355.16 233.6 346.69 238.12 339.33 244 333.15 250.41 327 257.96 321.97 266.42 317.96 275.12 313.62 284.54 309.85 294.46 306.3 304.41 301.62 314.75 296.45 325.36 290.48 335.88 282.79 346.67 274.13 357.6 264.77 368.47 254.56 379.54 244.76 390.74 236.34 401.92 229.38 413.27 225.38 424.68 225.05" stroke-dasharray="17 34" transform="rotate(47.32, 400, 400)" opacity="0.54"></path><path d="M421.55 236.61C432 238.83 441.87 244.04 451.02 251.5 460.12 259.82 468.4 269 475.74 278.27 482.9 286.58 489 294.2 493.91 300.96 500.28 308.54 506.63 320.16 506.98 325.96 506.84 332 505.59 348.93 505.85 360.04 507.46 367.8 509.63 376.57 512.33 386.31 516.39 396.04 520.53 406.33 524.46 417.09 528.98 427.94 532.69 439.38 535.34 451.32 537.81 463.43 538.81 476.01 538.26 488.76 537.14 501.34 534.37 513.59 530.09 524.87 525.24 534.97 519.01 543.15 511.65 548.67 503.92 552 495.27 552.17 485.96 549.09 476.49 544.41 466.53 537.61 456.28 529.67 446.01 522.95 435.54 517.37 425 513.93 414.46 514.24 404.34 517.15 394.69 521.96 384.98 528.84 375.66 535.56 366.75 541.03 357.7 545.64 348.95 547.49 340.53 546.38 331.87 543.22 323.46 537.2 315.32 528.92 306.93 519.22 298.8 508.1 291.03 496.24 283.08 483.94 275.58 471.5 268.68 459.35 261.83 447.22 255.77 435.51 250.73 424.41 246.04 413.37 242.6 402.88 240.63 393.04 239.31 383.2 239.66 374.44 241.55 366.75 244.11 359.04 248.12 352.37 253.38 346.74 259.14 340.97 265.99 336.05 273.71 331.83 281.7 327.1 290.39 322.62 299.59 318.09 308.88 312.46 318.58 306.27 328.54 299.37 338.48 291.11 348.66 282.17 358.96 272.89 369.23 263.17 379.65 254.09 390.11 246.48 400.57 240.29 411.09 236.81 421.55 236.61" stroke-dasharray="3 13" transform="rotate(50.96000000000001, 400, 400)" opacity="0.58"></path><path d="M417.06 248.17C426.55 250.16 435.4 254.81 443.53 261.51 451.59 269.11 458.86 277.68 465.22 286.57 471.46 294.87 476.71 302.8 480.92 310.11 486.47 319.01 492.33 333.2 493.04 339.72 493.51 346 493.81 361.92 494.67 372.07 496.4 379.13 498.53 387.18 501.01 396.24 504.61 405.3 508.18 414.99 511.53 425.17 515.41 435.4 518.6 446.15 520.9 457.25 523.15 468.33 524.17 479.6 523.89 490.7 523.23 501.39 521.17 511.41 517.78 520.2 513.95 527.8 508.88 533.47 502.75 536.72 496.31 538.23 488.96 537.13 480.91 533.48 472.7 528.83 463.93 522.65 454.78 515.74 445.59 510.05 436.08 505.35 426.39 502.37 416.7 502.51 407.28 504.74 398.18 508.55 389.05 514.27 380.19 520.05 371.64 525.04 362.99 529.69 354.57 532.28 346.41 532.55 338.09 531.31 329.98 527.62 322.13 521.81 314.11 514.71 306.35 506.06 298.96 496.41 291.47 486.16 284.42 475.45 277.97 464.69 271.61 453.8 265.99 443.1 261.33 432.84 257.01 422.59 253.81 412.81 251.95 403.65 250.66 394.48 250.87 386.33 252.47 379.15 254.66 371.91 258.16 365.56 262.8 360.02 267.91 354.25 274.03 349.07 280.96 344.29 288.18 338.95 296.09 333.64 304.49 328.13 313.02 321.65 321.96 314.66 331.16 307.12 340.4 298.59 349.86 289.67 359.41 280.73 368.98 271.67 378.64 263.42 388.28 256.66 397.94 251.24 407.58 248.26 417.06 248.17" stroke-dasharray="28 29" transform="rotate(54.6, 400, 400)" opacity="0.62"></path><path d="M411.52 259.72C420.03 261.49 427.91 265.58 435.07 271.52 442.2 278.33 448.56 286.17 454.09 294.5 459.54 302.55 464.12 310.5 467.79 318.08 471.39 324.79 474.1 331.06 475.96 336.94 478.44 344.47 480.62 358.88 481.02 366.69 481.84 371.87 482.66 377.75 483.57 384.41 485.38 391.01 487.44 398.48 489.69 406.85 492.84 415.22 495.9 424.13 498.71 433.42 501.98 442.72 504.66 452.37 506.6 462.13 508.57 471.76 509.52 481.3 509.4 490.39 509.04 498.96 507.49 506.65 504.82 513.01 499.78 520.07 484.28 522.46 474.3 517.66 467.29 513.29 459.67 507.86 451.59 501.97 443.47 497.26 434.95 493.36 426.15 490.82 417.34 490.81 408.67 492.45 400.2 495.36 391.72 499.96 383.4 504.75 375.31 509.08 367.15 513.45 359.15 516.35 351.37 517.5 343.49 517.65 335.79 515.79 328.34 512.08 320.79 507.34 313.49 501.06 306.57 493.65 299.6 485.63 293.07 476.91 287.13 467.86 281.29 458.59 276.15 449.25 271.9 440.11 267.94 430.94 265.01 422.05 263.27 413.6 262.02 405.14 262.11 397.5 263.43 390.62 265.26 383.68 268.26 377.39 272.3 371.67 276.74 365.69 282.12 360.05 288.25 354.61 294.66 348.63 301.72 342.54 309.26 336.23 316.96 329.14 325.06 321.65 333.41 313.81 341.83 305.34 350.46 296.73 359.18 288.36 367.93 280.11 376.75 272.77 385.51 266.89 394.29 262.23 403 259.72 411.52 259.72" stroke-dasharray="2 7" transform="rotate(58.24, 400, 400)" opacity="0.66"></path><path d="M405.26 271.28C412.81 272.82 419.75 276.37 426.04 281.54 432.3 287.53 437.87 294.55 442.7 302.16 447.49 309.73 451.53 317.41 454.81 324.94 458.07 331.91 460.61 338.6 462.46 344.99 465.08 353.54 468.19 369.6 469.21 377.79 470.35 383.13 471.45 388.95 472.57 395.32 474.4 401.63 476.35 408.59 478.37 416.23 481.11 423.86 483.69 431.84 486 440.01 488.71 448.15 490.91 456.4 492.48 464.53 494.13 472.48 494.95 480.09 494.89 487.07 490.75 501.91 474.69 506.66 466.29 501.77 460.36 497.88 453.82 493.26 446.77 488.39 439.69 484.58 432.17 481.41 424.27 479.26 416.38 479.15 408.51 480.26 400.75 482.37 392.98 485.94 385.3 489.73 377.76 493.3 370.19 497.14 362.73 499.99 355.45 501.56 348.11 502.57 340.93 502.01 333.99 499.93 327 497.09 320.26 492.88 313.88 487.53 307.52 481.65 301.57 474.94 296.17 467.69 290.89 460.2 286.26 452.41 282.42 444.55 278.86 436.65 276.2 428.77 274.59 421.08 273.4 413.39 273.38 406.23 274.44 399.58 275.93 392.87 278.45 386.55 281.89 380.57 285.68 374.36 290.32 368.28 295.64 362.25 301.22 355.79 307.4 349.17 314.04 342.35 320.84 334.99 328.02 327.37 335.46 319.6 342.98 311.5 350.7 303.49 358.5 295.88 366.35 288.57 374.25 282.19 382.08 277.18 389.94 273.25 397.71 271.19 405.26 271.28" stroke-dasharray="4 18" transform="rotate(61.88, 400, 400)" opacity="0.70"></path><path d="M398.67 282.83C405.27 284.16 411.34 287.18 416.83 291.6 422.29 296.75 427.17 302.88 431.41 309.64 435.64 316.52 439.25 323.66 442.24 330.84 445.25 337.71 447.68 344.47 449.56 351.03 451.56 357.17 453.1 363.16 454.25 369.05 455.66 374.6 456.8 380.19 457.74 385.9 459.1 391.43 460.4 397.22 461.64 403.32 463.44 409.36 465.26 415.81 467.05 422.66 469.4 429.51 471.54 436.45 473.4 443.36 475.6 450.23 477.34 456.97 478.55 463.4 477.24 486.46 464.08 490.5 457.07 485.97 452.11 482.68 446.56 478.91 440.5 474.99 434.41 472 427.85 469.49 420.89 467.71 413.93 467.51 406.91 468.19 399.93 469.61 392.94 472.23 385.97 475.08 379.09 477.82 372.2 480.98 365.38 483.48 358.71 485.09 352.02 486.48 345.47 486.7 339.14 485.72 332.81 484.28 326.71 481.67 320.96 478.02 315.25 473.98 309.93 469.09 305.11 463.53 300.43 457.78 296.32 451.54 292.92 445 289.75 438.42 287.38 431.63 285.91 424.76 284.79 417.88 284.68 411.25 285.5 404.86 286.67 398.43 288.74 392.16 291.6 386.02 294.77 379.72 298.67 373.4 303.19 367.05 307.93 360.4 313.23 353.6 318.94 346.66 324.81 339.42 331.04 332.05 337.51 324.71 344.07 317.27 350.83 310.08 357.66 303.4 364.55 297.1 371.48 291.71 378.36 287.55 385.25 284.32 392.06 282.68 398.67 282.83" stroke-dasharray="2 35" transform="rotate(65.52, 400, 400)" opacity="0.73"></path><path d="M392.16 294.39C403.54 297.51 413.08 305.72 420.58 317.03 428.06 329.16 433.65 342.32 437.4 355.25 441.59 367.22 444.58 378.97 446.6 390.45 449.94 401.42 453.04 412.96 455.73 424.99 460.07 437.03 463.23 448.41 464.86 458.23 466.77 470.73 457.85 477.22 446.92 470.37 438.64 465.49 428.26 460.19 416.21 456.16 404.16 456.83 391.69 459.48 379.45 462.77 367.21 467.83 355.15 470.58 343.9 470.05 332.72 468.6 322.49 463.47 313.99 455.37 305.98 446.7 300.11 435.96 297.23 423.95 295.44 411.93 297.05 399.83 301.47 387.86 306.83 375.47 314.65 362.58 324.1 349.51 334.08 335.92 345.3 322.59 356.95 311.02 368.77 301.02 380.78 294.91 392.16 294.39" stroke-dasharray="8 17" transform="rotate(69.16, 400, 400)" opacity="0.77"></path><path d="M386.14 305.94C395.75 308.46 403.92 315.1 410.5 324.44 417.11 334.72 422.28 346.28 426.05 357.99 430.2 369.32 433.42 380.58 435.77 391.41 439.11 401.96 442.05 412.52 444.41 422.81 447.95 433.09 450.34 442.06 451.4 449.16 452.64 457.97 445.12 460.71 436.13 455.09 429.35 451.58 420.71 447.73 410.52 444.6 400.33 444.88 389.64 446.35 379.05 448.25 368.5 451.77 358.07 453.8 348.36 453.56 338.78 453.07 330.04 449.74 322.83 443.79 316.03 437.5 311.05 429.03 308.55 418.81 306.89 408.59 308.03 397.65 311.5 386.46 315.69 375.09 321.96 363.19 329.65 351.36 337.76 339.52 346.99 328.25 356.66 318.84 366.48 310.87 376.53 306.17 386.14 305.94" stroke-dasharray="30 38" transform="rotate(72.8, 400, 400)" opacity="0.81"></path><path d="M380.98 317.5C388.89 319.45 395.76 324.62 401.45 331.99 407.2 340.24 411.91 349.8 415.57 359.74 419.54 369.68 422.78 379.7 425.26 389.29 428.4 398.79 431.09 408 433.09 416.49 435.07 440.03 416.05 436.69 404.18 433.05 395.81 433.04 386.96 433.59 378.15 434.32 369.39 436.38 360.72 437.46 352.66 437.03 344.75 436.72 337.56 434.35 331.64 429.88 326.07 425.27 321.97 418.68 319.88 410.27 318.38 401.86 319.12 392.49 321.73 382.73 324.86 372.95 329.68 362.76 335.69 352.82 342.02 343.15 349.32 334.19 357.07 326.96 364.94 320.93 373.08 317.49 380.98 317.5" stroke-dasharray="15 34" transform="rotate(76.44, 400, 400)" opacity="0.85"></path><path d="M377.01 329.05C383.26 330.49 388.86 334.29 393.65 339.77 398.48 345.95 402.63 353.29 406.01 361.1 409.61 369.08 412.64 377.26 415.02 385.12 417.82 392.98 420.14 400.49 421.77 407.19 422.38 425.11 406.92 423.95 397.58 421.49 390.99 421.3 383.99 421.21 377.03 421.07 370.11 421.89 363.27 422.02 356.93 421.17 347.9 419.59 334.49 409.04 331.2 399.87 329.91 393.24 330.33 385.75 332.18 377.93 334.37 370.16 337.88 362.16 342.35 354.53 347.02 347.22 352.51 340.64 358.44 335.5 364.43 331.22 370.75 328.89 377.01 329.05" stroke-dasharray="12 14" transform="rotate(80.08, 400, 400)" opacity="0.89"></path><path d="M374.46 340.61C383.79 343.28 391.71 351.87 397.36 362.73 403.53 374.33 408.26 386.7 410.45 396.59 413.69 409.15 404.17 413.55 391.12 409.94 381.39 410.21 370.61 409.33 361.3 406.65 352.32 404.9 345.27 399.27 342.52 389.49 340.68 379.7 343.65 367.79 349.69 357.12 356.2 347.46 365.13 340.85 374.46 340.61" stroke-dasharray="29 5" transform="rotate(83.72, 400, 400)" opacity="0.92"></path><path d="M373.5 352.16C385.91 356.41 396.54 373.61 399.12 386.61 403.59 399.59 398 402.94 385.22 398.38 372.43 399.45 357.82 393.89 353.84 381.01 351.54 368.13 361.09 353.16 373.5 352.16" stroke-dasharray="8 7" transform="rotate(87.36, 400, 400)" opacity="0.96"></path></g></svg>