<svg xmlns="http://www.w3.org/2000/svg" version="1.1" xmlns:xlink="http://www.w3.org/1999/xlink" xmlns:svgjs="http://svgjs.dev/svgjs" viewBox="0 0 640 800"><defs><linearGradient x1="50%" y1="0%" x2="50%" y2="100%" id="ccchaos-grad"><stop stop-color="hsl(235, 89%, 53%)" stop-opacity="1" offset="0%"></stop><stop stop-color="rgb(227, 29, 128)" stop-opacity="1" offset="100%"></stop></linearGradient></defs><g stroke-width="2" stroke="url(#ccchaos-grad)" fill="none" stroke-linecap="round"><path d="M348.01 -94.67C356.97 -94.91 365.89 -94.59 374.78 -93.72 383.67 -92.53 392.52 -90.84 401.32 -88.71 410.11 -86.38 418.85 -83.72 427.51 -80.79 436.16 -77.84 444.72 -74.75 453.17 -71.58 461.58 -68.56 469.87 -65.56 478 -62.63 486.07 -59.96 493.96 -57.41 501.64 -54.97 509.23 -52.83 516.57 -50.79 523.65 -48.85 530.59 -47.14 537.23 -45.47 543.54 -43.77 552.56 -41.38 568.42 -35.89 575.17 -32.54 581.21 -28.69 590.89 -18.94 594.61 -12.95 597.82 -6.22 602.8 9.36 604.86 18.1 606.36 24.19 607.87 30.52 609.45 37.05 611.41 43.67 613.58 50.44 616.07 57.33 619.12 64.23 622.63 71.2 626.66 78.22 631.42 85.18 636.81 92.16 642.89 99.14 649.78 106.02 657.38 112.88 665.71 119.73 674.79 126.45 684.53 133.16 694.87 139.84 705.77 146.4 717.09 152.95 728.71 159.5 740.54 165.94 752.39 172.39 764.1 178.87 775.54 185.25 786.5 191.68 796.78 198.16 806.31 204.57 814.83 211.05 822.17 217.62 828.35 224.13 833.1 230.74 836.34 237.45 838.19 244.13 838.45 250.91 837.12 257.82 834.49 264.7 830.41 271.71 825 278.84 818.69 285.96 811.42 293.21 803.39 300.59 795.14 307.95 786.64 315.45 778.18 323.07 770.29 330.69 762.96 338.44 756.46 346.31 751.26 354.17 747.29 362.16 744.74 370.27 743.92 378.38 744.67 386.62 747.02 394.97 751.09 403.32 756.52 411.7 763.13 420.09 770.94 428.49 779.44 436.91 788.36 445.34 797.67 453.78 806.83 462.24 815.55 470.72 823.83 479.2 831.14 487.7 837.29 496.22 842.33 504.75 845.86 513.29 847.79 521.83 848.27 530.39 847.04 538.95 844.14 547.51 839.81 556.07 833.94 564.61 826.67 573.13 818.27 581.64 808.79 590.1 798.41 598.51 787.42 606.88 775.91 615.16 764.11 623.34 752.24 631.45 740.45 639.42 728.89 647.22 717.76 654.91 707.14 662.39 697.16 669.64 687.94 676.73 679.5 683.55 671.87 690.08 665.16 696.4 659.29 702.39 654.21 708.03 648.31 715.97 640.87 729.71 638.85 735.52 637.43 745.29 635.84 757.87 634.53 761.91 632.63 766.39 626.11 776.79 621.38 782.97 617.75 787.67 613.6 792.71 608.95 798.08 603.99 803.91 598.56 810.02 592.67 816.38 586.51 823.05 579.95 829.84 573.02 836.65 565.88 843.51 558.41 850.21 550.66 856.63 542.75 862.8 534.61 868.48 526.28 873.57 517.84 878.12 509.24 881.92 500.53 884.9 491.75 887.2 482.88 888.62 473.96 889.17 465 889.08 456 888.22 446.99 886.64 437.97 884.69 428.95 882.26 419.94 879.48 410.94 876.73 401.95 873.92 393 871.21 384.06 868.96 375.15 867.07 366.28 865.65 357.41 864.99 348.58 864.93 339.79 865.5 331 866.88 322.35 868.8 313.83 871.15 305.31 874.06 296.91 877.15 288.63 880.28 280.33 883.53 272.14 886.52 264.06 889.08 255.94 891.33 247.93 892.9 239.99 893.71 232.02 893.89 224.13 893.19 216.31 891.58 208.43 889.25 200.62 886.06 192.86 882.05 185.05 877.46 177.28 872.21 169.56 866.41 161.77 860.31 154.02 853.89 146.31 847.25 138.53 840.65 130.79 834.05 123.09 827.55 115.33 821.37 107.62 815.44 99.95 809.81 92.24 804.66 84.58 799.88 76.99 795.46 69.39 791.56 61.87 787.98 54.44 784.71 47.02 781.86 39.72 779.22 32.55 776.71 25.42 774.47 18.45 772.25 11.64 769.98 4.91 767.8 -1.63 765.45 -7.99 762.87 -14.24 760.22 -20.29 757.26 -26.12 753.95 -31.84 750.45 -37.35 746.55 -42.63 742.25 -47.83 737.7 -52.81 732.73 -57.58 727.36 -62.29 721.73 -66.82 715.72 -71.17 709.35 -75.49 702.75 -79.67 695.83 -83.71 688.63 -87.78 681.25 -91.73 673.63 -95.58 665.81 -99.49 657.87 -103.31 649.77 -107.05 641.55 -110.87 633.25 -114.6 624.87 -118.23 616.42 -121.93 607.94 -125.52 599.42 -128.98 590.88 -132.47 582.34 -135.79 573.79 -138.92 565.25 -142.02 556.72 -144.9 548.2 -147.53 539.7 -150.08 531.23 -152.35 522.77 -154.31 514.32 -156.17 505.9 -157.73 497.5 -158.97 489.11 -160.1 480.74 -160.95 472.38 -161.51 464.03 -162.01 455.69 -162.28 447.35 -162.32 439.03 -162.38 430.7 -162.28 422.38 -162.04 414.07 -161.88 405.75 -161.64 397.43 -161.32 389.12 -161.13 380.81 -160.89 372.6 -160.59 364.49 -160.43 356.39 -160.2 348.38 -159.88 340.49 -159.64 332.6 -159.28 324.82 -158.76 317.16 -158.26 309.5 -157.56 301.96 -156.62 294.55 -155.64 287.14 -154.4 279.86 -152.87 272.71 -151.25 265.57 -149.34 258.56 -147.14 251.69 -144.83 244.82 -142.25 238.09 -139.39 231.49 -136.46 224.88 -133.29 218.41 -129.9 212.06 -126.49 205.69 -122.9 199.44 -119.14 193.3 -115.41 187.12 -111.56 181.03 -107.59 175.03 -103.69 168.96 -99.7 162.95 -95.63 157 -91.63 150.95 -87.55 144.93 -83.39 138.93 -79.3 132.81 -75.11 126.68 -70.81 120.54 -66.55 114.26 -62.16 107.95 -57.63 101.61 -53.09 95.13 -48.38 88.62 -43.5 82.08 -38.57 75.41 -33.43 68.73 -28.1 62.06 -22.68 55.3 -17.04 48.59 -11.19 41.94 -5.24 35.28 0.93 28.73 7.31 22.34 13.8 16.02 20.5 9.91 27.39 4.06 34.37 -1.64 41.54 -7.03 48.86 -12.08 56.26 -16.91 63.81 -21.37 71.49 -25.43 79.21 -29.24 87.05 -32.65 94.99 -35.66 102.95 -38.45 110.99 -40.88 119.11 -42.96 127.23 -44.92 135.41 -46.6 143.64 -48.05 151.86 -49.51 160.13 -50.83 168.43 -52.06 176.71 -53.43 185.04 -54.81 193.4 -56.23 201.73 -57.91 210.1 -59.68 218.51 -61.58 226.9 -63.78 235.33 -66.1 243.8 -68.52 252.26 -71.21 260.76 -73.94 269.33 -76.67 277.87 -79.53 286.48 -82.28 295.16 -84.85 303.82 -87.36 312.56 -89.56 321.36 -91.39 330.17 -92.98 339.05 -94.09 348 -94.67" stroke-dasharray="42 33" transform="rotate(0, 320, 400)" opacity="0.05"></path><path d="M348.02 -76.89C356.64 -77.14 365.19 -76.84 373.66 -76.02 382.12 -74.89 390.5 -73.29 398.78 -71.25 407.05 -69.02 415.2 -66.45 423.24 -63.6 431.25 -60.72 439.12 -57.68 446.84 -54.54 454.51 -51.52 462 -48.5 469.3 -45.51 476.53 -42.77 483.54 -40.11 490.31 -37.56 496.98 -35.29 503.39 -33.13 509.51 -31.06 518.36 -28.35 534.23 -23.29 541.19 -20.71 547.59 -18.06 558.42 -11.61 562.89 -7.62 566.94 -3.06 573.74 8.12 576.7 14.77 578.76 19.53 580.77 24.63 582.79 30.03 585.08 35.61 587.51 41.47 590.13 47.57 593.19 53.8 596.57 60.22 600.33 66.8 604.67 73.45 609.49 80.21 614.85 87.07 620.89 93.93 627.52 100.84 634.76 107.8 642.69 114.7 651.23 121.62 660.34 128.54 670.03 135.38 680.2 142.21 690.78 149.04 701.71 155.76 712.86 162.48 724.1 169.18 735.34 175.79 746.42 182.4 757.17 189.01 767.52 195.53 777.24 202.08 786.19 208.65 794.32 215.14 801.4 221.68 807.3 228.27 812.07 234.8 815.5 241.4 817.5 248.06 818.26 254.68 817.57 261.39 815.48 268.18 812.27 274.95 807.81 281.81 802.23 288.78 795.93 295.72 788.85 302.78 781.18 309.94 773.41 317.09 765.51 324.36 757.71 331.74 750.52 339.12 743.89 346.61 738.05 354.22 733.43 361.83 729.95 369.56 727.76 377.4 727.14 385.25 727.95 393.21 730.2 401.3 734.01 409.38 739.05 417.5 745.17 425.63 752.39 433.76 760.27 441.92 768.56 450.09 777.26 458.27 785.88 466.46 794.16 474.66 802.12 482.87 809.28 491.08 815.44 499.3 820.68 507.52 824.6 515.73 827.1 523.93 828.33 532.13 828.02 540.31 826.18 548.45 823.02 556.57 818.4 564.65 812.44 572.67 805.36 580.64 797.17 588.54 788.03 596.34 778.18 604.07 767.7 611.68 756.77 619.14 745.6 626.51 734.31 633.69 723.06 640.68 712.03 647.54 701.3 654.17 691 660.54 681.25 666.76 672.11 672.7 663.61 678.33 655.87 683.8 648.86 688.95 642.55 693.78 634.65 700.61 623.17 712.51 619.26 717.66 614.82 726.9 610.61 740.05 609.17 744.69 607.49 749.92 602.34 762.01 598.68 769.03 595.91 774.23 592.7 779.71 589.05 785.47 585.17 791.58 580.85 797.88 576.1 804.33 571.13 810.98 565.76 817.63 560.01 824.2 554.06 830.72 547.77 836.98 541.16 842.89 534.39 848.49 527.35 853.56 520.06 858 512.65 861.92 505.03 865.1 497.23 867.5 489.35 869.27 481.32 870.23 473.16 870.41 464.96 870.04 456.66 868.98 448.28 867.31 439.88 865.35 431.41 862.98 422.91 860.34 414.4 857.77 405.85 855.18 397.29 852.71 388.73 850.68 380.15 848.98 371.57 847.73 363 847.17 354.41 847.16 345.83 847.72 337.25 849.02 328.77 850.8 320.39 852.99 312 855.69 303.7 858.58 295.5 861.51 287.28 864.59 279.14 867.44 271.08 869.94 263.01 872.19 255 873.86 247.05 874.85 239.08 875.3 231.17 874.95 223.31 873.77 215.41 871.95 207.56 869.29 199.76 865.86 191.91 861.86 184.11 857.19 176.34 851.94 168.53 846.34 160.75 840.35 153.02 834.06 145.25 827.72 137.51 821.27 129.82 814.83 122.11 808.58 114.44 802.48 106.84 796.59 99.23 791.08 91.68 785.87 84.22 780.96 76.77 776.51 69.42 772.38 62.18 768.54 54.99 765.13 47.92 761.96 40.99 758.98 34.13 756.32 27.43 753.76 20.91 751.24 14.48 748.89 8.23 746.49 2.19 743.97 -3.75 741.47 -9.48 738.78 -15.01 735.84 -20.43 732.81 -25.64 729.47 -30.64 725.8 -35.55 721.97 -40.26 717.77 -44.78 713.22 -49.24 708.46 -53.52 703.34 -57.64 697.88 -61.74 692.2 -65.7 686.2 -69.53 679.9 -73.38 673.42 -77.12 666.66 -80.75 659.67 -84.44 652.53 -88.03 645.19 -91.54 637.67 -95.11 630.05 -98.59 622.29 -101.97 614.41 -105.41 606.47 -108.74 598.44 -111.94 590.34 -115.17 582.22 -118.24 574.04 -121.14 565.84 -124.03 557.62 -126.72 549.39 -129.18 541.14 -131.59 532.91 -133.76 524.67 -135.66 516.44 -137.49 508.21 -139.05 500 -140.34 491.8 -141.56 483.61 -142.52 475.43 -143.23 467.28 -143.9 459.12 -144.35 450.99 -144.59 442.87 -144.84 434.75 -144.92 426.66 -144.86 418.58 -144.85 410.5 -144.73 402.44 -144.49 394.4 -144.36 386.36 -144.13 378.44 -143.81 370.63 -143.59 362.82 -143.26 355.12 -142.82 347.55 -142.44 339.97 -141.92 332.52 -141.24 325.18 -140.57 317.84 -139.7 310.62 -138.62 303.53 -137.51 296.43 -136.15 289.46 -134.55 282.61 -132.89 275.75 -130.96 269.01 -128.78 262.4 -126.53 255.77 -124.03 249.25 -121.3 242.84 -118.51 236.41 -115.52 230.09 -112.32 223.86 -109.12 217.58 -105.75 211.4 -102.23 205.29 -98.75 199.11 -95.14 193 -91.42 186.94 -87.76 180.8 -84.01 174.69 -80.17 168.6 -76.41 162.42 -72.56 156.23 -68.64 150.05 -64.77 143.75 -60.81 137.43 -56.76 131.1 -52.73 124.64 -48.59 118.16 -44.32 111.67 -40.04 105.06 -35.62 98.45 -31.03 91.84 -26.4 85.15 -21.59 78.48 -16.6 71.87 -11.52 65.22 -6.25 58.67 -0.77 52.23 4.8 45.83 10.59 39.59 16.58 33.56 22.67 27.63 28.97 21.96 35.47 16.57 42.06 11.37 48.84 6.48 55.79 1.94 62.84 -2.36 70.03 -6.31 77.38 -9.87 84.79 -13.22 92.33 -16.19 99.98 -18.81 107.68 -21.25 115.48 -23.37 123.37 -25.21 131.28 -26.97 139.27 -28.51 147.33 -29.87 155.39 -31.28 163.51 -32.6 171.68 -33.87 179.85 -35.31 188.06 -36.78 196.31 -38.31 204.55 -40.1 212.83 -41.99 221.14 -43.99 229.44 -46.29 237.77 -48.68 246.14 -51.17 254.49 -53.88 262.89 -56.62 271.31 -59.34 279.73 -62.17 288.18 -64.86 296.67 -67.37 305.15 -69.81 313.68 -71.94 322.23 -73.71 330.79 -75.25 339.39 -76.32 348.01 -76.89" stroke-dasharray="40 62" transform="rotate(2.9615384615384617, 320, 400)" opacity="0.09"></path><path d="M344.29 -59.11C352.51 -59.36 360.62 -59.09 368.61 -58.33 376.59 -57.26 384.45 -55.74 392.18 -53.8 399.88 -51.66 407.44 -49.19 414.84 -46.45 422.21 -43.64 429.4 -40.66 436.4 -37.57 443.36 -34.56 450.12 -31.53 456.65 -28.52 463.12 -25.71 469.35 -22.96 475.33 -20.31 484.04 -16.77 499.94 -10.54 507.08 -7.75 513.79 -5.25 525.57 -0.12 530.69 2.71 535.47 5.77 543.91 13.31 547.73 17.92 551.6 23.11 559.5 35.44 563.81 42.56 567.07 47.59 570.54 52.92 574.29 58.51 578.5 64.24 583.07 70.21 588.06 76.39 593.59 82.65 599.59 89.08 606.1 95.66 613.2 102.27 620.81 108.98 628.94 115.78 637.61 122.57 646.74 129.41 656.31 136.29 666.27 143.13 676.54 149.99 687.03 156.86 697.67 163.66 708.35 170.47 718.94 177.27 729.37 184 739.48 190.73 749.13 197.46 758.25 204.12 766.67 210.78 774.24 217.46 780.98 224.06 786.66 230.69 791.2 237.35 794.67 243.95 796.88 250.59 797.79 257.28 797.59 263.92 796.12 270.61 793.41 277.37 789.76 284.1 785.06 290.9 779.41 297.77 773.22 304.62 766.4 311.56 759.14 318.59 751.88 325.59 744.59 332.7 737.46 339.9 730.93 347.09 724.97 354.38 719.77 361.78 715.69 369.17 712.66 376.67 710.8 384.27 710.38 391.87 711.23 399.57 713.37 407.39 716.94 415.2 721.61 423.03 727.25 430.87 733.92 438.71 741.19 446.57 748.87 454.42 756.98 462.27 765.05 470.13 772.87 477.98 780.48 485.83 787.43 493.67 793.53 501.48 798.88 509.29 803.09 517.07 806.05 524.81 807.92 532.53 808.41 540.21 807.51 547.81 805.42 555.39 801.97 562.88 797.23 570.28 791.44 577.62 784.53 584.85 776.64 591.95 768 598.97 758.64 605.83 748.7 612.52 738.41 619.11 727.83 625.49 717.12 631.66 706.44 637.71 695.88 643.52 685.55 649.08 675.58 654.5 666.03 659.66 656.97 664.54 648.49 669.3 640.6 673.78 633.31 677.98 626.7 682.08 620.72 685.93 615.32 689.53 608.51 694.75 598.24 704.34 594.47 708.87 591.6 713.55 587.01 723.37 584.92 728.74 582.91 734.75 577.97 748.42 574.81 756.15 572.52 761.73 569.88 767.53 566.89 773.52 563.76 779.76 560.25 786.11 556.37 792.51 552.32 798.98 547.91 805.37 543.14 811.59 538.2 817.67 532.93 823.43 527.34 828.78 521.6 833.77 515.57 838.2 509.26 842.02 502.84 845.32 496.18 847.91 489.29 849.76 482.32 851.06 475.15 851.62 467.8 851.48 460.4 850.87 452.85 849.67 445.17 847.95 437.46 846.01 429.63 843.74 421.71 841.25 413.77 838.86 405.75 836.49 397.66 834.24 389.56 832.42 381.4 830.92 373.2 829.81 364.99 829.36 356.73 829.4 348.43 829.94 340.13 831.16 331.89 832.82 323.7 834.84 315.52 837.35 307.39 840.03 299.32 842.77 291.24 845.66 283.21 848.38 275.24 850.8 267.25 853.03 259.31 854.76 251.41 855.9 243.5 856.57 235.63 856.53 227.8 855.74 219.94 854.37 212.13 852.23 204.34 849.35 196.54 845.92 188.77 841.83 181.04 837.15 173.29 832.09 165.57 826.58 157.9 820.73 150.22 814.73 142.58 808.55 135 802.27 127.42 796.09 119.9 789.95 112.46 783.94 105.03 778.2 97.69 772.67 90.45 767.39 83.24 762.49 76.15 757.86 69.19 753.51 62.28 749.55 55.52 745.84 48.91 742.35 42.39 739.2 36.03 736.2 29.85 733.31 23.78 730.65 17.89 728.02 12.2 725.36 6.61 722.82 1.23 720.17 -3.94 717.37 -11.46 713.07 -25.38 703.18 -31.82 697.45 -36 693.4 -40.02 689.03 -43.88 684.35 -47.73 679.5 -51.45 674.34 -55.04 668.9 -58.65 663.28 -62.16 657.39 -65.56 651.24 -69.01 644.95 -72.37 638.43 -75.65 631.7 -78.98 624.85 -82.22 617.83 -85.36 610.65 -88.57 603.39 -91.66 595.99 -94.63 588.49 -97.64 580.94 -100.51 573.29 -103.22 565.58 -105.93 557.84 -108.46 550.04 -110.8 542.21 -113.11 534.36 -115.21 526.49 -117.08 518.6 -118.91 510.7 -120.5 502.8 -121.86 494.89 -123.16 486.99 -124.24 479.09 -125.09 471.2 -125.91 463.32 -126.53 455.44 -126.95 447.58 -127.37 439.73 -127.62 431.89 -127.71 424.07 -127.83 416.26 -127.82 408.46 -127.67 400.69 -127.59 392.92 -127.37 385.26 -127.04 377.72 -126.77 370.18 -126.37 362.76 -125.83 355.45 -125.33 348.14 -124.67 340.94 -123.85 333.85 -123.02 326.76 -122.01 319.79 -120.8 312.92 -119.56 306.05 -118.1 299.28 -116.42 292.62 -114.69 285.95 -112.73 279.37 -110.55 272.89 -108.32 266.39 -105.88 259.98 -103.23 253.65 -100.55 247.29 -97.68 241 -94.64 234.78 -91.6 228.5 -88.42 222.28 -85.09 216.11 -81.81 209.87 -78.41 203.67 -74.9 197.49 -71.46 191.23 -67.94 184.98 -64.32 178.73 -60.78 172.39 -57.16 166.05 -53.46 159.7 -49.83 153.26 -46.1 146.8 -42.29 140.33 -38.51 133.77 -34.62 127.21 -30.62 120.66 -26.62 114.03 -22.49 107.43 -18.21 100.87 -13.9 94.28 -9.43 87.76 -4.79 81.33 -0.08 74.92 4.81 68.65 9.89 62.53 15.06 56.5 20.42 50.68 25.98 45.08 31.65 39.63 37.51 34.46 43.56 29.59 49.71 24.9 56.04 20.55 62.56 16.53 69.16 12.73 75.94 9.27 82.86 6.17 89.87 3.25 97.01 0.66 104.28 -1.6 111.62 -3.75 119.07 -5.63 126.62 -7.27 134.22 -8.89 141.91 -10.34 149.67 -11.66 157.47 -13.07 165.33 -14.42 173.24 -15.76 181.18 -17.29 189.17 -18.86 197.19 -20.51 205.23 -22.41 213.3 -24.42 221.39 -26.52 229.5 -28.9 237.63 -31.36 245.78 -33.89 253.94 -36.62 262.11 -39.36 270.3 -42.05 278.5 -44.83 286.7 -47.47 294.92 -49.91 303.14 -52.27 311.36 -54.33 319.59 -56.04 327.82 -57.52 336.05 -58.55 344.28 -59.11" stroke-dasharray="53 20" transform="rotate(5.923076923076923, 320, 400)" opacity="0.12"></path><path d="M337.31 -41.33C345.08 -41.58 352.71 -41.34 360.2 -40.63 367.68 -39.63 375 -38.2 382.17 -36.36 389.31 -34.32 396.29 -31.95 403.08 -29.31 409.85 -26.59 416.43 -23.69 422.79 -20.66 429.13 -17.68 435.24 -14.66 441.13 -11.63 446.97 -8.77 452.57 -5.97 457.93 -3.22 465.76 0.48 480.07 7.1 486.55 10.06 492.71 12.7 503.83 17.87 508.86 20.59 513.76 23.42 523.02 30.16 527.56 34.2 532.36 38.72 542.67 49.52 548.44 55.81 552.7 60.28 557.24 65.04 562.09 70.07 567.38 75.26 573.04 80.71 579.1 86.38 585.65 92.17 592.62 98.16 600.02 104.32 607.9 110.56 616.2 116.94 624.89 123.45 633.97 129.98 643.38 136.61 653.06 143.32 662.96 150.01 673.01 156.77 683.11 163.56 693.2 170.32 703.16 177.11 712.89 183.91 722.33 190.67 731.32 197.44 739.75 204.22 747.6 210.94 754.68 217.67 760.89 224.42 766.27 231.1 770.63 237.8 773.9 244.52 776.19 251.19 777.33 257.88 777.29 264.6 776.29 271.27 774.17 277.99 770.99 284.74 767.04 291.46 762.2 298.23 756.59 305.06 750.58 311.86 744.1 318.72 737.29 325.64 730.57 332.55 723.88 339.53 717.4 346.59 711.54 353.63 706.22 360.76 701.6 367.96 698.04 375.16 695.43 382.44 693.88 389.8 693.62 397.16 694.51 404.61 696.55 412.14 699.88 419.67 704.2 427.2 709.39 434.72 715.52 442.23 722.22 449.74 729.3 457.22 736.82 464.71 744.35 472.17 751.69 479.6 758.92 487.03 765.61 494.42 771.59 501.76 776.97 509.08 781.37 516.36 784.69 523.56 787.08 530.73 788.25 537.83 788.18 544.83 787.04 551.8 784.65 558.65 781.07 565.38 776.48 572.05 770.82 578.58 764.18 584.96 756.76 591.26 748.57 597.39 739.73 603.33 730.44 609.18 720.73 614.82 710.75 620.25 700.66 625.59 690.51 630.69 680.42 635.57 670.53 640.34 660.87 644.89 651.54 649.2 642.63 653.43 634.15 657.44 626.14 661.24 618.69 665 611.75 668.58 605.33 671.99 596.85 677.07 583.09 686.86 577.63 691.75 573.16 696.93 565.89 708.06 562.77 714.18 559.98 720.94 554.25 735.95 551.06 744.19 548.88 750.02 546.46 755.99 543.79 762.06 541.05 768.29 538.02 774.53 534.69 780.73 531.27 786.92 527.53 792.94 523.48 798.71 519.31 804.28 514.83 809.47 510.06 814.22 505.17 818.58 499.99 822.39 494.53 825.59 488.98 828.3 483.17 830.35 477.11 831.72 470.98 832.58 464.63 832.8 458.07 832.4 451.45 831.61 444.64 830.31 437.67 828.57 430.66 826.68 423.49 824.52 416.19 822.19 408.86 820 401.41 817.85 393.84 815.82 386.27 814.2 378.59 812.88 370.82 811.92 363.04 811.55 355.17 811.63 347.23 812.16 339.28 813.31 331.35 814.84 323.44 816.71 315.54 819.03 307.65 821.51 299.79 824.05 291.93 826.77 284.09 829.34 276.28 831.66 268.47 833.85 260.68 835.61 252.92 836.86 245.15 837.72 237.41 837.94 229.7 837.49 221.98 836.53 214.29 834.86 206.63 832.5 198.97 829.62 191.34 826.1 183.74 822 176.16 817.5 168.61 812.53 161.11 807.16 153.62 801.59 146.19 795.76 138.82 789.76 131.48 783.76 124.21 777.72 117.03 771.71 109.9 765.88 102.86 760.17 95.93 754.63 89.06 749.4 82.31 744.38 75.7 739.59 69.17 735.15 62.79 730.94 56.57 726.95 50.44 723.29 44.49 719.81 38.71 716.47 33.04 713.4 27.56 710.42 22.27 707.48 14.58 703.32 0.31 694.86 -6.28 690.36 -12.59 685.66 -24.31 675.08 -29.77 669.1 -33.35 664.92 -36.81 660.47 -40.16 655.75 -43.53 650.91 -46.8 645.8 -49.97 640.44 -53.19 634.96 -56.33 629.24 -59.38 623.3 -62.49 617.25 -65.51 611 -68.44 604.57 -71.43 598.05 -74.33 591.37 -77.11 584.55 -79.93 577.66 -82.63 570.65 -85.19 563.54 -87.77 556.39 -90.19 549.15 -92.44 541.84 -94.68 534.5 -96.74 527.11 -98.61 519.67 -100.44 512.22 -102.08 504.73 -103.51 497.22 -104.91 489.71 -106.1 482.17 -107.08 474.63 -108.05 467.09 -108.82 459.54 -109.39 452 -109.97 444.46 -110.36 436.92 -110.59 429.39 -110.83 421.87 -110.92 414.35 -110.85 406.85 -110.81 399.36 -110.62 391.96 -110.28 384.67 -109.97 377.38 -109.51 370.19 -108.9 363.1 -108.29 356.01 -107.52 349.02 -106.58 342.13 -105.63 335.23 -104.49 328.43 -103.16 321.72 -101.8 315 -100.24 308.36 -98.48 301.81 -96.68 295.24 -94.68 288.75 -92.48 282.33 -90.25 275.88 -87.83 269.49 -85.23 263.17 -82.62 256.8 -79.84 250.48 -76.91 244.21 -74 237.88 -70.95 231.59 -67.78 225.32 -64.66 218.99 -61.43 212.67 -58.11 206.37 -54.86 200 -51.52 193.63 -48.11 187.26 -44.76 180.81 -41.35 174.36 -37.86 167.92 -34.44 161.4 -30.94 154.89 -27.35 148.39 -23.81 141.84 -20.18 135.31 -16.44 128.82 -12.72 122.3 -8.87 115.85 -4.9 109.47 -0.91 103.11 3.21 96.86 7.5 90.74 11.83 84.68 16.34 78.8 21.01 73.11 25.76 67.54 30.69 62.2 35.8 57.11 41.01 52.19 46.39 47.55 51.96 43.21 57.63 39.06 63.48 35.22 69.5 31.72 75.62 28.39 81.9 25.39 88.34 22.7 94.86 20.16 101.54 17.9 108.34 15.91 115.23 14 122.23 12.3 129.35 10.78 136.52 9.25 143.8 7.84 151.16 6.52 158.57 5.08 166.06 3.66 173.61 2.23 181.19 0.6 188.83 -1.08 196.52 -2.84 204.23 -4.86 211.98 -6.97 219.75 -9.17 227.55 -11.61 235.37 -14.13 243.2 -16.69 251.05 -19.43 258.9 -22.15 266.76 -24.81 274.63 -27.52 282.5 -30.09 290.35 -32.46 298.22 -34.74 306.07 -36.73 313.9 -38.37 321.73 -39.79 329.53 -40.79 337.3 -41.33" stroke-dasharray="43 23" transform="rotate(8.884615384615385, 320, 400)" opacity="0.16"></path><path d="M328.03 -23.55C335.31 -23.8 342.45 -23.59 349.43 -22.93 356.4 -22 363.21 -20.65 369.85 -18.91 376.48 -16.98 382.93 -14.72 389.19 -12.19 395.43 -9.57 401.48 -6.76 407.33 -3.8 413.14 -0.88 418.76 2.11 424.16 5.13 432.11 9.44 446.89 17.54 453.72 21.25 460.32 24.54 472.54 30.5 478.22 33.27 483.81 35.85 494.53 41.23 499.8 44.2 505.27 47.38 516.72 54.94 522.89 59.41 527.33 62.61 531.97 66.1 536.85 69.86 542.08 73.78 547.6 77.97 553.42 82.44 559.64 87.06 566.19 91.93 573.11 97.05 580.41 102.29 588.07 107.76 596.08 113.42 604.44 119.19 613.1 125.13 622.02 131.21 631.2 137.37 640.55 143.65 650.02 150.04 659.58 156.46 669.12 162.97 678.57 169.54 687.88 176.13 696.94 182.76 705.63 189.44 713.95 196.1 721.74 202.79 728.9 209.51 735.45 216.19 741.21 222.9 746.11 229.62 750.22 236.31 753.35 243.01 755.47 249.72 756.72 256.4 756.92 263.1 756.09 269.81 754.44 276.5 751.82 283.2 748.3 289.93 744.17 296.64 739.31 303.37 733.83 310.14 728.08 316.89 721.97 323.68 715.65 330.51 709.48 337.32 703.4 344.19 697.56 351.1 692.33 358 687.62 364.96 683.56 371.97 680.48 378.98 678.25 386.04 676.98 393.16 676.87 400.28 677.79 407.46 679.73 414.69 682.83 421.93 686.81 429.13 691.57 436.3 697.19 443.46 703.34 450.59 709.85 457.68 716.79 464.76 723.77 471.79 730.64 478.77 737.46 485.73 743.85 492.64 749.65 499.46 754.99 506.28 759.49 513.01 763.08 519.64 765.87 526.25 767.61 532.75 768.24 539.14 767.93 545.49 766.5 551.71 763.96 557.78 760.51 563.81 756.02 569.68 750.59 575.39 744.39 581.04 737.39 586.51 729.7 591.8 721.49 597.02 712.78 602.04 703.68 606.87 694.35 611.64 684.83 616.21 675.23 620.58 665.66 624.9 656.18 629.03 646.87 632.97 637.81 636.9 629.05 640.66 620.62 644.27 612.6 647.9 604.99 651.42 597.8 654.84 591.1 658.33 584.83 661.78 578.99 665.19 571.17 670.53 558.05 681.73 552.58 687.72 547.87 694.23 539.63 708.43 535.86 716.16 533.52 721.63 531.14 727.24 528.67 732.97 526.29 738.89 523.78 744.88 521.1 750.88 518.43 756.96 515.57 762.96 512.48 768.84 509.36 774.63 505.99 780.18 502.38 785.44 496.73 792.74 484.01 804.51 476.95 808.73 469.52 811.67 453.37 813.84 444.67 813.19 438.76 812.27 432.64 810.91 426.33 809.19 419.98 807.37 413.45 805.34 406.75 803.19 400.03 801.19 393.16 799.25 386.14 797.43 379.11 796.01 371.94 794.86 364.65 794.03 357.35 793.75 349.93 793.86 342.4 794.37 334.86 795.45 327.31 796.88 319.75 798.59 312.2 800.73 304.63 803.01 297.07 805.37 289.51 807.9 281.95 810.31 274.4 812.53 266.85 814.66 259.31 816.42 251.78 817.74 244.26 818.74 236.76 819.19 229.27 819.04 221.8 818.44 214.34 817.2 206.92 815.32 199.51 812.97 192.13 810 184.79 806.47 177.47 802.53 170.21 798.12 162.99 793.28 155.81 788.18 148.7 782.79 141.66 777.15 134.66 771.45 127.75 765.62 120.94 759.74 114.18 753.95 107.54 748.21 101.01 742.55 94.56 737.12 88.24 731.83 82.07 726.71 75.98 721.89 70.04 717.26 64.27 712.82 58.6 708.68 53.09 704.72 47.77 700.93 40.02 695.7 25.57 686.05 18.88 681.46 12.48 677.04 0.63 667.93 -4.85 663.1 -10.16 658.08 -20.13 647.01 -24.83 640.89 -29.49 634.41 -38.44 620.19 -42.75 612.47 -45.66 607.15 -48.5 601.63 -51.25 595.93 -54.06 590.14 -56.79 584.18 -59.42 578.06 -62.09 571.87 -64.66 565.54 -67.11 559.08 -69.59 552.57 -71.93 545.95 -74.13 539.23 -76.33 532.47 -78.38 525.64 -80.26 518.72 -82.12 511.79 -83.81 504.8 -85.32 497.75 -86.8 490.7 -88.1 483.6 -89.21 476.47 -90.3 469.34 -91.21 462.17 -91.93 454.99 -92.63 447.81 -93.16 440.62 -93.51 433.41 -93.85 426.21 -94.03 418.99 -94.03 411.78 -94.03 404.56 -93.86 397.43 -93.53 390.38 -93.19 383.33 -92.69 376.36 -92.01 369.47 -91.33 362.58 -90.47 355.77 -89.43 349.03 -88.37 342.29 -87.12 335.62 -85.69 329.02 -84.23 322.41 -82.58 315.86 -80.75 309.37 -78.88 302.86 -76.83 296.41 -74.6 290.01 -72.36 283.57 -69.94 277.19 -67.37 270.84 -64.79 264.45 -62.07 258.09 -59.22 251.76 -56.39 245.38 -53.44 239.02 -50.39 232.68 -47.39 226.28 -44.29 219.89 -41.12 213.52 -38.01 207.09 -34.83 200.66 -31.58 194.25 -28.4 187.79 -25.16 181.33 -21.85 174.9 -18.62 168.43 -15.32 161.99 -11.94 155.58 -8.62 149.16 -5.21 142.8 -1.72 136.5 1.74 130.23 5.31 124.05 8.99 117.98 12.67 111.97 16.48 106.1 20.43 100.4 24.4 94.8 28.52 89.39 32.8 84.2 37.13 79.15 41.62 74.34 46.28 69.8 51.02 65.42 55.92 61.32 61 57.51 66.16 53.88 71.49 50.54 76.99 47.5 82.58 44.61 88.33 42.01 94.24 39.67 100.23 37.44 106.37 35.45 112.65 33.67 119.01 31.93 125.49 30.35 132.09 28.92 138.76 27.42 145.54 26.01 152.41 24.65 159.34 23.14 166.35 21.64 173.43 20.1 180.56 18.36 187.75 16.55 194.99 14.67 202.27 12.54 209.59 10.34 216.94 8.06 224.32 5.55 231.73 3 239.14 0.43 246.58 -2.29 254.02 -4.98 261.46 -7.59 268.92 -10.25 276.37 -12.74 283.79 -15.03 291.23 -17.23 298.64 -19.13 306.01 -20.7 313.4 -22.06 320.73 -23.02 328.02 -23.55" stroke-dasharray="10 33" transform="rotate(11.846153846153847, 320, 400)" opacity="0.20"></path><path d="M317.67 -5.77C324.47 -6.02 331.12 -5.83 337.62 -5.22 344.12 -4.36 350.46 -3.1 356.63 -1.47 362.8 0.35 368.8 2.49 374.63 4.9 380.44 7.41 386.07 10.12 391.53 12.99 396.97 15.85 402.24 18.8 407.32 21.8 414.84 26.13 428.99 34.41 435.66 38.28 442.19 41.75 454.65 48.1 460.65 51.02 466.69 53.71 478.73 59.1 484.87 61.95 491.31 64.89 505.03 71.66 512.44 75.6 517.72 78.4 523.21 81.43 528.94 84.72 534.99 88.13 541.3 91.79 547.89 95.71 554.81 99.76 562.01 104.06 569.5 108.6 577.29 113.27 585.33 118.17 593.62 123.27 602.14 128.49 610.84 133.9 619.68 139.48 628.64 145.15 637.64 150.98 646.64 156.93 655.58 162.95 664.39 169.08 672.98 175.31 681.34 181.57 689.34 187.92 696.91 194.33 704.03 200.76 710.58 207.24 716.47 213.76 721.74 220.28 726.24 226.84 729.91 233.43 732.84 240 734.88 246.6 735.99 253.21 736.34 259.81 735.76 266.43 734.28 273.06 732.13 279.68 729.16 286.31 725.43 292.96 721.23 299.59 716.45 306.24 711.17 312.91 705.74 319.56 700.06 326.24 694.24 332.95 688.63 339.64 683.15 346.36 677.94 353.11 673.3 359.85 669.16 366.63 665.64 373.43 662.99 380.23 661.13 387.06 660.11 393.92 660.14 400.78 661.07 407.67 662.91 414.59 665.78 421.5 669.44 428.37 673.79 435.17 678.93 441.97 684.55 448.71 690.51 455.38 696.89 462.04 703.34 468.63 709.72 475.15 716.11 481.65 722.16 488.06 727.75 494.38 732.97 500.69 737.5 506.89 741.25 512.98 744.35 519.05 746.53 524.99 747.75 530.81 747.86 539.42 741.84 555.86 735.85 563.67 730.83 568.78 725.01 573.72 718.48 578.5 711.4 583.24 703.76 587.82 695.66 592.22 687.23 596.6 678.52 600.82 669.59 604.88 660.58 608.94 651.52 612.86 642.49 616.65 633.58 620.46 624.81 624.17 616.25 627.79 607.97 631.47 599.96 635.1 592.28 638.69 584.96 642.4 578 646.11 571.39 649.84 565.2 653.73 559.36 657.68 553.85 661.71 548.75 665.94 543.96 670.28 539.45 674.75 535.29 679.44 531.37 684.27 527.63 689.24 524.19 694.43 520.88 699.75 517.66 705.19 514.66 710.81 511.7 716.52 508.74 722.27 505.92 728.13 503.06 733.98 500.12 739.78 497.25 745.57 494.26 751.21 491.14 756.67 486.4 764.49 476.01 778.09 470.3 783.6 464.32 788.05 451.21 793.65 444.07 794.77 436.65 794.81 420.69 792.18 412.18 789.82 406.41 788.09 400.45 786.21 394.32 784.24 388.16 782.44 381.84 780.7 375.35 779.09 368.85 777.85 362.19 776.86 355.4 776.16 348.59 775.95 341.65 776.1 334.57 776.59 327.5 777.6 320.38 778.91 313.23 780.49 306.09 782.45 298.92 784.54 291.73 786.71 284.54 789.06 277.35 791.32 270.14 793.42 262.95 795.47 255.76 797.2 248.57 798.57 241.39 799.68 234.23 800.3 227.08 800.4 219.95 800.12 212.84 799.25 205.76 797.81 198.71 795.95 191.69 793.51 184.73 790.52 177.79 787.15 170.91 783.3 164.1 779.01 157.33 774.44 150.63 769.53 144.02 764.34 137.46 759.01 131 753.51 124.65 747.87 118.36 742.26 112.19 736.61 106.15 730.97 100.18 725.47 94.35 720.05 88.67 714.74 83.08 709.65 77.64 704.7 72.36 699.91 67.17 695.37 62.15 690.99 57.3 686.77 50.25 680.88 37.12 670.02 31.04 664.94 25.22 660.13 14.41 650.61 9.39 645.77 4.51 640.9 -4.68 630.51 -9.04 624.92 -13.38 619.09 -21.76 606.41 -25.81 599.55 -29.9 592.4 -37.81 577.1 -41.62 568.97 -44.19 563.44 -46.67 557.76 -49.04 551.93 -51.45 546.06 -53.75 540.06 -55.92 533.94 -58.11 527.79 -60.16 521.53 -62.06 515.17 -63.96 508.79 -65.71 502.32 -67.29 495.78 -68.86 489.22 -70.26 482.6 -71.48 475.92 -72.68 469.23 -73.7 462.49 -74.55 455.71 -75.37 448.92 -76 442.1 -76.46 435.24 -76.89 428.38 -77.14 421.49 -77.21 414.57 -77.25 407.65 -77.11 400.79 -76.78 393.99 -76.43 387.18 -75.9 380.43 -75.18 373.74 -74.44 367.04 -73.51 360.4 -72.39 353.81 -71.25 347.22 -69.92 340.67 -68.4 334.17 -66.86 327.66 -65.13 321.19 -63.23 314.77 -61.3 308.32 -59.21 301.91 -56.94 295.53 -54.67 289.13 -52.25 282.75 -49.68 276.4 -47.12 270.02 -44.43 263.65 -41.62 257.31 -38.85 250.93 -35.97 244.57 -32.99 238.22 -30.08 231.83 -27.08 225.46 -24 219.1 -21 212.71 -17.94 206.34 -14.81 200 -11.77 193.63 -8.67 187.3 -5.51 181.01 -2.43 174.71 0.7 168.47 3.9 162.3 7.04 156.14 10.25 150.07 13.53 144.11 16.77 138.19 20.1 132.41 23.52 126.76 26.92 121.2 30.44 115.81 34.07 110.61 37.71 105.52 41.47 100.65 45.38 96.01 51.35 89.38 64.12 77.62 70.93 72.53 78 67.93 93.04 60.2 100.99 57.02 106.43 55.03 112 53.24 117.71 51.61 123.5 49.98 129.42 48.46 135.45 47.05 141.56 45.55 147.77 44.09 154.09 42.66 160.46 41.06 166.93 39.45 173.47 37.8 180.06 35.94 186.73 34.01 193.45 32.02 200.21 29.8 207.02 27.51 213.87 25.16 220.75 22.62 227.66 20.05 234.58 17.47 241.53 14.77 248.49 12.12 255.45 9.57 262.42 6.99 269.39 4.58 276.33 2.38 283.29 0.27 290.22 -1.54 297.11 -3.04 304.01 -4.34 310.87 -5.26 317.66 -5.77" stroke-dasharray="75 51" transform="rotate(14.807692307692308, 320, 400)" opacity="0.23"></path><path d="M307.62 12C313.95 11.75 320.16 11.91 326.23 12.47 332.29 13.27 338.22 14.44 344.01 15.97 349.8 17.68 355.44 19.7 360.93 21.99 366.42 24.38 371.77 26.98 376.97 29.76 384.69 33.97 399.46 42.68 406.52 47 413.49 51.08 426.97 58.72 433.53 62.26 440.14 65.45 453.34 71.4 460.03 74.24 466.96 76.94 481.45 82.56 489.13 85.61 494.5 87.68 500.04 89.92 505.77 92.33 511.74 94.8 517.91 97.46 524.31 100.34 530.96 103.31 537.83 106.5 544.93 109.91 552.28 113.44 559.84 117.2 567.6 121.18 575.56 125.28 583.68 129.6 591.94 134.13 600.31 138.77 608.76 143.6 617.22 148.63 625.69 153.74 634.1 159.03 642.38 164.47 650.51 169.98 658.41 175.63 666 181.4 673.29 187.23 680.15 193.16 686.53 199.19 692.44 205.25 697.76 211.38 702.41 217.59 706.48 223.81 709.81 230.09 712.35 236.41 714.24 242.74 715.31 249.11 715.56 255.52 715.16 261.92 713.96 268.34 711.99 274.79 709.47 281.23 706.27 287.7 702.45 294.18 698.29 300.65 693.67 307.13 688.67 313.63 683.61 320.13 678.37 326.64 673.08 333.16 668.03 339.67 663.14 346.2 658.52 352.74 654.46 359.27 650.86 365.82 647.82 372.38 645.59 378.94 644.05 385.51 643.26 392.09 643.41 398.66 644.35 405.25 646.09 411.84 648.75 418.43 652.1 424.94 656.07 431.37 660.75 437.8 665.86 444.15 671.28 450.41 677.12 456.67 683.04 462.84 688.94 468.91 694.89 474.97 700.58 480.93 705.9 486.78 710.95 492.62 715.43 498.35 719.26 503.96 723.83 512.28 727.84 528.26 727.11 535.89 725.6 540.91 723.21 545.79 719.98 550.53 716.06 555.25 711.38 559.83 705.99 564.27 700.04 568.7 693.51 572.99 686.47 577.16 679.05 581.33 671.26 585.38 663.17 589.33 654.9 593.3 646.46 597.19 637.94 601 629.42 604.86 620.92 608.67 612.5 612.45 604.24 616.32 596.14 620.18 588.24 624.04 580.6 628.04 573.21 632.07 566.1 636.16 559.3 640.41 552.8 644.74 546.58 649.15 540.7 653.76 535.1 658.46 529.77 663.27 524.76 668.28 519.98 673.38 515.42 678.59 511.13 683.97 507.02 689.42 503.05 694.93 499.31 700.56 495.67 706.21 492.1 711.83 488.69 717.49 485.31 723.08 481.92 728.54 478.65 733.93 475.34 739.12 471.96 744.07 466.94 751.07 456.4 762.87 450.79 767.48 445.04 771.1 432.66 775.31 426.01 775.92 419.14 775.62 404.43 772.75 396.61 770.47 391.3 768.86 385.83 767.13 380.17 765.35 374.51 763.74 368.67 762.2 362.67 760.79 356.66 759.72 350.5 758.88 344.19 758.29 337.87 758.16 331.4 758.33 324.81 758.81 318.21 759.75 311.55 760.96 304.86 762.4 298.17 764.19 291.44 766.1 284.69 768.09 277.95 770.25 271.18 772.35 264.41 774.32 257.65 776.28 250.88 777.97 244.11 779.34 237.37 780.52 230.63 781.28 223.91 781.59 217.22 781.57 210.56 781.05 203.93 780 197.33 778.57 190.77 776.62 184.27 774.15 177.81 771.33 171.41 768.03 165.08 764.3 158.81 760.28 152.61 755.9 146.51 751.2 140.47 746.33 134.53 741.23 128.7 735.94 122.94 730.61 117.3 725.17 111.79 719.69 106.36 714.26 101.06 708.85 95.91 703.48 90.84 698.26 85.92 693.12 81.16 688.1 76.48 683.27 71.95 678.57 67.59 674 61.23 667.53 49.4 655.49 43.92 649.85 38.65 644.53 28.82 634.26 24.24 629.2 19.75 624.22 11.24 613.96 7.18 608.59 3.11 603.12 -4.77 591.43 -8.62 585.18 -12.52 578.73 -20.12 564.95 -23.8 557.63 -27.5 550.1 -34.54 534.27 -37.84 525.99 -40.03 520.4 -42.1 514.69 -44.03 508.86 -45.98 503.02 -47.78 497.07 -49.43 491.03 -51.08 484.97 -52.56 478.83 -53.88 472.61 -55.18 466.37 -56.3 460.07 -57.25 453.7 -58.16 447.32 -58.89 440.88 -59.44 434.38 -59.95 427.88 -60.27 421.33 -60.39 414.73 -60.47 408.12 -60.35 401.55 -60.04 395 -59.68 388.46 -59.13 381.94 -58.39 375.46 -57.61 368.97 -56.63 362.52 -55.46 356.1 -54.25 349.67 -52.86 343.27 -51.29 336.9 -49.68 330.51 -47.89 324.16 -45.94 317.83 -43.96 311.48 -41.81 305.15 -39.52 298.85 -37.22 292.53 -34.78 286.22 -32.21 279.94 -29.65 273.63 -26.97 267.34 -24.19 261.07 -21.44 254.78 -18.6 248.5 -15.68 242.25 -12.81 235.98 -9.87 229.73 -6.87 223.52 -3.94 217.29 -0.96 211.11 2.07 204.96 5.02 198.83 8.02 192.74 11.07 186.73 14.04 180.74 17.05 174.82 20.12 169.01 23.11 163.24 26.16 157.59 29.27 152.06 32.33 146.61 35.46 141.31 38.67 136.17 43.47 128.7 53.53 114.93 58.83 108.69 64.26 102.87 75.81 92.65 81.95 88.25 88.3 84.26 101.81 77.49 108.96 74.65 116.34 72.01 131.87 67.3 139.99 65.11 145.5 63.57 151.13 62.04 156.86 60.51 162.65 58.81 168.52 57.08 174.49 55.31 180.5 53.33 186.59 51.3 192.74 49.2 198.94 46.9 205.19 44.55 211.48 42.15 217.81 39.58 224.17 37.01 230.56 34.45 236.98 31.79 243.41 29.2 249.85 26.71 256.3 24.22 262.76 21.9 269.2 19.79 275.66 17.78 282.09 16.04 288.5 14.61 294.91 13.37 301.29 12.49 307.61 12" stroke-dasharray="13 46" transform="rotate(17.76923076923077, 320, 400)" opacity="0.27"></path><path d="M299.23 29.78C308.03 29.6 325.12 31.45 333.4 33.42 341.57 35.97 357.37 42.58 365.01 46.48 372.56 50.55 387.22 59.1 394.37 63.42 401.49 67.55 415.57 75.43 422.59 79.12 432.15 83.49 441.8 87.7 451.65 91.82 462.02 95.43 472.81 99.18 484.12 103.21 496.16 107.11 508.88 111.55 522.29 116.62 536.45 121.9 551.27 127.97 566.61 134.82 582.35 142.06 598.27 150.11 614.03 158.91 629.43 168.08 644.01 177.92 657.33 188.33 669.27 199.01 679.21 210.14 686.74 221.65 692.11 233.3 694.67 245.22 694.31 257.34 693.31 263.42 691.64 269.55 689.31 275.7 686.56 281.86 683.26 288.05 679.46 294.26 675.42 300.47 671.03 306.7 666.36 312.94 661.71 319.19 656.95 325.45 652.18 331.71 647.69 337.97 643.37 344.25 639.32 350.52 635.8 356.79 632.71 363.07 630.12 369.35 628.26 375.62 627.02 381.9 626.44 388.17 626.68 394.43 627.63 400.7 629.27 406.95 631.72 413.19 634.79 419.36 638.39 425.43 642.63 431.5 647.26 437.47 652.18 443.35 657.49 449.23 662.9 455.01 668.31 460.68 673.81 466.35 679.12 471.92 684.14 477.37 688.97 482.81 693.34 488.14 697.17 493.36 701.97 501.11 707.22 516.01 707.49 523.15 706.77 527.86 705.27 532.46 702.99 536.94 696.59 545.9 687.44 554.44 675.96 562.6 662.87 570.87 648.3 578.89 632.79 586.71 616.89 594.85 600.86 602.99 585.09 611.2 569.9 619.95 555.43 628.95 541.82 638.23 529.24 648.15 517.58 658.37 506.78 668.85 496.99 679.75 487.86 690.68 479.23 701.4 471.32 712.01 463.62 721.95 455.96 730.93 448.69 739.08 441.22 745.79 433.43 750.83 427.61 753.68 415.41 756.67 408.98 756.86 402.4 756.3 388.5 753.32 381.16 751.16 373.64 748.9 357.84 744.43 349.56 742.53 343.98 741.63 338.25 740.92 332.39 740.44 326.52 740.37 320.52 740.57 314.4 741.03 308.27 741.91 302.09 743.01 295.86 744.32 289.65 745.95 283.4 747.69 277.12 749.5 270.86 751.48 264.57 753.42 258.28 755.25 252 757.1 245.72 758.73 239.44 760.09 233.19 761.3 226.95 762.16 220.74 762.63 214.56 762.84 208.4 762.59 202.29 761.89 196.21 760.85 190.19 759.34 184.22 757.36 178.3 755.05 172.44 752.29 166.66 749.11 155.27 741.92 144.23 733.37 133.63 723.78 123.29 713.8 113.45 703.35 104.16 692.71 95.14 682.41 86.68 672.29 78.83 662.5 71.2 653.41 64.12 644.71 57.61 636.37 51.18 628.71 45.22 621.26 39.69 613.91 34.08 606.99 28.79 599.96 23.8 592.7 18.56 585.61 13.54 578.12 8.73 570.18 3.6 562.24 -1.32 553.75 -6.01 544.73 -9.65 537.85 -16.63 523.39 -19.93 515.82 -23.18 508.1 -29.11 492.03 -31.75 483.71 -33.46 478.12 -35.02 472.43 -36.42 466.64 -37.79 460.84 -39 454.96 -40.03 448.99 -41.02 443.02 -41.83 436.96 -42.45 430.83 -43.02 424.7 -43.39 418.49 -43.57 412.22 -43.68 405.94 -43.59 399.67 -43.3 393.41 -42.95 387.14 -42.39 380.89 -41.64 374.65 -40.83 368.41 -39.83 362.17 -38.63 355.96 -37.38 349.74 -35.95 343.53 -34.34 337.33 -32.68 331.13 -30.85 324.95 -28.86 318.78 -26.84 312.6 -24.67 306.43 -22.35 300.28 -20.03 294.12 -17.57 287.97 -14.99 281.85 -12.42 275.71 -9.75 269.6 -6.98 263.51 -1.55 251.32 4.18 239.24 10.17 227.34 15.86 215.49 21.75 203.88 27.79 192.6 33.49 181.5 39.36 170.85 45.41 160.75 51.18 150.99 57.21 141.91 63.53 133.62 69.72 125.77 76.31 118.76 83.3 112.66 90.32 106.96 97.84 102.08 105.84 97.98 113.99 94.03 122.67 90.63 131.83 87.66 141.19 84.41 151.03 81.28 161.29 78.15 169.13 75.42 185.34 69.46 193.67 66.2 199.28 63.84 204.96 61.44 210.69 59.01 216.45 56.44 222.25 53.88 228.1 51.35 233.96 48.75 239.86 46.23 245.77 43.82 251.71 41.43 257.65 39.2 263.59 37.19 269.55 35.27 275.5 33.62 281.44 32.27 287.39 31.09 293.32 30.26 299.22 29.78" stroke-dasharray="42 47" transform="rotate(20.73076923076923, 320, 400)" opacity="0.31"></path><path d="M293.6 47.56C301.86 47.37 318.03 49.06 325.94 50.87 336.45 54 346.69 58.17 356.68 63.17 366.72 68.3 376.58 73.87 386.3 79.67 396.18 85.08 406.04 90.45 415.95 95.69 426.18 100.3 436.62 104.76 447.35 109.1 458.55 112.91 470.2 116.78 482.34 120.8 495.04 124.58 508.29 128.75 522.06 133.39 536.29 138.1 550.89 143.46 565.71 149.48 580.59 155.77 595.31 162.79 609.53 170.5 623.13 178.53 635.68 187.23 646.77 196.5 656.45 206.05 664.13 216.11 669.52 226.59 672.98 237.24 673.94 248.24 672.37 259.49 669.1 270.84 663.7 282.39 656.52 294.07 648.78 305.8 640.25 317.62 631.56 329.49 624.01 341.38 617.48 353.29 612.53 365.19 611.01 371.14 610.03 377.09 609.63 383.03 609.97 388.96 610.91 394.89 612.45 400.79 614.71 406.7 617.49 412.52 620.75 418.24 624.58 423.97 628.75 429.6 633.19 435.14 643.09 446.2 653.08 456.88 662.49 467.15 671.45 477.4 678.65 487.26 683.66 496.69 686.84 506.14 687.28 515.2 684.95 523.9 680.44 532.66 673.35 541.14 664 549.36 653.03 557.78 640.42 566.07 626.63 574.29 612.19 582.87 597.25 591.52 582.2 600.3 567.36 609.57 552.87 619.05 538.93 628.76 525.7 638.93 513.18 649.28 501.39 659.68 490.41 670.29 480.07 680.71 470.29 690.71 461.17 700.41 452.39 709.31 443.83 717.13 435.7 724.1 427.57 729.66 419.33 733.65 411.3 736.54 403 737.85 394.36 737.64 385.79 736.7 376.79 734.69 367.33 731.9 357.87 729.32 347.91 726.67 337.48 724.31 329.59 723.27 313.21 722.7 304.73 723.25 299.05 724.06 293.32 725.07 287.57 726.26 281.82 727.73 276.05 729.31 270.27 730.94 258.72 734.68 247.15 738.1 235.64 740.81 224.2 743.11 212.88 744.07 201.73 743.5 190.73 741.83 179.96 738.43 169.51 733.41 159.25 727.31 149.36 719.83 139.91 711.25 130.68 702.13 121.93 692.35 113.69 682.19 105.66 672.13 98.15 662.04 91.18 652.08 84.35 642.63 78 633.44 72.14 624.56 66.28 616.26 60.81 608.2 55.71 600.31 50.46 592.88 45.47 585.45 40.73 577.95 35.7 570.71 30.84 563.24 26.16 555.46 21.15 547.78 16.3 539.69 11.66 531.18 6.74 522.67 2.09 513.69 -2.22 504.25 -6.69 494.77 -10.72 484.84 -14.25 474.48 -17.76 464.09 -20.66 453.29 -22.89 442.11 -24.37 433.68 -26.32 416.37 -26.75 407.5 -26.89 401.56 -26.83 395.61 -26.56 389.65 -26.22 383.7 -25.67 377.74 -24.93 371.77 -23.23 359.85 -20.75 347.92 -17.54 336.03 -14.14 324.13 -10.08 312.26 -5.45 300.45 -0.77 288.65 4.38 276.92 9.94 265.33 15.37 253.77 21.09 242.38 27.04 231.23 32.7 220.2 38.53 209.48 44.5 199.16 50.12 189.08 55.88 179.49 61.78 170.51 67.37 161.86 73.17 153.89 79.18 146.69 85.01 139.86 91.15 133.8 97.62 128.53 104.04 123.54 110.87 119.23 118.13 115.54 125.44 111.86 133.22 108.57 141.44 105.58 149.78 102.23 158.57 98.91 167.77 95.55 177.1 91.55 186.81 87.37 196.84 83.03 206.97 78.07 217.39 73.07 228.01 68.19 238.7 63.1 249.56 58.48 260.51 54.58 268.75 51.98 285.31 48.41 293.59 47.57" stroke-dasharray="54 83" transform="rotate(23.692307692307693, 320, 400)" opacity="0.34"></path><path d="M291.5 65.35C301.92 65.05 312.2 66.08 322.35 68.33 332.51 71.22 342.56 75.12 352.52 79.83 362.55 84.73 372.55 90.11 382.56 95.78 392.74 101.16 403.03 106.58 413.49 111.94 424.22 116.75 435.24 121.44 446.57 126.02 458.29 130.07 470.4 134.11 482.91 138.22 495.81 142.02 509.08 146.07 522.64 150.45 536.42 154.79 550.3 159.62 564.1 164.99 577.71 170.5 590.86 176.65 603.27 183.4 614.9 190.4 625.32 198.01 634.21 206.19 641.74 214.61 647.35 223.55 650.84 232.93 652.69 242.5 652.36 252.46 649.89 262.72 646.1 273.09 640.61 283.72 633.72 294.53 626.57 305.4 618.9 316.41 611.23 327.5 604.71 338.62 599.16 349.8 595.04 360.98 593.22 372.18 593.39 383.36 595.63 394.5 600.38 405.63 606.75 416.44 614.32 426.91 623.24 437.37 632.31 447.5 640.98 457.27 649.42 467.06 656.45 476.51 661.67 485.63 665.45 494.81 666.89 503.7 665.93 512.33 663.09 521.08 657.89 529.66 650.54 538.09 641.64 546.75 631.06 555.37 619.14 564.01 606.39 572.97 592.89 582.05 578.96 591.25 564.94 600.83 550.94 610.56 537.19 620.41 523.85 630.56 510.97 640.71 498.63 650.74 486.89 660.78 475.71 670.44 465.03 679.54 454.93 688.2 445.22 695.96 435.81 702.62 426.83 708.44 417.99 712.92 409.2 715.97 400.66 718.09 392.03 718.83 383.24 718.28 374.56 717.2 365.63 715.26 356.41 712.7 347.21 710.43 337.67 708.15 327.79 706.14 317.91 705.21 307.67 704.95 297.11 705.47 286.54 707.29 275.91 709.68 265.29 712.42 254.69 715.82 244.13 718.96 233.67 721.53 223.28 723.83 213.05 725 203.03 724.87 193.13 723.82 183.49 721.25 174.19 717.18 165.03 712.13 156.25 705.74 147.9 698.21 139.71 690.07 131.96 681.14 124.69 671.66 117.56 662.09 110.88 652.3 104.68 642.46 98.53 632.92 92.79 623.51 87.46 614.29 82.06 605.53 76.98 596.98 72.2 588.59 67.21 580.65 62.43 572.77 57.84 564.92 52.94 557.37 48.18 549.7 43.57 541.87 38.61 534.2 33.8 526.25 29.17 518 24.27 509.81 19.6 501.25 15.25 492.31 10.76 483.37 6.67 474.04 3.05 464.32 -0.51 454.59 -3.49 444.47 -5.82 433.98 -7.95 423.48 -9.34 412.62 -9.92 401.42 -10.2 390.22 -9.63 378.96 -8.24 367.67 -6.55 356.39 -4.08 345.1 -0.89 333.82 2.51 322.57 6.56 311.35 11.18 300.21 15.87 289.11 21.02 278.13 26.55 267.31 31.98 256.58 37.69 246.07 43.62 235.86 49.28 225.8 55.11 216.11 61.05 206.87 66.66 197.87 72.38 189.4 78.21 181.53 83.72 173.96 89.38 167.05 95.21 160.83 100.8 154.89 106.64 149.63 112.74 145.03 118.71 140.58 125.03 136.67 131.69 133.23 138.33 129.68 145.38 126.4 152.82 123.31 160.29 119.8 168.19 116.27 176.47 112.67 184.82 108.47 193.54 104.13 202.6 99.67 211.72 94.69 221.15 89.75 230.84 84.97 240.56 80.07 250.51 75.66 260.64 71.96 270.78 68.65 281.08 66.39 291.49 65.35" stroke-dasharray="64 51" transform="rotate(26.653846153846153, 320, 400)" opacity="0.38"></path><path d="M293.2 83.13C303.08 82.82 312.95 83.74 322.81 85.8 332.7 88.45 342.6 92.07 352.54 96.48 362.55 101.12 372.65 106.26 382.87 111.75 393.23 117.05 403.79 122.46 414.56 127.88 425.56 132.84 436.84 137.72 448.41 142.51 460.25 146.8 472.39 151.05 484.79 155.32 497.4 159.23 510.2 163.29 523.07 167.58 535.93 171.71 548.66 176.21 561.06 181.12 573.08 186.07 584.45 191.53 594.9 197.5 604.5 203.62 612.83 210.29 619.64 217.47 625.19 224.85 628.98 232.72 630.88 241.04 631.41 249.52 630.1 258.4 627.01 267.63 622.96 276.96 617.57 286.59 611.12 296.45 604.64 306.38 597.86 316.49 591.19 326.73 585.65 337.01 581.02 347.39 577.64 357.81 576.31 368.25 576.67 378.72 578.8 389.19 583.12 399.66 588.83 409.87 595.57 419.8 603.55 429.74 611.72 439.41 619.62 448.82 627.47 458.24 634.21 467.43 639.49 476.38 643.66 485.4 645.87 494.24 646.02 502.92 644.6 511.73 641.07 520.46 635.57 529.13 628.64 538.01 620.04 546.91 610.05 555.85 599.14 565.06 587.3 574.36 574.8 583.75 561.98 593.39 548.91 603.09 535.82 612.77 522.87 622.58 510.13 632.25 497.72 641.64 485.71 650.88 474.09 659.62 462.9 667.67 452.15 675.21 441.77 681.82 431.72 687.34 422.05 692.08 412.59 695.6 403.29 697.83 394.25 699.3 385.24 699.6 376.23 698.82 367.35 697.69 358.37 695.86 349.26 693.57 340.2 691.61 330.95 689.68 321.5 688 312.06 687.3 302.4 687.17 292.54 687.69 282.67 689.35 272.85 691.5 263.11 693.94 253.38 697 243.77 699.85 234.32 702.25 224.91 704.5 215.71 705.81 206.76 706.01 197.89 705.49 189.3 703.62 181.06 700.42 172.92 696.35 165.15 691.01 157.78 684.56 150.5 677.46 143.63 669.5 137.19 660.87 130.81 652.01 124.83 642.77 119.25 633.31 113.64 623.97 108.38 614.61 103.45 605.31 98.38 596.34 93.57 587.48 88.99 578.76 84.17 570.41 79.51 562.14 74.99 553.94 70.16 546.03 65.44 538.1 60.83 530.09 55.89 522.28 51.08 514.3 46.43 506.12 41.53 498.05 36.86 489.7 32.47 481.08 27.97 472.49 23.85 463.59 20.19 454.36 16.59 445.14 13.55 435.58 11.16 425.7 8.98 415.82 7.54 405.61 6.89 395.09 6.56 384.57 7.08 374 8.41 363.41 10.06 352.84 12.48 342.27 15.62 331.74 18.99 321.24 22.99 310.8 27.55 300.49 32.21 290.24 37.32 280.14 42.81 270.25 48.22 260.48 53.91 250.97 59.82 241.8 65.51 232.79 71.34 224.18 77.3 216.05 82.94 208.13 88.68 200.73 94.5 193.91 100.01 187.32 105.63 181.33 111.37 175.94 116.85 170.74 122.52 166.1 128.39 161.99 134.08 157.91 140.04 154.23 146.29 150.9 152.45 147.37 158.94 144.01 165.77 140.75 172.58 137.05 179.76 133.31 187.3 129.49 194.84 125.13 202.75 120.66 211 116.13 219.26 111.18 227.85 106.33 236.74 101.7 245.63 97 254.81 92.82 264.23 89.34 273.65 86.24 283.31 84.12 293.19 83.13" stroke-dasharray="62 39" transform="rotate(29.615384615384617, 320, 400)" opacity="0.42"></path><path d="M298.47 100.91C307.9 100.59 317.41 101.41 327.01 103.28 336.63 105.7 346.36 109.02 356.21 113.12 366.13 117.47 376.21 122.35 386.45 127.61 396.82 132.77 407.4 138.1 418.19 143.5 429.14 148.55 440.33 153.56 451.73 158.52 463.27 163.03 475 167.5 486.84 171.96 498.73 176.04 510.62 180.21 522.39 184.51 533.98 188.6 545.25 192.93 556 197.57 566.26 202.15 575.73 207.12 584.2 212.51 591.83 217.95 598.19 223.86 603.12 230.22 606.95 236.7 609.2 243.63 609.8 250.98 609.34 258.46 607.34 266.33 603.9 274.56 599.81 282.88 594.69 291.52 588.8 300.42 583.05 309.39 577.15 318.58 571.46 327.95 566.84 337.36 563.04 346.91 560.35 356.58 559.44 366.25 559.97 376.02 561.98 385.84 565.89 395.66 570.97 405.31 576.93 414.77 584.02 424.23 591.32 433.51 598.45 442.62 605.67 451.75 612.01 460.73 617.2 469.57 621.57 478.47 624.32 487.29 625.34 496.02 625.08 504.87 622.98 513.69 619.12 522.51 613.99 531.49 607.27 540.51 599.18 549.56 590.15 558.8 580.09 568.07 569.23 577.35 557.89 586.77 546.09 596.14 534.04 605.37 521.91 614.58 509.78 623.52 497.77 632.05 485.95 640.33 474.36 648.01 463.07 654.94 452.08 661.35 441.39 666.84 431 671.29 420.89 675.06 411.03 677.73 401.38 679.28 391.95 680.24 382.66 680.21 373.46 679.31 364.39 678.19 355.34 676.54 346.3 674.52 337.31 672.88 328.27 671.28 319.16 669.91 310.07 669.41 300.89 669.4 291.63 669.91 282.37 671.43 273.24 673.34 264.29 675.49 255.33 678.22 246.56 680.79 238.01 683 229.48 685.15 221.2 686.52 213.19 686.97 205.23 686.86 197.58 685.6 190.26 683.16 182.99 679.98 176.06 675.63 169.51 670.22 163 664.18 156.85 657.25 151.07 649.6 145.28 641.61 139.82 633.12 134.7 624.28 129.5 615.41 124.56 606.37 119.89 597.27 115.05 588.35 110.39 579.45 105.91 570.62 101.17 562.05 96.55 553.54 92.04 545.11 87.22 536.92 82.48 528.74 77.84 520.56 72.9 512.56 68.07 504.48 63.4 496.29 58.5 488.21 53.82 479.97 49.42 471.54 44.93 463.16 40.82 454.55 37.15 445.7 33.55 436.88 30.5 427.79 28.08 418.44 25.89 409.1 24.41 399.5 23.71 389.64 23.34 379.79 23.8 369.92 25.05 360.08 26.63 350.25 28.97 340.46 32.01 330.76 35.3 321.09 39.21 311.53 43.67 302.13 48.25 292.8 53.28 283.66 58.69 274.79 64.05 266.01 69.71 257.54 75.58 249.43 81.28 241.47 87.13 233.92 93.09 226.83 98.79 219.91 104.57 213.47 110.43 207.56 115.99 201.81 121.64 196.56 127.38 191.83 132.85 187.18 138.46 182.97 144.23 179.17 149.78 175.3 155.54 171.73 161.53 168.39 167.39 164.79 173.51 161.29 179.93 157.82 186.27 153.93 192.92 149.99 199.9 145.98 206.85 141.5 214.13 136.96 221.73 132.42 229.32 127.55 237.25 122.82 245.48 118.38 253.71 113.91 262.25 109.97 271.08 106.71 279.91 103.82 289.04 101.84 298.46 100.91" stroke-dasharray="78 81" transform="rotate(32.57692307692307, 320, 400)" opacity="0.45"></path><path d="M306.62 118.69C315.64 118.37 324.8 119.08 334.1 120.77 343.43 122.95 352.91 125.99 362.55 129.77 372.24 133.8 382.12 138.38 392.17 143.37 402.3 148.33 412.62 153.52 423.1 158.84 433.68 163.89 444.41 168.97 455.24 174.03 466.12 178.72 477.05 183.38 487.95 188.01 498.76 192.3 509.42 196.63 519.79 201.02 529.87 205.17 539.49 209.48 548.47 214 556.92 218.39 564.51 223.08 571.1 228.07 576.9 233.05 581.51 238.4 584.8 244.12 587.19 249.89 588.21 256.06 587.85 262.61 586.67 269.23 584.26 276.22 580.71 283.56 576.77 290.96 572.06 298.68 566.81 306.69 561.82 314.75 556.8 323.06 552.03 331.6 548.27 340.16 545.23 348.91 543.14 357.84 542.6 366.76 543.26 375.84 545.16 385.05 548.68 394.25 553.17 403.36 558.4 412.36 564.66 421.37 571.12 430.29 577.48 439.1 584.02 447.94 589.9 456.71 594.87 465.41 599.27 474.16 602.36 482.89 604.02 491.57 604.67 500.36 603.75 509.14 601.28 517.92 597.73 526.82 592.73 535.73 586.43 544.63 579.23 553.64 570.97 562.62 561.83 571.51 552.14 580.43 541.84 589.19 531.12 597.71 520.17 606.1 509.02 614.12 497.81 621.66 486.62 628.87 475.5 635.44 464.53 641.26 453.72 646.57 443.1 651.01 432.71 654.5 422.52 657.42 412.55 659.39 402.79 660.39 393.2 660.96 383.78 660.73 374.51 659.78 365.37 658.75 356.32 657.29 347.36 655.57 338.47 654.23 329.62 652.95 320.81 651.86 312.02 651.54 303.25 651.62 294.5 652.12 285.76 653.5 277.23 655.19 268.94 657.08 260.65 659.49 252.6 661.78 244.81 663.77 237.03 665.79 229.51 667.16 222.3 667.78 215.09 667.98 208.19 667.21 201.62 665.43 195.05 663.02 188.8 659.58 182.89 655.15 176.96 650.14 171.34 644.26 166.04 637.64 160.67 630.62 155.58 623.03 150.76 615 145.81 606.82 141.07 598.36 136.54 589.73 131.8 581.13 127.2 572.46 122.74 563.77 118.01 555.24 113.36 546.72 108.81 538.23 103.96 529.93 99.19 521.64 94.5 513.36 89.55 505.25 84.71 497.1 80.02 488.9 75.14 480.82 70.48 472.63 66.1 464.35 61.65 456.12 57.57 447.74 53.93 439.21 50.38 430.71 47.36 422.03 44.94 413.17 42.76 404.32 41.27 395.28 40.53 386.07 40.13 376.86 40.52 367.69 41.68 358.61 43.17 349.53 45.4 340.55 48.3 331.7 51.47 322.88 55.24 314.22 59.55 305.77 64 297.36 68.91 289.2 74.19 281.32 79.47 273.52 85.04 266.05 90.85 258.94 96.52 251.94 102.36 245.33 108.32 239.15 114.06 233.09 119.89 227.46 125.8 222.28 131.44 217.18 137.15 212.49 142.94 208.21 148.47 203.93 154.11 199.99 159.86 196.34 165.39 192.56 171.08 188.97 176.95 185.53 182.65 181.81 188.58 178.13 194.74 174.46 200.79 170.4 207.11 166.29 213.71 162.14 220.24 157.6 227.08 153.05 234.22 148.55 241.31 143.8 248.73 139.25 256.47 135.01 264.17 130.8 272.21 127.11 280.57 124.08 288.91 121.4 297.59 119.56 306.61 118.69" stroke-dasharray="74 52" transform="rotate(35.53846153846154, 320, 400)" opacity="0.49"></path><path d="M316.55 136.47C325.18 136.15 333.96 136.76 342.9 138.27 351.85 140.22 360.98 142.97 370.24 146.42 379.55 150.13 389.02 154.38 398.62 159.06 408.27 163.76 418.05 168.74 427.92 173.91 437.81 178.88 447.77 183.95 457.71 189.04 467.62 193.83 477.45 198.63 487.11 203.41 496.61 207.88 505.82 212.37 514.63 216.91 523.1 221.18 531.01 225.56 538.23 230.07 544.93 234.42 550.77 238.97 555.65 243.75 561.4 250.95 566.22 266.79 565.23 275.52 563.63 281.46 561.05 287.74 557.6 294.34 553.95 300.96 549.75 307.9 545.19 315.13 540.98 322.38 536.82 329.91 532.91 337.68 529.93 345.46 527.58 353.48 526.03 361.7 525.8 369.93 526.57 378.35 528.34 386.95 531.49 395.56 535.43 404.14 539.99 412.68 545.46 421.23 551.11 429.75 556.72 438.23 562.58 446.74 567.93 455.23 572.58 463.68 576.87 472.19 580.1 480.69 582.18 489.17 583.5 497.72 583.49 506.26 582.18 514.78 579.97 523.37 576.47 531.92 571.78 540.42 566.3 548.93 559.77 557.35 552.35 565.59 544.36 573.78 535.67 581.73 526.45 589.34 516.92 596.77 507.03 603.76 496.93 610.22 486.73 616.34 476.44 621.82 466.16 626.56 455.93 630.86 445.77 634.37 435.75 637.03 425.83 639.24 416.06 640.63 406.48 641.24 397 641.53 387.69 641.19 378.55 640.28 369.49 639.37 360.57 638.14 351.8 636.71 343.07 635.67 334.46 634.68 325.95 633.84 317.47 633.69 309.08 633.85 300.78 634.34 292.49 635.59 284.47 637.07 276.74 638.7 269 640.82 261.54 642.82 254.37 644.59 247.18 646.44 240.28 647.77 233.69 648.47 227.07 648.89 220.75 648.5 214.74 647.25 208.69 645.51 202.93 642.86 197.47 639.33 191.95 635.29 186.69 630.42 181.7 624.83 176.6 618.84 171.72 612.24 167.06 605.15 162.23 597.83 157.58 590.15 153.07 582.19 148.35 574.18 143.74 566 139.23 557.71 134.47 549.47 129.77 541.19 125.15 532.88 120.26 524.69 115.45 516.49 110.72 508.29 105.77 500.21 100.93 492.11 96.25 484 91.43 475.98 86.82 467.91 82.49 459.79 78.13 451.73 74.12 443.59 70.54 435.37 67.07 427.18 64.11 418.88 61.74 410.49 59.6 402.1 58.12 393.6 57.35 385.01 56.92 376.42 57.24 367.94 58.29 359.6 59.68 351.26 61.76 343.06 64.5 335.05 67.5 327.06 71.1 319.26 75.21 311.7 79.49 304.18 84.21 296.92 89.32 289.95 94.45 283.04 99.89 276.45 105.58 270.21 111.18 264.03 116.96 258.21 122.88 252.77 128.63 247.39 134.49 242.37 140.42 237.72 146.13 233.08 151.92 228.77 157.77 224.77 163.39 220.7 169.09 216.87 174.88 213.25 180.46 209.45 186.17 205.78 192.01 202.2 197.68 198.32 203.53 194.47 209.57 190.63 215.47 186.43 221.6 182.2 227.97 177.98 234.25 173.43 240.8 168.92 247.61 164.52 254.37 159.95 261.43 155.61 268.78 151.61 276.1 147.68 283.74 144.25 291.69 141.45 299.63 138.98 307.91 137.29 316.54 136.47" stroke-dasharray="58 73" transform="rotate(38.5, 320, 400)" opacity="0.53"></path><path d="M326.94 154.25C335.15 153.93 343.51 154.45 351.98 155.78 360.47 157.51 369.1 159.97 377.83 163.09 386.58 166.46 395.45 170.36 404.38 174.7 413.32 179.1 422.31 183.81 431.31 188.75 440.28 193.57 449.21 198.53 458.04 203.57 466.76 208.38 475.3 213.23 483.56 218.1 491.62 222.7 499.31 227.33 506.51 231.99 513.38 236.4 519.65 240.89 525.22 245.46 532.47 252.12 541.85 266.05 543.75 273.45 543.91 281.02 539.15 297.44 534.69 306.34 531.46 312.36 527.85 318.67 524.01 325.25 520.56 331.83 517.2 338.68 514.09 345.78 511.82 352.89 510.08 360.24 508.99 367.82 509.03 375.4 509.87 383.2 511.52 391.22 514.32 399.24 517.76 407.28 521.7 415.33 526.42 423.39 531.31 431.46 536.19 439.52 541.35 447.61 546.14 455.7 550.39 463.78 554.44 471.89 557.67 480 559.97 488.08 561.72 496.2 562.4 504.29 561.97 512.32 560.85 520.36 558.61 528.33 555.32 536.17 551.35 543.98 546.41 551.61 540.61 559.02 534.27 566.3 527.22 573.28 519.57 579.89 511.56 586.27 503.11 592.19 494.32 597.57 485.36 602.64 476.19 607.09 466.9 610.86 457.57 614.27 448.2 616.97 438.86 618.95 429.55 620.59 420.3 621.56 411.18 621.89 402.11 622.02 393.16 621.65 384.35 620.83 375.6 620.09 366.99 619.1 358.52 617.97 350.1 617.2 341.8 616.47 333.65 615.87 325.51 615.86 317.5 616.09 309.63 616.56 301.75 617.68 294.18 618.97 286.92 620.37 279.64 622.19 272.66 623.93 265.97 625.46 259.25 627.12 252.82 628.36 246.68 629.09 237.55 629.58 220.57 626.51 212.67 622.77 207.41 619.6 202.36 615.68 197.53 611.08 192.56 606.1 187.78 600.53 183.17 594.43 178.38 588.08 173.72 581.31 169.18 574.2 164.43 566.97 159.76 559.49 155.18 551.83 150.36 544.15 145.6 536.34 140.92 528.46 136 520.62 131.17 512.73 126.43 504.82 121.5 496.98 116.7 489.11 112.07 481.23 107.34 473.41 102.82 465.58 98.59 457.72 94.35 449.91 90.47 442.07 86.99 434.2 83.64 426.35 80.78 418.46 78.48 410.53 76.4 402.62 74.95 394.66 74.17 386.67 73.71 378.68 73.96 370.85 74.91 363.21 76.17 355.56 78.09 348.11 80.63 340.86 83.43 333.63 86.8 326.61 90.68 319.85 94.73 313.12 99.22 306.64 104.09 300.45 109.02 294.3 114.27 288.43 119.77 282.89 125.24 277.37 130.9 272.15 136.72 267.26 142.42 262.37 148.24 257.78 154.15 253.47 159.89 249.13 165.71 245.02 171.6 241.15 177.3 237.16 183.07 233.34 188.91 229.67 194.57 225.79 200.32 221.99 206.19 218.26 211.89 214.25 217.73 210.26 223.72 206.28 229.57 202 235.62 197.73 241.85 193.49 247.99 189.01 254.35 184.61 260.95 180.37 267.48 176.02 274.27 171.92 281.33 168.19 288.34 164.54 295.65 161.38 303.24 158.82 310.82 156.56 318.72 155.01 326.93 154.25" stroke-dasharray="40 5" transform="rotate(41.46153846153846, 320, 400)" opacity="0.56"></path><path d="M336.4 172.03C344.15 171.71 352 172.15 359.92 173.31 367.84 174.82 375.84 177 383.89 179.79 391.94 182.81 400.02 186.35 408.1 190.31 416.17 194.37 424.2 198.76 432.15 203.4 440.04 208 447.8 212.77 455.36 217.66 462.8 222.39 469.97 227.21 476.8 232.07 483.41 236.73 489.6 241.43 495.29 246.16 500.67 250.68 505.45 255.26 509.58 259.9 514.82 266.65 520.89 280.51 521.63 287.73 521.06 295.01 516.1 310.51 512.13 318.8 509.4 324.38 506.41 330.2 503.29 336.26 500.57 342.31 497.96 348.61 495.58 355.14 493.93 361.67 492.72 368.43 492.04 375.42 492.29 382.41 493.18 389.63 494.7 397.07 497.18 404.51 500.15 411.99 503.51 419.5 507.55 427.01 511.73 434.56 515.91 442.11 520.39 449.66 524.59 457.23 528.38 464.78 532.1 472.35 535.18 479.89 537.53 487.39 539.52 494.89 540.63 502.33 540.86 509.67 540.56 516.98 539.33 524.16 537.19 531.18 534.5 538.11 530.95 544.82 526.61 551.26 521.8 557.55 516.28 563.51 510.16 569.07 503.69 574.41 496.72 579.29 489.35 583.66 481.76 587.75 473.88 591.28 465.79 594.22 457.58 596.87 449.25 598.93 440.85 600.38 432.41 601.6 423.96 602.27 415.55 602.43 407.14 602.49 398.8 602.16 390.54 601.49 382.32 600.93 374.19 600.19 366.18 599.33 358.2 598.82 350.34 598.33 342.61 597.94 334.9 598.04 327.3 598.32 319.85 598.78 312.4 599.78 305.24 600.89 298.39 602.07 291.51 603.63 284.92 605.1 278.61 606.4 272.27 607.85 266.2 608.96 260.38 609.66 251.71 610.31 235.45 608.33 227.81 605.53 222.68 603.11 217.73 600.03 212.96 596.34 208.05 592.32 203.28 587.73 198.65 582.63 193.84 577.28 189.14 571.49 184.53 565.33 179.73 559.01 175.01 552.39 170.35 545.54 165.5 538.6 160.7 531.49 155.99 524.25 151.08 516.99 146.27 509.64 141.56 502.22 136.71 494.83 132 487.39 127.47 479.92 122.87 472.49 118.5 465.04 114.41 457.58 110.35 450.14 106.62 442.7 103.3 435.26 100.1 427.83 97.37 420.4 95.16 412.97 93.18 405.55 91.77 398.13 90.99 390.73 90.51 383.34 90.7 376.13 91.52 369.13 92.64 362.13 94.38 355.34 96.7 348.77 99.28 342.21 102.39 335.87 105.99 329.79 109.76 323.71 113.96 317.88 118.54 312.31 123.21 306.75 128.2 301.45 133.45 296.42 138.7 291.38 144.17 286.6 149.81 282.07 155.38 277.51 161.09 273.18 166.91 269.07 172.61 264.87 178.4 260.86 184.26 257.01 189.97 253.02 195.76 249.15 201.62 245.38 207.33 241.41 213.12 237.5 219 233.64 224.73 229.54 230.58 225.45 236.54 221.4 242.39 217.12 248.38 212.87 254.52 208.7 260.57 204.35 266.81 200.13 273.23 196.1 279.59 192.01 286.16 188.2 292.95 184.74 299.7 181.4 306.69 178.52 313.93 176.19 321.16 174.14 328.64 172.73 336.39 172.03" stroke-dasharray="71 81" transform="rotate(44.42307692307692, 320, 400)" opacity="0.60"></path><path d="M343.68 189.81C350.9 189.5 358.16 189.86 365.42 190.86 372.68 192.16 379.95 194.07 387.2 196.52 394.43 199.2 401.63 202.36 408.74 205.93 415.83 209.61 422.8 213.63 429.62 217.92 436.36 222.21 442.9 226.71 449.18 231.36 455.33 235.93 461.17 240.6 466.63 245.36 471.9 249.97 476.73 254.65 481.06 259.37 486.91 266.24 495.25 280.04 497.62 287.01 498.91 293.9 497.99 308.13 495.97 315.54 493.37 323.03 486.66 338.87 483.05 347.25 481.02 352.88 479.09 358.72 477.36 364.76 476.26 370.8 475.5 377.05 475.16 383.49 475.58 389.94 476.49 396.59 477.88 403.45 480.05 410.3 482.59 417.2 485.43 424.11 488.84 431.03 492.36 437.96 495.88 444.9 499.69 451.83 503.3 458.75 506.6 465.64 509.91 472.52 512.74 479.36 515 486.12 517.05 492.86 518.41 499.49 519.05 506 519.33 512.45 518.85 518.73 517.61 524.81 515.95 530.79 513.55 536.52 510.45 541.95 506.96 547.24 502.83 552.18 498.11 556.73 493.08 561.1 487.55 565.03 481.59 568.5 475.41 571.75 468.87 574.51 462.06 576.76 455.12 578.81 447.96 580.37 440.66 581.43 433.29 582.36 425.82 582.85 418.31 582.94 410.78 583.01 403.24 582.77 395.72 582.27 388.2 581.91 380.73 581.41 373.33 580.82 365.94 580.53 358.63 580.26 351.41 580.04 344.21 580.25 337.1 580.57 330.1 581 323.09 581.88 316.36 582.83 309.88 583.81 303.4 585.12 297.16 586.34 291.16 587.42 282.24 589.13 265.44 590.93 257.51 590.71 249.66 589.73 234.65 584.69 227.43 580.61 222.54 577.45 217.76 573.77 213.08 569.62 208.26 565.24 203.52 560.43 198.85 555.25 194.03 549.9 189.27 544.22 184.59 538.28 179.74 532.23 174.96 525.96 170.27 519.51 165.44 513.02 160.7 506.38 156.09 499.65 151.37 492.9 146.81 486.07 142.44 479.19 138.04 472.32 133.86 465.41 129.97 458.48 126.12 451.57 122.6 444.64 119.46 437.72 116.45 430.81 113.88 423.9 111.8 417.02 109.92 410.15 108.58 403.29 107.81 396.48 107.32 389.66 107.44 383.05 108.14 376.64 109.12 370.23 110.66 364.03 112.74 358.05 115.07 352.06 117.89 346.3 121.17 340.76 124.62 335.21 128.49 329.88 132.72 324.79 137.07 319.68 141.72 314.79 146.65 310.12 151.61 305.41 156.8 300.91 162.18 296.61 167.53 292.25 173.03 288.06 178.66 284.04 184.22 279.91 189.88 275.92 195.63 272.05 201.27 268.03 207 264.1 212.79 260.24 218.48 256.21 224.24 252.22 230.07 248.28 235.79 244.15 241.6 240.06 247.5 236.03 253.31 231.82 259.23 227.68 265.26 223.64 271.22 219.5 277.32 215.51 283.55 211.73 289.73 207.94 296.08 204.44 302.59 201.29 309.07 198.25 315.73 195.66 322.58 193.57 329.41 191.72 336.44 190.45 343.67 189.81" stroke-dasharray="35 37" transform="rotate(47.38461538461539, 320, 400)" opacity="0.63"></path><path d="M347.79 207.6C354.42 207.29 361.01 207.58 367.55 208.42 374.08 209.53 380.55 211.17 386.93 213.3 393.29 215.63 399.54 218.41 405.65 221.57 411.72 224.86 417.62 228.47 423.3 232.36 434.45 240.23 444.54 248.89 453.19 258.04 461.22 266.85 467.5 275.98 471.77 285.32 475.23 294.21 476.62 303.39 475.96 312.87 474.88 322.03 472.26 331.66 468.49 341.79 465.98 349.38 461.25 365.28 459.43 373.61 458.79 379.21 458.42 384.98 458.34 390.91 458.89 396.84 459.8 402.94 461.06 409.2 462.94 415.46 465.09 421.74 467.45 428.01 470.29 434.28 473.2 440.55 476.11 446.78 479.29 453.01 482.31 459.2 485.11 465.33 487.97 471.44 490.46 477.48 492.53 483.4 496.27 495.14 497.76 506.32 496.85 516.63 494.77 526.58 490.23 535.43 483.5 542.88 475.73 549.73 466.17 555.04 455.25 558.64 443.76 561.73 431.35 563.31 418.42 563.51 411.89 563.64 405.28 563.53 398.62 563.21 391.96 563.05 385.27 562.78 378.6 562.42 371.92 562.34 365.27 562.25 358.66 562.18 352.05 562.46 345.49 562.81 338.99 563.22 332.49 563.99 326.21 564.79 320.13 565.59 311.09 567.16 293.96 569.92 285.83 570.85 280.42 571.4 275.18 571.6 270.09 571.42 259.72 570.75 249.85 568.26 240.44 563.97 230.63 558.9 221.12 552.07 211.92 543.74 202.24 534.79 192.8 524.64 183.72 513.6 174.27 502.29 165.28 490.35 157 478.06 152.85 471.89 148.93 465.66 145.28 459.4 141.69 453.13 138.42 446.83 135.5 440.52 132.71 434.22 130.33 427.92 128.39 421.63 126.64 415.35 125.38 409.08 124.64 402.85 124.14 396.62 124.19 390.58 124.77 384.72 126.27 376.03 132.08 359.59 136.26 351.84 139.37 346.72 142.86 341.79 146.7 337.05 154.72 327.48 163.88 318.57 173.89 310.31 183.95 301.77 194.62 293.69 205.7 286.02 216.55 277.84 227.75 269.89 239.19 262.19 250.34 253.92 261.81 245.9 273.55 238.36 279.35 234.48 285.25 230.78 291.24 227.3 297.19 223.84 303.26 220.67 309.43 217.83 315.58 215.12 321.86 212.8 328.25 210.95 334.64 209.3 341.15 208.17 347.78 207.6" stroke-dasharray="10 80" transform="rotate(50.34615384615385, 320, 400)" opacity="0.67"></path><path d="M348.2 225.38C360.14 225.03 371.7 226.68 382.7 230.14 393.63 234.29 403.89 239.95 413.24 246.78 422.33 253.85 430.31 261.76 436.92 270.23 443.08 278.55 447.69 287.26 450.63 296.24 453.07 304.91 453.88 313.87 453.14 323.06 452.3 331.99 450.35 341.28 447.6 350.92 445.61 360.41 443.54 370.37 441.78 380.76 441.7 391.12 442.49 401.98 444.24 413.29 447.94 424.59 452.19 435.82 456.6 446.82 461.98 457.78 466.66 468.43 470.24 478.59 473.68 488.6 475.39 497.96 475.23 506.45 474.3 514.62 471.36 521.75 466.56 527.63 460.98 533.1 453.74 537.27 445.15 540.06 436.07 542.58 425.96 543.93 415.14 544.21 404.12 544.74 392.61 544.65 380.88 544.16 369.12 544.57 357.22 544.98 345.36 545.44 333.49 547.06 322.18 548.55 311.46 549.7 300.67 551.42 290.36 552.26 280.55 552.04 270.54 551.66 260.89 549.82 251.6 546.53 242 542.71 232.65 537.38 223.59 530.72 214.2 523.56 205.07 515.24 196.33 506.02 187.38 496.52 178.92 486.31 171.19 475.65 163.55 464.88 156.86 453.78 151.42 442.55 146.49 431.31 143.08 419.98 141.46 408.71 140.69 397.45 141.86 386.77 144.81 376.73 148.53 366.65 153.86 357.16 160.53 348.27 167.69 339.26 175.95 330.73 185.05 322.7 194.31 314.4 204.21 306.43 214.55 298.79 224.82 290.75 235.46 282.94 246.31 275.41 257.02 267.49 267.99 259.91 279.14 252.89 290.18 245.78 301.49 239.5 313 234.39 324.48 229.73 336.24 226.62 348.19 225.38" stroke-dasharray="51 5" transform="rotate(53.30769230769231, 320, 400)" opacity="0.71"></path><path d="M344.84 243.16C355.38 242.79 365.36 244.14 374.66 247.03 383.89 250.52 392.35 255.34 399.87 261.25 407.2 267.43 413.45 274.45 418.49 282.08 423.24 289.68 426.69 297.75 428.8 306.13 430.67 314.33 431.3 322.82 430.79 331.53 430.37 340.06 429.17 348.86 427.42 357.9 426.38 366.84 425.29 376.08 424.39 385.6 424.82 395.09 425.81 404.9 427.41 414.96 430.52 425.03 433.92 434.87 437.36 444.37 441.64 453.83 445.36 462.88 448.26 471.37 451.2 479.74 452.85 487.43 453.07 494.28 451.94 503.76 441.14 517.31 431.91 521.23 424.95 523.4 416.95 524.66 408.15 525.11 399.15 525.87 389.53 526.13 379.48 526.02 369.38 526.65 358.95 527.2 348.33 527.66 337.71 529.03 327.4 530.18 317.45 530.99 307.46 532.3 297.76 532.9 288.4 532.66 278.91 532.4 269.66 531 260.67 528.45 251.5 525.58 242.53 521.47 233.84 516.23 224.95 510.63 216.34 503.99 208.14 496.48 199.86 488.72 192.09 480.25 185.04 471.25 178.13 462.13 172.13 452.6 167.26 442.83 162.85 433.03 159.78 423.05 158.28 413 157.5 402.95 158.41 393.31 160.87 384.14 164 374.94 168.54 366.14 174.3 357.79 180.52 349.33 187.77 341.21 195.82 333.45 204.1 325.48 213.02 317.76 222.4 310.33 231.82 302.62 241.61 295.15 251.62 288 261.59 280.63 271.79 273.66 282.09 267.29 292.36 260.94 302.78 255.41 313.26 250.96 323.74 246.92 334.3 244.24 344.84 243.16" stroke-dasharray="70 60" transform="rotate(56.26923076923077, 320, 400)" opacity="0.74"></path><path d="M338.17 260.94C347.24 260.58 355.69 261.64 363.43 264.01 371.11 266.85 378 270.85 384.02 275.83 389.91 281.07 394.85 287.11 398.76 293.76 402.52 300.47 405.25 307.67 406.95 315.21 408.58 322.68 409.31 330.46 409.2 338.44 409.3 346.33 408.85 354.45 408 362.72 407.76 370.93 407.47 379.34 407.25 387.89 408.04 396.43 409.15 405.14 410.59 413.93 413.15 422.73 415.8 431.21 418.4 439.25 421.67 447.28 424.5 454.83 426.69 461.81 429.73 471.83 430.27 488.1 427.38 494.09 422.8 499.07 407.64 505 397.55 506.29 390.4 507.25 382.56 507.8 374.16 508.01 365.72 508.8 356.81 509.43 347.53 509.88 338.25 511.01 329.07 511.87 320.05 512.39 311.02 513.32 302.13 513.66 293.43 513.34 284.67 513.09 276.05 511.96 267.64 509.93 259.13 507.75 250.79 504.58 242.72 500.48 234.57 496.16 226.7 490.94 219.25 484.95 211.81 478.77 204.87 471.91 198.61 464.49 192.53 456.98 187.27 449.01 183.01 440.7 179.16 432.36 176.46 423.74 175.1 414.93 174.33 406.12 175 397.55 176.98 389.28 179.51 380.98 183.28 372.94 188.09 365.19 193.33 357.37 199.49 349.77 206.39 342.44 213.54 334.98 221.3 327.71 229.52 320.72 237.84 313.56 246.53 306.65 255.45 300.1 264.4 293.45 273.54 287.24 282.76 281.63 291.99 276.11 301.29 271.35 310.56 267.57 319.84 264.13 329.09 261.86 338.17 260.94" stroke-dasharray="88 20" transform="rotate(59.23076923076923, 320, 400)" opacity="0.78"></path><path d="M329.07 278.72C336.69 278.37 343.69 279.18 350.03 281.06 356.33 283.3 361.92 286.52 366.75 290.57 371.51 294.86 375.49 299.87 378.67 305.44 381.78 311.13 384.12 317.29 385.69 323.8 387.31 330.32 388.27 337.15 388.64 344.18 389.24 351.18 389.45 358.38 389.35 365.69 389.75 372.98 390.06 380.39 390.35 387.87 391.37 395.33 392.51 402.87 393.77 410.39 395.83 417.91 397.84 425.05 399.71 431.75 403.11 441.55 407.83 458.48 408.53 465.43 405.65 476.22 391.68 486.28 383.87 487.8 378.3 488.92 372.05 489.68 365.21 490.13 358.34 491.01 350.92 491.67 343.05 492.09 335.18 493.02 327.25 493.62 319.34 493.89 311.44 494.49 303.56 494.6 295.77 494.17 287.97 493.85 280.24 492.87 272.67 491.19 265.07 489.47 257.62 486.98 250.43 483.76 243.23 480.43 236.31 476.37 229.79 471.64 223.33 466.81 217.35 461.35 211.97 455.37 206.79 449.32 202.32 442.8 198.71 435.9 195.43 428.98 193.12 421.7 191.92 414.16 191.18 406.62 191.62 399.16 193.16 391.86 195.12 384.55 198.12 377.38 202 370.39 206.23 363.36 211.27 356.47 216.96 349.79 222.88 343.04 229.37 336.46 236.28 330.14 243.32 323.75 250.72 317.61 258.33 311.85 266.02 306.07 273.88 300.73 281.8 295.96 289.76 291.31 297.76 287.34 305.67 284.21 313.61 281.37 321.45 279.49 329.07 278.72" stroke-dasharray="25 67" transform="rotate(62.19230769230769, 320, 400)" opacity="0.82"></path><path d="M318.76 296.5C327.79 296.47 343.08 301.13 349.26 305.54 357.03 312.43 362.46 321.64 365.58 332.28 369.05 343.12 370.89 355.06 371.5 367.41 372.33 373.58 373.05 379.85 373.67 386.13 374.78 392.41 375.88 398.72 376.95 404.96 379.28 414.13 383.57 430.52 385.14 437.62 387.49 446.73 387.48 453.97 384.86 459.11 379.15 466.13 361.23 471.33 353.37 472.38 347.92 473.27 341.94 473.93 335.5 474.31 329.05 475.04 322.46 475.44 315.82 475.51 309.18 475.83 302.5 475.74 295.86 475.21 282.6 474.49 269.48 471.55 257.25 466.45 245.18 461.21 234.2 453.67 225.22 444.23 220.97 439.46 217.32 434.25 214.37 428.66 211.68 423.06 209.77 417.1 208.74 410.83 208.05 404.56 208.31 398.28 209.43 392.07 210.87 385.85 213.13 379.69 216.12 373.64 222.88 361.49 232.19 349.71 243.11 338.89 254.54 328.01 267.17 318.22 280.09 310.35 286.62 306.58 293.18 303.39 299.66 300.9 306.16 298.63 312.56 297.12 318.76 296.5" stroke-dasharray="47 6" transform="rotate(65.15384615384615, 320, 400)" opacity="0.85"></path><path d="M308.62 314.28C318.28 313.9 326.38 316.25 332.74 320.79 339.11 325.87 343.87 332.85 347.05 341.05 350.58 349.46 352.99 358.88 354.41 368.68 356.79 378.53 358.73 388.69 360.13 398.63 362.84 408.55 364.62 417.29 365.3 424.58 366.35 434.83 359.38 448.36 350.83 451.96 344.36 454.51 335.96 456.1 325.88 456.53 315.79 457.83 305.09 457.81 294.42 456.52 283.82 455.64 273.32 453.1 263.56 448.98 254.02 444.88 245.41 439.05 238.42 431.72 231.97 424.35 227.47 415.52 225.56 405.54 224.58 395.55 226.41 385.37 230.53 375.5 235.39 365.63 242.26 356.05 250.45 347.31 259.05 338.64 268.67 330.94 278.62 324.87 288.72 319.18 298.95 315.43 308.62 314.28" stroke-dasharray="69 77" transform="rotate(68.11538461538461, 320, 400)" opacity="0.89"></path><path d="M299.99 332.06C307.09 331.69 313.21 333.25 318.23 336.36 323.29 339.81 327.37 344.65 330.43 350.46 333.74 356.43 336.28 363.23 338.06 370.4 340.38 377.61 342.18 385.13 343.31 392.54 345.63 403.24 346.16 420.1 343.74 426.09 340.12 431.33 325.91 437.64 315.47 438.75 308.09 439.63 300.23 439.4 292.38 438.17 284.6 437.2 276.91 435.04 269.81 431.77 262.88 428.58 256.68 424.18 251.69 418.71 247.05 413.25 243.8 406.69 242.38 399.24 241.51 391.79 242.62 384.16 245.34 376.75 248.5 369.37 253.12 362.24 258.74 355.8 264.62 349.45 271.33 343.89 278.39 339.58 285.54 335.52 292.89 332.87 299.99 332.06" stroke-dasharray="8 48" transform="rotate(71.07692307692308, 320, 400)" opacity="0.93"></path><path d="M294.04 349.84C303.35 349.45 310.87 353.76 315.87 360.85 321.36 368.28 325.19 377.96 326.49 387.81 328.99 397.65 328.4 405.76 325.01 411.17 321.89 416.92 315.26 420.55 305.67 420.97 296.06 422.23 285.49 420.05 276.46 415.24 267.83 410.65 261.31 402.97 259.2 393.09 258.12 383.2 261.8 373.03 268.38 364.75 275.44 356.73 284.71 351.03 294.04 349.84" stroke-dasharray="24 29" transform="rotate(74.03846153846155, 320, 400)" opacity="0.96"></path></g></svg>