<svg xmlns="http://www.w3.org/2000/svg" version="1.1" xmlns:xlink="http://www.w3.org/1999/xlink" xmlns:svgjs="http://svgjs.dev/svgjs" width="1440" height="560" preserveAspectRatio="none" viewBox="0 0 1440 560"><g mask="url(&quot;#SvgjsMask1643&quot;)" fill="none"><path d="M313.256,375.285C355.711,374.033,389.992,344.428,410.889,307.451C431.402,271.152,439.46,226.337,417.439,190.933C396.351,157.028,353.182,150.091,313.256,150.48C274.208,150.861,234.117,160.388,212.532,192.93C188.673,228.9,184.242,275.737,205.112,313.52C226.625,352.468,268.781,376.597,313.256,375.285" fill="rgba(30, 48, 243, 0.36)" class="triangle-float1"></path><path d="M357.854,336.705C409.069,333.258,453.104,303.655,478.873,259.261C504.758,214.667,511.14,160.411,486.465,115.137C460.755,67.964,411.578,37.053,357.854,37.216C304.395,37.378,259.277,70.805,230.587,115.913C199.178,165.296,175.671,226.994,204.898,277.699C234.148,328.444,299.415,340.638,357.854,336.705" fill="rgba(30, 48, 243, 0.36)" class="triangle-float3"></path><path d="M945.087,123.276C960.733,123.819,972.794,110.303,979.51,96.162C985.305,83.961,982.557,70.25,975.835,58.535C969.074,46.753,958.635,37.159,945.087,36.169C929.681,35.043,912.646,39.734,905.428,53.391C898.494,66.51,907.245,81.001,914.569,93.907C922.037,107.068,929.964,122.751,945.087,123.276" fill="rgba(30, 48, 243, 0.36)" class="triangle-float1"></path><path d="M1444.49,335.403C1497.148,334.714,1550.711,320.383,1579.53,276.305C1611.069,228.065,1617.076,165.249,1588.441,115.23C1559.645,64.93,1502.443,41.251,1444.49,40.42C1384.855,39.564,1323.509,59.628,1293.203,110.995C1262.482,163.066,1269.389,229.793,1303.185,279.923C1333.502,324.893,1390.26,336.113,1444.49,335.403" fill="rgba(30, 48, 243, 0.36)" class="triangle-float1"></path><path d="M1460.81,435.277C1511.585,433.936,1559.356,409.689,1584.813,365.736C1610.329,321.681,1609.995,266.785,1583.619,223.239C1558.136,181.168,1509.943,163.321,1460.81,161.008C1406.245,158.439,1345.715,164.688,1316.196,210.65C1284.884,259.404,1293.554,323.879,1324.919,372.599C1353.86,417.553,1407.365,436.688,1460.81,435.277" fill="rgba(30, 48, 243, 0.36)" class="triangle-float2"></path><path d="M546.334,174.719C578.633,173.595,603.914,150.969,620.871,123.456C638.942,94.135,653.585,58.27,636.553,28.334C619.399,-1.817,581.02,-7.123,546.334,-7.554C510.611,-7.998,470.884,-4.375,452.147,26.043C432.768,57.504,442.458,97.764,462.233,128.978C480.537,157.871,512.152,175.909,546.334,174.719" fill="rgba(30, 48, 243, 0.36)" class="triangle-float3"></path><path d="M112.645,229.785C128.611,229.358,142.983,220.077,150.485,205.976C157.562,192.672,155.12,177.007,147.702,163.89C140.148,150.531,127.987,139.467,112.645,139.063C96.677,138.642,82.471,148.266,74.238,161.955C65.723,176.115,62.986,193.722,71.127,208.1C79.372,222.662,95.917,230.233,112.645,229.785" fill="rgba(30, 48, 243, 0.36)" class="triangle-float2"></path><path d="M1193.097,462.533C1240.773,462.043,1287.627,438.545,1308.639,395.746C1327.835,356.647,1305.783,314.268,1284.562,276.23C1262.519,236.719,1238.273,191.12,1193.097,188.641C1145.102,186.007,1106.265,223.402,1082.417,265.136C1058.782,306.495,1050.069,356.615,1073.366,398.165C1097.118,440.526,1144.534,463.032,1193.097,462.533" fill="rgba(30, 48, 243, 0.36)" class="triangle-float2"></path><path d="M292.886,520.848C342.573,516.856,373.544,471.892,396.906,427.859C418.389,387.368,430.881,340.996,409.939,300.223C387.257,256.062,342.515,226.607,292.886,225.338C241.048,224.013,192.319,249.894,164.988,293.961C136.06,340.603,128.287,399.463,155.238,447.274C182.62,495.849,237.304,525.313,292.886,520.848" fill="rgba(30, 48, 243, 0.36)" class="triangle-float3"></path><path d="M1241.421,275.17C1286.945,274.504,1331.124,257.015,1355.639,218.65C1382.164,177.14,1390.772,123.353,1365.424,81.114C1340.648,39.828,1289.531,26.346,1241.421,28.32C1197.054,30.14,1157.273,52.875,1133.871,90.612C1109.004,130.711,1097.508,181.312,1121.265,222.079C1144.894,262.627,1194.495,275.857,1241.421,275.17" fill="rgba(30, 48, 243, 0.36)" class="triangle-float3"></path></g><defs><mask id="SvgjsMask1643"><rect width="1440" height="560" fill="#ffffff"></rect></mask><style>
                @keyframes float1 {
                    0%{transform: translate(0, 0)}
                    50%{transform: translate(-10px, 0)}
                    100%{transform: translate(0, 0)}
                }

                .triangle-float1 {
                    animation: float1 5s infinite;
                }

                @keyframes float2 {
                    0%{transform: translate(0, 0)}
                    50%{transform: translate(-5px, -5px)}
                    100%{transform: translate(0, 0)}
                }

                .triangle-float2 {
                    animation: float2 4s infinite;
                }

                @keyframes float3 {
                    0%{transform: translate(0, 0)}
                    50%{transform: translate(0, -10px)}
                    100%{transform: translate(0, 0)}
                }

                .triangle-float3 {
                    animation: float3 6s infinite;
                }
            </style></defs></svg>