<svg xmlns="http://www.w3.org/2000/svg" version="1.1" xmlns:xlink="http://www.w3.org/1999/xlink" xmlns:svgjs="http://svgjs.dev/svgjs" width="1440" height="560" preserveAspectRatio="none" viewBox="0 0 1440 560"><g mask="url(&quot;#SvgjsMask1506&quot;)" fill="none"><path d="M285.558,297.873C314.094,299.282,344.685,292.339,359.769,268.074C375.537,242.709,372.046,209.748,355.998,184.559C341.068,161.126,313.332,150.806,285.558,151.595C259.249,152.343,234.755,165.506,221.726,188.375C208.822,211.023,209.914,238.803,223.041,261.322C236.071,283.673,259.717,296.597,285.558,297.873" fill="rgba(30, 48, 243, 0.36)" class="triangle-float2"></path><path d="M1061.239,148.528C1089.985,148.202,1121.573,146.801,1137.507,122.873C1154.846,96.834,1153.757,61.491,1136.629,35.313C1120.828,11.164,1090.098,6.471,1061.239,6.307C1031.988,6.141,1000.639,10.151,984.351,34.448C966.402,61.222,963.897,97.909,981.912,124.639C998.454,149.183,1031.643,148.864,1061.239,148.528" fill="rgba(30, 48, 243, 0.36)" class="triangle-float2"></path><path d="M673.568,409.416C708.76,410.27,747.547,403.446,765.093,372.928C782.602,342.474,769.207,305.398,750.446,275.699C733.187,248.378,705.88,227.559,673.568,228.038C641.975,228.507,616.763,250.81,600.54,277.923C583.77,305.95,573.567,340.112,589.425,368.665C605.642,397.865,640.177,408.606,673.568,409.416" fill="rgba(30, 48, 243, 0.36)" class="triangle-float1"></path><path d="M1333.112,460.171C1351.391,460.172,1371.409,455.972,1380.079,439.88C1388.471,424.305,1379.684,406.285,1370.187,391.358C1361.579,377.828,1349.133,366.744,1333.112,366.058C1315.888,365.321,1299.352,373.383,1290.098,387.929C1280.108,403.633,1276.63,423.884,1286.152,439.876C1295.502,455.58,1314.835,460.17,1333.112,460.171" fill="rgba(30, 48, 243, 0.36)" class="triangle-float2"></path><path d="M717.174,456.499C763.382,455.103,790.361,408.09,809.805,366.149C825.742,331.772,824.912,294.12,808.225,260.1C788.863,220.627,761.129,178.299,717.174,177.308C672.195,176.294,639.733,216.044,618.721,255.826C599.313,292.57,596.008,334.749,614.311,372.056C635.253,414.741,669.65,457.935,717.174,456.499" fill="rgba(30, 48, 243, 0.36)" class="triangle-float3"></path><path d="M1214.323,331.177C1265.954,334.72,1320.839,321.937,1349.359,278.753C1380.541,231.538,1381.013,169.877,1353.504,120.433C1325.232,69.617,1272.413,33.382,1214.323,36.042C1159.787,38.539,1118.829,82.84,1095.597,132.243C1075.752,174.445,1084.077,222.143,1107.977,262.188C1131.186,301.077,1169.141,328.076,1214.323,331.177" fill="rgba(30, 48, 243, 0.36)" class="triangle-float2"></path><path d="M327.62,508.357C346.866,508.473,366.364,501.553,376.155,484.984C386.096,468.162,383.046,447.517,373.72,430.346C363.879,412.226,348.234,395.113,327.62,395.62C307.563,396.113,294.757,414.834,285.288,432.522C276.496,448.945,271.01,468.139,280.089,484.404C289.358,501.008,308.604,508.242,327.62,508.357" fill="rgba(30, 48, 243, 0.36)" class="triangle-float1"></path><path d="M377.476,308.015C423.956,305.583,466.049,282.449,490.162,242.638C515.239,201.236,521.503,150.276,498.967,107.437C474.862,61.617,429.25,28.45,377.476,28.435C325.679,28.42,282.345,62.851,255.863,107.366C228.673,153.071,214.766,210.125,242.331,255.605C269.173,299.892,325.761,310.721,377.476,308.015" fill="rgba(30, 48, 243, 0.36)" class="triangle-float2"></path><path d="M1269.178,503.594C1321.685,501.911,1378.744,491.557,1404.336,445.678C1429.487,400.591,1405.446,348.556,1381.041,303.06C1354.623,253.812,1324.855,198.552,1269.178,193.719C1207.102,188.331,1148.923,226.268,1117.725,280.204C1086.483,334.215,1083.115,403.207,1118.129,454.853C1149.95,501.788,1212.502,505.411,1269.178,503.594" fill="rgba(30, 48, 243, 0.36)" class="triangle-float2"></path><path d="M161.634,247.703C200.984,247.004,242.529,237.464,262.579,203.598C282.928,169.227,275.557,125.597,253.729,92.146C233.865,61.704,197.954,50.365,161.634,48.899C121.777,47.291,78.074,51.134,55.695,84.154C31.011,120.575,30.36,170.37,54.28,207.298C76.559,241.693,120.66,248.431,161.634,247.703" fill="rgba(30, 48, 243, 0.36)" class="triangle-float2"></path><path d="M85.735,378.203C111.407,378.167,126.009,352.211,139.186,330.179C152.905,307.24,169.191,281.892,157.793,257.716C145.169,230.939,115.261,214.658,85.735,216.803C58.947,218.749,41.272,242.737,29.785,267.016C20.106,287.475,21.851,310.11,32.025,330.328C43.579,353.29,60.03,378.239,85.735,378.203" fill="rgba(30, 48, 243, 0.36)" class="triangle-float2"></path><path d="M83.838,336.012C106.584,335.407,129.036,327.869,141.41,308.774C154.927,287.915,158.768,260.975,146.455,239.383C134.045,217.621,108.889,207.586,83.838,207.819C59.227,208.048,35.967,219.483,23.21,240.531C9.971,262.375,7.016,290.42,20.708,311.983C33.644,332.356,59.714,336.653,83.838,336.012" fill="rgba(30, 48, 243, 0.36)" class="triangle-float3"></path></g><defs><mask id="SvgjsMask1506"><rect width="1440" height="560" fill="#ffffff"></rect></mask><style>
                @keyframes float1 {
                    0%{transform: translate(0, 0)}
                    50%{transform: translate(-10px, 0)}
                    100%{transform: translate(0, 0)}
                }

                .triangle-float1 {
                    animation: float1 5s infinite;
                }

                @keyframes float2 {
                    0%{transform: translate(0, 0)}
                    50%{transform: translate(-5px, -5px)}
                    100%{transform: translate(0, 0)}
                }

                .triangle-float2 {
                    animation: float2 4s infinite;
                }

                @keyframes float3 {
                    0%{transform: translate(0, 0)}
                    50%{transform: translate(0, -10px)}
                    100%{transform: translate(0, 0)}
                }

                .triangle-float3 {
                    animation: float3 6s infinite;
                }
            </style></defs></svg>