<svg xmlns="http://www.w3.org/2000/svg" version="1.1" xmlns:xlink="http://www.w3.org/1999/xlink" xmlns:svgjs="http://svgjs.dev/svgjs" width="1440" height="560" preserveAspectRatio="none" viewBox="0 0 1440 560"><g mask="url(&quot;#SvgjsMask1615&quot;)" fill="none"><path d="M227.314,93.246C242.893,92.471,256.489,84.034,264.772,70.817C273.683,56.599,278.899,38.784,270.582,24.21C262.212,9.542,244.197,4.774,227.314,5.177C211.229,5.561,196.144,12.634,187.484,26.195C178.075,40.928,173.86,59.869,182.788,74.898C191.575,89.69,210.13,94.101,227.314,93.246" fill="rgba(30, 48, 243, 0.36)" class="triangle-float2"></path><path d="M534.691,194.042C571.827,191.602,598.457,161.62,615.823,128.704C631.837,98.35,636.538,62.685,619.797,32.726C602.664,2.066,569.79,-15.196,534.691,-16.48C496.997,-17.859,458.597,-5.566,438.072,26.08C415.758,60.484,412.276,105.188,432.723,140.734C453.221,176.367,493.671,196.737,534.691,194.042" fill="rgba(30, 48, 243, 0.36)" class="triangle-float1"></path><path d="M1275.154,432.604C1313.141,429.731,1335.192,393.086,1352.406,359.101C1367.532,329.238,1374.354,295.784,1359.701,265.686C1342.998,231.378,1313.247,202.643,1275.154,200.423C1233.457,197.993,1192.687,218.659,1171.62,254.725C1150.381,291.084,1153.427,336.157,1174.609,372.549C1195.657,408.711,1233.432,435.76,1275.154,432.604" fill="rgba(30, 48, 243, 0.36)" class="triangle-float1"></path><path d="M1278.736,217.033C1306.64,216.643,1330.436,199.362,1344.881,175.484C1359.931,150.607,1367.012,119.898,1352.868,94.495C1338.405,68.52,1308.382,54.454,1278.736,56.688C1252.255,58.683,1234.959,81.357,1221.718,104.376C1208.527,127.308,1197.365,153.774,1209.311,177.378C1222.21,202.864,1250.175,217.432,1278.736,217.033" fill="rgba(30, 48, 243, 0.36)" class="triangle-float2"></path><path d="M116.63,535.277C172.242,537.634,230.293,516.181,256.781,467.225C282.343,419.981,260.089,365.502,233.848,318.632C206.759,270.246,172.044,218.961,116.63,216.89C58.686,214.724,9.346,257.517,-16.818,309.262C-40.584,356.264,-31.129,410.804,-4.351,456.157C21.907,500.629,65.031,533.09,116.63,535.277" fill="rgba(30, 48, 243, 0.36)" class="triangle-float3"></path><path d="M1013.999,449.646C1043.993,449.305,1073.538,437.793,1089.126,412.165C1105.305,385.566,1106.245,351.461,1089.8,325.026C1074.151,299.87,1043.622,291.788,1013.999,291.399C983.496,290.999,951.077,297.271,934.671,322.99C917.201,350.377,918.609,386.377,935.852,413.908C952.148,439.926,983.301,449.995,1013.999,449.646" fill="rgba(30, 48, 243, 0.36)" class="triangle-float3"></path><path d="M910.297,429.483C947.396,429.058,977.034,402.298,995.507,370.123C1013.889,338.107,1023.38,298.228,1003.53,267.1C984.681,237.542,945.349,235.915,910.297,236.502C876.653,237.066,840.738,241.973,822.325,270.137C802.387,300.633,804.025,340.22,821.635,372.117C839.87,405.146,872.571,429.916,910.297,429.483" fill="rgba(30, 48, 243, 0.36)" class="triangle-float3"></path><path d="M1171.056,209.504C1223.378,211.393,1274.345,185.155,1299.73,139.365C1324.448,94.778,1314.019,41.401,1288.813,-2.912C1263.269,-47.819,1222.682,-84.858,1171.056,-86.847C1116.184,-88.962,1061.868,-61.316,1036.455,-12.637C1012.514,33.222,1030.717,86.379,1057.525,130.623C1083.12,172.864,1121.698,207.722,1171.056,209.504" fill="rgba(30, 48, 243, 0.36)" class="triangle-float2"></path><path d="M657.829,541.08C674.537,541.482,691.444,534.919,699.816,520.454C708.201,505.966,705.114,488.241,696.827,473.697C688.444,458.986,674.761,446.831,657.829,446.768C640.807,446.704,626.392,458.416,618.323,473.404C610.682,487.597,611.079,504.591,619.205,518.512C627.262,532.314,641.852,540.695,657.829,541.08" fill="rgba(30, 48, 243, 0.36)" class="triangle-float2"></path><path d="M613.871,473.473C645.632,474.301,679.317,467.837,696.773,441.29C715.786,412.374,717.014,373.816,698.712,344.444C681.284,316.474,646.826,308.315,613.871,308.243C580.755,308.17,545.157,315.517,528.382,344.07C511.444,372.9,519.703,409.254,538.134,437.153C554.675,462.191,583.872,472.691,613.871,473.473" fill="rgba(30, 48, 243, 0.36)" class="triangle-float1"></path></g><defs><mask id="SvgjsMask1615"><rect width="1440" height="560" fill="#ffffff"></rect></mask><style>
                @keyframes float1 {
                    0%{transform: translate(0, 0)}
                    50%{transform: translate(-10px, 0)}
                    100%{transform: translate(0, 0)}
                }

                .triangle-float1 {
                    animation: float1 5s infinite;
                }

                @keyframes float2 {
                    0%{transform: translate(0, 0)}
                    50%{transform: translate(-5px, -5px)}
                    100%{transform: translate(0, 0)}
                }

                .triangle-float2 {
                    animation: float2 4s infinite;
                }

                @keyframes float3 {
                    0%{transform: translate(0, 0)}
                    50%{transform: translate(0, -10px)}
                    100%{transform: translate(0, 0)}
                }

                .triangle-float3 {
                    animation: float3 6s infinite;
                }
            </style></defs></svg>