<svg xmlns="http://www.w3.org/2000/svg" version="1.1" xmlns:xlink="http://www.w3.org/1999/xlink" xmlns:svgjs="http://svgjs.dev/svgjs" width="1440" height="560" preserveAspectRatio="none" viewBox="0 0 1440 560"><g mask="url(&quot;#SvgjsMask1596&quot;)" fill="none"><path d="M1245.741,65.789C1269.8,66.773,1292.577,54.154,1304.873,33.451C1317.431,12.306,1318.241,-14.15,1305.825,-35.379C1293.523,-56.413,1270.108,-67.635,1245.741,-67.656C1221.334,-67.677,1196.926,-57.038,1185.476,-35.483C1174.575,-14.963,1182.547,8.967,1194.43,28.935C1205.972,48.331,1223.19,64.867,1245.741,65.789" fill="rgba(30, 48, 243, 0.36)" class="triangle-float3"></path><path d="M1328.248,286.608C1369.759,284.767,1404.828,259.898,1426.578,224.493C1449.581,187.047,1461.114,141.669,1441.42,102.382C1419.768,59.189,1376.533,26.611,1328.248,28.342C1282.165,29.994,1250.775,69.751,1228.31,110.022C1206.59,148.957,1191.598,195.138,1213.557,233.939C1235.765,273.18,1283.203,288.606,1328.248,286.608" fill="rgba(30, 48, 243, 0.36)" class="triangle-float2"></path><path d="M1053.854,204.48C1094.368,207.458,1138.118,193.333,1157.445,157.602C1176.148,123.026,1157.14,83.551,1137.768,49.346C1117.994,14.431,1093.899,-22.754,1053.854,-25.308C1010.338,-28.084,967.75,-2.101,949.093,37.31C932.343,72.693,952.872,110.921,973.66,144.093C992.705,174.484,1018.085,201.851,1053.854,204.48" fill="rgba(30, 48, 243, 0.36)" class="triangle-float2"></path><path d="M1497.703,562.71C1551.42,564.764,1604.839,537.106,1628.897,489.034C1651.11,444.65,1627.235,395.811,1602.871,352.571C1577.853,308.171,1548.666,256.26,1497.703,256.198C1446.685,256.136,1415.42,306.943,1392.089,352.313C1371.233,392.87,1362.347,438.866,1382.807,479.624C1405.533,524.897,1447.083,560.774,1497.703,562.71" fill="rgba(30, 48, 243, 0.36)" class="triangle-float3"></path><path d="M981.049,481.776C1026.559,484.778,1070.884,459.945,1092.711,419.898C1113.739,381.316,1104.033,335.158,1081.528,297.419C1059.653,260.736,1023.753,233.362,981.049,232.648C937.161,231.914,894.522,254.858,874.579,293.96C856.058,330.273,872.184,371.215,892.287,406.677C912.772,442.813,939.6,479.042,981.049,481.776" fill="rgba(30, 48, 243, 0.36)" class="triangle-float1"></path><path d="M152.084,378.888C210.834,374.262,243.26,315.129,268.212,261.74C288.652,218.005,292.253,169.458,269.981,126.626C245.712,79.953,204.541,42.369,152.084,38.41C92.357,33.902,30.471,55.359,-1.273,106.153C-34.742,159.707,-31.673,227.868,-0.721,282.915C30.876,339.108,87.816,383.948,152.084,378.888" fill="rgba(30, 48, 243, 0.36)" class="triangle-float1"></path><path d="M771.736,523.894C806.438,525.179,835.531,498.571,850.83,467.397C864.452,439.641,857.397,407.975,841.697,381.34C826.292,355.204,802.017,335.07,771.736,333.212C737.937,331.138,701.236,341.942,685.133,371.731C669.544,400.569,685.961,433.401,702.176,461.892C718.643,490.825,738.468,522.662,771.736,523.894" fill="rgba(30, 48, 243, 0.36)" class="triangle-float1"></path><path d="M947.801,351.663C981.771,351.128,1010.105,329.409,1027.963,300.507C1046.97,269.745,1057.207,232.709,1041.395,200.189C1023.633,163.659,988.398,134.292,947.801,135.64C908.82,136.934,881.981,171.259,864.385,206.066C848.742,237.009,845.903,273.021,863.139,303.105C880.472,333.359,912.937,352.212,947.801,351.663" fill="rgba(30, 48, 243, 0.36)" class="triangle-float3"></path><path d="M1163.1,240.196C1178.302,240.887,1193.674,234.681,1201.411,221.577C1209.262,208.279,1207.113,191.878,1199.592,178.39C1191.844,164.495,1179.002,153.334,1163.1,152.867C1146.451,152.378,1130.145,161.233,1122.7,176.133C1115.848,189.846,1122.203,205.382,1130.38,218.349C1137.878,230.238,1149.058,239.558,1163.1,240.196" fill="rgba(30, 48, 243, 0.36)" class="triangle-float1"></path><path d="M1364.199,490.898C1389.013,492.323,1411.629,477.158,1424.229,455.734C1437.014,433.996,1438.68,407.192,1426.376,385.178C1413.778,362.638,1389.957,346.517,1364.199,348.327C1340.659,349.981,1325.833,371.745,1315.515,392.968C1306.689,411.121,1306.043,431.389,1315.029,449.464C1325.255,470.034,1341.265,489.581,1364.199,490.898" fill="rgba(30, 48, 243, 0.36)" class="triangle-float3"></path></g><defs><mask id="SvgjsMask1596"><rect width="1440" height="560" fill="#ffffff"></rect></mask><style>
                @keyframes float1 {
                    0%{transform: translate(0, 0)}
                    50%{transform: translate(-10px, 0)}
                    100%{transform: translate(0, 0)}
                }

                .triangle-float1 {
                    animation: float1 5s infinite;
                }

                @keyframes float2 {
                    0%{transform: translate(0, 0)}
                    50%{transform: translate(-5px, -5px)}
                    100%{transform: translate(0, 0)}
                }

                .triangle-float2 {
                    animation: float2 4s infinite;
                }

                @keyframes float3 {
                    0%{transform: translate(0, 0)}
                    50%{transform: translate(0, -10px)}
                    100%{transform: translate(0, 0)}
                }

                .triangle-float3 {
                    animation: float3 6s infinite;
                }
            </style></defs></svg>