<svg xmlns="http://www.w3.org/2000/svg" version="1.1" xmlns:xlink="http://www.w3.org/1999/xlink" xmlns:svgjs="http://svgjs.dev/svgjs" width="1440" height="560" preserveAspectRatio="none" viewBox="0 0 1440 560"><g mask="url(&quot;#SvgjsMask1655&quot;)" fill="none"><path d="M689.764,198.48C725.24,197.214,748.735,165.002,764.805,133.349C779.093,105.206,783.695,72.236,767.656,45.053C751.85,18.266,720.861,6.804,689.764,6.171C657.314,5.51,623.656,14.416,606.178,41.765C587.458,71.056,588.48,108.383,604.839,139.055C622.266,171.729,652.757,199.8,689.764,198.48" fill="rgba(30, 48, 243, 0.36)" class="triangle-float3"></path><path d="M944.43,218.533C960.239,217.81,969.732,202.415,976.734,188.222C982.77,175.989,985.153,161.81,978.209,150.069C971.375,138.513,957.855,133.774,944.43,133.599C930.635,133.419,916.649,137.626,909.092,149.168C900.807,161.822,899.704,177.953,906.57,191.43C914.121,206.252,927.812,219.293,944.43,218.533" fill="rgba(30, 48, 243, 0.36)" class="triangle-float3"></path><path d="M875.544,552.049C896.805,551.243,915.18,538.414,925.68,519.909C936.034,501.662,936.314,480.047,927.092,461.202C916.475,439.506,899.692,416.935,875.544,417.455C851.866,417.964,838.902,442.474,827.701,463.341C817.335,482.653,807.961,504.684,818.365,523.975C829.168,544.005,852.802,552.911,875.544,552.049" fill="rgba(30, 48, 243, 0.36)" class="triangle-float2"></path><path d="M146.141,126.609C163.335,126.608,176.864,114.03,185.793,99.336C195.17,83.906,202.013,65.034,193.106,49.328C184.116,33.475,164.363,29.073,146.141,29.413C128.623,29.74,110.765,35.787,102.121,51.027C93.571,66.102,97.759,84.365,106.481,99.341C115.135,114.2,128.946,126.61,146.141,126.609" fill="rgba(30, 48, 243, 0.36)" class="triangle-float2"></path><path d="M1482.512,342.525C1529.871,346.45,1579.174,330.615,1605.032,290.745C1633.054,247.539,1635.1,191.376,1609.538,146.67C1583.8,101.658,1534.362,76.079,1482.512,76.472C1431.35,76.859,1380.422,102.211,1358.776,148.569C1339.359,190.153,1366.07,234.295,1390.753,272.986C1412.876,307.663,1441.52,339.128,1482.512,342.525" fill="rgba(30, 48, 243, 0.36)" class="triangle-float3"></path><path d="M518.119,359.73C545.773,359.264,577.231,357.865,591.113,333.943C605.026,309.967,592.949,280.521,577.399,257.574C563.959,237.741,542.02,227.872,518.119,226.227C490.14,224.301,458.901,225.353,442.789,248.308C424.687,274.098,423.085,310.376,440.733,336.479C456.902,360.394,489.255,360.217,518.119,359.73" fill="rgba(30, 48, 243, 0.36)" class="triangle-float2"></path><path d="M1262.358,286.784C1289.292,287.119,1309.948,265.835,1323.356,242.473C1336.69,219.239,1344.377,190.832,1330.62,167.846C1317.132,145.31,1288.609,139.738,1262.358,140.554C1237.782,141.318,1213.439,150.622,1201.075,171.875C1188.649,193.237,1192.304,219.182,1203.933,240.988C1216.413,264.389,1235.839,286.454,1262.358,286.784" fill="rgba(30, 48, 243, 0.36)" class="triangle-float1"></path><path d="M806.465,152.355C838.702,155.024,875.223,153.191,893.167,126.277C912.548,97.207,906.782,58.642,888.991,28.573C871.546,-0.913,840.682,-21.981,806.465,-20.264C774.563,-18.663,751.072,7.45,737.138,36.193C725.036,61.156,727.293,89.899,741.51,113.721C755.348,136.907,779.556,150.127,806.465,152.355" fill="rgba(30, 48, 243, 0.36)" class="triangle-float1"></path><path d="M28.966,502.663C53.342,502.393,74.4,487.18,86.538,466.04C98.621,444.995,101.137,419.154,88.966,398.16C76.829,377.226,53.155,367.382,28.966,366.736C3.411,366.053,-23.792,372.825,-36.858,394.798C-50.15,417.15,-44.407,445.143,-30.86,467.342C-17.931,488.53,4.147,502.938,28.966,502.663" fill="rgba(30, 48, 243, 0.36)" class="triangle-float3"></path><path d="M59.938,179.774C95.947,178.54,117.086,143.978,135.544,113.035C154.694,80.932,177.727,44.506,160.377,11.395C142.283,-23.137,98.845,-33.722,59.938,-31.257C25.33,-29.064,-3.501,-7.283,-20.637,22.864C-37.549,52.616,-40.846,88.101,-25.213,118.545C-8.097,151.877,22.49,181.058,59.938,179.774" fill="rgba(30, 48, 243, 0.36)" class="triangle-float1"></path></g><defs><mask id="SvgjsMask1655"><rect width="1440" height="560" fill="#ffffff"></rect></mask><style>
                @keyframes float1 {
                    0%{transform: translate(0, 0)}
                    50%{transform: translate(-10px, 0)}
                    100%{transform: translate(0, 0)}
                }

                .triangle-float1 {
                    animation: float1 5s infinite;
                }

                @keyframes float2 {
                    0%{transform: translate(0, 0)}
                    50%{transform: translate(-5px, -5px)}
                    100%{transform: translate(0, 0)}
                }

                .triangle-float2 {
                    animation: float2 4s infinite;
                }

                @keyframes float3 {
                    0%{transform: translate(0, 0)}
                    50%{transform: translate(0, -10px)}
                    100%{transform: translate(0, 0)}
                }

                .triangle-float3 {
                    animation: float3 6s infinite;
                }
            </style></defs></svg>