<svg xmlns="http://www.w3.org/2000/svg" version="1.1" xmlns:xlink="http://www.w3.org/1999/xlink" xmlns:svgjs="http://svgjs.dev/svgjs" width="1440" height="560" preserveAspectRatio="none" viewBox="0 0 1440 560"><g mask="url(&quot;#SvgjsMask1156&quot;)" fill="none"><rect width="1440" height="560" x="0" y="0" fill="url(&quot;#SvgjsRadialGradient1157&quot;)"></rect><path d="M182.189,315.598C206.865,317.496,229.859,300.243,240.222,277.768C249.322,258.031,239.024,236.497,227.012,218.384C216.564,202.629,201.04,191.684,182.189,190.259C160.185,188.596,134.61,191.315,123.866,210.59C113.27,229.599,127.233,250.866,137.8,269.891C148.853,289.791,159.493,313.853,182.189,315.598" fill="rgba(28, 83, 142, 0.4)" class="triangle-float2"></path><path d="M1279.202,302.326C1306.523,302.047,1320.791,273.115,1334.463,249.46C1348.152,225.775,1364.285,199.9,1352.735,175.102C1339.787,147.304,1309.863,130.276,1279.202,130.821C1249.376,131.351,1222.927,150.724,1210.064,177.639C1198.675,201.47,1209.145,227.509,1221.954,250.609C1235.32,274.714,1251.64,302.607,1279.202,302.326" fill="rgba(28, 83, 142, 0.4)" class="triangle-float2"></path><path d="M1488.6,355.455C1540.169,354.721,1593.042,338.078,1618.99,293.507C1645.073,248.704,1637.159,192.237,1608.94,148.748C1583.113,108.944,1535.999,94.739,1488.6,92.556C1435.8,90.124,1376.783,92.768,1347.393,136.7C1315.476,184.409,1320.49,249.086,1351.62,297.312C1380.452,341.979,1435.441,356.212,1488.6,355.455" fill="rgba(28, 83, 142, 0.4)" class="triangle-float2"></path><path d="M307.978,471.87C358.816,472.466,402.641,439.762,428.282,395.86C454.171,351.534,463.016,296.144,436.164,252.394C410.274,210.21,357.449,198.298,307.978,199.845C261.63,201.294,216.757,220.197,192.965,259.999C168.568,300.814,169.778,351.303,192.464,393.094C216.295,436.995,258.029,471.284,307.978,471.87" fill="rgba(28, 83, 142, 0.4)" class="triangle-float3"></path><path d="M-5.368,175.22C10.817,174.13,24.672,165.169,33.312,151.439C42.661,136.583,48.288,118.378,40.208,102.795C31.583,86.161,13.369,76.946,-5.368,76.845C-24.287,76.743,-41.98,86.129,-51.803,102.298C-62.023,119.121,-64.839,140.737,-54.266,157.34C-44.275,173.03,-23.927,176.47,-5.368,175.22" fill="rgba(28, 83, 142, 0.4)" class="triangle-float2"></path><path d="M967.043,408.2C980.368,408.204,992.574,401.463,999.719,390.216C1007.467,378.021,1010.582,362.874,1004.015,350.005C996.873,336.01,982.752,325.901,967.043,326.186C951.737,326.464,939.283,337.67,932.328,351.308C926.007,363.703,927.15,378.322,934.398,390.199C941.336,401.568,953.724,408.196,967.043,408.2" fill="rgba(28, 83, 142, 0.4)" class="triangle-float2"></path><path d="M1391.395,151.406C1428.413,153.537,1464.357,134.768,1483.073,102.759C1501.956,70.463,1500.243,30.179,1481.053,-1.935C1462.353,-33.229,1427.841,-51.506,1391.395,-50.659C1356.358,-49.845,1324.89,-28.999,1308.676,2.071C1293.567,31.024,1300.521,64.591,1316.345,93.159C1332.791,122.849,1357.51,149.455,1391.395,151.406" fill="rgba(28, 83, 142, 0.4)" class="triangle-float1"></path><path d="M1313.977,303.729C1331.795,302.456,1343.41,286.381,1351.138,270.276C1357.707,256.586,1357.501,241.213,1350.419,227.782C1342.763,213.262,1330.343,201.066,1313.977,199.797C1295.331,198.352,1276.116,205.379,1266.231,221.255C1255.83,237.96,1256.464,259.305,1266.323,276.335C1276.162,293.33,1294.389,305.128,1313.977,303.729" fill="rgba(28, 83, 142, 0.4)" class="triangle-float3"></path></g><defs><mask id="SvgjsMask1156"><rect width="1440" height="560" fill="#ffffff"></rect></mask><radialGradient cx="50%" cy="50%" r="772.53" gradientUnits="userSpaceOnUse" id="SvgjsRadialGradient1157"><stop stop-color="rgba(30, 48, 243, 1)" offset="0"></stop><stop stop-color="rgba(226, 30, 128, 1)" offset="1"></stop></radialGradient><style>
                @keyframes float1 {
                    0%{transform: translate(0, 0)}
                    50%{transform: translate(-10px, 0)}
                    100%{transform: translate(0, 0)}
                }

                .triangle-float1 {
                    animation: float1 5s infinite;
                }

                @keyframes float2 {
                    0%{transform: translate(0, 0)}
                    50%{transform: translate(-5px, -5px)}
                    100%{transform: translate(0, 0)}
                }

                .triangle-float2 {
                    animation: float2 4s infinite;
                }

                @keyframes float3 {
                    0%{transform: translate(0, 0)}
                    50%{transform: translate(0, -10px)}
                    100%{transform: translate(0, 0)}
                }

                .triangle-float3 {
                    animation: float3 6s infinite;
                }
            </style></defs></svg>