<svg xmlns="http://www.w3.org/2000/svg" version="1.1" xmlns:xlink="http://www.w3.org/1999/xlink" xmlns:svgjs="http://svgjs.dev/svgjs" width="1440" height="560" preserveAspectRatio="none" viewBox="0 0 1440 560"><g mask="url(&quot;#SvgjsMask1257&quot;)" fill="none"><path d="M959.564,152.659C986.755,151.358,1010.715,136.742,1024.949,113.538C1039.944,89.094,1045.101,59.431,1032.577,33.634C1018.335,4.298,992.157,-22.2,959.564,-21.141C928.093,-20.118,909.412,10.484,894.331,38.126C880.111,64.189,867.666,94.562,882.36,120.361C897.157,146.341,929.7,154.088,959.564,152.659" fill="rgba(30, 48, 243, 0.28)" class="triangle-float3"></path><path d="M1369.643,72.605C1388.16,74.041,1408.206,66.789,1416.554,50.198C1424.39,34.624,1414.726,17.142,1404.738,2.853C1396.494,-8.941,1384.033,-17.025,1369.643,-16.916C1355.44,-16.809,1342.672,-8.857,1335.457,3.377C1328.118,15.821,1327.448,30.829,1333.845,43.783C1341.115,58.506,1353.272,71.335,1369.643,72.605" fill="rgba(30, 48, 243, 0.28)" class="triangle-float2"></path><path d="M250.707,165.382C293.21,164.96,329.029,136.251,349.404,98.948C368.897,63.259,368.989,20.629,349.163,-14.877C328.811,-51.326,292.448,-78.463,250.707,-77.809C209.91,-77.17,177.701,-47.299,157.457,-11.873C137.397,23.23,129.735,65.16,148.559,100.941C168.649,139.128,207.56,165.81,250.707,165.382" fill="rgba(30, 48, 243, 0.28)" class="triangle-float2"></path><path d="M270.605,562.222C318.147,561.316,361.117,532.514,382.399,489.992C401.767,451.294,388.467,407.369,366.879,369.865C345.227,332.25,313.999,295.019,270.605,295.777C228.045,296.52,201.918,336.648,179.984,373.128C157.037,411.292,131.934,454.241,151.179,494.399C172.385,538.647,221.547,563.157,270.605,562.222" fill="rgba(30, 48, 243, 0.28)" class="triangle-float1"></path><path d="M312.537,631.869C347.031,634.709,384.287,621.731,400.423,591.112C415.853,561.833,398.301,529.071,381.844,500.357C365.254,471.411,345.801,440.331,312.537,437.768C275.614,434.924,237.605,454.503,221.886,488.034C207.673,518.353,228.736,550.118,246.59,578.446C262.757,604.098,282.318,629.381,312.537,631.869" fill="rgba(30, 48, 243, 0.28)" class="triangle-float2"></path><path d="M1287.567,287.91C1321.095,288.33,1355.782,276.956,1372.449,247.861C1389.039,218.901,1382.034,182.795,1363.793,154.846C1347.244,129.491,1317.844,117.602,1287.567,117.808C1257.695,118.011,1229.132,130.654,1213.116,155.871C1195.845,183.064,1190.467,217.72,1206.289,245.781C1222.353,274.271,1254.863,287.501,1287.567,287.91" fill="rgba(30, 48, 243, 0.28)" class="triangle-float1"></path><path d="M1372.206,685.404C1411.286,685.203,1450.252,671.608,1471.034,638.511C1493.115,603.345,1493.9,559.101,1474.594,522.338C1453.801,482.744,1416.926,449.926,1372.206,450.323C1328.009,450.715,1293.666,485.101,1272.916,524.127C1253.558,560.535,1249.987,604.421,1271.604,639.534C1292.313,673.171,1332.706,685.607,1372.206,685.404" fill="rgba(30, 48, 243, 0.28)" class="triangle-float1"></path><path d="M1396.162,581.908C1432.602,580.819,1461.014,554.36,1479.398,522.879C1497.976,491.064,1510.462,451.322,1490.501,420.356C1471.528,390.923,1431.123,391.76,1396.162,393.755C1365.665,395.495,1336.094,404.978,1318.795,430.155C1298.743,459.338,1287.754,496.583,1303.836,528.128C1321.174,562.136,1358.006,583.049,1396.162,581.908" fill="rgba(30, 48, 243, 0.28)" class="triangle-float1"></path><path d="M174.426,460.453C194.242,459.204,212.614,450.133,222.798,433.089C233.259,415.581,234.966,393.759,224.864,376.041C214.673,358.167,195.001,348.296,174.426,348.247C153.762,348.198,134.914,358.528,123.569,375.799C110.856,395.153,102.274,420.084,114.199,439.933C125.905,459.418,151.74,461.883,174.426,460.453" fill="rgba(30, 48, 243, 0.28)" class="triangle-float3"></path><path d="M983.816,205.89C999.65,205.144,1013.014,194.48,1020.041,180.271C1026.33,167.553,1022.757,153.249,1016.024,140.761C1008.824,127.406,998.969,113.842,983.816,113.085C967.656,112.278,953.849,123.375,945.507,137.239C936.86,151.611,932.984,169.338,941.157,183.985C949.505,198.945,966.703,206.696,983.816,205.89" fill="rgba(30, 48, 243, 0.28)" class="triangle-float2"></path><path d="M1230.365,546.459C1274.437,546.961,1316.129,523.84,1337.501,485.293C1358.284,447.808,1354.495,401.157,1330.685,365.518C1309.207,333.37,1268.993,323.295,1230.365,324.934C1194.938,326.437,1163.145,343.744,1143.779,373.447C1122.184,406.569,1109.679,447.54,1127.375,482.899C1146.726,521.565,1187.13,545.966,1230.365,546.459" fill="rgba(30, 48, 243, 0.28)" class="triangle-float3"></path></g><defs><mask id="SvgjsMask1257"><rect width="1440" height="560" fill="#ffffff"></rect></mask><style>
                @keyframes float1 {
                    0%{transform: translate(0, 0)}
                    50%{transform: translate(-10px, 0)}
                    100%{transform: translate(0, 0)}
                }

                .triangle-float1 {
                    animation: float1 5s infinite;
                }

                @keyframes float2 {
                    0%{transform: translate(0, 0)}
                    50%{transform: translate(-5px, -5px)}
                    100%{transform: translate(0, 0)}
                }

                .triangle-float2 {
                    animation: float2 4s infinite;
                }

                @keyframes float3 {
                    0%{transform: translate(0, 0)}
                    50%{transform: translate(0, -10px)}
                    100%{transform: translate(0, 0)}
                }

                .triangle-float3 {
                    animation: float3 6s infinite;
                }
            </style></defs></svg>