<svg xmlns="http://www.w3.org/2000/svg" version="1.1" xmlns:xlink="http://www.w3.org/1999/xlink" xmlns:svgjs="http://svgjs.dev/svgjs" width="1440" height="560" preserveAspectRatio="none" viewBox="0 0 1440 560"><g mask="url(&quot;#SvgjsMask1337&quot;)" fill="none"><path d="M1118.871,428.878C1137.69,428.777,1154.466,417.037,1163.144,400.339C1171.205,384.829,1168.309,366.406,1159.041,351.585C1150.361,337.704,1135.242,329.502,1118.871,329.538C1102.564,329.574,1087.722,337.98,1079.003,351.76C1069.578,366.655,1065.673,385.161,1073.767,400.818C1082.482,417.676,1099.893,428.98,1118.871,428.878" fill="rgba(30, 48, 243, 0.48)" class="triangle-float3"></path><path d="M404.254,470.83C427.243,471.013,452.505,466.715,463.934,446.767C475.319,426.896,466.8,402.61,454.355,383.385C443.135,366.052,424.88,355.514,404.254,354.572C381.639,353.539,357.695,359.313,345.543,378.414C332.615,398.736,333.284,425.498,346.2,445.828C358.309,464.889,381.673,470.65,404.254,470.83" fill="rgba(30, 48, 243, 0.48)" class="triangle-float3"></path><path d="M556.105,60.907C574.485,62.368,594.307,56.726,603.647,40.829C613.079,24.776,608.21,4.785,598.364,-11.018C589.139,-25.824,573.541,-34.921,556.105,-35.478C537.566,-36.07,517.419,-30.349,508.898,-13.874C500.799,1.784,510.663,19.278,520.073,34.184C528.628,47.737,540.128,59.637,556.105,60.907" fill="rgba(30, 48, 243, 0.48)" class="triangle-float2"></path><path d="M1232.753,533.929C1261.765,533.859,1294.22,529.864,1308.477,504.597C1322.584,479.595,1309.541,449.645,1293.887,425.581C1279.926,404.119,1258.349,388.78,1232.753,388.19C1206.092,387.576,1181.133,400.328,1166.538,422.648C1150.322,447.447,1141.245,479.499,1156.396,504.962C1171.316,530.036,1203.576,533.999,1232.753,533.929" fill="rgba(30, 48, 243, 0.48)" class="triangle-float2"></path><path d="M506.216,520.286C553.578,518.147,587.377,479.169,609.884,437.442C631.026,398.246,640.923,351.231,617.995,313.053C595.603,275.767,549.637,262.329,506.216,264.825C467.194,267.068,436.287,292.169,414.678,324.739C389.711,362.371,365.803,406.701,384.95,447.602C406.364,493.348,455.757,522.565,506.216,520.286" fill="rgba(30, 48, 243, 0.48)" class="triangle-float2"></path><path d="M728.036,409.524C743.862,409.551,752.102,392.538,759.933,378.785C767.643,365.246,776.626,350.268,769.737,336.294C762.273,321.155,744.902,313.426,728.036,314.088C712.219,314.709,698.62,325.15,691.644,339.359C685.41,352.057,689.814,366.12,696.327,378.677C703.604,392.707,712.231,409.497,728.036,409.524" fill="rgba(30, 48, 243, 0.48)" class="triangle-float3"></path><path d="M479.007,155.575C516.306,153.214,541.545,120.899,558.528,87.606C573.706,57.852,577.569,23.354,561.349,-5.846C544.663,-35.885,513.368,-55.861,479.007,-55.553C445.134,-55.25,417.471,-32.905,399.179,-4.395C378.904,27.205,363.138,65.318,379.902,98.912C398.113,135.406,438.303,158.151,479.007,155.575" fill="rgba(30, 48, 243, 0.48)" class="triangle-float2"></path><path d="M199.888,472.446C251.443,472.198,304.021,460.592,333.708,418.441C368.405,369.178,388.193,301.966,355.701,251.221C324.623,202.685,257.417,205.977,199.888,209.445C150.189,212.441,100.58,226.426,73.533,268.228C44.068,313.767,35.284,373.612,63.823,419.737C91.252,464.069,147.758,472.696,199.888,472.446" fill="rgba(30, 48, 243, 0.48)" class="triangle-float1"></path><path d="M225.508,321.492C252.665,319.386,268.919,293.486,280.764,268.957C290.793,248.188,293.423,224.475,282.044,204.414C270.516,184.091,248.873,171.647,225.508,171.541C201.957,171.434,181.244,184.371,168.072,203.894C152.797,226.534,141.117,254.318,153.103,278.858C166.277,305.832,195.579,323.813,225.508,321.492" fill="rgba(30, 48, 243, 0.48)" class="triangle-float2"></path><path d="M1156.117,142.668C1183.299,143.345,1208.423,128.085,1221.966,104.508C1235.458,81.02,1235.406,51.987,1221.586,28.691C1208.038,5.853,1182.671,-6.402,1156.117,-6.495C1129.388,-6.589,1102.909,4.909,1089.849,28.23C1077.041,51.1,1082.578,78.681,1095.713,101.364C1108.814,123.988,1129.982,142.017,1156.117,142.668" fill="rgba(30, 48, 243, 0.48)" class="triangle-float3"></path><path d="M1106.869,370.918C1144.199,369.683,1179.45,354.485,1199.905,323.234C1222.623,288.525,1232.357,244.902,1213.553,207.926C1193.096,167.7,1151.9,137.321,1106.869,140.289C1065.239,143.033,1042.172,184.002,1022.046,220.547C1002.925,255.268,983.048,295.24,1002.523,329.764C1022.212,364.668,1066.817,372.243,1106.869,370.918" fill="rgba(30, 48, 243, 0.48)" class="triangle-float1"></path><path d="M1205.431,86.041C1228.295,86.42,1247.132,69.843,1258.216,49.842C1268.929,30.511,1271.276,6.864,1259.762,-12.001C1248.658,-30.194,1226.723,-35.683,1205.431,-36.644C1181.727,-37.713,1153.913,-37.775,1141.889,-17.319C1129.781,3.28,1143.079,27.786,1155.593,48.141C1167.308,67.197,1183.065,85.67,1205.431,86.041" fill="rgba(30, 48, 243, 0.48)" class="triangle-float3"></path></g><defs><mask id="SvgjsMask1337"><rect width="1440" height="560" fill="#ffffff"></rect></mask><style>
                @keyframes float1 {
                    0%{transform: translate(0, 0)}
                    50%{transform: translate(-10px, 0)}
                    100%{transform: translate(0, 0)}
                }

                .triangle-float1 {
                    animation: float1 5s infinite;
                }

                @keyframes float2 {
                    0%{transform: translate(0, 0)}
                    50%{transform: translate(-5px, -5px)}
                    100%{transform: translate(0, 0)}
                }

                .triangle-float2 {
                    animation: float2 4s infinite;
                }

                @keyframes float3 {
                    0%{transform: translate(0, 0)}
                    50%{transform: translate(0, -10px)}
                    100%{transform: translate(0, 0)}
                }

                .triangle-float3 {
                    animation: float3 6s infinite;
                }
            </style></defs></svg>