<svg id="visual" viewBox="0 0 900 900" width="900" height="900" xmlns="http://www.w3.org/2000/svg" xmlns:xlink="http://www.w3.org/1999/xlink" version="1.1"><g stroke-width="1" stroke-linejoin="bevel"><path d="M505 503L619 564L587 474Z" fill="#b2b2ba" stroke="#b2b2ba"></path><path d="M505 503L498 601L619 564Z" fill="#bfc0d3" stroke="#bfc0d3"></path><path d="M619 564L682 532L587 474Z" fill="#c8cae4" stroke="#c8cae4"></path><path d="M498 601L538 671L619 564Z" fill="#d1d3f6" stroke="#d1d3f6"></path><path d="M619 564L698 591L682 532Z" fill="#c3c5dc" stroke="#c3c5dc"></path><path d="M612 699L698 591L619 564Z" fill="#d1d3f6" stroke="#d1d3f6"></path><path d="M505 503L414 575L498 601Z" fill="#c8cae4" stroke="#c8cae4"></path><path d="M498 601L402 666L538 671Z" fill="#bfc0d3" stroke="#bfc0d3"></path><path d="M696 435L630 394L587 474Z" fill="#c8cae4" stroke="#c8cae4"></path><path d="M587 474L479 370L505 503Z" fill="#c8cae4" stroke="#c8cae4"></path><path d="M505 503L367 536L414 575Z" fill="#b6b7c2" stroke="#b6b7c2"></path><path d="M682 532L696 435L587 474Z" fill="#b2b2ba" stroke="#b2b2ba"></path><path d="M801 433L696 435L682 532Z" fill="#d5d8ff" stroke="#d5d8ff"></path><path d="M538 671L612 699L619 564Z" fill="#ccceed" stroke="#ccceed"></path><path d="M630 394L479 370L587 474Z" fill="#b6b7c2" stroke="#b6b7c2"></path><path d="M387 376L367 536L505 503Z" fill="#c8cae4" stroke="#c8cae4"></path><path d="M294 608L402 666L414 575Z" fill="#c3c5dc" stroke="#c3c5dc"></path><path d="M414 575L402 666L498 601Z" fill="#adaeb1" stroke="#adaeb1"></path><path d="M523 812L624 780L612 699Z" fill="#d5d8ff" stroke="#d5d8ff"></path><path d="M612 699L699 695L698 591Z" fill="#d1d3f6" stroke="#d1d3f6"></path><path d="M479 370L387 376L505 503Z" fill="#bbbbca" stroke="#bbbbca"></path><path d="M485 262L423 325L479 370Z" fill="#adaeb1" stroke="#adaeb1"></path><path d="M479 370L423 325L387 376Z" fill="#c3c5dc" stroke="#c3c5dc"></path><path d="M523 812L612 699L538 671Z" fill="#b2b2ba" stroke="#b2b2ba"></path><path d="M612 699L624 780L699 695Z" fill="#b6b7c2" stroke="#b6b7c2"></path><path d="M320 424L310 495L367 536Z" fill="#adaeb1" stroke="#adaeb1"></path><path d="M367 536L294 608L414 575Z" fill="#c3c5dc" stroke="#c3c5dc"></path><path d="M826 517L682 532L698 591Z" fill="#adaeb1" stroke="#adaeb1"></path><path d="M826 517L801 433L682 532Z" fill="#bbbbca" stroke="#bbbbca"></path><path d="M711 291L626 276L630 394Z" fill="#b6b7c2" stroke="#b6b7c2"></path><path d="M630 394L626 276L479 370Z" fill="#d5d8ff" stroke="#d5d8ff"></path><path d="M809 638L826 517L698 591Z" fill="#bbbbca" stroke="#bbbbca"></path><path d="M711 291L630 394L696 435Z" fill="#c8cae4" stroke="#c8cae4"></path><path d="M387 376L320 424L367 536Z" fill="#d1d3f6" stroke="#d1d3f6"></path><path d="M327 294L320 424L387 376Z" fill="#c3c5dc" stroke="#c3c5dc"></path><path d="M829 708L809 638L699 695Z" fill="#a9a9a9" stroke="#a9a9a9"></path><path d="M699 695L809 638L698 591Z" fill="#b2b2ba" stroke="#b2b2ba"></path><path d="M215 607L294 608L310 495Z" fill="#d5d8ff" stroke="#d5d8ff"></path><path d="M310 495L294 608L367 536Z" fill="#d1d3f6" stroke="#d1d3f6"></path><path d="M412 778L538 671L402 666Z" fill="#b6b7c2" stroke="#b6b7c2"></path><path d="M412 778L523 812L538 671Z" fill="#d1d3f6" stroke="#d1d3f6"></path><path d="M626 276L485 262L479 370Z" fill="#adaeb1" stroke="#adaeb1"></path><path d="M423 325L327 294L387 376Z" fill="#d1d3f6" stroke="#d1d3f6"></path><path d="M791 322L711 291L696 435Z" fill="#d1d3f6" stroke="#d1d3f6"></path><path d="M286 722L412 778L402 666Z" fill="#c3c5dc" stroke="#c3c5dc"></path><path d="M801 433L791 322L696 435Z" fill="#c8cae4" stroke="#c8cae4"></path><path d="M900 334L791 322L801 433Z" fill="#ccceed" stroke="#ccceed"></path><path d="M790 783L829 708L699 695Z" fill="#c8cae4" stroke="#c8cae4"></path><path d="M900 594L900 502L826 517Z" fill="#b2b2ba" stroke="#b2b2ba"></path><path d="M677 900L709 832L624 780Z" fill="#d5d8ff" stroke="#d5d8ff"></path><path d="M624 780L709 832L699 695Z" fill="#adaeb1" stroke="#adaeb1"></path><path d="M294 608L286 722L402 666Z" fill="#bfc0d3" stroke="#bfc0d3"></path><path d="M426 175L327 294L423 325Z" fill="#c8cae4" stroke="#c8cae4"></path><path d="M175 484L215 607L310 495Z" fill="#c3c5dc" stroke="#c3c5dc"></path><path d="M709 832L790 783L699 695Z" fill="#a9a9a9" stroke="#a9a9a9"></path><path d="M900 594L826 517L809 638Z" fill="#bbbbca" stroke="#bbbbca"></path><path d="M826 517L900 426L801 433Z" fill="#b2b2ba" stroke="#b2b2ba"></path><path d="M584 190L485 262L626 276Z" fill="#c8cae4" stroke="#c8cae4"></path><path d="M584 190L487 200L485 262Z" fill="#bbbbca" stroke="#bbbbca"></path><path d="M485 262L426 175L423 325Z" fill="#bbbbca" stroke="#bbbbca"></path><path d="M584 190L626 276L662 196Z" fill="#d1d3f6" stroke="#d1d3f6"></path><path d="M900 718L809 638L829 708Z" fill="#ccceed" stroke="#ccceed"></path><path d="M900 718L900 594L809 638Z" fill="#b6b7c2" stroke="#b6b7c2"></path><path d="M662 196L626 276L711 291Z" fill="#b2b2ba" stroke="#b2b2ba"></path><path d="M806 233L662 196L711 291Z" fill="#d5d8ff" stroke="#d5d8ff"></path><path d="M175 484L310 495L195 390Z" fill="#d5d8ff" stroke="#d5d8ff"></path><path d="M294 608L215 607L286 722Z" fill="#d1d3f6" stroke="#d1d3f6"></path><path d="M900 502L900 426L826 517Z" fill="#bfc0d3" stroke="#bfc0d3"></path><path d="M791 322L806 233L711 291Z" fill="#b6b7c2" stroke="#b6b7c2"></path><path d="M530 900L588 900L523 812Z" fill="#b2b2ba" stroke="#b2b2ba"></path><path d="M523 812L588 900L624 780Z" fill="#c3c5dc" stroke="#c3c5dc"></path><path d="M530 900L523 812L390 900Z" fill="#bbbbca" stroke="#bbbbca"></path><path d="M390 900L523 812L412 778Z" fill="#a9a9a9" stroke="#a9a9a9"></path><path d="M191 811L295 801L286 722Z" fill="#a9a9a9" stroke="#a9a9a9"></path><path d="M286 722L295 801L412 778Z" fill="#c3c5dc" stroke="#c3c5dc"></path><path d="M487 200L426 175L485 262Z" fill="#d5d8ff" stroke="#d5d8ff"></path><path d="M410 115L426 175L487 200Z" fill="#c8cae4" stroke="#c8cae4"></path><path d="M529 61L487 200L584 190Z" fill="#c8cae4" stroke="#c8cae4"></path><path d="M709 832L828 900L790 783Z" fill="#d1d3f6" stroke="#d1d3f6"></path><path d="M588 900L677 900L624 780Z" fill="#b2b2ba" stroke="#b2b2ba"></path><path d="M900 773L900 718L829 708Z" fill="#c3c5dc" stroke="#c3c5dc"></path><path d="M900 773L829 708L790 783Z" fill="#c8cae4" stroke="#c8cae4"></path><path d="M900 334L806 233L791 322Z" fill="#c3c5dc" stroke="#c3c5dc"></path><path d="M195 390L310 495L320 424Z" fill="#c8cae4" stroke="#c8cae4"></path><path d="M900 426L900 334L801 433Z" fill="#d1d3f6" stroke="#d1d3f6"></path><path d="M327 294L195 390L320 424Z" fill="#b6b7c2" stroke="#b6b7c2"></path><path d="M173 291L195 390L327 294Z" fill="#b2b2ba" stroke="#b2b2ba"></path><path d="M295 801L390 900L412 778Z" fill="#d1d3f6" stroke="#d1d3f6"></path><path d="M828 900L900 773L790 783Z" fill="#bbbbca" stroke="#bbbbca"></path><path d="M89 613L171 680L215 607Z" fill="#a9a9a9" stroke="#a9a9a9"></path><path d="M215 607L171 680L286 722Z" fill="#d5d8ff" stroke="#d5d8ff"></path><path d="M295 801L319 900L390 900Z" fill="#ccceed" stroke="#ccceed"></path><path d="M426 175L331 183L327 294Z" fill="#c3c5dc" stroke="#c3c5dc"></path><path d="M724 135L624 108L662 196Z" fill="#a9a9a9" stroke="#a9a9a9"></path><path d="M662 196L624 108L584 190Z" fill="#c8cae4" stroke="#c8cae4"></path><path d="M426 175L410 115L331 183Z" fill="#d5d8ff" stroke="#d5d8ff"></path><path d="M766 138L724 135L806 233Z" fill="#ccceed" stroke="#ccceed"></path><path d="M806 233L724 135L662 196Z" fill="#b6b7c2" stroke="#b6b7c2"></path><path d="M212 900L319 900L295 801Z" fill="#b6b7c2" stroke="#b6b7c2"></path><path d="M900 204L766 138L806 233Z" fill="#b6b7c2" stroke="#b6b7c2"></path><path d="M677 0L630 0L624 108Z" fill="#d5d8ff" stroke="#d5d8ff"></path><path d="M529 61L410 115L487 200Z" fill="#ccceed" stroke="#ccceed"></path><path d="M677 900L828 900L709 832Z" fill="#ccceed" stroke="#ccceed"></path><path d="M66 431L74 495L175 484Z" fill="#b6b7c2" stroke="#b6b7c2"></path><path d="M175 484L89 613L215 607Z" fill="#bfc0d3" stroke="#bfc0d3"></path><path d="M220 172L173 291L327 294Z" fill="#bfc0d3" stroke="#bfc0d3"></path><path d="M220 172L327 294L331 183Z" fill="#adaeb1" stroke="#adaeb1"></path><path d="M171 680L191 811L286 722Z" fill="#ccceed" stroke="#ccceed"></path><path d="M900 334L900 204L806 233Z" fill="#d5d8ff" stroke="#d5d8ff"></path><path d="M630 0L529 61L624 108Z" fill="#b6b7c2" stroke="#b6b7c2"></path><path d="M624 108L529 61L584 190Z" fill="#a9a9a9" stroke="#a9a9a9"></path><path d="M74 495L89 613L175 484Z" fill="#a9a9a9" stroke="#a9a9a9"></path><path d="M171 680L105 735L191 811Z" fill="#b6b7c2" stroke="#b6b7c2"></path><path d="M66 431L175 484L195 390Z" fill="#a9a9a9" stroke="#a9a9a9"></path><path d="M316 90L331 183L410 115Z" fill="#b6b7c2" stroke="#b6b7c2"></path><path d="M316 90L220 172L331 183Z" fill="#c3c5dc" stroke="#c3c5dc"></path><path d="M84 289L66 431L195 390Z" fill="#b2b2ba" stroke="#b2b2ba"></path><path d="M828 900L900 900L900 773Z" fill="#adaeb1" stroke="#adaeb1"></path><path d="M89 613L105 735L171 680Z" fill="#a9a9a9" stroke="#a9a9a9"></path><path d="M84 289L195 390L173 291Z" fill="#adaeb1" stroke="#adaeb1"></path><path d="M111 900L212 900L191 811Z" fill="#a9a9a9" stroke="#a9a9a9"></path><path d="M191 811L212 900L295 801Z" fill="#c3c5dc" stroke="#c3c5dc"></path><path d="M365 0L316 90L410 115Z" fill="#a9a9a9" stroke="#a9a9a9"></path><path d="M114 210L84 289L173 291Z" fill="#bbbbca" stroke="#bbbbca"></path><path d="M677 0L624 108L724 135Z" fill="#bfc0d3" stroke="#bfc0d3"></path><path d="M529 61L478 0L410 115Z" fill="#d5d8ff" stroke="#d5d8ff"></path><path d="M677 0L724 135L791 0Z" fill="#ccceed" stroke="#ccceed"></path><path d="M630 0L478 0L529 61Z" fill="#a9a9a9" stroke="#a9a9a9"></path><path d="M316 90L199 128L220 172Z" fill="#d5d8ff" stroke="#d5d8ff"></path><path d="M220 172L114 210L173 291Z" fill="#ccceed" stroke="#ccceed"></path><path d="M235 0L199 128L316 90Z" fill="#bbbbca" stroke="#bbbbca"></path><path d="M900 204L900 106L766 138Z" fill="#c8cae4" stroke="#c8cae4"></path><path d="M791 0L724 135L766 138Z" fill="#ccceed" stroke="#ccceed"></path><path d="M0 724L79 790L105 735Z" fill="#a9a9a9" stroke="#a9a9a9"></path><path d="M105 735L79 790L191 811Z" fill="#adaeb1" stroke="#adaeb1"></path><path d="M0 724L105 735L89 613Z" fill="#bbbbca" stroke="#bbbbca"></path><path d="M0 564L89 613L74 495Z" fill="#c8cae4" stroke="#c8cae4"></path><path d="M199 128L114 210L220 172Z" fill="#d1d3f6" stroke="#d1d3f6"></path><path d="M0 395L0 526L66 431Z" fill="#c3c5dc" stroke="#c3c5dc"></path><path d="M66 431L0 526L74 495Z" fill="#d5d8ff" stroke="#d5d8ff"></path><path d="M0 526L0 564L74 495Z" fill="#adaeb1" stroke="#adaeb1"></path><path d="M478 0L365 0L410 115Z" fill="#ccceed" stroke="#ccceed"></path><path d="M0 324L0 395L66 431Z" fill="#b2b2ba" stroke="#b2b2ba"></path><path d="M0 324L66 431L84 289Z" fill="#bbbbca" stroke="#bbbbca"></path><path d="M900 106L791 0L766 138Z" fill="#adaeb1" stroke="#adaeb1"></path><path d="M79 790L111 900L191 811Z" fill="#bbbbca" stroke="#bbbbca"></path><path d="M0 900L111 900L79 790Z" fill="#a9a9a9" stroke="#a9a9a9"></path><path d="M0 564L0 724L89 613Z" fill="#c3c5dc" stroke="#c3c5dc"></path><path d="M0 223L0 324L84 289Z" fill="#b6b7c2" stroke="#b6b7c2"></path><path d="M92 89L0 223L114 210Z" fill="#ccceed" stroke="#ccceed"></path><path d="M114 210L0 223L84 289Z" fill="#c3c5dc" stroke="#c3c5dc"></path><path d="M365 0L269 0L316 90Z" fill="#d1d3f6" stroke="#d1d3f6"></path><path d="M0 724L0 796L79 790Z" fill="#c8cae4" stroke="#c8cae4"></path><path d="M269 0L235 0L316 90Z" fill="#b2b2ba" stroke="#b2b2ba"></path><path d="M900 106L900 0L791 0Z" fill="#bbbbca" stroke="#bbbbca"></path><path d="M92 89L114 210L199 128Z" fill="#d1d3f6" stroke="#d1d3f6"></path><path d="M235 0L92 89L199 128Z" fill="#c3c5dc" stroke="#c3c5dc"></path><path d="M0 796L0 900L79 790Z" fill="#b2b2ba" stroke="#b2b2ba"></path><path d="M82 0L0 92L92 89Z" fill="#bfc0d3" stroke="#bfc0d3"></path><path d="M92 89L0 92L0 223Z" fill="#d5d8ff" stroke="#d5d8ff"></path><path d="M235 0L82 0L92 89Z" fill="#d5d8ff" stroke="#d5d8ff"></path><path d="M82 0L0 0L0 92Z" fill="#c8cae4" stroke="#c8cae4"></path></g></svg>