<svg xmlns="http://www.w3.org/2000/svg" version="1.1" xmlns:xlink="http://www.w3.org/1999/xlink" xmlns:svgjs="http://svgjs.dev/svgjs" viewBox="0 0 1422 800"><defs><linearGradient x1="50%" y1="0%" x2="50%" y2="100%" id="ssscribble-grad"><stop stop-color="hsl(234.9,89.9%,53.5%)" stop-opacity="1" offset="0%"></stop><stop stop-color="hsl(330,77.2%,50.2%)" stop-opacity="1" offset="100%"></stop></linearGradient></defs><g fill="none" stroke-width="3" stroke="url(#ssscribble-grad)" stroke-linecap="round"><path d="M2427.15 522.2C2477.7 549.63 2487.37 579.45 2454.57 611.46 2387.16 643.31 2299.69 677.03 2211.12 712.13 2140.05 746.52 2100.7 781.51 2099.96 816.28 2137.36 849.2 2202.92 880.56 2281.63 909.18 2385.51 944.7 2400.79 982.19 2302.29 980.34 2214.01 972.49 2127.27 958.6 2056.27 939.98 2011.82 921.7 1999.56 903.23 2018.87 887.9 2065.05 881.21 2126.91 884.12 2191.91 900.12 2249.07 931.48 2286.21 978.72 2296.49 1041.62 2277.82 1115.84 2231.35 1198.58 2163.26 1283.73 2081.69 1362.05 1997.15 1428.04 1919.58 1474.28 1856.89 1495.92 1815.43 1491.26 1797.57 1461.57 1803.42 1415.17 1828.89 1359.49 1867.92 1306.67 1915.12 1271.6 1961.34 1262.85 1999.63 1287.92 2025.81 1347.21 2034.39 1434.64 2023.84 1537.92 1994.65 1638.28 1948.37 1719.21 1888.8 1764.95 1819.49 1767.66 1746 1728.66 1673.23 1659.11 1604.38 1581.49 1544.03 1517.3 1494.51 1488.65 1456.93 1509.49 1432.03 1579.22 1418.91 1684.7 1417.08 1799.74 1423.8 1896.02 1436.48 1947.53 1454.5 1941.52 1473.66 1881.94 1491.62 1789.81 1508.53 1700.23 1520.75 1645.1 1527.23 1648.64 1528.85 1715.24 1523.57 1826.86 1511.61 1948.93 1494.02 2040.62 1470.42 2071.81 1441.77 2032.28 1408.62 1940.24 1371.88 1831.95 1332.61 1752.65 1290.61 1738.44 1247.49 1798.24 1204.1 1912.7 1159.44 2038.1 1115.47 2125.67 1072.68 2139.9 1029.53 2076.65 988.03 1963.26 948.4 1850.12 908.78 1790 871.16 1810.85 835.59 1906.52 800.1 2035.93 766.63 2141.79 735.19 2175.62 703.78 2122.24 674.33 2005.47 646.9 1879.87 619.47 1806.31 594.37 1818.67 571.6 1909.41 548.86 2036.31 528.51 2138.74 510.56 2169.78 492.69 2115.76 477.27 2000.12 464.27 1873.63 451.28 1789.87 440.59 1782.81 432.01 1851.7 419.41 2018.57 398.64 2056.49 387.28 1885.68 376.77 1773.38 364.26 1714.54 348.73 1726.72 328.69 1801.64 304.15 1905.77 274.21 1996.82 238.62 2040.26 196.95 2016.83 149.01 1933.35 96.2 1815.43 38.28 1700.29 -23.66 1621.77 -86.67 1600.29 -150.21 1637.2 -211.93 1714.67 -268.3 1805.8 -318.03 1877.1 -358.48 1904.74 -387.64 1878.84 -404.3 1803.65 -407.51 1698.01 -398.8 1585.87 -378.49 1493.8 -348.89 1439.94 -315.37 1432.35 -280.35 1467 -248.67 1529.44 -226.73 1602.65 -217.27 1664.03 -224.03 1697.47 -249.43 1694.69 -293.12 1653.09 -353.51 1579.88 -426 1485.63 -505.54 1386.31 -585.13 1296.33 -656.56 1225.86 -713.49 1183.35 -749.86 1169.99 -762.51 1183.97 -750.6 1217.7 -716.48 1261.76 -667.48 1309.39 -610.51 1349.11 -555.49 1374.24 -513.94 1382.16 -493 1369.15 -498.8 1336.59 -533.55 1286.56 -594.11 1223.51 -673.59 1152.68 -760.91 1076.69 -844.01 1002.09 -910.29 932.58 -949.71 868.76 -956.43 814.5 -929.81 770.16 -876.64 735 -806.58 709.07 -733.77 690.65 -674.71 679.38 -641.08 672.69 -641.59 668.58 -678.57 668.08 -746.18 667.52 -832.77 665.63 -922.07 664.75 -996.96 661.14 -1042.4 654.3 -1049.69 647.33 -1017.1 636.8 -951.46 622.69 -868.31 608.28 -784.95 590.45 -720.28 569.31 -690.23 548.06 -701.29 523.7 -751.84 496.27 -831.17 468.84 -920.03 438.66 -998.28 405.72 -1049.51 372.68 -1061.44 336.69 -1031.81 297.66 -967.34 258.34 -881.34 215.84 -791.7 170.19 -716.39 124.41 -669.89 75.82 -660.03 24.97 -687.86 -24.86 -745.38 -75.59 -819.3 -125.87 -895 -172.55 -955.29 -216.16 -987.82 -254.66 -986.43 -286.02 -949.81 -309.34 -884.21 -322.87 -800.25 -327.23 -711.73 -321.11 -632.51 -304.83 -574.05 -282.87 -544.12 -255.22 -544.85 -225.55 -574.39 -201.05 -624.62 -183.69 -685 -178.7 -745.64 -191.18 -794 -222.55 -821.58 -274.15 -824.02 -342.98 -798.93 -425.7 -749.16 -515.61 -680.07 -601.95 -599.79 -677.24 -517.39 -732.03 -440.73 -759.47 -377.85 -757.02 -333.64 -725.81 -310.78 -675.09 -309.08 -614.22 -325.57 -557.61 -357.19 -522.02 -396.88 -517.23 -438.25 -550.39 -477.12 -619.78 -506.43 -716.26 -522.39 -823.67 -523.64 -920.33 -508.1 -988.3 -476.73 -1013.11 -431.19 -991.66 -374.39 -931.06 -310.06 -849.44 -240.74 -774.31 -171.11 -728.66 -104.48 -731.32 -42.42 -787.5 11.83 -886.37 57.16 -1004.05 93.29 -1108.08 119.81 -1170.53 137.63 -1173.53 146.99 -1119.49 149.88 -1027.77 148.08 -932.16 141.46 -871 133.17 -868.79 124.77 -932.32 115.37 -1043.47 108.11 -1166.58 103.84 -1259.34 101.04 -1289.38 102.21 -1247.21 107.43 -1150.41 115.07 -1040.86 126.7 -963.56 141.96 -953.88 159.47 -1020.13 179.99 -1138.44 202.98 -1262.66 227.58 -1342.16 253.91 -1344.45 281.44 -1268.76 309.89 -1150.31 338.93 -1041.41 368.13 -992.79 397.74 -1029.23 427.11 -1135.74 455.98 -1265.39 484.94 -1358.9 513.2 -1372.69 540.63 -1299.15 568.06 -1173.56 594.35 -1055.38 619.57 -999.22 644.89 -1030.28 669.34 -1132.02 693.16 -1256.01 717.39 -1346.27 741.4 -1360.39 765.56 -1292.26 790.66 -1171.08 816.52 -1048.35 843.65 -974.5 872.41 -978.12 903.16 -1053.84 936.44 -1166.17 971.97 -1267.57 1010.63 -1313.1 1052.77 -1283.42 1097.32 -1188.65 1145.39 -1063.69 1196.88 -953.81 1249.84 -896.45 1305.23 -908.64 1362.17 -980.21 1418.11 -1082.17 1473.36 -1172.56 1526.3 -1216.85 1574.43 -1198.08 1617.24 -1119.55 1652.92 -1005.5 1693.7 -838.43 1634.53 -1048.36 1591.97 -1058.78 1568.44 -999.62 1551.68 -903.96 1545.4 -793.95 1553.28 -692.01 1576.19 -619.68 1615.08 -588.19 1668.68 -599.71 1734.8 -645.54 1809.63 -709.95 1886.95 -777.27 1961.74 -827.89 2027.57 -849.55 2078.27 -836.98 2109.88 -789.77 2119.42 -715.45 2107.6 -623.38 2076.19 -527.66 2030.04 -440.46 1978.15 -369.96 1927.43 -323.75 1886.9 -303.1 1865.69 -307.07 1868.18 -330.06 1897.17 -364.68 1951.3 -406.14 2025.19 -444.48 2110.3 -473.67 2195.15 -491.52 2268.79 -493.05 2320.66 -478.1 2343.71 -447.77 2335.01 -403.73 2296.65 -349.5 2237.55 -286.62 2168.01 -220.02 2101.88 -153.05 2054.11 -85.74 2034.16 -22.61 2048.25 35.01 2096.26 88.41 2170.83 135.15 2259.61 175.68 2346.59 211.37 2415.96 241.92 2454.37 268.51 2455.1 291.63 2417.93 312.46 2350.66 332.15 2269.06 350 2189.81 368.05 2130.77 387.1 2106.57 405.43 2122.6 425.54 2176.58 447.87 2257.57 470.04 2347.82 494.76 2427.15 522.2Q2427.15 522.2 2427.15 522.2" opacity="0.17"></path><path d="M2333.65 407.76C2382.27 433.58 2394.92 456.07 2369.61 475.31 2311.92 494.54 2232.86 510.54 2147.73 523.41 2046.55 541.45 2038.92 565.55 2128.11 574.29 2203.16 581.87 2271.36 590.03 2319.98 600.1 2340.87 614.48 2328.97 632.95 2286.11 657.06 2218.87 687.69 2137.51 725.65 2054.32 771.75 1981 824.42 1927.72 884.45 1900.62 950.66 1902.25 1018.73 1929.75 1088.13 1976.67 1155.28 2035.55 1214.75 2094.93 1264.53 2145 1300.63 2178.86 1320.5 2189.66 1322.84 2175.4 1307.41 2137.32 1278.58 2079.11 1238.73 2007.26 1193.9 1928.69 1154.08 1851.83 1124.57 1783.82 1113.14 1729.97 1126.1 1694.47 1164.91 1678.51 1228.9 1681.99 1311.4 1701.67 1404.47 1733.05 1496.34 1772.6 1573.02 1813.31 1624.69 1849.87 1643.11 1879.35 1627.2 1896.59 1580.91 1899.59 1514.94 1888.1 1447.42 1861.68 1393.69 1822.08 1369.9 1771.14 1386.71 1712.08 1444.57 1648.29 1535.63 1581.84 1641.68 1516.79 1741.89 1455.74 1814.01 1399.76 1841.95 1351.39 1820.58 1311.32 1756.84 1279.65 1672.07 1256.49 1590.94 1240.96 1540.38 1232.88 1540.27 1230.41 1594.45 1232 1692.01 1237.92 1806.76 1245.34 1907.43 1252.92 1964.54 1261.62 1962.07 1268.55 1902.2 1272.98 1805.95 1276.37 1709.45 1276.36 1646.85 1272.82 1643.8 1267.37 1705.46 1258.34 1813.44 1246.01 1932.32 1231.81 2020.83 1214.75 2048.31 1195.29 2004.9 1174.44 1908.94 1151.78 1796.97 1127.76 1713.85 1102.9 1695 1077.22 1749.31 1051.08 1857.87 1024.56 1978.63 997.94 2063.9 971.46 2078.67 944.88 2017.29 918.64 1904.16 892.82 1786.37 867 1714.89 841.91 1719 817.49 1795.44 792.97 1912.55 768.93 2020.26 745.17 2074.49 721.02 2053.96 696.78 1966.05 672.11 1845.43 646.6 1737.8 620.14 1683.15 592.3 1699.32 563.07 1778.22 531.86 1886.58 498.27 1981.87 462.8 2028.78 424.49 2007.87 383.1 1926.05 339.8 1810.18 293.45 1698.64 244.23 1626.38 193.98 1614.09 141.75 1661.59 88.31 1748.65 35.98 1845.24 -15.62 1916.14 -65.13 1937.39 -110.33 1901.13 -150.87 1815.94 -185.18 1705.37 -229.29 1551.33 -182.87 1755.86 -141.85 1787.79 -116.46 1750.32 -95.09 1674.44 -81.09 1575.93 -78.44 1472.67 -88.21 1384.83 -112.15 1326.43 -150.56 1304.7 -202.45 1319.3 -265.77 1361.98 -336.18 1422.42 -409.91 1484.02 -481.66 1533.07 -545.24 1560.75 -596.27 1559.03 -630.25 1527.58 -644.77 1469.59 -638.89 1392.56 -613.75 1306.2 -574.47 1218.35 -525.42 1139.56 -473.73 1076.31 -412.64 1020.24 -411.56 1030.37 -485.86 1073.74 -558.96 1108.04 -640.38 1138.39 -720.27 1161.06 -811.94 1176.9 -830.36 1132.91 -756.11 1078.22 -689.7 1031.43 -624.03 980.06 -571.36 926.38 -543.07 869.88 -544.62 814.14 -577.81 760.48 -638.73 707.14 -718.08 657.23 -803.09 611 -879.39 566.25 -933.88 525.2 -956.72 487.51 -944.46 451.14 -898.96 417.54 -828.81 386.21 -748.79 355.6 -673.59 326.63 -618.48 298.93 -595.76 271.43 -609.72 244.82 -658.34 219 -732.51 193.18 -816.11 168.46 -892.28 144.96 -946.96 121.66 -968.45 99.98 -952.91 80.3 -903.74 61.33 -829.82 45.01 -744.95 31.86 -633.14 15.98 -583.05 6.36 -654.26 12.72 -724.36 18.59 -794.44 26.98 -851.6 36.65 -886.47 43.47 -891.5 48.5 -865.56 49.47 -812.3 42.89 -739.16 28.49 -656.71 4.12 -575.89 -31.16 -507.64 -77.91 -460.03 -136.06 -438.06 -202.33 -442.49 -275.69 -470.1 -352.38 -516.07 -425.67 -571.03 -492.41 -625.79 -546.91 -688.79 -592.57 -685.69 -553.25 -615.13 -483.97 -547.46 -436 -472.19 -396.66 -396.22 -375.6 -325.15 -381.08 -265.14 -415.55 -219.9 -478.64 -191.55 -563.11 -180.54 -659.36 -185.22 -753.64 -204.04 -830.17 -232.25 -877.81 -265.4 -888.29 -300.88 -862.1 -332.82 -805.62 -357.71 -732.85 -374.27 -664.82 -379.12 -618.55 -371.64 -609.79 -352.31 -645.91 -321.35 -722.74 -280.51 -826.43 -231.08 -933.7 -175.72 -1021.15 -116.9 -1067.66 -55.59 -1063.03 5 -1010.15 63.12 -925.51 118.58 -837.97 169.11 -774.81 214.13 -759.55 254.02 -801.79 287.98 -892.66 316.47 -1008.18 339.79 -1114.17 358.58 -1179.55 373.73 -1184.06 385.05 -1128.59 394.15 -1032.74 401.92 -931.44 407.48 -864.18 412.94 -856.7 418.98 -915.89 424.06 -1023.47 430.49 -1142.98 438.65 -1231.85 446.58 -1258.01 456.6 -1212.16 468.83 -1112.11 481.12 -999.05 495.7 -917.48 512.58 -902.03 529.56 -961.35 548.78 -1072.91 570.23 -1192.61 591.71 -1271.65 615.35 -1277.11 641.17 -1205.65 666.99 -1087.86 694.68 -973.41 724.19 -909.43 753.74 -921.58 785.18 -1002.97 818.5 -1118.63 851.9 -1222.09 887.24 -1270.07 924.47 -1243.67 961.77 -1153 1000.88 -1032.25 1041.64 -926.32 1082.17 -872.93 1124 -889.24 1166.72 -965.44 1208.48 -1072.02 1250.36 -1166.55 1291.64 -1213.66 1330.71 -1196.05 1367.97 -1117.77 1402.47 -1004.5 1433.15 -891.47 1459.66 -813.71 1481.08 -792.31 1497.34 -830.48 1507.56 -911.16 1511.28 -1004.91 1509.86 -1081.47 1502.35 -1113.61 1489.28 -1090.49 1473.55 -1016.91 1454.72 -911.75 1434.54 -801.99 1409.41 -689.59 1395.36 -748.41 1418.51 -861.94 1449.42 -924.28 1491.96 -952.52 1545.47 -938.86 1607.3 -884.58 1675.44 -799.49 1746.34 -699.78 1814.91 -601.61 1877.77 -522.29 1930.42 -472.53 1968.94 -457.11 1990.97 -474.13 1994.82 -515.38 1981.77 -571.83 1953.12 -628.71 1912.54 -674.27 1867.05 -701.32 1821.41 -702.44 1782.45 -677 1757.81 -627.17 1751.22 -558.56 1766.17 -478.94 1803.47 -394.31 1860.67 -313.99 1933.03 -244.03 2012.78 -187.48 2091.77 -148.04 2160.77 -125.52 2211.41 -119.22 2237.88 -125.99 2236.92 -141.85 2210.32 -165.41 2162.05 -190.62 2100.15 -213.94 2008.99 -242.77 1946.08 -253.06 2005.88 -232.66 2077.6 -209.92 2161.14 -181.05 2243.53 -147.63 2311.44 -109.91 2353.79 -69.8 2363.27 -28.68 2339.21 14.5 2285.63 57.14 2212.56 98.41 2135.26 140.38 2067.7 180.2 2023.63 217.49 2013.2 254.92 2038.55 289.58 2095.81 321.34 2174.57 353.1 2259.48 381.94 2333.65 407.76Q2333.65 407.76 2333.65 407.76" opacity="0.51"></path><path d="M2240.12 266.36C2286.68 290.57 2301.87 316.75 2283.5 344.94 2235.34 373.24 2165.45 403.79 2085.82 436.73 2009.64 470.08 1949.1 506.14 1913.36 545.07 1907.71 584.57 1931.6 627.02 1979.82 672.32 2044.68 717.77 2113.98 765.47 2176.09 814.76 2221.93 862.64 2242.93 910.43 2235.78 956.71 2201.46 998.72 2144.11 1036.56 2071.57 1068.36 1992.96 1092.62 1918.42 1108.39 1856.78 1114.4 1814.76 1111.73 1796.25 1099.41 1801.56 1078.23 1828.95 1052.6 1872.38 1022.86 1924.63 992.54 1979.23 968.01 2027.05 951.08 2061.56 946.19 2078.95 957.52 2075.5 986.14 2051.24 1033.01 2008.17 1095.52 1949.97 1170.85 1882 1253.46 1809.37 1334.38 1738.53 1407.32 1674.76 1464.11 1621.84 1498.07 1583.23 1506.03 1560.15 1487.18 1552.99 1447.01 1560.03 1391.65 1578.54 1331.72 1606.6 1281.57 1639.21 1250.84 1672.47 1249.14 1704.45 1281.19 1730.32 1344.9 1747.72 1432.75 1756.08 1530.2 1753.16 1622.07 1739.04 1691.75 1714.43 1726.3 1680.04 1720.17 1637.62 1675.53 1588.26 1605.62 1534.48 1527.06 1478.36 1461.11 1420.55 1428.29 1363.84 1439.14 1309.65 1495.73 1257.97 1587.25 1210.75 1694.1 1168.44 1791.07 1130.61 1853.98 1097.99 1867.83 1070.21 1829.5 1046.93 1752.43 1027.72 1659.16 1011.81 1579.13 999.35 1540 989.03 1555.56 980.06 1625.02 973.22 1729.81 966.68 1840.14 959.84 1922.86 954.04 1952.76 947.22 1920.91 939.02 1837.99 926.4 1688.53 891.85 1659.24 869.43 1811.02 853.76 1917.65 835.96 1981.4 816.02 1978.9 796.06 1911.51 773.99 1802.84 749.78 1692.86 725.58 1623.77 699.53 1620.53 671.67 1682.96 643.8 1788.24 614.11 1896.35 582.64 1968.06 551.14 1978.53 517.87 1923.21 482.91 1821.62 448 1707.9 411.54 1619.85 373.72 1585.01 336.27 1613.06 297.84 1691.67 258.83 1792.4 220.86 1882.19 183.02 1929.57 145.95 1919.02 111 1853.02 77.87 1750.44 47.37 1640.82 20.32 1553.84 -2.93 1512.46 -21.61 1524.57 -35.77 1584.02 -44.58 1669.77 -47.62 1755.04 -46.19 1815.93 -39.3 1832.93 -27.36 1800.74 -12.92 1725.99 4.62 1625.86 23.87 1522.99 49.36 1413.91 73.3 1447.34 60.77 1550.95 38.9 1617.95 6.48 1661.23 -36.5 1670.78 -88.53 1643.76 -148.34 1583.46 -213.52 1500.17 -279.99 1405.81 -345.09 1315.67 -404.88 1241.97 -455.1 1192.69 -493.12 1172.65 -516.14 1180.35 -523.24 1212.1 -514.03 1258.56 -489.69 1309.83 -454.5 1358.76 -411.44 1394.84 -365.73 1412.51 -324.68 1409.74 -292.56 1384.93 -274.69 1340.83 -275.63 1280.51 -296.51 1209.96 -337.33 1135.18 -395.27 1059.68 -465.61 990.06 -541.81 929.82 -615.64 880.13 -679.74 843.43 -726.82 819.24 -751.82 807.02 -752.05 804.76 -727.77 809.88 -683.88 822 -626.09 836.91 -563.21 852.2 -485.07 875.47 -466.41 899.77 -540.58 897.42 -614.23 890.92 -693.97 879.66 -768.18 864.35 -825.74 846.43 -857.86 825.52 -859.31 802.44 -830.66 777.8 -776.08 752 -704.69 725.72 -629.85 698.75 -563.57 671.99 -517.84 645.85 -501.89 619.55 -518.31 594.21 -564.87 570 -633.92 545.8 -712.12 523.01 -785.54 501.51 -842.34 479.84 -871.77 459.1 -869.07 438.93 -835.21 418.06 -775.4 397.06 -699.6 375.27 -619.82 351.92 -548.46 326.78 -496.05 299.05 -470.05 268.71 -473.08 234.74 -503.09 196.43 -555.11 154.91 -619.06 108.65 -684.18 57.58 -741.12 4.23 -779.66 -52.75 -793.84 -112.21 -781.71 -170.46 -743.84 -227.85 -685.12 -281.92 -612.49 -328.99 -534.85 -368.16 -461.21 -396.82 -399.27 -413.51 -355.49 -417.14 -333.22 -407.21 -333.69 -386.72 -354.46 -356.26 -390.95 -319.32 -438.48 -283.09 -488.89 -250.48 -535.24 -227.46 -572.76 -220.66 -595.21 -232.52 -599.75 -265.73 -585.81 -319.4 -553.52 -390.8 -505.64 -474.36 -445.44 -560.27 -377.87 -640.67 -307.97 -705.63 -239.68 -746.55 -178.04 -759 -126.3 -741.46 -86.44 -699.49 -60 -640.32 -46.77 -576.14 -46.45 -523.03 -56.68 -492.12 -74.81 -493.67 -99.59 -531.79 -126.69 -602.83 -153.22 -696.75 -178.35 -796.35 -198.21 -884.31 -211.22 -943.25 -217.51 -961.73 -215.09 -937.05 -204.06 -875.92 -185.13 -796.49 -158.41 -718.87 -125.08 -665.7 -85.76 -655.09 -42.01 -692.74 4.71 -773.31 54.37 -878.28 104.8 -982.76 154.9 -1059.97 205.25 -1089.83 253.81 -1065.22 300.05 -993.98 344.93 -900.09 386.91 -812.21 425.98 -759.86 463.16 -762.96 497.52 -822.93 529.36 -924.24 559.47 -1036.5 587.52 -1125.57 613.9 -1162.99 639.04 -1137.5 663.06 -1057.7 686.34 -951.07 708.89 -856.57 731.17 -807.19 753.47 -822.42 775.45 -898.9 797.77 -1010.62 820.61 -1118.34 843.38 -1183.21 866.83 -1181.23 891.04 -1112.16 915.24 -1002.19 939.91 -892.28 964.96 -822.44 989.92 -817.49 1015.09 -877.6 1040.26 -979.44 1065.11 -1086.88 1089.63 -1160.06 1113.51 -1173.35 1136.66 -1122.31 1158.69 -1023.59 1179.2 -910.03 1198.47 -817.76 1215.67 -775.45 1230.37 -793.79 1243.34 -864.98 1253.35 -962.7 1260.1 -1053.83 1264.94 -1109.65 1266.41 -1110.51 1264.49 -1055.65 1261.22 -959.9 1255.13 -849.88 1246.73 -755.06 1238.57 -698.98 1229.57 -694.08 1220.79 -737.29 1214.93 -814.56 1211.51 -900.75 1211.93 -970.69 1218.34 -1005.7 1230.79 -994.03 1250.41 -937.78 1277.94 -848.42 1313.47 -745.53 1357.07 -650.41 1407.38 -580.56 1463.91 -548.35 1525.04 -555.97 1587.57 -598.72 1650 -662.83 1709.41 -731.69 1762.18 -790.97 1806.34 -825.28 1839.23 -827.15 1859.21 -795.27 1865.26 -733.57 1857.12 -651.7 1837.1 -560.04 1806.43 -472.2 1768.33 -398.82 1728.61 -346.76 1690.44 -320.78 1658.82 -320.1 1639.52 -342.27 1635 -379.87 1647.98 -424.79 1679.45 -471.4 1727.97 -510.07 1790.69 -535.27 1862.25 -544.84 1936.99 -535.51 2007.95 -508.28 2067.86 -464.84 2111.16 -408.75 2133.22 -344.47 2132.54 -274.41 2109.41 -204.34 2067.17 -137.83 2013.23 -75.78 1954.33 -22.03 1899.44 22.58 1858.46 58.52 1837.34 85.21 1840.94 103.92 1870.85 115.08 1924.1 120.69 1994.71 122.6 2073.48 120.24 2150.04 116.82 2213.59 113.75 2255.13 109.28 2268.61 106.82 2251.95 107.02 2208.88 107.37 2145.75 110.97 2073.07 117.9 2004.36 125.4 1950.51 136.14 1921.43 149.94 1923.52 164.14 1956.58 181.09 2015.8 200.59 2091.64 220.22 2171.07 242.16 2240.12 266.36Q2240.12 266.36 2240.12 266.36" opacity="0.20"></path><path d="M2146.65 588.83C2190.99 611.42 2208.22 633.75 2196.13 655.67 2157.14 677.44 2096.86 698.49 2024.42 718.49 1950.33 737.89 1885.03 755.65 1837.33 771.28 1813.56 785.68 1815.94 797.25 1842.96 805.48 1890.76 811.95 1950.99 814.6 2014.56 813.18 2095.67 806.72 2131.72 776.77 2075.4 758.26 2014.17 749.02 1943.31 742.37 1870.63 740.38 1803.38 745.98 1748.47 759.49 1710.64 782.64 1692.8 816.01 1695.18 859.93 1715.67 914.13 1751.51 975.62 1796.58 1043.38 1844.86 1114.12 1891.72 1182.1 1930.31 1244.62 1956.28 1296.86 1967.45 1334.21 1961.33 1354.37 1938.28 1355.28 1899.85 1338.49 1848.7 1305.45 1788.69 1260.54 1723.27 1212.39 1657.29 1166.56 1594.77 1131.3 1538.5 1115.24 1491.83 1122.23 1456.36 1155.19 1432.99 1212.43 1421.69 1289.13 1421.34 1376.91 1431.3 1463.45 1448.7 1538.19 1471.02 1590.03 1497.3 1611.41 1523.64 1599.79 1547.76 1557.77 1569.3 1495.87 1585.09 1425.83 1594.11 1363.34 1596.72 1324.78 1591.44 1319.65 1578.56 1353.02 1558.76 1421.2 1532.27 1513.16 1500.15 1611.91 1462.89 1697.15 1421.88 1752.12 1378.33 1764.97 1332.19 1734.43 1285.36 1668.2 1238.74 1583.41 1191.74 1504.22 1146.2 1451.24 1102.59 1441.08 1059.94 1479.65 1019.74 1559.38 982.05 1661.98 945.83 1761.38 912.09 1832.45 880.63 1856.11 850.57 1826.9 822.45 1753.14 795.96 1656.47 770.51 1567.35 746.25 1512.16 722.87 1509.46 700.13 1562.23 677.87 1655.9 655.87 1763.24 634.15 1851.67 612.39 1894.02 590.45 1876.45 568.57 1805 546.37 1701.53 523.77 1599.37 501.18 1532.97 478.47 1523.31 455.72 1572.29 433.05 1664.26 410.48 1768.35 388.19 1851.33 366.19 1888.1 344.77 1866.38 324.18 1793.17 304.22 1690.11 285.49 1587.38 268.34 1513.97 252.23 1489.58 238.12 1518.99 226.35 1591.09 215.99 1684.73 208.31 1770.81 203.54 1824.53 200.24 1831.19 199.88 1787.41 202.43 1704.41 205.95 1602.06 211.85 1505.35 219.7 1436.25 227.16 1409.07 235.33 1427.38 243.32 1483.1 248.72 1561.52 252.09 1640.53 252.26 1700.15 247.28 1726.68 237.21 1711.91 221.04 1658.52 197.93 1576.07 167.79 1480.45 130.37 1389.05 86.52 1316.55 36.51 1274.64 -18.61 1267.32 -76.34 1293.18 -135.65 1343.43 -194.25 1405.82 -248.9 1468.92 -297.98 1518.33 -338.93 1544.77 -369.58 1543.81 -388.59 1513.7 -394.83 1458.61 -388.98 1384.57 -371.2 1301.39 -343.11 1218.77 -308.75 1144.06 -270.21 1085.46 -231.48 1046.87 -198.14 1029.8 -172.9 1033.15 -159.6 1053.04 -161.67 1086.33 -179.9 1125.65 -214.6 1165 -264.08 1201.37 -325.38 1228.18 -394.11 1242.63 -464.25 1244.29 -530.35 1231.41 -586.34 1205.23 -626.97 1167.01 -648.63 1119.31 -649.19 1065.15 -629.74 1005.59 -592.31 944.78 -541.62 885.16 -485.5 826.64 -430.28 772.63 -383.73 724.01 -353.7 679.84 -344.22 641.79 -358.06 609.43 -395.07 581.86 -451.43 559.05 -521 539.97 -595.33 524.45 -665.32 511.2 -721.84 499.24 -757.58 489.34 -767.64 479.48 -750.49 468.94 -709.41 459.34 -649.67 448.3 -580.05 435.37 -512.08 422.77 -455.18 407.91 -418.45 390.58 -408.62 373.31 -427 353.43 -471.34 330.83 -535.32 308.24 -608 283.21 -678.06 255.86 -735.75 228.57 -771.45 199.11 -780.06 167.71 -760.89 136.63 -716.26 103.99 -652.78 70.25 -579.32 37.46 -505.91 4.33 -442.26 -28.36 -396.43 -59 -373.69 -87.99 -375.81 -114.3 -402.03 -137.05 -447.05 -155.65 -503.73 -169.08 -564.94 -177.71 -620.93 -180.22 -664.06 -176.15 -689.37 -167.63 -692.4 -153.26 -672.63 -133.89 -632.13 -113.43 -574.89 -91.28 -507.01 -69.87 -434.9 -53.86 -365.86 -43.78 -306.11 -42.66 -260.42 -53.56 -232.2 -77.23 -222.48 -114.87 -231.13 -165.31 -255.13 -227.53 -290.38 -298.71 -333.42 -372.89 -377.77 -446.43 -418.36 -513.32 -462.91 -584.98 -463.71 -598.69 -417.11 -541.52 -369.81 -489.9 -313.9 -437.03 -252.84 -392.6 -189.22 -367.11 -127.06 -365.9 -69.28 -393.1 -17.57 -447.7 25.6 -524.54 59.33 -614.32 83.19 -703.38 97.31 -779.56 102.65 -830.56 99.53 -848.37 90.19 -830.81 76.47 -781.84 58.63 -713.97 39.78 -641.06 21.61 -580.46 3.83 -548.93 -10.69 -555.17 -21.09 -601.84 -28.11 -681.61 -29.87 -779.89 -26.32 -876.7 -18.36 -950.82 -5.25 -986.62 12.47 -976.01 34.19 -923.49 59.64 -842.42 88.08 -754.74 119.38 -686.41 152.61 -656.36 187.06 -675.75 223.2 -742.2 259.67 -840.04 295.96 -944.44 333.04 -1027.32 369.36 -1066.5 404.6 -1050.85 440.1 -986.17 474.24 -891.13 506.87 -794.68 539.51 -728.08 570.55 -711.9 599.93 -753.12 629.27 -840.55 656.95 -948.01 682.93 -1042.26 708.9 -1093.53 733.21 -1085.03 755.8 -1018.66 778.39 -916.51 799.01 -811.88 817.66 -738.16 836.29 -718.29 852.94 -757.24 867.61 -841.2 888.56 -988.13 920.7 -1037.63 932.23 -908.37 942.55 -761.21 958.26 -721.99 965.58 -838.28 975.78 -961.14 1006.99 -958.92 1031.51 -828.87 1052.93 -727.52 1078.48 -643.8 1108.67 -594.86 1143.27 -589.32 1182.66 -625 1226.78 -690.07 1274.27 -768.68 1325.35 -839.61 1379.12 -885.94 1433.28 -897.46 1487.54 -869.63 1540.2 -807.55 1588.74 -721.55 1632.31 -627.17 1669.03 -540.14 1706.72 -454.21 1717.47 -478.93 1691 -560.94 1664.22 -620.56 1632.38 -668.36 1598.37 -695.99 1566.92 -699.36 1539.91 -676.04 1520.77 -628.99 1513.33 -562.74 1518.78 -485.24 1538.61 -404.77 1573.02 -327.52 1620.73 -261.51 1679.51 -211.11 1745.22 -178.42 1813.92 -164.35 1880.47 -166.87 1939.25 -184.29 1985.96 -211.39 2016.49 -243.38 2028.63 -278.13 2021.44 -309.34 1995.91 -333.74 1956.31 -350.85 1906.56 -357.14 1852.83 -352.36 1803.34 -337.37 1763.58 -312.21 1739.63 -278.67 1736.41 -237.53 1755.07 -191.25 1795.06 -141.91 1852.86 -89.33 1922.58 -36.71 1996.54 14.57 2065.97 65.76 2122.76 114.01 2159.75 158.89 2172.64 202.12 2159.66 241.71 2122.56 277.85 2067.63 312.22 2001.9 343.64 1935.07 372.58 1878.21 400.28 1839.13 426.2 1824.41 450.81 1837.48 474.81 1876.55 498.09 1936.5 520.94 2008.81 543.64 2082.64 566.23 2146.62 588.82Q2146.65 588.83 2146.65 588.83" opacity="0.96"></path><path d="M2053.15 255.78C2095.14 276.75 2113.97 295.96 2107.52 313.49 2077.2 331.13 2026.72 347.33 1962.74 362.34 1893.36 377.82 1827.06 392.6 1771.72 407.15 1733.73 422.81 1716.92 439.01 1722.37 456.42 1749.22 475.85 1792.8 497.48 1847.07 522.05 1906.08 549.59 1961.43 580.96 2006.43 616.7 2036.56 655.77 2047.33 699.37 2037.49 747.41 2008.12 797.59 1961.7 850.89 1902.82 906.16 1836.7 960.14 1769.53 1012.98 1707.1 1062.52 1654.2 1105.59 1614.98 1141.4 1591.67 1167.73 1585.41 1183.27 1595.1 1187.09 1618.35 1178.68 1652.87 1160.27 1693.6 1132.19 1736.03 1097.02 1777.1 1060.49 1811.53 1024.8 1836.16 994.79 1849.54 976.54 1849.34 972.44 1835.47 985.79 1808.74 1017.87 1770.43 1067.89 1722.91 1133.33 1668.28 1208.13 1609.87 1286.85 1550.65 1361.76 1492.58 1424.09 1438.81 1467.99 1391.22 1488.07 1350.82 1482.8 1318.99 1453.18 1295.92 1403.9 1281.7 1344.97 1275.61 1285.14 1276.5 1235.72 1284.15 1208.14 1296.3 1208.3 1311.37 1239.57 1329.33 1299.36 1347.41 1380.3 1364.3 1470.7 1386.95 1588.43 1409.43 1638.19 1406.96 1556.32 1399.98 1480.17 1388.51 1407.51 1372.99 1355.68 1354.04 1338.91 1331.78 1362.42 1306.81 1423.99 1279.31 1511.89 1249.98 1608.54 1219.43 1693.17 1187.29 1746.92 1154.67 1757.98 1122.04 1723.74 1088.59 1653.93 1055.64 1565.33 1023.51 1480.86 991.03 1424.07 959.65 1409.86 929.56 1443.9 899.36 1518.95 870.57 1616.57 843.27 1711.81 815.96 1779.53 790.18 1801.58 765.98 1771.41 741.79 1697.82 719.17 1600.22 698.2 1505.87 677.22 1442.47 658.12 1427.34 640.88 1463.66 623.65 1541.4 608.27 1637.66 594.71 1725.67 581.15 1782.44 569.38 1791.79 559.34 1751.63 549.2 1672.38 540.66 1574.18 533.57 1481.47 526.15 1416.3 519.88 1393.52 514.5 1416.49 508.29 1478.49 502.44 1561.88 496.52 1645.11 489.01 1708.67 480.68 1735.76 470.95 1719.96 458.68 1664.31 444.14 1580.29 426.73 1485.41 405.9 1397.9 381.46 1334.85 353.02 1306.64 320.79 1316.74 284.38 1360.06 243.82 1425.1 200.23 1498.53 153.31 1563.08 103.74 1605.49 53.43 1617.9 2.46 1596.3 -47.82 1544.17 -95.21 1468.95 -139.15 1382.52 -177.99 1297.51 -239.25 1182.33 -211.7 1304.56 -168.31 1376.22 -136.59 1406.61 -105.02 1416.57 -76.55 1404.75 -55.19 1372.04 -42.35 1321.34 -40.39 1257.8 -51.29 1185.78 -75.16 1112.4 -111.87 1043.18 -159.83 981.43 -216.87 931.83 -279.78 896.05 -344.06 874.57 -405.87 866.96 -460.69 871.13 -504.24 886.02 -533.46 907.57 -545.91 932.5 -541.31 960.13 -519.99 985.71 -484.17 1007.07 -438.81 1024.61 -387.87 1035.11 -337.12 1038.16 -293.63 1034.83 -261.72 1024.05 -245.99 1006.7 -249.78 983.59 -273.29 955.48 -315.27 923.65 -372.1 888.08 -438.38 850.61 -507.38 812.31 -571.64 772.23 -624.28 732.65 -659.23 694.23 -672.77 655.28 -663.1 618.15 -631.26 583.14 -582.06 548.15 -520.93 515.46 -455.7 485.14 -395.87 454.93 -348.52 427.04 -320.31 401.49 -315.96 375.98 -335.85 352.71 -377.84 331.73 -436.8 310.75 -503.88 292.31 -570.02 276.39 -647.53 253.87 -665.34 222.1 -601.6 212.92 -538.83 207.69 -469.76 204.9 -402.45 204.29 -304.67 203.53 -407.87 189.74 -489.21 170.84 -536.96 150.96 -571.92 124.94 -590.2 91.92 -590.2 52.51 -570.97 6.12 -534.33 -46.84 -483.34 -103.62 -422.42 -164.15 -356.78 -226.22 -291.23 -285.61 -231.14 -341.09 -180.67 -389.41 -131.21 -439.64 -127.55 -450.79 -165.53 -411.33 -201.25 -373.32 -239.38 -330.55 -276.18 -288.55 -322.49 -244.37 -354.18 -265.79 -333.45 -342.72 -305.06 -414.96 -267.18 -495.62 -221.79 -576.18 -170.35 -646.46 -115.58 -699.01 -59.78 -726.88 -4.08 -727.11 48.82 -700.13 97.47 -650.54 141.38 -588.87 179.04 -525.03 210.16 -471.66 234.74 -441.36 252.8 -440.83 264.98 -473.54 271.33 -536.25 273.15 -620.31 271.48 -712.45 262.48 -826.82 237.26 -850.09 225.63 -754.57 216.14 -640.31 211.12 -581.26 216.36 -676.56 222.21 -771.62 230.67 -865.94 241.49 -937.95 253.59 -970.92 267.71 -957.21 283.54 -900.15 300.29 -815.55 318.35 -724.48 337.42 -651.37 357.04 -617.34 377.33 -631.83 398.04 -692.74 419.01 -784.88 440.16 -884.28 461.34 -964.13 482.58 -1002.58 503.73 -988.54 524.7 -925.16 545.68 -830.81 566.25 -732.14 586.44 -656.45 606.7 -624.15 626.71 -643.04 646.6 -706.59 666.75 -797.68 687.02 -890.14 707.64 -959.06 728.8 -986.96 750.66 -965.64 773.47 -900.77 797.2 -808.21 822.3 -710.55 849.03 -630.73 877.04 -586.49 907.05 -586.61 939.26 -628.5 972.91 -701.29 1008.91 -785.19 1047.28 -859.46 1086.81 -907.42 1128.44 -916.42 1171.87 -884.28 1215.52 -817.09 1260.1 -728.19 1304.93 -634.98 1348.25 -554.06 1390.36 -500.08 1430.23 -480.73 1466.35 -497.46 1498.47 -543.86 1525.54 -608.32 1546.78 -678.42 1561.6 -738.28 1569.36 -776.23 1570.58 -785.67 1564.69 -763.24 1551.99 -712.33 1534.54 -639.59 1512.25 -555.69 1486.57 -471.99 1460.78 -397.94 1435.42 -342.83 1412.76 -311.39 1396.15 -305.3 1386.41 -322.36 1385.52 -357.19 1395.33 -404.6 1416.05 -455.16 1447.98 -501.18 1490.22 -537.86 1541.49 -558.46 1599.67 -560.54 1661.24 -543.88 1723.43 -509.17 1782.49 -459.73 1834.29 -398.52 1875.93 -331.05 1904.4 -262.19 1918.05 -194.68 1915.94 -133.72 1898.39 -81.89 1868.22 -40.05 1827.65 -9.93 1780.82 8.97 1733.89 17.09 1690.87 16.24 1656.95 8.6 1637.37 -5.5 1634.37 -22.44 1649.74 -40.07 1683.39 -58.98 1732.86 -75.48 1794.25 -88.43 1861.82 -99.23 1929.37 -105.17 1990.13 -106.18 2052.68 -100.32 2045.95 -62.43 1979.17 -33.51 1919.96 -11.36 1858.03 12.35 1801.4 36.93 1758.46 62.61 1734.28 88.39 1732.69 113.78 1754.93 139.62 1798.3 164.59 1857.77 188.38 1926.02 212.28 1994.16 234.79 2053.12 255.77Q2053.15 255.78 2053.15 255.78" opacity="1.00"></path><path d="M1958.68 422.96C1998.54 442.32 2018.91 463.93 2017.82 487.7 1995.96 511.45 1955.49 537.32 1901.06 565.18 1838.62 592.91 1774.72 622.47 1715.92 653.6 1668.08 684.29 1635.64 716.14 1621.23 748.69 1626.05 780.12 1648.46 811.46 1685.36 842 1733.28 870.28 1786.05 896.6 1838.01 920.03 1922.01 959.8 1838.89 948.08 1753.09 920.01 1691.2 898.37 1631.49 874.85 1577.94 851.42 1517.44 824.58 1479.88 817.2 1501.49 847.81 1529.07 884.1 1562.46 931.89 1598.48 989.76 1635.23 1053.76 1668.56 1121.52 1695.93 1188.68 1716.31 1249.4 1727.12 1300.26 1727.65 1336.84 1718.12 1356.03 1698.35 1356.44 1669.39 1337.99 1632.29 1304.32 1588.76 1258.56 1540.71 1206.64 1489.3 1157.42 1436.98 1116.65 1385.51 1091.48 1335.6 1088.04 1289.32 1108.25 1247.62 1152.28 1210.72 1216.04 1179.58 1293.34 1154.24 1375.21 1134.65 1450.54 1120.55 1510.2 1111.32 1545.7 1106.99 1552.41 1106.32 1529.68 1108.44 1481.39 1113.71 1417.5 1120.34 1348.44 1127.51 1287.4 1136.02 1247.76 1143.9 1237.35 1150.61 1260.56 1157.28 1315.28 1162.06 1393.39 1164.72 1482.1 1166.27 1596.93 1155.9 1631.56 1144.3 1539.94 1134.85 1458.59 1123.53 1382.84 1110.56 1330.03 1096.85 1313.55 1081.8 1337.65 1065.65 1398.73 1049.04 1484.26 1031.62 1576.1 1013.56 1653.86 995.3 1699.96 976.61 1703.67 957.62 1663.58 938.58 1589.69 919.35 1498.55 899.99 1411.98 880.62 1351.87 861.35 1332.25 842.15 1356.93 822.88 1420.07 803.58 1505.48 784.13 1592.66 764.46 1662.21 744.45 1697.17 723.91 1689.91 702.92 1642.33 681.12 1564.61 658.32 1473.63 634.77 1388.07 609.89 1325.48 583.49 1297.47 556.09 1308.66 526.9 1354.68 495.78 1424.24 463.57 1503.17 429.36 1573.48 393.16 1620.73 356.13 1636.04 317.37 1615.24 277.15 1562.16 236.88 1485.61 195.86 1398.87 154.65 1316.22 114.77 1249.97 75.89 1210.09 38.82 1200.76 4.9 1221.82 -25.75 1267.07 -52.26 1326.96 -73.88 1391.81 -90.14 1448.86 -100.39 1488.61 -104.9 1505.42 -103.09 1495.28 -94.99 1459.52 -82.09 1402.08 -64.07 1330.16 -41.87 1252.34 -18.1 1176.15 7.06 1110.31 31.9 1060.59 62.15 1025.7 83.72 1077 66.6 1139.49 41.92 1184.31 7.6 1223.38 -35.63 1252.43 -85.87 1269.6 -141.42 1271.73 -199.71 1258.76 -257.26 1231.56 -311.51 1191.83 -359.26 1142.52 -397.47 1085.54 -424.05 1025.08 -437.2 964.38 -436.63 904.65 -422.23 849.68 -395.2 801.11 -358.93 759.04 -315.75 725.14 -269.61 699.23 -225.98 680.92 -188.15 669.6 -160.28 664.04 -146.38 664.16 -147.92 667.85 -165.92 673.71 -199.88 682.47 -247.44 691.38 -305.09 699.45 -367.98 708.18 -430.84 714.85 -487.98 719.02 -549.49 722.99 -557.3 715.1 -502.21 703.68 -449.09 694.5 -389.95 683.09 -331.34 669.7 -280.75 655.94 -243.17 640.54 -223.25 623.7 -224.1 606.75 -245.45 588.56 -285.31 569.2 -339.53 549.84 -401.04 529.52 -462.75 508.22 -518.52 486.82 -561.31 464.22 -586.54 440.27 -592.09 415.94 -576.87 389.92 -542.7 361.95 -493.31 333.28 -433.63 302.33 -369.72 268.9 -307.7 234.6 -253.43 197.69 -211.71 158.22 -186.06 118.21 -178.06 76.04 -187.48 32.18 -213.21 -11.02 -251.36 -54.69 -297.5 -97.82 -347.73 -138.05 -395.94 -175.72 -437.39 -209.4 -477.87 -248.32 -462.06 -279.6 -407.11 -268.52 -356.02 -251.74 -298.43 -228.1 -238.25 -199.22 -178.81 -169.36 -124.08 -139.27 -76.98 -112.12 -26.58 -87.46 -1.36 -114.86 -22.81 -174.93 -47.82 -231.68 -77.22 -297.9 -108.42 -369.28 -140.22 -439.28 -169.05 -503.39 -192.93 -555.72 -216.68 -598.79 -211.29 -553.73 -181.83 -479.25 -152.38 -424.29 -116.81 -374.58 -76.48 -338.67 -32.02 -324.44 14.7 -335.15 62.33 -372.12 110.62 -432.03 157.67 -508.53 202.59 -592.13 245.53 -670.76 285.09 -734.04 320.98 -772.38 353.55 -780.33 382.17 -756.98 407.04 -706.5 428.43 -639.61 446.47 -567.85 461.64 -505.5 473.9 -466.6 484.03 -459.19 492.56 -487.07 499.05 -546.9 504.7 -628.97 509.99 -718.82 516.22 -827.38 530.26 -829.99 539.44 -724.8 545.73 -641.29 553.45 -570.15 562.71 -528.23 571.92 -526.63 582.75 -566.33 595.26 -639.7 607.77 -730.71 621.97 -819.02 637.89 -884.11 653.81 -910.75 671.44 -892.13 690.81 -832.04 710.17 -745.47 731.04 -653.35 753.37 -577.51 775.69 -535.46 799.49 -536.25 824.7 -578.51 849.9 -652.43 876.51 -739.5 904.45 -819.37 932.33 -874.78 961.46 -892.32 991.69 -868.38 1021.68 -808.1 1052.57 -723.99 1084.11 -633.42 1115.04 -553.98 1146.22 -501.07 1177.29 -483.57 1207.13 -503.64 1236.24 -555.03 1264.12 -625.69 1289.96 -701.81 1313.81 -766.53 1335.1 -807.06 1353.5 -816.09 1368.59 -790.7 1379.91 -735.32 1387.74 -658.52 1391.38 -572.94 1390.6 -491.77 1382.39 -405.83 1343.77 -410.25 1316.97 -485.51 1299.18 -547.21 1281.79 -603.65 1266.13 -645.89 1254.6 -668.38 1247.29 -666.39 1245.55 -640.09 1250.99 -592.07 1263.75 -527.78 1284.52 -454.42 1313.36 -378.35 1350 -307.81 1393.8 -248.76 1443.07 -204.92 1496.67 -179.34 1552.62 -171.96 1607.96 -181.95 1660.88 -205.67 1708.75 -238.68 1748.87 -278.12 1779.49 -317.62 1798.81 -352.83 1806.15 -381.89 1801 -400.35 1783.77 -406.81 1756.83 -401.36 1721.56 -383.44 1680.87 -354.49 1639.43 -315.65 1599.85 -269.37 1566.04 -218.21 1542.39 -162.99 1530.85 -107.21 1533.56 -52.86 1551.7 0.09 1584.47 48.84 1630.25 92.64 1685.89 132.14 1747.5 165.97 1810.32 194.45 1869.04 218.23 1918.96 237.38 1955.62 252.74 1975.96 264.44 1978.06 273.63 1961.63 281.2 1929.13 286.51 1883.23 291.37 1828.67 296.46 1772.24 300.43 1719.15 305.42 1675.43 311.87 1646.94 317.88 1636.48 325.77 1645.86 335.75 1674.92 345.61 1720.61 357.73 1778.32 372.23 1841.96 386.71 1904.46 403.6 1958.68 422.96Q1958.68 422.96 1958.68 422.96" opacity="0.61"></path><path d="M1866.12 509.84C1913.35 535.53 1895.64 577.3 1834.98 593.11 1780.88 602.78 1722.34 610.24 1664.52 615.42 1612.3 620.35 1569.91 622.93 1540.53 623.21 1526.39 623.37 1527.9 621.43 1544.17 617.63 1573.88 614.29 1613.38 609.75 1658.81 604.58 1706.97 601.08 1752.74 598.13 1792.23 596.66 1822.99 598.61 1841.65 603.59 1846.79 612.65 1816.38 646.44 1738.08 703.61 1632.31 786.83 1522.19 886.86 1432.19 997.75 1377.66 1102.76 1365.2 1179.62 1389.99 1215.63 1439.01 1200.04 1500.85 1143.34 1555.2 1061.97 1589.39 988.97 1598.75 963.73 1577.41 1004.29 1529.18 1111.74 1459.03 1252.71 1375.67 1380.09 1288.21 1441.82 1200.53 1414.3 1121.41 1313.49 1054.1 1195.33 998.06 1135.28 955.13 1174.57 922.96 1306.14 910.55 1386.68 900 1462.65 890.87 1522.63 883.52 1557.42 876.97 1561.77 870.84 1534.89 865.83 1482.35 860.73 1412.63 855.23 1338.22 847.52 1252.48 828.03 1266.93 815.5 1368.82 806.82 1453.21 796.73 1531.35 785.17 1588.42 773.64 1613.55 760.59 1601.56 745.99 1554.35 731.4 1481.86 715.24 1397.69 697.49 1318.86 679.74 1262.34 660.61 1239.22 640.14 1253.44 619.68 1302.17 597.9 1374.57 574.85 1455.82 551.84 1530.75 527.6 1583.82 502.24 1605.07 476.98 1590.98 450.7 1543.76 423.54 1472.31 396.67 1389.13 369.13 1308.89 341.15 1245.01 313.79 1207.56 286.35 1201.8 259.15 1227.01 233.08 1278.3 207.76 1345.03 183.61 1414.95 161.23 1477 140.64 1519.48 122.28 1535.48 92.93 1481.96 75.87 1343.66 73.61 1194.11 82.63 1103.31 105.16 1107.76 138.13 1189.01 170.87 1300.4 201.38 1377.05 220.74 1381.38 218.17 1308.86 190.77 1184.29 134.88 1050.72 54.16 943.59 -44.5 890.62 -148.25 892.9 -239.19 940.66 -303.51 1006.46 -328.02 1064.89 -310.46 1103.51 -254.86 1105.95 -176.41 1073.56 -102.3 1011.36 -52.93 929.6 -48.54 840.59 -66.7 793.99 -97.64 748.69 -139.93 705.48 -190.96 663.33 -247.52 624.16 -305.7 588.15 -361.14 554.08 -409.89 523.19 -448.06 495.24 -472.79 469.19 -481.95 445.61 -474.67 424.08 -452.14 403.97 -415.79 385.3 -368.76 367.64 -316.15 350.83 -261.98 334.49 -211.39 318.29 -169.99 302.47 -141.15 286.42 -127.95 269.91 -132.42 253.51 -153.97 236.47 -190.87 218.72 -239.95 200.97 -295.69 182.72 -352.65 164.06 -406.19 145.51 -450.49 126.73 -481.53 107.98 -497.11 89.6 -495.28 71.62 -476.41 54.38 -442.42 37.99 -396.07 22.89 -341.41 9.53 -282.93 -2.41 -225.37 -12.02 -173.22 -18.83 -101.07 -20.33 -173.25 16.98 -237.8 39.9 -321.75 67.39 -375.16 89.16 -382.35 93.07 -341.19 67.18 -259.21 8.16 -155.18 -85.16 -48.14 -198.3 41.2 -316.95 100.37 -415.52 123.8 -468.6 114.2 -464.39 81.2 -403.8 32.18 -316.77 -16.3 -236.5 -53.46 -205.88 -75.88 -252.12 -75.27 -368.28 -52.27 -516.64 -9.64 -634.87 49.1 -673.74 117.76 -614.62 194.31 -496.74 271.44 -387.37 345.15 -359.84 381.47 -388.85 416.15 -443.6 449.07 -517.19 481.04 -598.64 511.15 -676.16 539.44 -737.48 566.7 -772.71 592.27 -776.21 616.31 -747.23 639.47 -691.82 661.35 -619.25 682.15 -542.91 702.31 -478.3 721.66 -437.11 740.4 -428.21 758.75 -454.64 776.72 -512.07 794.46 -590.5 812.02 -675.26 829.52 -750.32 847.05 -800.84 864.54 -816.86 882.15 -794.66 899.9 -738.16 917.65 -659.33 935.33 -574.26 952.91 -499.99 970.44 -450.98 987.76 -436.32 1004.78 -457.92 1021.61 -511.46 1037.96 -585.23 1053.66 -664.42 1076.18 -758.1 1115.03 -752.04 1130.39 -654.03 1139.21 -571.17 1146.18 -492.19 1151.13 -429.63 1155.04 -392.72 1156.8 -386.28 1156.33 -409.52 1154.92 -457.95 1151.38 -521.63 1145.82 -589.16 1133.64 -694.72 1116.5 -705.1 1098.25 -613.4 1087.88 -463.58 1085.71 -328.35 1097.81 -263.85 1129.52 -288.6 1181.75 -376.44 1254.97 -475.5 1342.92 -541.05 1440.17 -537.3 1535.71 -465.55 1615.24 -346.03 1669.15 -215.91 1687.64 -108.4 1670.39 -42 1620.57 -25.16 1550.5 -47.29 1483.44 -97.59 1435.86 -151.88 1426.37 -193.62 1465.22 -218.56 1547.57 -215.74 1657.54 -188.01 1714.46 -166.31 1768.01 -140.15 1814.42 -110.6 1850.4 -77.63 1873.42 -42.82 1881.63 -7.11 1874.91 30.25 1853.46 67.34 1819 103.54 1775.31 140.2 1725.42 175.33 1673.78 208.64 1625.98 241.84 1585.66 273.03 1556.87 302.15 1543.21 331.02 1545.75 357.88 1564.84 382.79 1599.39 407.51 1646.35 430.43 1701.66 451.57 1760.4 472.66 1817.04 492.09 1866.12 509.84Q1866.12 509.84 1866.12 509.84" opacity="0.49"></path><path d="M1772.62 215C1828.13 247.27 1825.52 280.95 1767.24 316.79 1671.59 353.83 1565.84 395.28 1479.13 443.07 1433.58 494.56 1437.98 554.83 1486.43 624.6 1565.22 697.28 1648.33 776.53 1712.75 857.78 1744.08 930.46 1731.38 992.45 1677.81 1034.5 1593.54 1051.12 1494.71 1038.92 1398.9 998.36 1293.54 914.17 1270.52 848.08 1328.47 950.45 1376.97 1066.55 1417.99 1190.51 1444.64 1287.89 1455.92 1328.62 1446.77 1301.34 1419.03 1216.38 1375.3 1115.27 1319.09 1041.21 1255.47 1036.43 1185.58 1114.11 1115.53 1248.67 1048.44 1384.95 982.49 1460.43 922.36 1440.59 868.4 1335.52 817.51 1207.57 772.14 1128.16 731.29 1150.09 692.45 1268.01 656.48 1418.11 622.39 1512.73 588.88 1495.04 556.15 1374.15 523.87 1225.36 491.6 1147.45 460.54 1187.98 431.19 1316.65 402.42 1453.62 376.45 1511.05 354.42 1455.8 334.41 1319.66 319.99 1178.27 312.32 1105.01 307.72 1132.79 310.53 1237.43 320.55 1356.39 331.71 1428.62 347.23 1412.64 364.12 1316.04 374.74 1177.74 379.52 1054.05 373.5 987.53 351.49 994.82 312.6 1061.52 255.15 1151.72 182.32 1231.63 96.99 1265.41 6.19 1242.11 -78.66 1166.87 -149.74 1059 -196.67 944.51 -213.46 841.78 -197.54 770.25 -151.72 734.33 -89.51 732.85 -21.96 756.17 33.51 791.32 58.29 833.78 44.7 868.03 -10.28 888.25 -98.35 897.13 -202.48 888.93 -299.48 866.82 -366.15 834.46 -385.96 794.06 -352.87 750.13 -278.61 702.09 -182.36 655.19 -93.09 611.97 -41.2 567.97 -41.86 529.37 -97.37 497.09 -192.39 464.82 -294.48 439.64 -372.12 420.77 -404.42 401.13 -380 386.08 -306.99 373.26 -205.59 356.33 -102.39 336.94 -22.72 310.75 15.85 274.31 8.02 225.19 -38.78 160.39 -111.96 84.24 -187.95 -4.54 -246.9 -100 -277.05 -188.14 -268.09 -262.91 -222.09 -311.18 -146.53 -325.02 -54.06 -301.53 40.82 -244.98 127.41 -176.67 194.38 -113.11 237.23 -80.17 254.57 -99.15 249.84 -173.21 229.57 -291.22 196.76 -419.53 162.12 -522.17 132.14 -563.08 106.99 -530.18 94.31 -437.78 94.95 -328.26 106.4 -260.43 130.2 -270.75 163.59 -366.61 204.86 -509.22 251.48 -634.89 300.53 -680.9 352.94 -625.88 404.62 -499.91 453.84 -376.21 503.88 -333.39 550.21 -400.29 592.1 -543.64 634.07 -678.7 671.38 -722.54 703.65 -644.66 735.93 -495.87 762.4 -371.7 783.3 -347.59 804.27 -435.8 819.88 -576.4 830.71 -681.89 842.35 -691.38 850.47 -596.58 856.61 -450.41 866.12 -327.12 876.82 -286.24 891.48 -338.05 914.01 -450.67 944.76 -558.93 986.3 -607.85 1038.65 -574.29 1102.78 -468.97 1177.67 -334.26 1257.39 -215.69 1340.07 -152.45 1419.06 -155.06 1485.5 -214.32 1534.56 -297.99 1559.52 -371.8 1558.97 -413.85 1532.28 -405.61 1483.8 -350.51 1427.02 -258.95 1370.48 -151.31 1328.53 -47.18 1316.14 43.12 1338.45 106.77 1397.38 143.16 1485.13 154.11 1587.42 146.66 1684.25 129.92 1754.72 104.6 1783.56 82.67 1763.2 68.55 1701.74 57.32 1613.95 56.84 1525.01 66.21 1464.45 79.28 1449.53 99.78 1488.21 125.6 1572.24 152.62 1677.59 182.72 1772.62 215Q1772.62 215 1772.62 215" opacity="0.41"></path><path d="M1679.15 562.32C1731.49 591.36 1737.08 623.6 1695.94 658.11 1619.14 691.69 1524.49 725.64 1433.72 757.65 1365.99 785.79 1334.1 808.23 1341.48 821.84 1385.22 827.9 1451.36 822.08 1523.47 803.39 1588.46 779.08 1629.65 746.49 1639.28 711.21 1616.43 685.75 1563.24 672.73 1488.64 681.49 1401.88 718.31 1315.22 783.91 1238.54 875.27 1177.87 978.06 1138.36 1079.81 1120 1160.78 1122.21 1203.04 1139.47 1198.2 1165.75 1146.46 1199.26 1067.78 1231.08 984.28 1256.78 927.55 1277.22 925.36 1286.55 984.65 1284.56 1094.78 1273.7 1221.28 1252.69 1323.71 1223.77 1363.85 1188.4 1328.16 1148.43 1231.14 1106.19 1115.43 1060.97 1038.48 1016.05 1037.18 972.91 1119.55 928.89 1251.55 887.83 1373.61 850.47 1426.12 812.98 1383.5 779.52 1265.24 750.48 1131.87 721.43 1056.54 697.49 1076.83 678.4 1178.29 659.17 1309.38 644.49 1400.4 633.73 1407.29 622.09 1327.62 613.2 1197.45 605.73 1074.57 595.26 1008.4 583.64 1021.82 568.67 1100.5 547.26 1209.29 519.18 1297.02 482.34 1328.13 436.64 1291.04 381.01 1196.42 315.81 1075.86 245.34 962.32 170.28 887.46 95.21 864.35 27.37 892.53 -29.77 954.58 -70.04 1026.61 -89.76 1091.27 -86.5 1126.23 -60.13 1124.25 -17.75 1086.32 36.56 1018.44 93.08 933.32 137.43 838.88 162.47 749.67 159.42 673.4 123.88 611.1 59.02 567.23 -27.26 539.14 -120.66 525 -205.71 520.06 -265.84 519.26 -289.62 524.22 -271.6 527.29 -215.07 525.78 -135.52 525.18 -49.41 518 21.63 503.61 57.02 489.12 48.49 467.43 -3.84 438.39 -88.37 409.34 -181.03 373.63 -258.41 331.54 -303.87 289.35 -304.62 240.79 -261.53 186.62 -184.89 133.35 -91.07 76.46 0.27 18.81 72.1 -33.08 112.08 -79.74 116.2 -115.94 85.69 -138.19 31.53 -143.41 -32.59 -128.81 -96.09 -100.25 -143.13 -57.34 -165.32 -7.66 -160.34 32.68 -126.67 57.34 -69.71 53.72 4.51 14.15 86.71 -60.68 168.17 -163.4 243.86 -273.51 306.65 -371.82 354.02 -434.31 385.37 -445.51 401.41 -403 405.29 -319.72 397.64 -229.4 384.31 -162.91 369.26 -151.72 351.15 -208.72 336.52 -320.11 327.21 -450.2 319.85 -550.18 319.31 -582.53 325.37 -532.77 334.22 -426.28 348.76 -309.98 367.95 -241.5 388.8 -259.58 412.86 -359.13 439.16 -495.96 465.94 -603.18 494.05 -626.45 523.1 -551.15 552.14 -417.78 581.44 -296.57 611.24 -248.17 641.51 -294.91 673.2 -408.42 707.13 -529.21 742.72 -600.39 781.99 -585.24 825.83 -491.91 872.48 -359.81 924.61 -243.87 982.3 -186.88 1041.95 -205.7 1105.67 -284.46 1171.47 -385.04 1234.22 -469.27 1293.85 -500.43 1346.26 -468.01 1387.15 -381.04 1414.35 -265.21 1424.56 -152.23 1418.75 -66.17 1395.84 -25.07 1358.22 -29.25 1314.83 -72.14 1268.89 -134 1228.96 -195.23 1206.3 -245.04 1204.97 -267.41 1230.23 -259.48 1282.67 -223.48 1357.86 -164.15 1447.27 -91.01 1537.31 -8.04 1615.13 73.63 1666.94 148.28 1684.11 217.31 1663.04 274.72 1607.6 321.37 1532.64 360.46 1452.69 391.83 1387.26 418.47 1355.39 441.24 1364.69 463.04 1415.89 486.04 1499.01 508.11 1594.62 533.27 1679.15 562.32Q1679.15 562.32 1679.15 562.32" opacity="0.89"></path><path d="M1585.62 346.15C1634.26 371.97 1646.3 391.43 1620.53 404.98 1563.09 418.83 1484.44 427.47 1399.37 432.11 1322.28 438.68 1265.61 443.7 1236.91 449.82 1239.59 461.94 1269.76 479.8 1319.54 506.92 1381.58 544.83 1442.23 595.47 1491.35 659.71 1523.71 732.33 1532.05 813.07 1515.8 895.76 1477.29 969.33 1420.4 1028.74 1351.8 1064.6 1276.57 1071.98 1202.46 1048.94 1134.97 998.43 1076.66 935.03 1031.37 869.39 999.51 819.66 980.97 804.6 973.9 831.34 975.41 901.43 985.44 1001.78 998.91 1112.43 1012.9 1205.94 1029.12 1256.73 1042.14 1251.24 1050.62 1190.15 1058.53 1048.69 1043.8 969.72 1023.18 1113 1006.8 1231.58 987.23 1314.44 965.15 1328.2 942.71 1268.06 918.44 1156.15 892.63 1038.36 866.81 966.88 840.04 970.08 812.19 1043.44 783.98 1157.23 754 1262.15 721.69 1316.89 688.15 1302.18 651.26 1222.29 610.41 1106.99 567.58 994.27 520.21 920.7 468.31 905.19 415.09 948.6 358.44 1030.29 299.83 1120.03 243.44 1191.81 188.81 1220.16 138.99 1198 97.68 1130.57 66.32 1033.91 47.92 930 42.84 836.48 52.67 771.04 77.14 740.08 110.79 744.11 152.68 775.37 197.42 821.84 235.53 876.45 263.68 923.69 275.3 955.69 264.67 971.53 231.31 965.95 175.92 941.59 103.76 901.21 22.08 849.26 -58.88 791.31 -127.59 727.5 -174.57 664.79 -191.82 606.12 -177.69 548.01 -133.35 496.08 -66.23 450.5 8.88 406.56 79.92 368.13 132.26 334.51 152.92 301.51 138.26 272.21 89.62 246.39 15.45 220.57 -66.98 198.84 -141.02 181.56 -194.39 164.88 -215.06 153.75 -200 149 -152.93 145.88 -81.54 149.98 1.61 161.24 83.95 173.07 153 189.92 200.04 208.99 219.97 222.2 213.04 230.52 183.82 228.51 136.74 210.48 82.88 174.91 31.37 119.29 -12.96 47.5 -41.05 -38.16 -49.72 -129.71 -39.29 -213.13 -9.35 -279.85 36.41 -317.73 94.93 -320.62 160.8 -287.42 228.96 -224.39 297.57 -150.96 361.27 -83.05 417.75 -42.49 467.32 -47.21 507.84 -100.57 540.01 -195.36 564.64 -308.13 582.86 -410.87 596.61 -473.22 605.51 -476.65 612.68 -419.9 619.84 -321.76 624.86 -221.03 631.76 -153.45 641.52 -148.69 650.66 -213.38 663.49 -325.88 680.47 -444.78 697.36 -523.27 718.62 -529.12 744.44 -457.66 770.25 -339.87 800.03 -225.34 833.43 -160.06 866.74 -168.69 903.46 -243.94 943.01 -352.55 981.94 -453.71 1022.88 -505.73 1064.7 -490.44 1104.39 -413.52 1143.07 -300.62 1178.92 -188.28 1209.91 -108.26 1235.32 -81.72 1253.09 -109.47 1263.32 -179.95 1263.95 -265.57 1254.18 -339.05 1237.49 -382.26 1212.22 -380.25 1180.56 -334.71 1149.33 -254.49 1118.92 -156.63 1094.24 -59.39 1082.31 24.96 1084.59 83.46 1104.65 113.02 1143.81 114.1 1200.65 93.13 1271.88 59.35 1350.27 16.45 1429.15 -23.13 1499.25 -53.35 1565.49 -78.7 1524.24 -43.75 1430.36 4.96 1361.76 45.69 1302.7 88.49 1265.59 130.62 1260.5 174.68 1288.77 215.59 1347.25 252.02 1426.39 288.77 1511.45 320.33 1585.62 346.15Q1585.62 346.15 1585.62 346.15" opacity="0.40"></path><path d="M1492.12 316.88C1536.47 339.47 1553.13 366.81 1540.46 398.8 1501.54 431.01 1441.65 468.21 1369.8 510.33 1295.52 552.71 1228.42 599.7 1176.3 650.32 1144.62 699.46 1135.4 749.74 1147.42 798.42 1178.9 840.64 1222.78 876.11 1272.21 900.96 1323.13 913.27 1366.77 910.78 1398.3 892.07 1416.45 861.99 1417.44 820.28 1401.84 772.25 1371.4 729.32 1328.19 695.49 1275.98 679.78 1216.91 690.12 1155.59 728.15 1095.36 793.47 1036.88 877.69 983.83 971.11 937.35 1058.67 896.79 1123.5 863.43 1154.42 836.53 1143.7 815.43 1095.65 799.17 1019.7 786.28 934.77 777.16 866.68 769.39 832.9 761.66 846.92 755.73 909.02 748.4 1005.22 738.85 1110.98 729.9 1196.42 718.01 1237.1 702.75 1219.29 687.6 1149.36 668.83 1047.02 646.24 944.86 623.64 878.46 597.77 868.1 568.91 914.62 540.17 1003.45 508.7 1103.78 475.04 1184.35 441.98 1223.26 407.46 1207.55 372.4 1142.99 339.14 1046.62 306.79 943.68 276.75 858.83 250.49 809.57 228.58 804.39 212.58 839.05 202.39 904 199.73 979.11 205.47 1045.83 217.13 1092.34 236.55 1106.1 262.71 1085.69 290.62 1034.69 320.92 961.57 350.37 878.04 372.97 792.34 387.99 716.54 391.75 657.03 380.68 615.97 354.53 595.21 312.85 591.67 257.8 603.86 192.27 625.21 121.19 650.26 51.62 679.4 -10.66 704.77 -58.7 723.82 -87.28 739.76 -92.78 747.35 -73.84 747.07 -34.47 742.72 21.83 731.96 87.39 716.38 150.52 698.51 203.77 677.86 238.22 655.79 246.42 633.09 227.47 610.17 183.12 587.58 119.14 564.99 47.47 543.26 -20.59 521.95 -76.82 500.02 -111.14 477.3 -119.19 452.58 -101.16 425.55 -58.74 394.46 1.8 357.82 73.1 317.12 146.45 269.4 213.65 214.31 268.51 156.12 306.03 92.57 324.42 26.33 322.97 -35.8 304.89 -93.17 274.59 -140.18 234.44 -171.48 192.05 -184.34 152.54 -175.61 117.29 -148.43 92.37 -103.66 79.59 -47.57 78.11 6.34 89.64 51.27 112.62 75.6 145.52 69.34 186.4 30.44 232.54 -39.58 283.45 -129.82 335.67 -226.82 387.2 -311.93 439.11 -366.75 488.11 -379.99 533.46 -347.3 577.19 -279.02 616.94 -190.79 652.87 -107.16 687.1 -55.35 718.19 -50.4 746.66 -98.01 774.15 -187.29 799.87 -294.27 824.24 -387.57 848.34 -438.58 871.63 -430.54 894.23 -364.16 916.82 -262.01 938.18 -157.37 958.08 -82.95 977.71 -60.65 995.35 -94.66 1010.47 -171.38 1024.61 -268.42 1035.37 -353.84 1042.13 -403.2 1047.19 -404.48 1047.57 -356.01 1042.99 -271.36 1036.78 -169.87 1025.96 -75.51 1011.16 -7.3 996.72 23.56 980.51 14.55 964.42 -26.75 953.1 -90.78 945.85 -159.06 945.27 -216.59 954.62 -255.25 974.11 -265.08 1005.2 -245.82 1047.59 -200.5 1100.71 -135.64 1162.63 -60.39 1228.82 19.95 1296.37 95.29 1360.04 160.2 1413.87 213.72 1453.84 252.22 1475.43 277.01 1477.2 289.26 1458.09 291.97 1419.79 288.89 1369.15 279.36 1310.5 269.22 1251.95 261.06 1188.34 248.86 1200.46 250.09 1281.64 264.96 1354.18 276.98 1428.14 294.28 1492.12 316.88Q1492.12 316.88 1492.12 316.88" opacity="0.11"></path><path d="M1398.64 576.1C1438.15 595.46 1457.56 612.81 1455.37 627.88 1432.97 642.53 1392.33 654.12 1338.3 661.92 1276.35 668.36 1212.59 669.94 1152.94 666.01 1102.13 660.14 1064.11 648.49 1040.94 631.36 1033.85 613.8 1041.47 592.86 1061.35 570.73 1092.29 553.32 1128.99 539.81 1167.48 533.86 1206.56 539.86 1240.68 558.61 1267.32 592.33 1286.7 640.08 1295.68 701.26 1294.25 772.61 1283.62 846.49 1263.62 918.4 1235.91 980.2 1201.47 1023.62 1162.2 1043.89 1120.06 1036.95 1074.95 1005.17 1029.56 951.59 985.24 884.67 940.75 819.17 898.69 765.02 859.56 734.65 821.51 737.49 786.59 774.68 754.73 842.36 724 928.67 695.9 1018.3 670.12 1093.02 645.01 1136.87 621.66 1139.97 599.83 1100.31 578.19 1028.03 557.71 937.9 538.34 851.33 518.98 791.24 501.19 771.13 485.11 793.99 469.22 854.47 455.41 936.02 444 1019.08 429.37 1105.38 418.07 1048.17 422.82 929.19 428.4 842.31 437.73 768.36 450.42 717.66 462.95 695.73 477.47 703.08 492.74 734.54 505.03 784.9 515.47 842.24 522.21 896.67 522.21 943.13 515.62 972.4 500.88 981.72 476.93 971.63 443.77 942.48 401.52 898.52 352.02 842.47 296.34 780.43 237.1 717.32 178.45 653.97 122.98 596.07 74.77 545.48 37.61 500.84 14.22 464.62 7.11 435.91 16.09 413.22 41.5 395.98 81.38 382.37 130.1 372.36 184.62 363.54 239.09 354.37 303.12 341.85 326.83 304.76 276.64 277.62 222.65 258.25 162.09 235.53 102.11 209.91 47.64 184.6 6.27 157.06 -17.92 128.25 -23.87 100.89 -10.04 73.84 21.56 48.72 67.65 27.2 124.07 10.04 185.58 -0.82 247.83 -5.66 305.66 -2.17 355.29 10.67 394.28 29.47 420.73 56.49 434.5 90 435.41 123.26 425.7 156.48 407.89 184.82 382.45 201.07 353.98 203.63 325.28 188.35 296.04 153.64 270.79 100.21 251.02 30.88 235.39 -46.4 226.84 -125.3 225.31 -195.82 229.14 -247.45 239.38 -273.57 254.99 -268.91 274.92 -235.48 298.67 -177.31 325 -104.63 353.92 -34.18 383.93 21.89 414.01 50.02 445.3 41.1 475.68 -4.54 504.5 -80.12 533.72 -170.65 560.91 -257.89 585.66 -322.21 610.48 -348.89 632.7 -330.75 652.06 -270.66 671.43 -184.09 687.48 -91.99 700.38 -15.89 713.35 27.59 723.34 30.19 730.63 -6.17 738.33 -73.42 743.82 -153.81 747.67 -229.19 752.72 -285.94 757.11 -310.52 761.74 -299.17 768.97 -254.61 777.95 -184.68 789.8 -101.9 805.98 -17.71 826.61 54.63 852.62 106.57 884 133.67 921.37 134.96 964.71 114.41 1012.18 75.47 1064.02 27.73 1118.64 -20.76 1172.72 -66.73 1225.36 -101.31 1273.67 -121.36 1314.35 -127.38 1345.62 -117.3 1364.88 -93.46 1371.28 -57.67 1363.6 -13.28 1341.88 35.91 1309.53 89.84 1267.48 143.5 1219.43 194.62 1172.11 245.3 1128.3 291.35 1093.13 332.36 1072.44 371.41 1067.85 405.71 1081.27 435.79 1112.93 464.5 1159.99 490.08 1218.29 513.15 1282.1 535.8 1344.62 556.72 1398.61 576.09Q1398.64 576.1 1398.64 576.1" opacity="0.15"></path><path d="M1305.15 223.98C1360.64 256.25 1356.73 282.61 1298.42 306.79 1204.09 335.73 1098.7 371.64 1008.13 422.77 949.09 488.42 929.22 575.76 943.48 680.93 986.82 782.52 1040.02 870.96 1088.45 919.57 1130.5 913.93 1151.79 850.99 1151.87 750.13 1136.45 664.02 1104.95 630.18 1064.16 682.06 1016.02 807.17 966.47 952.84 920.39 1042.18 872.93 1024.95 831.99 906.66 799.72 757.87 767.45 679.96 745.36 717.68 731.95 837.83 717.17 969.64 708 1029.61 700.21 989.63 685.07 871.4 663.43 730.84 629.1 624.87 579.28 582.89 511.65 607.01 427.3 669.37 336.57 749.3 245.11 808.47 168.16 832.63 120.3 825.5 111.22 786.47 146.61 730.3 213.52 660.58 300.54 591.86 382.42 532.49 428.27 472.14 425.64 424.79 370.15 392.51 275.12 360.23 175.84 344.56 102.78 344.04 71.54 342.54 94.08 352.55 160.88 366.34 255.84 366.59 357.56 352.48 446.49 309.88 512.34 235.98 548.23 130.48 557.78 8.25 543.18 -96.4 517.22 -158.81 490.21 -150.45 441.25 41.49 490.09 -232.89 535.93 -177.16 568.21 -28.37 604.09 96.47 644.4 126.18 686.62 49.32 736.55 -77.97 795.84 -179.44 859.29 -207.68 932.72 -144.9 1012.97 -25.19 1089.72 109.26 1162.02 210.48 1218.92 258.42 1251.68 252.12 1254.06 210.01 1221.82 158.16 1166.5 102.73 1093.73 68.54 1022.42 58.82 979.27 63.62 975.09 86.42 1018.77 118.35 1104.27 155.04 1210.09 191.69 1305.12 223.97Q1305.15 223.98 1305.15 223.98" opacity="0.56"></path><path d="M1211.62 482.84C1260.26 508.66 1271.05 545.07 1244.53 589.54 1187.98 632.14 1111.07 678.54 1027.99 722.23 949.11 755.56 885.1 775.27 841.11 773.03 818.83 751.51 815.8 705.69 826.31 641.62 849.87 581.79 876.26 534.63 899.7 521.2 924.27 555.89 940.33 636.99 946.65 749.82 950.49 860.98 945.2 937.8 931.93 949.18 917.55 891.61 897.11 782.15 871.29 664.36 845.47 592.87 815.49 594.25 781.18 661.22 745.76 767.86 704.08 866.37 655.49 921.43 604.43 919.87 545.85 860.81 481.48 766.44 418.25 657.72 354.79 562.11 297.39 494.6 239.25 455.75 258.39 512.56 338.77 551.26 402.93 574.11 465.14 583.81 511.73 580.34 528.29 575.16 512.26 559.23 463.62 533.41 389.45 507.59 309.31 473.11 239.73 429.6 189 384.37 169.87 327.7 183.21 260.11 224.42 192.18 287.62 118.62 361.97 48.39 441.02 -5.07 514.7 -36.5 577.26 -34.3 628.39 -0.64 665.5 64.35 690.88 146.17 705.8 213.66 714.58 249.57 721.49 232.22 724.1 158.25 729.62 45.05 740.65 -71.55 750.88 -148.5 768.39 -155.13 794.21 -83.67 820.03 34.11 852.93 148.82 891.4 216.37 929.06 214.97 970.51 152.86 1012.64 60.63 1050.48 -33.28 1084.22 -91.24 1109.09 -99.04 1123.51 -58.73 1123.47 19.03 1106.18 112.7 1077.45 210.61 1034.39 293.5 982.23 354.82 914.73 408.26 894.92 432.42 972.54 438.79 1052.08 443.02 1137.45 457.02 1211.62 482.84Q1211.62 482.84 1211.62 482.84" opacity="0.44"></path><path d="M1118.15 454.1C1166.81 478.33 1130.19 479.39 1058.7 457.87 999.42 442.58 938.13 423.13 879.82 404.41 825.87 395.83 780.06 397.25 743.32 415 714.78 452 694.27 509.11 679.82 583.85 671.23 665.63 665.3 747 659.67 813.37 656.53 851.51 651.09 853.11 641.8 814.35 633.06 745.55 619.35 657.44 599.99 570.87 580.62 510.76 556.52 489.61 528.74 508.71 501.51 563.55 471.72 636.66 441.31 710.1 400.4 793.29 347.12 781.01 346.64 701.7 357.99 633 380.84 563.98 414.63 501.04 452.78 441.81 496.7 392.93 541.78 354.05 579.18 320.3 607.95 293.4 622.92 270.89 618.89 250.08 596.65 230.53 557.15 211.17 503.16 191.8 444.34 173.54 388.08 157.83 317.83 139.65 277.01 149.5 307.91 187.38 344.91 220.47 390.32 261.69 439.71 305.01 492.7 337.48 544.5 357.45 592.58 355.91 639.46 327.1 681.21 271.41 717.45 193.19 751.9 105.56 781.82 21.42 807.66 -40.88 832.84 -67.45 855.11 -50.23 874.48 9.87 893.84 96.44 909.39 188.47 920.73 264.75 931.41 310.98 936.71 320.39 935.83 296.45 933.15 244.28 923.29 180.27 906.25 118.65 888.02 64.08 864.02 29.93 836.41 18.31 812.4 25.94 789.95 52.32 773.11 90.75 767.88 139.31 774.21 190.65 794.61 239.5 830.05 290.05 878.82 334.34 937.66 370.62 1001.39 406.64 1064.13 434.73 1118.12 454.09Q1118.15 454.1 1118.15 454.1" opacity="0.87"></path><path d="M1024.65 237.53C1073.27 263.35 1081.54 302.32 1054.26 357.25 1000.97 418.95 931 503.23 859.73 600.56 787.02 685.22 724.01 745.94 674.64 751.51 628.27 699.7 591.93 595.16 566.12 477.37 540.3 405.88 527.44 403.63 529.06 456.96 533.69 547.21 556.4 628.59 595.28 676.4 632.71 697.49 675.29 683.52 709.65 651.92 718.01 609.82 699.27 570.21 650.65 544.4 576.48 518.58 500.95 508.99 441.09 506.34 396.07 493.2 380.32 466.88 389.79 411.94 415.78 330.3 454.88 221.53 495.83 112.35 540.7 40.09 579.2 31.88 605.02 103.37 630.84 221.15 641.54 336.16 641.42 406.9 645.21 420.26 646.4 386.92 654.24 336.1 678.61 272.61 721.74 228.62 785.68 211.67 864.47 201.49 950.45 211.7 1024.62 237.52Q1024.65 237.53 1024.65 237.53" opacity="0.52"></path></g></svg>