<svg xmlns="http://www.w3.org/2000/svg" version="1.1" xmlns:xlink="http://www.w3.org/1999/xlink" xmlns:svgjs="http://svgjs.dev/svgjs" viewBox="0 0 1422 800"><defs><linearGradient x1="50%" y1="0%" x2="50%" y2="100%" id="ssscribble-grad"><stop stop-color="hsl(234.9,89.9%,53.5%)" stop-opacity="1" offset="0%"></stop><stop stop-color="hsl(330,77.2%,50.2%)" stop-opacity="1" offset="100%"></stop></linearGradient></defs><g fill="none" stroke-width="3" stroke="url(#ssscribble-grad)" stroke-linecap="round"><path d="M2075.06 502.33C2134.5 524.16 2171.77 547.9 2182.25 573.45 2165.27 598.94 2122.74 626.13 2060.48 654.83 1986.52 683.27 1910.09 712.96 1840.54 743.56 1786.05 773.51 1752.65 803.89 1743.43 834.2 1759.15 863.18 1796.43 891.33 1849.76 917.99 1913.13 942.38 1977.42 964.31 2034.68 983.04 2091.6 1004.17 2067.98 1018.16 1991.02 1009.57 1922.45 998.99 1848.76 984.02 1776.59 965.35 1711.64 946.14 1659.4 925.58 1623.36 905.33 1605.63 888.92 1606.23 876.32 1623.4 869.61 1655.18 871.54 1696.61 882.49 1742.87 903.88 1790.5 936.16 1833.46 979.28 1867.73 1032.64 1891.24 1093.58 1900.63 1160.68 1895.12 1230.86 1875.12 1299.23 1841.31 1363.09 1795.89 1418.25 1740.95 1460.54 1679.89 1487.66 1616.01 1497.39 1551.51 1489.94 1490.08 1465.77 1434.13 1427.31 1384.94 1380.41 1344.53 1328.97 1313.49 1279.29 1286.01 1226.48 1285.64 1241.96 1305.3 1319.8 1324 1393.6 1343.92 1476.01 1363.52 1558.53 1383.23 1631.5 1400.23 1687.27 1413.65 1719.01 1424.36 1723.4 1430.32 1700.07 1431.38 1652.46 1428.55 1589.15 1420.78 1518.77 1408.45 1452.68 1392.36 1403.21 1372.36 1378.16 1349.11 1383.42 1322.93 1420.3 1294.4 1484.5 1264.17 1567.63 1232.02 1657.29 1199.01 1740.27 1165.69 1803.4 1131.28 1836.64 1097.18 1834.56 1063.74 1797.39 1029.81 1732.71 996.92 1651.25 965.31 1567.9 933.51 1499.39 903.17 1457.89 874.43 1452.2 845.63 1484.74 818.5 1549.91 793.1 1636.27 767.69 1727.79 744.04 1807.14 722.21 1858.71 700.38 1872.45 680.62 1845.4 662.9 1783.38 645.18 1698.49 629.48 1606.75 615.75 1525.11 601.97 1468.2 590.09 1445.63 580.01 1460.26 569.75 1509.08 561.1 1581.55 553.86 1663.71 542.77 1770.85 522.79 1803.72 511.83 1716.82 502.44 1632.15 491.78 1543.01 479.21 1462.41 463.71 1401.23 445.4 1367.47 423.66 1364.11 398.15 1390.41 368.56 1440.02 334.52 1503.83 296.59 1572.73 254.26 1634.53 207.7 1679.94 158.43 1703.16 106.1 1699.53 51.62 1669.38 -2.75 1615.86 -56.89 1544.99 -109.24 1464.73 -157.42 1382.62 -200.75 1307.54 -237.54 1246.17 -276.12 1192.05 -291.11 1215.78 -266.97 1276.22 -240.97 1325.31 -208.85 1372.49 -172.96 1412.48 -137.69 1442.49 -104.57 1457.86 -76.85 1457.23 -58.66 1440.75 -51.36 1408.85 -57.14 1363.92 -77.4 1308.04 -111.85 1245.12 -159.63 1178.83 -218.18 1111.19 -284.66 1046.55 -355.04 987.43 -424.03 934.74 -487.4 890.89 -540.31 856.35 -589.06 822.96 -567.89 808.65 -503.91 820.18 -449.5 833.37 -392.71 847.72 -340.14 861.84 -286.74 883.15 -305.69 910.2 -381.56 913.43 -451.14 912.14 -526.8 907.03 -600.57 898.45 -664.3 887.82 -711.01 874.24 -735.15 858.19 -734.36 840.65 -708.38 821.3 -660.29 800.62 -597.14 779.07 -526.08 756.75 -456.44 734.07 -398.5 711 -359.23 687.94 -344.44 665.17 -357.1 642.29 -395.48 619.88 -454.92 598.05 -527.77 576.21 -603.17 555.21 -670.97 534.97 -723.1 514.63 -751.88 494.85 -753.84 475.4 -729.29 455.55 -680.98 435.65 -615.19 415.33 -539.96 394.13 -464.31 371.94 -397.03 348.31 -345.56 323.18 -315.23 295.96 -308.49 266.17 -325.64 234.33 -363.1 199.4 -415.38 161.09 -476.79 120.6 -538.6 76.69 -593.36 29.46 -635.72 -19.11 -659.67 -70.16 -662.58 -122.94 -644.3 -174.9 -605.9 -226.61 -551.1 -276.67 -484.5 -322.53 -412.14 -363.98 -340.13 -399.32 -273.72 -426.93 -218.26 -446.05 -177.26 -455.53 -152.95 -455.77 -145.91 -446.15 -154.98 -427.1 -178.83 -401.63 -213.33 -370.06 -254.34 -334.9 -298.98 -301.08 -341.6 -270.02 -378.31 -245.38 -407.14 -231.69 -424.31 -230.4 -428.48 -243.87 -419.63 -273.19 -397.43 -317.86 -363.26 -376.49 -318.56 -445.09 -265.81 -520.2 -207.7 -596.52 -145.98 -667.25 -84.03 -727.62 -24.27 -772.17 32.19 -796.96 82.81 -800.05 126.47 -781.19 162.86 -744.11 191.18 -692.55 211.71 -633.17 227.59 -551.17 221.66 -493.65 206.5 -544.69 192.99 -609.57 179.38 -690 166.67 -776.66 153.87 -858.24 143.4 -924.74 135.76 -967.05 129.64 -979.69 126.97 -961.05 127.77 -914.05 130.72 -847.64 137.1 -771.76 146.65 -699.42 158.24 -644.6 172.57 -616.46 189.22 -621.48 207.47 -660.66 227.49 -728.52 248.85 -814.87 271.27 -905.46 294.52 -985.35 318.25 -1040.57 342.56 -1061.6 366.94 -1044.4 391.13 -991.8 415.58 -914.49 439.57 -826.01 462.93 -743.31 486.36 -683.48 509.03 -657.53 530.86 -671.27 552.69 -722.84 573.43 -801.09 593.13 -890.42 612.89 -974.59 631.73 -1036.5 649.81 -1064.72 668.15 -1054.71 685.98 -1007.83 703.54 -932.93 721.7 -843.18 739.98 -754.29 758.74 -681.19 778.55 -635.6 799.34 -624.09 821.51 -646.93 845.28 -699.66 870.97 -771.26 898.99 -848.6 929.06 -919.42 961.87 -970.35 997.68 -993.04 1035.62 -984.12 1076.6 -943.95 1120.55 -878.48 1166.03 -796.39 1213.86 -709.11 1263.53 -628.04 1313.11 -562.66 1363.09 -520.7 1412.45 -505.62 1459.13 -517.88 1503.1 -553.34 1543.03 -605.17 1577.32 -666.57 1605.45 -727.03 1626.26 -778.1 1639.38 -814.08 1644.13 -828.8 1640.21 -820.39 1629.02 -789.49 1610.27 -738.66 1585.04 -672.96 1556.51 -597.5 1525.17 -519.55 1493.41 -445.43 1465.25 -379.74 1441.79 -327.64 1425.71 -291.57 1420.15 -272.69 1425.89 -270.51 1444.26 -282.85 1475.66 -308.05 1519.34 -341.31 1573.95 -378.44 1636.44 -417.38 1704.1 -452.62 1773.03 -481.09 1838.32 -501.98 1896.34 -512.02 1942.92 -510.65 1974.72 -498.39 1989.63 -475.12 1986.45 -442.27 1966.57 -400.79 1931.43 -352.86 1884.5 -300.61 1831.97 -244.51 1778.23 -187.58 1729.4 -131.49 1692.36 -75.96 1670.86 -23.62 1668.58 24.78 1687.5 70.08 1726.56 110.64 1783.1 146.57 1852.05 178.7 1927.13 206.54 2000.85 230.7 2065.46 251.58 2114.29 269.68 2141.84 285.71 2145.5 299.47 2124.59 312.12 2081.55 324.31 2022.69 335.18 1954.47 346.34 1885.64 358.26 1804.78 375.81 1785.38 417.8 1855.72 443.26 1925.7 460.83 2002.21 480.5 2075.06 502.33Q2075.06 502.33 2075.06 502.33" opacity="0.15"></path><path d="M2020.04 607.53C2077.3 628.42 2114.49 649.02 2127.38 669.25 2115.12 689.4 2078.85 708.99 2023.18 727.83 1954.76 746.3 1881.39 763.67 1811.38 779.62 1731.26 801.47 1702.49 832.78 1755.13 840.71 1809.78 843.59 1870.54 843.31 1930.39 839.8 2003.67 831.34 2039.94 801.35 1994.56 783.21 1942.29 773.03 1878.76 764.14 1809.4 757.82 1739.36 756.5 1674.39 760.01 1619.08 769.69 1576.84 786.82 1550.16 811.65 1539.72 844.81 1545.54 885.7 1565.39 934.36 1596.29 989.95 1635.92 1049.79 1679.19 1113.05 1722.04 1177.27 1762.03 1238.52 1794.49 1295.08 1816.88 1343.82 1828.29 1381.59 1826.76 1406.76 1812.36 1417.51 1785.91 1413.95 1748.48 1396.06 1702.16 1365.27 1648.59 1325.98 1590.67 1280.59 1530.99 1233.75 1471 1192.17 1413.7 1159.29 1360.88 1139.96 1313.27 1138.49 1272.63 1156.12 1239.44 1193.4 1213.81 1248.23 1195.77 1317.09 1184.69 1394.52 1180.48 1472.89 1181.72 1545.57 1187.22 1605.14 1197.15 1645.28 1209.24 1662.08 1222.32 1653.63 1237.02 1622.19 1250.9 1571.35 1263.14 1507.96 1274.8 1442.36 1283.72 1382.81 1289.56 1338.69 1293.59 1318.33 1294.16 1325.25 1291.35 1360.47 1286.37 1420.57 1278.17 1498.47 1267.07 1584.15 1254.02 1665.62 1238.52 1731.78 1221 1772.84 1202.01 1783.02 1181.51 1760.67 1159.93 1709.17 1137.39 1637.95 1114.23 1557.79 1090.79 1482.27 1066.82 1425.5 1042.92 1396.72 1019.34 1401.89 995.54 1441.34 972.29 1508.77 949.74 1593.24 927.14 1680.37 905.36 1755.02 884.47 1803.68 863.59 1817.69 843.85 1794.25 825.21 1738.08 806.51 1659.27 788.79 1571.45 771.91 1489.58 754.81 1427.09 738.33 1393.85 722.25 1394.31 705.63 1428 689.06 1487.78 672.22 1562.83 654.42 1641.48 635.87 1709.5 616.21 1755.92 595.07 1774.07 572.27 1760.16 547.44 1716.4 520.65 1648.9 491.35 1567.14 459.27 1482.37 425.02 1405.26 387.81 1345.78 347.59 1310.48 305.56 1302.74 260.9 1321.64 213.97 1362.68 166.46 1420.12 117.8 1484.09 68.8 1545.32 21.43 1596.7 -24.43 1629.97 -67.62 1640.93 -106.39 1628.36 -140.37 1592.75 -168.34 1537.91 -189.45 1468.69 -203.05 1392.11 -208.47 1315.22 -206.34 1243.75 -196.19 1184.06 -178.45 1140.02 -155.51 1113.84 -127.49 1106.16 -96.15 1115.41 -65.12 1139.96 -35.23 1175.09 -9.02 1216.18 9.92 1260.32 20.62 1301.42 21.04 1335.6 9.39 1361.23 -14.43 1374.58 -50.49 1374.74 -97.54 1361.99 -153.96 1336.36 -217.18 1299.58 -283.25 1252.97 -349.02 1199.33 -410.4 1141.33 -463.04 1080.15 -503.88 1019.32 -529.92 960.92 -539.69 905.34 -532.43 855.19 -508.82 811.26 -472.14 773.29 -424.99 742.24 -371.95 717.73 -319.58 699.42 -272.22 686.68 -235.25 678.52 -214.02 675.04 -210.79 674.5 -227.24 675.84 -263.1 679.86 -315.68 684.25 -380.79 688.22 -452.43 693.22 -524.08 696.8 -588.67 698.52 -655.77 700.01 -651.17 690.47 -580.73 679.26 -516.83 670.59 -448.61 659.63 -384.31 646.47 -332.77 633.1 -299.63 617.73 -289.46 600.46 -304.44 583.12 -342.69 564 -399.95 543.11 -469.48 522.23 -541.72 499.83 -607.74 475.93 -660.41 451.96 -692.58 426.35 -700.66 399.05 -684.27 371.53 -644.95 342.12 -587.45 310.73 -518.26 278.97 -445.01 245.08 -375.57 209.04 -317.04 172.65 -275.2 134.16 -253.62 93.74 -254.1 53.36 -275.23 11.49 -313.64 -31.39 -365.45 -73.24 -423.58 -115.13 -481.43 -156.21 -533.82 -194.62 -574.04 -230.72 -598.01 -263.43 -603.87 -291.46 -590.11 -314.47 -557.99 -331.43 -510.06 -342.18 -450.16 -345.93 -383.15 -342.25 -313.61 -332.61 -246.98 -316.26 -187.74 -293.94 -139.25 -268.81 -104.41 -240.71 -84.42 -211.72 -79.8 -185.91 -89.24 -163.89 -110.52 -148.34 -142.01 -142.61 -179.39 -147.46 -219.04 -164.58 -258.93 -194.61 -294.43 -237.24 -322.84 -291.51 -343.15 -354.35 -352.66 -423.47 -350.79 -494.98 -337.87 -563.44 -313.92 -625.29 -280.22 -675.89 -237.9 -711.19 -189 -728.87 -135.65 -727.36 -78.95 -707.99 -21.65 -672.25 34.39 -624.01 88.62 -570.35 138.76 -516.27 183.89 -468.79 223.97 -435.69 257.93 -421.06 285.8 -428.7 307.76 -459.86 324.05 -512.56 335.35 -582.56 341.65 -662.42 344.24 -744.21 344.02 -818.64 338.13 -894.22 320.28 -876.83 311.99 -790.79 306.62 -719.59 303.09 -650.52 301.64 -594.8 300.69 -562.81 302.08 -559.77 305.82 -587.86 310.29 -644.22 317.06 -721.25 325.99 -807.95 335.59 -891.06 347.14 -957.96 360.46 -997.78 374.23 -1004.37 389.53 -976.28 406.17 -917.94 423.04 -840.2 441.05 -755.51 460.09 -678.78 479.19 -624.69 499.2 -602.29 520.09 -616.28 540.97 -664.93 562.48 -738.51 584.63 -823.55 606.83 -905.94 629.79 -970.26 653.6 -1005.59 677.63 -1006.64 702.72 -972.74 729 -909.85 755.73 -828.22 783.92 -740.95 813.71 -661.67 844.15 -602.1 876.42 -570.72 910.62 -570.95 945.54 -602.05 982.44 -657.32 1021.28 -727 1060.61 -800.9 1101.63 -866.11 1144.07 -912.66 1186.27 -934.31 1229.21 -926.79 1272.3 -891.13 1313.88 -831.71 1354.45 -756 1393.19 -673.4 1428.67 -593.02 1460.88 -524.35 1488.86 -474.28 1511.85 -447.19 1529.35 -444.56 1540.66 -464.47 1546.05 -503.83 1544.83 -555.51 1536.94 -612.14 1523.99 -667.83 1505.48 -714.19 1482.31 -745.8 1457.32 -759.87 1430.5 -753.54 1403.68 -727.42 1380.21 -683.43 1360.59 -625.2 1346.92 -557.57 1341.87 -484.7 1345.94 -412.59 1360.4 -345.93 1385.9 -287.77 1422.13 -241.84 1468.47 -209.63 1522.93 -191.73 1583.79 -187.61 1648.33 -195.49 1712.65 -214.35 1773.98 -240.43 1828.69 -270.61 1873.21 -303.78 1905.14 -335.41 1922.27 -363.06 1924.03 -386.47 1910.17 -402.39 1881.89 -410.02 1842.87 -409.92 1795.67 -400.96 1744.76 -383.81 1696.37 -359.2 1654.3 -327.93 1623.36 -291.35 1608.23 -249.77 1610.63 -205.13 1631.8 -158.77 1671.08 -110.27 1725.75 -61.95 1791.71 -14.69 1863.13 32.53 1933.96 77.6 1997.54 120.16 2047.74 161.56 2079.75 200.12 2090.17 235.91 2078.55 270.27 2045.72 302.05 1995.25 331.52 1933.87 359.8 1867.72 386.21 1804.65 411.08 1753.27 435.18 1719.09 458.19 1706.84 480.4 1719.05 502.24 1754.34 523.62 1809.1 544.72 1877.21 565.73 1950.51 586.65 2020.04 607.53Q2020.04 607.53 2020.04 607.53" opacity="0.07"></path><path d="M1965.04 477.62C2038.54 506.47 2049.03 553.57 1984.87 571.72 1922.44 583 1853.12 592.06 1784.11 598.9 1722.23 605.66 1673.47 610.24 1642.11 612.74 1630.92 615.37 1639.98 616.17 1667.42 615.45 1710.6 615.41 1763.81 614.45 1821.24 613.11 1878.01 613.48 1927.31 614.49 1964.38 616.92 1986.42 622.49 1990.44 630.76 1976.11 642.62 1944.69 659.08 1898.39 680.28 1840.95 706.89 1776.32 738.79 1709.47 776.45 1645.07 819.88 1586.89 867.59 1538.82 919.88 1503.27 975.74 1481.78 1032.49 1474.69 1089.83 1481.09 1145.76 1500.13 1197.23 1528.72 1243.27 1563.8 1281.63 1603.44 1310.28 1643.16 1328.18 1679.84 1334.12 1712.01 1328.62 1736.11 1311.52 1750.61 1283.92 1755.23 1249.45 1748.72 1209.52 1731.48 1167.6 1704.3 1129.15 1668.2 1096.55 1624.89 1073.8 1575.51 1065.07 1522.43 1071.73 1467.61 1095.24 1411.93 1135.24 1357.87 1189.98 1306.83 1256.37 1259.14 1329.04 1216.49 1403.17 1179.38 1472.62 1147.75 1530.87 1122.08 1573.28 1102.07 1595.68 1087.6 1596.45 1078.02 1575.51 1072.56 1535.24 1071.38 1481.74 1073 1420.52 1076.56 1359.43 1086.03 1289.95 1107 1287.05 1115.43 1363.43 1120.47 1437.38 1123.51 1518.73 1124.39 1597.55 1123.6 1686.2 1109.51 1695.69 1096.59 1614.63 1086.66 1541.08 1074.95 1465.57 1061.63 1399.94 1047.88 1355.62 1032.78 1339.2 1016.48 1354.25 999.98 1399.48 982.48 1468.25 964.11 1550.32 945.68 1632.89 926.48 1702.88 906.54 1748.68 886.61 1762.87 866.18 1742.83 845.24 1692.32 824.24 1619.71 802.63 1536.44 780.3 1455.53 757.77 1389.09 734.33 1346.84 709.84 1334.26 684.92 1352.86 658.71 1398.44 631.05 1463.14 602.74 1537.79 572.74 1609.86 540.94 1668.62 508.37 1706.35 473.88 1716.66 437.47 1698.22 400.42 1653.5 361.6 1588.06 321.18 1510.29 280.67 1429.26 239.09 1354.85 196.9 1295.27 155.7 1256.46 114.85 1241.83 75.08 1251.28 37.87 1282.91 3.04 1330.81 -28.51 1387.98 -55.78 1448.2 -78.45 1502.57 -95.73 1544.59 -107.47 1570.28 -113.06 1575.54 -112.14 1559.79 -105.76 1524.34 -93.31 1472.13 -75.27 1407.88 -53.87 1336.15 -28.91 1263.25 -1.75 1194.57 24.54 1134.02 49.67 1085.96 71.7 1052.52 92.34 1033.52 79.69 1082.6 40.71 1134.47 1.36 1173.25 -46.95 1209.77 -102.66 1241.07 -162.87 1266.28 -225.46 1282.06 -287.27 1287.54 -344.52 1283.01 -394.59 1267.83 -434.39 1242.99 -461.54 1209.34 -474.48 1168.46 -472.29 1122.2 -456.03 1071.18 -426.51 1018.04 -386.11 964.45 -339.49 910.41 -289.66 858.47 -241.25 809.59 -200.02 763.2 -169.15 721.07 -152.34 683.38 -152.63 649.37 -170.44 619.8 -205.43 594.27 -255.45 572.28 -316.88 553.64 -384.89 537.7 -453.57 524.47 -517.17 513.03 -569.84 502.73 -615.61 490.06 -576.29 465.95 -499.26 452.47 -436.09 443.54 -371.68 433.14 -313.19 421.05 -268.1 409.12 -240.84 395.32 -234.96 379.53 -251.97 363.77 -289.92 345.95 -344.95 326.02 -411.17 306.09 -480.2 284.27 -544.22 260.66 -597.03 237.08 -632.02 211.77 -645.58 184.88 -636.88 158.14 -606.43 130 -557.67 100.69 -495.7 71.82 -426.72 42.13 -357.61 11.99 -294.83 -17.17 -244.21 -46.2 -209.96 -74.55 -194.89 -101.16 -199.36 -126.26 -221.89 -149.2 -260.28 -169.43 -309.36 -186.58 -363.79 -199.97 -419.13 -209.83 -468.82 -215.23 -508.16 -215.77 -534.31 -212.62 -543.92 -204.62 -536.16 -191.89 -511.75 -176.67 -472.12 -157.94 -420.33 -136.63 -359.68 -115.78 -294.61 -94.88 -229.42 -75.61 -167.63 -61.1 -113.28 -51.47 -69.07 -48.54 -36.84 -54.42 -17.72 -69.43 -11.58 -94.54 -18.19 -129.66 -35.44 -174.54 -61 -228.26 -93.49 -288.09 -129 -352.55 -164.66 -418.68 -199.22 -482.12 -228.94 -540.42 -251.93 -589.94 -271.09 -638.75 -248.85 -636.87 -208.91 -587.93 -172.23 -542.79 -129.7 -492.76 -82.92 -443.2 -32.52 -401.12 19.31 -370.38 71.14 -355.68 122.8 -360.68 172.23 -385.97 218.61 -430.95 262.14 -492.26 301.49 -565.17 336.49 -643.17 367.49 -718.12 394.06 -783.04 416.51 -830.9 435.07 -856.58 450.14 -857.38 462.28 -833.19 471.35 -788.23 478.37 -727.62 483.97 -659.54 489.01 -568.06 496.29 -511.06 500.66 -568.62 503.37 -636.86 507.38 -717.54 512.89 -799.88 521.77 -898.46 548.27 -923.71 566.1 -842.56 578.64 -765.59 593.02 -685.31 609.26 -614.68 625.5 -566.16 643.58 -547.12 663.52 -561.28 683.45 -607.07 705 -676.04 728.13 -756.62 751.26 -836.7 775.99 -902.5 802.28 -943.79 828.61 -954.91 856.5 -933.6 885.91 -883.45 915.32 -811.98 946.2 -729.7 978.43 -648.44 1010.52 -579.27 1043.77 -531.48 1077.96 -510.67 1111.65 -519.01 1145.89 -553.7 1180.31 -608.55 1213.58 -676.13 1246.4 -745.36 1278.23 -806.36 1308.01 -851.7 1335.95 -874.09 1361.43 -870.65 1383.84 -841.83 1402.89 -790.54 1417.99 -722.77 1429.19 -645.47 1435.84 -567.23 1437.56 -495.95 1431.75 -418.15 1392.7 -394.15 1362.68 -442.83 1341.57 -491.52 1319.93 -544.18 1299.18 -594.68 1275.33 -654.84 1263.01 -678.44 1281.7 -636.09 1306.13 -588.49 1339.49 -530.39 1381.47 -465.82 1430.59 -397.77 1485.81 -331.09 1545.22 -269.27 1605.74 -214.32 1665.46 -169.27 1721.49 -135.24 1770.59 -112.66 1810.71 -101.45 1839.48 -100.45 1855.52 -109.16 1857.88 -125 1846.4 -145.74 1822.95 -170.95 1788.63 -197.04 1746.14 -222.04 1700.24 -246.15 1653.71 -266.18 1610.85 -281.17 1565.53 -294.09 1567.01 -281.06 1620.29 -256.52 1674.24 -233.84 1737.73 -207.14 1806.02 -177.33 1873.41 -144.38 1934.61 -109.6 1984.25 -73.81 2018.02 -36.3 2032.88 1.19 2027.3 38.13 2002.55 75.76 1960.53 112.22 1905.44 147.19 1844.03 182.29 1781.83 215.63 1725.7 247.11 1682.78 278.5 1657.23 307.99 1652.48 335.53 1669.99 362.98 1707.96 388.55 1762.76 412.23 1828.78 435.88 1898.81 457.69 1965.04 477.62Q1965.04 477.62 1965.04 477.62" opacity="0.25"></path><path d="M1910.04 259.74C1962.8 278.73 1999.33 296.1 2016.19 311.92 2012.35 327.8 1987.87 342.24 1945.42 355.39 1889.32 368.77 1824.88 381.1 1758.21 392.64 1695.34 404.74 1641.84 416.44 1602.14 428.11 1579.48 440.87 1575.08 454.17 1588.48 468.49 1618.42 484.57 1660.93 502.37 1711.56 522.4 1766.42 544.87 1819.4 570.22 1865.71 598.88 1902.19 630.38 1924.72 665.5 1931.5 704.36 1922.3 745.71 1897.21 790.4 1858.16 838.02 1807.7 886.61 1749.3 936.73 1686.87 987.33 1623.84 1036.06 1564.34 1082.93 1511.61 1126.42 1468.04 1164.44 1435.78 1196.46 1415.72 1221.02 1408.35 1237.22 1412.81 1244.38 1427.61 1241.92 1451.81 1230.96 1482.26 1211.28 1516.31 1183.93 1552.66 1152.19 1587.54 1116.8 1618.66 1080.4 1664.82 1012.98 1616.59 1066.82 1563.47 1146.27 1520.49 1210.91 1473.81 1280.14 1424.92 1349.36 1374.24 1412.99 1323.86 1466.99 1274.89 1506.93 1227.36 1529.64 1182.94 1533.38 1142.17 1517.76 1104.77 1485.42 1071.66 1438.99 1042.83 1383.42 1017.95 1326.22 997.13 1272.8 979.94 1229.88 966.32 1204.11 955.63 1198.64 947.3 1215.69 941.63 1254.83 937.47 1312.81 934.26 1384.25 932.74 1461.43 931.41 1536.37 929.85 1600.51 928.45 1657.4 921.26 1608.56 914.41 1515.87 909.4 1443.97 902.72 1375.98 894.31 1321.75 885.86 1290.11 875.65 1285.39 863.68 1309.17 851.66 1359 837.9 1428.22 822.39 1507.4 806.87 1585.3 789.62 1650.68 770.64 1693.68 751.65 1707.96 731.15 1691.12 709.18 1646.1 687.19 1579.75 663.7 1501.56 638.74 1422.7 613.74 1353.91 587.23 1304.4 559.27 1280.27 531.27 1284.39 501.83 1315 471.03 1366.95 440.31 1433.51 408.37 1504.31 375.39 1569.6 342.76 1621.62 309.41 1652.53 275.63 1658.49 242.76 1639.03 210 1595.96 177.82 1534.47 147.34 1461.12 118.19 1384.19 90.96 1311.79 66.39 1250.75 44.59 1207.04 26.15 1183.96 11.28 1182.88 0.47 1202.24 -5.81 1238.37 -8.15 1287.43 -5.76 1342.32 1.39 1396.62 11.92 1445.64 26.58 1482.89 44.85 1504.67 64.56 1509.41 86.18 1495.7 108.62 1464.77 129.28 1418.73 148.25 1361.14 164.07 1296.34 174.4 1227.9 179.04 1160.99 176.73 1099.55 166.18 1046.16 147.33 1003.97 119.79 974.25 83.99 957.59 40.44 953.58 -9.81 960.78 -64.6 978.37 -122.53 1003.16 -181.3 1032.46 -237.77 1065.27 -290 1097.54 -335.31 1126.97 -392.68 1176.69 -314.6 1148.09 -247.59 1105.14 -202.09 1069.19 -159.9 1029.41 -124.88 987.05 -101.28 941.96 -90.89 896.19 -95.6 850.71 -116.29 804.77 -151.96 760.39 -200.78 718.06 -259.43 676.69 -323.94 637.92 -389.52 601.83 -450.86 567.24 -503.26 535.31 -542.25 505.85 -564.68 477.83 -568.48 451.93 -553.15 427.85 -520.78 404.85 -473.74 383.22 -416.43 362.64 -355.33 342.72 -295.55 323.45 -243.21 304.56 -204.52 285.97 -182.87 267.48 -180.94 248.91 -199.7 230.43 -237.19 211.72 -289.95 192.73 -352.88 173.75 -418.64 154.71 -480.48 135.7 -533.02 116.77 -570.24 98.01 -588.63 79.62 -587.02 61.53 -565.15 44.1 -525.33 27.61 -471.44 11.77 -408.36 -2.71 -341.86 -15.52 -277.62 -27.24 -221.17 -36.83 -176.97 -43.96 -142.74 -51.08 -183.77 -48.39 -247.2 -38.37 -298.71 -29.74 -350.57 -18.68 -398.14 -5.64 -452.54 13.58 -472.92 47.63 -435.02 56.49 -392.59 55.88 -340.45 49.94 -281.93 37.55 -220.01 17.87 -158.58 -9.28 -100.9 -44.23 -49.35 -86.11 -6.62 -134.8 25.82 -189.28 47.09 -246.96 57.02 -306.94 56.3 -366.9 45.35 -423.37 26.35 -474.78 1.36 -518.42 -28.69 -551.67 -60.49 -573.14 -91.82 -581.37 -122.05 -576.54 -148.08 -558.64 -168.53 -528.93 -183.37 -491.16 -190.74 -447.31 -190.39 -401.29 -182.78 -358.9 -167.57 -323.09 -145.45 -298.16 -117 -288.34 -83.12 -295.08 -44.96 -319.58 -2.85 -361.12 41.57 -417.45 87.22 -484.84 134.16 -557.51 180.62 -630.06 225.82 -696.06 270.22 -749.14 312.3 -784.7 351.73 -799.08 389.15 -791.45 423.53 -762.45 454.92 -715.32 483.92 -656.84 510.07 -593.05 533.65 -532.04 555.03 -482.88 574.28 -451.34 591.78 -442.58 607.57 -459.25 622.14 -500.04 635.87 -561.09 648.43 -635.42 660.64 -714.42 672.82 -788.31 690.21 -866.13 727.06 -853.4 747.47 -765.96 761.26 -690.85 776.24 -615.51 792.5 -551.04 808.73 -507.91 826.31 -492.02 845.29 -506.28 864.28 -549.27 884.44 -613.68 905.71 -689.68 926.95 -766.96 949.22 -833.35 972.41 -879.44 995.44 -899.48 1019.23 -890.09 1043.59 -852.9 1067.57 -793.11 1091.87 -718.67 1116.2 -639.44 1139.82 -565.25 1163.1 -505.39 1185.69 -466.65 1207.1 -453.2 1227.34 -465.46 1246 -500.54 1262.94 -553.97 1277.77 -617.37 1290.08 -682.21 1303.78 -763.74 1311.82 -804.46 1305.52 -753.17 1298.15 -694.81 1287.7 -625.19 1274.47 -551.06 1260.44 -478.54 1244.7 -414.45 1228 -363.73 1205.25 -322.06 1173.61 -354.26 1170.83 -413.54 1176.94 -461.64 1189.45 -509.09 1209 -551.32 1235.82 -585.73 1269.8 -607.94 1310.69 -616.23 1357.18 -610.33 1408.69 -589.87 1463.8 -556.35 1520.02 -511.37 1576.1 -457.83 1629.84 -398.83 1678.5 -336.39 1720.55 -274.38 1753.93 -215.48 1777.06 -160.96 1788.91 -113.57 1788.76 -74.37 1777.42 -43.67 1755.15 -22.06 1723.36 -9.01 1685.45 -4.3 1643.11 -6.55 1599.55 -14.33 1559.41 -27.58 1524.94 -43.73 1499.44 -61.28 1486.35 -80.72 1486.8 -99.21 1501.91 -115.74 1531.75 -131.3 1574.85 -143.5 1628.96 -151.95 1690.45 -157.91 1755.44 -159.72 1819.29 -157.53 1877.07 -152.5 1924.58 -143.77 1957.95 -131.8 1974.7 -117.39 1973.3 -100.38 1953.76 -81.31 1918.6 -60.49 1870.34 -38.3 1813.43 -15.26 1754.26 8.86 1697.64 33.28 1649.3 57.6 1615.05 82.48 1597.85 106.85 1600 130.45 1622.15 154.28 1662.2 177.09 1716.65 198.71 1780.39 220.38 1847.11 240.76 1910.04 259.74Q1910.04 259.74 1910.04 259.74" opacity="0.31"></path><path d="M1853.92 200.4C1904.61 218.44 1940.89 236.94 1959.67 255.92 1959.9 274.96 1941.22 294.63 1905.55 315.03 1856.24 335.68 1797.49 357.3 1734.4 380.08 1672.12 403.37 1615.71 428.12 1569.51 454.52 1536.94 481.71 1520.03 510.82 1519.42 542.01 1535.01 574.11 1564.41 608.39 1604.58 644.87 1652.73 682.05 1703.79 721.19 1753.45 762.03 1798.66 802.83 1834.87 844.6 1859.37 886.76 1870.92 927.46 1867.95 967.28 1850.71 1005.3 1820.37 1039.9 1778.62 1071.1 1728.13 1097.86 1671.48 1119.24 1612.14 1134.77 1553.31 1143.66 1497.51 1146.15 1447.78 1141.59 1406.15 1129.96 1373.98 1112.98 1352.32 1090.27 1341.27 1062.91 1340.87 1033.96 1349.86 1003.64 1366.75 974.02 1390.81 948.65 1419.23 928.26 1449.93 915.09 1482.13 911.73 1512.74 918.75 1540.02 937.27 1563.71 967.44 1581.42 1008.73 1592.42 1059.99 1596.95 1118.42 1593.95 1181.89 1583.67 1247.02 1566.62 1309.33 1543.1 1365.78 1513.97 1412.52 1479.72 1446.19 1441.55 1464.75 1400.55 1466.65 1356.9 1452.52 1312.21 1423.18 1267.43 1381.17 1222.33 1331.67 1178.5 1278.36 1136.53 1226.7 1095.9 1183.35 1057.88 1152.19 1022.64 1137.48 989.58 1142.33 959.47 1166.97 932.17 1210.39 907.21 1269.16 884.81 1338.44 864.68 1411.93 846.58 1482.18 830.28 1542.52 815.42 1586.57 802.09 1609.74 789.71 1609.49 777.91 1585.67 767.14 1541.85 756.52 1482.52 745.75 1414.79 735.6 1348.1 724.97 1289.91 713.66 1248.02 702.65 1228.88 690.73 1234.9 677.75 1266.17 664.9 1319.44 650.85 1388.25 635.52 1464.1 620.22 1537.22 603.57 1598.07 585.53 1638.32 567.5 1652.62 548.29 1638.77 527.97 1599.03 507.68 1538.94 486.34 1466.28 464.06 1390.46 441.91 1320.83 418.96 1265.92 395.37 1231.94 372.09 1222.71 348.41 1238.36 324.55 1276.02 301.3 1331.26 278.21 1396.02 255.59 1462.06 234 1522.31 213.32 1568.54 193.92 1595.45 176.06 1600.52 159.98 1582.47 146.07 1543.4 134.19 1487.18 124.94 1419.51 118.65 1347.08 114.69 1276.21 113.94 1213.63 116.54 1164.46 125.32 1125.62 160 1165.74 183.69 1229.87 199.75 1281.09 216.16 1331.34 232.02 1375.8 250.64 1422.78 264.4 1422.59 254.24 1374.53 238.72 1326.35 216.43 1269.84 187.16 1208.51 151.42 1144.94 109.5 1083.24 62.18 1026.34 11.25 975.93 -42.42 934.57 -97.11 903.23 -150.29 882.33 -200.62 871.84 -245.98 870.83 -284.16 878.93 -313.84 893.95 -333.51 913.99 -342.51 938.66 -340.29 964.81 -326.9 990.63 -304.04 1016.2 -272.44 1038.58 -234.1 1056.72 -192.73 1071.21 -150.16 1080.08 -109.6 1083.16 -62.02 1077.43 -36.1 1032.13 -66.37 995.64 -104.09 966.69 -152.78 935.35 -209.71 902.4 -271.09 867.4 -333.11 831.83 -391.44 796.3 -441.78 759.84 -480.58 724.12 -504.76 689.5 -512.74 654.66 -503.62 621.28 -478.01 589.53 -438.77 557.89 -388.5 527.98 -331.5 499.85 -273.69 471.88 -219.38 445.64 -173.64 421.12 -141.54 396.71 -125.55 373.92 -127.59 352.73 -148.18 331.59 -185.37 311.98 -236.06 293.95 -295.82 275.91 -358.29 259.66 -417.67 245.18 -488.65 224.45 -527.52 192.51 -489.24 181.56 -443.75 175.11 -387.67 170.7 -325.71 168.33 -262.68 166.06 -203.55 165.73 -152.67 167.18 -101.19 169.74 -96.29 179.21 -139.21 183.79 -181.36 184.73 -228.59 184.43 -276.91 182.13 -323.49 176.38 -363.69 167.46 -394.55 154.58 -414.58 137.05 -421.48 114.67 -414.86 86.95 -395.27 54.25 -363.52 16.21 -321.55 -27.01 -271.4 -73.87 -215.94 -124.52 -158.08 -177.89 -100.07 -231.51 -45.04 -284.97 4.74 -336.47 47.78 -383.34 82.32 -424.68 107.63 -458.58 126.39 -490.77 107.93 -486.84 77.69 -451.5 51.74 -418.23 24.34 -379.61 -2.83 -338.53 -29.6 -299.69 -53.34 -265.08 -72.96 -238.19 -88.71 -222.92 -98.79 -220.64 -102.91 -233.09 -101.59 -260.77 -94.13 -302.77 -80.9 -357.24 -62.42 -420.48 -38.99 -488.86 -11.36 -557.53 20.2 -620.79 54.7 -674.24 91.32 -713.33 130.19 -734.83 169.94 -736.95 209.9 -719.42 250.61 -684.93 290.6 -636.31 329.47 -578.66 368.02 -519.45 404.94 -464.26 440.05 -419.76 474.29 -392.41 506.59 -385.32 536.96 -400.57 566.32 -437.66 593.86 -493.28 619.73 -562.12 644.71 -636.75 668.25 -709.3 690.56 -771.49 712.2 -816.12 732.88 -837.9 752.79 -833.95 772.29 -805.27 791.26 -754.79 809.85 -688.73 828.26 -616.48 846.46 -546.51 864.55 -488.23 882.59 -450.3 900.62 -437.36 918.65 -451.66 936.69 -491.91 954.52 -551.85 972.1 -623.17 989.63 -697.2 1006.82 -763.32 1023.54 -813.02 1040.08 -840.72 1055.98 -842.3 1071.07 -817.88 1085.76 -770.7 1099.39 -706.38 1111.76 -632.72 1123.47 -558.04 1133.64 -490.92 1142.06 -438.51 1149.57 -406.1 1155.1 -396.46 1158.46 -409.45 1160.81 -443.32 1160.89 -492.7 1158.66 -551.22 1155.56 -613 1150.29 -669.8 1142.99 -715.34 1135.38 -745.55 1126.25 -756.23 1116 -746.4 1106.5 -717.01 1096.79 -670.46 1087.53 -611.03 1080.53 -543.28 1075.21 -473.18 1072.37 -406.23 1073.47 -346.77 1078.31 -299.3 1087.63 -266.39 1102.19 -249.51 1122.05 -248.64 1147.55 -262.25 1178.49 -288.93 1214.9 -324.69 1256.46 -365.7 1301.89 -409.54 1350.91 -451.11 1402.43 -487.05 1454.35 -515.81 1505.95 -534.03 1555.53 -540.56 1600.9 -535.44 1641 -518.26 1674.18 -490.16 1699.05 -452.25 1714.72 -406.57 1720.37 -355.39 1716.36 -299.97 1702.5 -243.32 1679.52 -187.55 1649.79 -133.37 1614.19 -83.33 1574.97 -38.56 1535.88 0.86 1498.55 33.69 1465.85 59.92 1433.86 86.59 1443.48 103.93 1489.33 99.21 1534.87 91.64 1589.03 82.69 1648.82 73.25 1710.36 62.35 1770.08 52.21 1823.95 43.42 1884.07 31.21 1909.7 19.01 1871.52 19.69 1829.22 21.89 1777.87 26.49 1721.81 33.32 1666.81 40.93 1616.87 50.5 1576.66 61.8 1550.72 73.61 1541.05 86.86 1549.07 101.34 1574.82 116.07 1616.1 131.79 1669.59 148.37 1730.77 165.01 1794.16 182.37 1853.92 200.4Q1853.92 200.4 1853.92 200.4" opacity="0.27"></path><path d="M1800.04 367.51C1848.15 384.6 1883.4 403.4 1903.09 423.87 1906.27 444.35 1892.31 466.51 1862.58 490.3 1766.86 537.93 1648.14 592.01 1541.18 651.71 1474.87 710.48 1464.51 772.95 1507.7 836.4 1591.03 894.37 1685.71 947.68 1764.15 991.31 1807.83 1021.56 1801.92 1035.41 1748.27 1029.49 1657.62 1008.44 1548.27 970.71 1440.84 921.97 1351.25 877.34 1293.07 841.89 1270.07 828.47 1281.75 848.7 1318.64 904.96 1368.69 996.26 1424.76 1108.85 1471.4 1227.33 1500.77 1328.45 1511.61 1389.46 1498.76 1397.81 1464.8 1350.68 1412.77 1266.97 1347.39 1170.53 1274.7 1096.37 1195.92 1077.74 1118.24 1126.04 1045.01 1234.38 974.08 1370.29 910.48 1490.75 854.22 1552.48 801.99 1534.08 755.94 1442.37 714.68 1314.89 675.86 1210.33 639.73 1173.55 605.05 1226.16 587.96 1281.7 570.97 1349.32 554 1421.44 537.08 1489.71 520.08 1546.12 503 1583.68 485.91 1597.92 468.93 1586.84 452.11 1552.16 435.33 1498.28 418.8 1431.48 402.6 1359.57 370.73 1232.12 341.27 1169.51 315.64 1193.34 292.45 1290.8 275.2 1414.61 265.43 1511.3 259.68 1543.81 262.6 1495.93 274.3 1385.97 288.31 1249.89 308.25 1132.12 330.92 1065.4 347.49 1064.1 358.4 1119.59 357.77 1205.89 339.06 1296.42 301.04 1357.32 241.31 1371.12 163.05 1334.41 69.48 1253.34 -31.37 1146.18 -126.21 1029.55 -205.75 925.25 -257.78 846.25 -275.13 797.92 -255.01 781.72 -201 790.79 -129.15 821.09 -52.91 859.16 7.25 895.48 30.42 929.54 8.48 950.36 -60.24 956.27 -163.73 951.07 -280.65 931.79 -383.27 901.83 -445.75 863.86 -451.71 820.24 -398.58 774.51 -304.81 725.63 -196.15 678.18 -107.19 634.19 -80.84 611.96 -69.44 590.86 -74.32 571.04 -95.73 551.19 -131.84 532.68 -179.95 515.59 -236.3 498.5 -295.43 483.04 -352.37 469.15 -403.25 455.22 -443.21 442.79 -469.17 431.74 -473.82 409.17 -415.04 391.03 -311.61 375.47 -192.84 356.75 -91.15 337.06 -31.46 313.04 -26.53 281.01 -71.93 239.59 -150.1 185.57 -240.87 120.45 -315.47 41.88 -354.74 -48.27 -350.69 -140.7 -301.14 -233.25 -216.78 -316.21 -111.49 -377.96 -4.17 -412.64 89.17 -413.21 158.47 -383.11 196.56 -325.73 204.65 -253.89 185.18 -191.52 148.56 -153.1 105.09 -156.73 58.87 -210.87 22.49 -309.81 1.05 -435.92 -6.27 -557.8 5 -646.41 32.61 -675.61 73.92 -639.38 126.15 -549.47 184.86 -438.43 249.89 -353.52 315.72 -327.87 379.52 -379.65 444.32 -495.62 504.67 -635.74 559.76 -746.4 614.25 -783.43 663.44 -730.9 707.4 -610.22 729.26 -541.69 749.91 -477.44 769.36 -425.27 788.79 -392.29 807.06 -382.06 824.14 -396.28 841.23 -433.83 856.93 -489.36 871.25 -555.93 885.55 -626.34 898.42 -691.4 909.84 -743.57 932.45 -789.45 948.84 -742.63 958.8 -624.9 966.79 -430.11 958.84 -683.52 976.4 -644.65 1004.9 -540.01 1048.09 -410.47 1108.09 -291.16 1182.2 -208.44 1269.44 -178.74 1364.56 -199.38 1456.91 -260.14 1540.46 -335.97 1604.72 -403.78 1641.41 -450.29 1645.98 -459.64 1617.03 -430.98 1564.04 -368.68 1494.76 -282.36 1425.05 -185.07 1376.28 -83.66 1359.84 8.53 1386.27 85.69 1456.02 147.73 1558.47 191.63 1674.29 220.61 1811.33 239.9 1776.42 246.59 1628.15 252.69 1513.55 263.18 1551.2 303.03 1625.04 321.98 1683.7 335.26 1743.69 350.43 1800.04 367.51Q1800.04 367.51 1800.04 367.51" opacity="0.84"></path><path d="M1745.04 571.05C1825.72 603.33 1852.34 639.07 1818.94 677.46 1736.27 715.08 1626.42 753.76 1518.54 791.52 1438.88 826.01 1405.07 856.28 1421.07 879.42 1481.2 895.62 1565.17 901.17 1650 894.13 1717.73 879.54 1748.92 853.66 1737.15 819.28 1684.93 787.17 1600.92 757.62 1500.44 739.02 1397.49 741.81 1308.14 768.74 1242.46 824.32 1205.51 905.36 1197.76 1006.8 1213.94 1116.9 1250.22 1216.77 1294.8 1292.72 1338.6 1329.16 1378.99 1320.32 1405.82 1267.88 1416.31 1184.89 1412.1 1099.49 1390.91 1034.26 1355.75 1014.33 1308.8 1053.71 1253.56 1146.84 1194.02 1272.64 1129.71 1394.92 1065.93 1478.39 1004.96 1495.19 943.61 1441.91 886.85 1336.17 835.22 1217.41 784.3 1135.46 738.33 1122.18 697.17 1187.89 656.33 1310.16 619.75 1441.77 587.48 1528.68 555.21 1534.56 528 1456.61 505.97 1328.67 461.94 1203.4 454.53 1476.92 466.13 1410.66 469.74 1296.87 470.45 1169.59 464.4 1063.37 446.56 1002.45 416.31 997.68 370.78 1041.32 310.54 1118.74 235.68 1201.57 149.11 1266.13 59.13 1299.16 -29.75 1288.74 -108.34 1238.1 -166.81 1154.99 -199.35 1054 -200.51 950.55 -172.93 853.7 -119.52 776.1 -50.18 721.65 43.05 685.76 47.09 716.74 -73.04 749.43 -181.51 771.49 -286.5 785.62 -364.84 790.6 -399.06 791.7 -380.66 783.71 -313.46 768.02 -218.03 749.44 -117.68 725.44 -41.39 697.65 -14.38 669 -44.26 638.2 -124.95 605.92 -234.54 573.65 -338.29 540.67 -406.75 506.45 -423.21 471.38 -381.62 433.44 -294.38 391.16 -183.88 345.99 -77.37 294.19 0.94 234.54 35.14 171.01 21.59 99.56 -31.18 21.57 -110.26 -55.57 -191.98 -133.07 -256.57 -205.08 -292.32 -263.44 -288.3 -305.15 -245.84 -323.87 -171.6 -319.18 -77.4 -289.62 22.47 -238.95 117.37 -181.67 194.95 -125 249.39 -84.18 278.45 -75.83 283.61 -105.68 270.32 -176.82 241.1 -279.48 206.04 -398.25 172 -509.28 139.26 -586.53 116.62 -613.04 106.08 -580.93 104.97 -503.5 116.65 -402.52 139.15 -312.38 169.97 -269.52 208.07 -291.02 250.54 -377.41 297.36 -503.83 345.17 -630.39 391.93 -712.7 440.15 -721.55 485.53 -652.65 527.02 -531.69 568.76 -410.12 606.03 -335.43 638.3 -341.28 670.57 -428.18 697.09 -556.52 718.21 -672.41 739.59 -731.75 756.15 -708.99 768.8 -614.61 782.91 -483.39 794.88 -362.23 806.62 -290.73 822.7 -289.29 841.93 -351.75 867.03 -450.36 900.47 -552.51 943.32 -619.35 997.43 -629.95 1060.97 -581.25 1135.05 -484.74 1217.53 -365.74 1301.31 -249.15 1384.41 -160.76 1459.81 -113.81 1519.28 -112.12 1558.44 -147.79 1571.67 -205.35 1559.53 -273.15 1522.24 -330.28 1465.45 -365.14 1403.68 -374.55 1345.41 -353.46 1304.77 -306.51 1295.92 -238.17 1323.18 -157.18 1387.72 -72.07 1481.1 15.29 1589.11 95.71 1691.85 166.23 1768.28 229.21 1802.85 280.98 1786.86 323.34 1726.76 358.76 1635.66 388.28 1537.62 414.66 1462.84 437.77 1430.74 461.02 1453.59 486.27 1528.42 510.74 1635.45 538.78 1745.04 571.05Q1745.04 571.05 1745.04 571.05" opacity="0.22"></path><path d="M1689.11 580.47C1766.7 610.84 1797.13 637.54 1774.16 660.14 1704.97 682.1 1605.92 698.79 1500.71 709.21 1385.42 718.28 1413.55 696.25 1524.69 669.36 1631.81 646.66 1653.4 650.62 1557.17 703.77 1465.71 765.15 1369.59 845.37 1280.63 939.91 1206.34 1037.05 1154.14 1129.37 1125.43 1203.9 1120.16 1248.82 1133.54 1257.84 1159.25 1228.11 1195.18 1169.49 1231.57 1092.05 1263.05 1015.16 1290.24 963.85 1306.09 951.96 1309.83 990.08 1304.15 1074.69 1286.98 1189.68 1260.55 1308.5 1226.77 1399.72 1187.21 1439.55 1144.5 1415.28 1098.16 1337.06 1051.6 1227.87 1006.56 1124.66 960.37 1067 917.15 1075.27 877.83 1151.18 838.31 1270.92 803.13 1393.3 772.76 1473.38 742.38 1481.38 717.53 1413.94 697.88 1297.48 670.49 1128.13 634.75 1140.62 621.12 1292.62 608.73 1383.27 594.34 1425.4 575.48 1407.01 549.27 1333.28 515.1 1223.34 470.9 1105.4 417.29 1004.71 353.02 942.89 279.02 927.52 200.72 957.35 119.12 1017.9 39.72 1090.19 -29.44 1160.26 -84.53 1207.86 -119.06 1223.96 -130.16 1207.18 -115.88 1158.21 -77.46 1085.67 -24.36 996.42 37.93 902.84 97.75 814.21 139.49 733.59 155.78 668.52 138.58 619.8 85.93 586.22 3.6 566.48 -96.98 556.47 -198.13 556 -282.43 558.93 -332.67 561.61 -339.38 567.34 -300.28 569 -223.52 565.05 -130.02 561.27 -39.91 550.97 23.25 533.93 40.22 516.71 6.71 492.95 -70.87 462.58 -173.9 432.2 -273.02 395.93 -343.16 353.98 -369.31 311.86 -343.49 263.86 -273.13 210.35 -174.57 157.01 -69.53 99.09 20.13 38.25 77.77 -19.53 94.5 -76.42 71.59 -128.59 15.13 -171.22 -58.11 -202.8 -131.16 -219.1 -192.17 -220.26 -225.87 -203.61 -226.7 -169.8 -195.21 -127.99 -134.75 -79.63 -54.5 -33.83 37.34 -4.76 128.94 2.49 211.37 -20.53 279.98 -76.45 329.31 -161.95 359.18 -267.89 369.99 -376.05 365.7 -470.42 351.34 -531.88 327.53 -548.13 302.26 -515.75 279.62 -442.16 250.31 -308.72 238.72 -249.49 256.44 -388.24 274.76 -512.2 298.39 -617.06 325.67 -669.27 355 -652.8 386.05 -571.77 417.57 -453.42 449.63 -342.97 481.11 -278.6 511.48 -286.6 541.86 -366.68 570.41 -485.98 597.53 -599.71 625.17 -669.62 652.42 -668.95 680.37 -599.56 710.38 -484.63 743.02 -360.93 779.82 -265.58 820.68 -224.17 867.69 -244.21 921.87 -313.17 980.73 -409.72 1046.65 -499.97 1118.54 -557.48 1191.06 -568.5 1264.75 -527.18 1335.38 -444.24 1396.55 -335.72 1446.05 -224.46 1478.7 -129.97 1492.3 -64.38 1484.67 -35.48 1455.88 -40.59 1413.26 -75.31 1359.57 -125.92 1303.59 -179.59 1259.21 -230.68 1232.56 -265.68 1232.71 -280.24 1265.17 -275.41 1328.3 -249.33 1416.41 -206.44 1516.55 -149.38 1614.55 -84.02 1693.28 -15.69 1738.45 56.37 1741.49 125.23 1701 188.67 1628.47 250.56 1537.93 305.76 1451.09 354.51 1392.45 401.38 1375.58 442.99 1407.73 480.19 1483.88 516.76 1586.08 550.09 1689.11 580.47Q1689.11 580.47 1689.11 580.47" opacity="0.49"></path><path d="M1635.04 385.65C1708.62 414.12 1741.18 436.16 1726.75 452.04 1670.02 468.02 1582.67 478.15 1483.47 483.14 1357.76 490.41 1317.83 500.73 1401.01 516.43 1476.15 537.91 1545.55 569.45 1596.51 613.8 1622.66 670.14 1617.11 739.64 1581.44 820.51 1520.28 905.09 1441.42 990.91 1354.66 1069.88 1267.06 1131.92 1188.34 1171.79 1124.08 1182.78 1076.7 1165.19 1048.15 1120.04 1036.5 1054.7 1040.93 986.28 1056.06 925.8 1077.12 889.55 1104.15 891.68 1129.71 935.31 1150.71 1017.69 1169.56 1124.13 1180.55 1235.25 1183.36 1326.56 1181.46 1376.56 1171.85 1373.31 1155.85 1316.63 1136.15 1224.98 1111.98 1122.08 1084.91 1039.5 1056.03 1006.33 1025.96 1033.52 995.81 1116.71 965.2 1232.34 935.41 1345.26 906.94 1418.68 878.46 1428.5 851.97 1371.06 827.11 1266.6 801.79 1147.83 777.21 1050.61 752.38 1001.76 725.75 1013.37 697.15 1077.48 665.19 1171.55 629.53 1270.06 588.55 1341.53 541.11 1367.06 488.95 1341.22 429.84 1268.7 364.22 1167.07 296.47 1056.13 225.51 958.86 154.59 891.26 89.64 861.68 32.12 870.49 -13.04 909.25 -42.14 969.71 -52.68 1034.3 -42.64 1089.7 -15.7 1129.87 27.47 1144.42 81.44 1132.48 134.57 1096.32 181.73 1039.68 213.24 969.79 219.26 890.04 197.21 809.3 145.66 732.89 69.3 660.5 -23.3 597.99 -119.31 545.71 -203.23 501.37 -262.03 465.98 -284.55 437.32 -267.89 414.23 -213.93 394.49 -133 375.79 -44.78 359.49 34.17 341.74 85.27 321.14 94.07 301.09 58.62 277.08 -14.95 248.61 -111.15 220.13 -205.5 187.86 -276.89 152.45 -312.01 117.57 -301.7 80.67 -249.3 43.27 -165.94 8.26 -67.84 -24.75 26.46 -53.33 123.07 -83.93 100.56 -86.42 9.33 -53.61 -59.56 -23.95 -116.51 11.39 -152.31 47.25 -163.6 73.25 -146.33 87.51 -103.58 82.93 -39.82 54.14 37.63 0.49 120.61 -76.98 204.28 -169.71 280.49 -269.85 345.03 -363.94 396.75 -436.33 433.49 -476.85 456.62 -476.94 466.76 -438.99 467.43 -369.32 462.17 -283.79 450.24 -207.55 437.59 -158.23 426.83 -153.25 414.9 -199.64 407.64 -289.65 405.87 -404.23 407.8 -553.23 441.32 -532.44 470.64 -374.9 491.99 -276.06 517 -221.49 545.47 -231.28 573.95 -304.68 605.22 -414.72 639.34 -524.72 673.82 -602.29 711.81 -621.12 753.69 -576.98 796.63 -483.41 844.2 -366.91 896.53 -259.19 949.97 -186.43 1007.81 -164.63 1069.08 -193.74 1129.2 -264.18 1189.97 -352.09 1248.65 -433.13 1300.67 -490.12 1345.4 -506.15 1379.16 -478.64 1399.92 -412.75 1405.56 -320.55 1394.58 -218.51 1370.78 -119.54 1333.68 -38.84 1287.34 16.06 1241.68 42.4 1199.77 41.64 1169.63 20.33 1160.51 -17.88 1174.94 -61.31 1215.88 -102 1281.34 -138.98 1365.89 -163.09 1460.18 -172.67 1550.8 -170.26 1626.03 -153.68 1673.49 -125.81 1686.08 -88.7 1661.02 -45.05 1602.28 1.74 1524.03 52.64 1439.53 102.94 1367.17 150.61 1325.76 199.32 1323.83 243.85 1364.58 283.34 1441.6 322.93 1538.84 357.17 1635.04 385.65Q1635.04 385.65 1635.04 385.65" opacity="0.52"></path><path d="M1579.23 206.51C1649.26 233.09 1684.17 257.31 1678.27 279.63 1634.25 302.53 1559.88 324.66 1469.4 347.28 1378.21 372.18 1301.43 399.73 1250.25 431.73 1231.37 468.33 1244.7 511.68 1284.7 563.04 1345.12 619.77 1412.32 684.38 1474.68 755.63 1525.32 827.54 1553.89 900.46 1557.05 969.51 1535.44 1027.53 1490.48 1071.89 1427.93 1097.04 1352.73 1101.09 1272.83 1082.29 1194.9 1041.92 1122.2 989.32 1060.57 929 1011.98 871.88 976.66 832.9 954.72 818.79 943.95 837.53 944.01 890.82 950.67 973.59 960.78 1074.85 975.61 1176.48 989.5 1261.67 1000.48 1312.8 1011.73 1319.78 1018.06 1280.48 1018.98 1203.2 1018.62 1109.77 1012.82 1021.27 1001.95 962.37 990.05 952.54 973.84 995.5 953.81 1083.05 933.46 1193.15 909.9 1296.49 883.32 1363.42 856.74 1374.75 827.77 1326.74 796.36 1234.55 764.61 1123.61 729.82 1023.37 691.59 958.53 652.33 943.74 608.89 979.09 561.03 1051.72 511.89 1144.14 458.36 1229.66 401.04 1287.67 344.01 1306.97 285.2 1281.12 226.73 1216.53 172.98 1124.69 123.95 1022.84 82.93 927.92 43.92 828.67 55.53 823.47 105.96 891.33 149.06 947.23 195.78 996.56 239.59 1032.39 270.76 1053.7 286.13 1054.93 280.06 1037.38 249.23 1003.42 194.91 955.87 120.55 899.58 34.49 835.54 -54.36 769.83 -134.27 705.87 -193.75 641.66 -224.38 582.57 -220.5 529.43 -184.32 478.61 -120.23 433.67 -39.3 393.96 40.91 356.02 107.46 321.95 146.22 290.97 146.86 260.52 109.26 232.13 39.23 205.55 -50.38 178.98 -139.36 154.84 -210.24 133.51 -251.73 112.73 -254.37 95.77 -218.75 83.6 -151.96 73.18 -65.28 68.88 26.54 71.47 109.98 76.39 172.81 88.27 207.9 106.42 211.93 124.32 188.09 145.11 143.42 165.51 83.95 178.17 22.55 183.36 -31.14 176.35 -72.47 152.94 -93.03 112.16 -90.96 52.83 -67.5 -21.02 -24.06 -106.84 34.37 -197.58 104.23 -281.71 178.91 -352.03 253.07 -398.36 324.99 -414.37 389.26 -397.31 444.07 -349.07 489.93 -281.83 525.45 -205.74 551.95 -137.59 570.08 -96.71 581.98 -92.5 589.93 -131.28 593.03 -208.76 595.28 -311.58 598.49 -419 599.81 -506.64 603.95 -554.69 611.84 -550.18 619.3 -495.61 631.18 -403.2 647.84 -297.51 664.47 -210.57 685.99 -165.24 712.56 -176.54 739.14 -243.46 770.15 -344.1 805.29 -448.95 840.4 -531.25 879.53 -566.41 922.2 -546.34 964.44 -477.19 1009.53 -376 1056.43 -267.56 1101.45 -175.28 1146.4 -118.67 1189.36 -106.16 1227.47 -137.8 1260.49 -201.32 1286 -279.25 1306.56 -385.31 1278.9 -408.66 1232.65 -316.45 1196.52 -227.94 1158.34 -134.45 1123.31 -47.01 1099.71 28.19 1089.44 83.48 1097.37 117.47 1126.68 130.35 1176.83 125.54 1245.84 108.49 1327.21 80.41 1414.37 49.85 1497.55 21.58 1588.68 -15.87 1588.51 -39.75 1497.3 -26.2 1420.47 -9.98 1346.48 11.69 1289.95 36.92 1264.59 64.43 1275.05 93.3 1321.79 122.18 1397.94 151.63 1489.61 179.94 1579.23 206.51Q1579.23 206.51 1579.23 206.51" opacity="0.43"></path><path d="M1525.03 246.85C1590.79 271.53 1626.63 299.56 1627.48 330.98 1594.74 362.76 1533.22 398.57 1453.38 438.74 1367.1 479.92 1286.99 526.05 1223.63 577.11 1184.49 628.89 1172.84 684.82 1187.37 743.57 1225.61 800.09 1278.63 855.96 1337.53 907.99 1396.69 951.61 1445.31 985.79 1477.63 1006.84 1492.06 1013.73 1485.01 1004.43 1458.04 978.52 1413.7 941.76 1355.85 894.67 1289.7 843.17 1218.08 798.4 1147.05 764.33 1080.43 749.19 1018.99 760.05 966.48 798.02 923.48 862.52 889.33 946.41 864.15 1040.98 846.35 1133.08 832.6 1230.47 826.09 1199.43 824.57 1082.77 822.81 963.85 802.08 934.3 781.18 1051.02 765.75 1154.35 745.77 1248.07 721.09 1308.7 696.41 1321.21 667.61 1281.98 634.97 1202.09 602.34 1100.78 565.9 1001.48 526.05 925.76 486.47 888.71 443.95 895.71 399.33 941.65 356.1 1016.56 312.21 1100.59 269.26 1175.3 230.14 1228.17 194.58 1246.34 164.73 1227.45 142.01 1175.05 127.84 1097.43 123.96 1007.11 128.92 914.66 144.7 833.17 170.82 770.79 202.12 731.66 239.27 717.49 278.54 725.09 312.35 752.17 339.39 790.27 354.58 832.21 352.41 876.13 331.98 912.78 291.86 938.65 233.84 955.02 161.3 957.61 80.13 947.57 -0.77 927.14 -73.91 897.05 -130.24 860.26 -162.86 817.29 -167.27 771.6 -142.06 725.62 -92.63 677.35 -24.3 631.21 52.44 588.42 122.75 545.22 177.02 506.18 204.88 471.78 199.14 437.39 160.8 407.7 95.04 383.02 12.2 358.34 -71.2 339.25 -140.98 325.57 -187.73 311.89 -202.19 303.57 -183 300.23 -134.08 296.47 -62.43 296.89 21.02 300.38 105.5 301.58 179.77 303.44 235.55 303.64 267.49 297.66 274.07 286.04 257.66 265.95 220.77 235.47 171.92 193.53 118.92 139.12 65.83 75.22 22.19 1.83 -7.34 -77.39 -22.07 -154.64 -18.43 -226.63 2.37 -286.06 38.34 -326 86.9 -342.64 143.96 -332.65 207.84 -299.42 273.51 -245.4 337.73 -178.65 400.69 -114.03 458.32 -60.33 509.62 -29.94 556.09 -33.06 595.88 -71.34 629.74 -142.31 658.98 -235.11 683.84 -335.2 705.67 -424.04 724.62 -483.9 742.35 -502.69 760.02 -475.17 776.44 -408.97 794.08 -316.93 813.66 -220.51 832.95 -145.5 854.79 -108.77 879.47 -121.28 904.15 -181.91 931.09 -273.12 959.87 -371.58 988.36 -455.81 1018.09 -503.76 1048.22 -505.4 1077.09 -461.67 1105.08 -381.64 1130.91 -282.92 1153.86 -184.18 1172.83 -104.42 1186.36 -56.31 1195.27 -46.16 1197.19 -71.82 1191.24 -124.31 1180.46 -194.4 1162.18 -265.05 1137.25 -323.25 1111.07 -362.04 1082.14 -372.53 1053.57 -354.26 1031.82 -309.97 1017.16 -245.1 1013.53 -167.98 1025.06 -84.13 1052.23 -3.16 1096.1 68.91 1154.79 130.13 1225.91 176.17 1304.69 207.31 1383.39 224.3 1456.16 229.47 1515.06 226.36 1553.49 214.86 1567.02 200.7 1553.16 186.95 1515.48 170.97 1457.27 158.87 1386.72 151.87 1317.19 145.59 1257.32 145.18 1217.93 150.55 1208.26 156.91 1229.99 168.47 1281.62 184.77 1356.28 201.42 1442.19 222.17 1525.03 246.85Q1525.03 246.85 1525.03 246.85" opacity="0.10"></path><path d="M1469.36 460.19C1531.14 482.97 1567.89 510.15 1575.14 541.35 1553.38 572.4 1505.07 607.1 1437.54 644.74 1359.52 681.48 1280.9 720.03 1210.94 759 1156.81 795.17 1123.63 829.47 1113.01 859.77 1125.24 884.18 1155.88 901.56 1199.28 909.77 1251.85 909.62 1304.57 898.76 1351.33 876.87 1389.92 848.67 1414.03 812.76 1422.03 772.38 1414.73 735.53 1391.59 703.24 1355.16 681.25 1307.42 676.31 1251.93 689.98 1192.32 724.95 1129.52 780.09 1067.97 852.63 1009.9 936.68 954.65 1022.05 905.29 1100.57 862.13 1161.63 823.8 1196.56 791.34 1200.32 763.86 1171.28 740.46 1116.08 720.45 1041.89 702.64 961.9 687.24 893.86 672.45 849.14 657.28 838.66 643.13 867.47 627.54 931.2 609.88 1019.25 592.47 1114.77 572.49 1198.91 549.71 1253.46 526.93 1266.89 501.88 1235.79 474.92 1168.02 448.2 1077.74 420.07 982.9 391.25 901.45 363.47 847.42 336.05 829.02 310.11 846.64 286.6 896.42 266.14 965.72 250.06 1040.52 235.04 1134.97 245.22 1157.76 271.88 1080.43 294.83 1004.13 322.48 920.81 352.68 839.54 379.7 765.89 403.9 707.2 421.78 666.19 428.35 643.63 423.06 638.53 403.46 647.43 368.55 669.22 319.08 697.43 256.77 727.54 186.28 760.06 111.49 788.09 38.6 809.51 -49.71 831.24 -100.15 826 -49.71 803.44 7.39 783.04 75.13 759.38 144.36 733.98 203.1 706.97 244.7 679.82 261.96 653.58 250.2 626.95 211.14 602.01 149.36 579.23 73.09 556.45 -4.35 536.36 -71.66 518.62 -121.36 500.49 -144.88 483.9 -139.8 467.96 -107.95 450.39 -52.94 431.85 17.68 410.91 95.96 386.4 172.73 357.41 240.03 322.48 292.11 282.36 324.75 235.06 336.97 180.32 328.63 121.5 303.78 57.14 267.31 -10.47 221.74 -75.69 175.04 -137.82 132.38 -192.2 81.94 -246.79 60.97 -240.9 91.58 -179.03 126.28 -124.66 169.19 -66.7 217.52 -14.12 270.85 21.51 325.55 35.38 379.53 21.67 434.01 -21.14 485.48 -89.45 533.14 -175.73 579.23 -267.23 621.11 -351.36 658.93 -413.99 695.04 -444.48 727.74 -436.96 757.54 -391.71 786.34 -319.06 813.08 -230.92 838.21 -145.15 863.05 -81.88 886.81 -53.09 909.59 -66.52 932.37 -121.07 953.63 -202.9 973.17 -293.92 1000.91 -405.97 1041.48 -407.43 1051.46 -298.74 1054.97 -205.89 1053.55 -116.87 1046.95 -44.97 1038.76 0.76 1025.79 15.56 1008.72 0.95 992.15 -39.77 973.76 -96.22 955.54 -157.86 942.33 -218.2 933.32 -265.37 931.22 -293.61 939.45 -301.68 958.25 -286.92 989.2 -252.12 1032.15 -200.26 1086.65 -136.69 1150.95 -67.25 1220.52 5.72 1292.58 75.54 1361.87 138.84 1422.06 195.85 1468.99 243.03 1497.66 280.58 1505.76 309.77 1491.68 330.89 1456.29 345.96 1405.69 355.15 1343.75 361.31 1278.33 366.47 1198.5 370.66 1172.2 388.55 1241.51 406.39 1313.34 419.56 1393.09 437.41 1469.36 460.19Q1469.36 460.19 1469.36 460.19" opacity="0.33"></path><path d="M1415.07 605.55C1472.32 626.43 1508.82 647.7 1520.8 669.01 1508.32 689.95 1472.24 710.21 1417.44 728.94 1350.08 746.27 1277.43 760.79 1207 771.36 1144.93 779.17 1096.77 781.65 1065.67 777.89 1053.5 770.67 1059.22 756.85 1080.18 736.64 1114.78 714.69 1156.88 688.53 1201.55 660.28 1247.04 635.85 1286.72 614.53 1317.47 599.93 1339.31 596.97 1348.67 606.29 1345.61 630.43 1331.48 669.86 1306.43 724.09 1272.59 791.08 1231.06 865.05 1184.44 942.11 1135.08 1015.25 1082.82 1076.26 1030.98 1119.77 981.03 1139.91 931.54 1134.85 885.43 1104.11 843.12 1051.02 802.54 985.32 765.79 914.19 732.61 848.99 701 802.81 672.26 782.21 645.92 792.82 620.45 835.27 596.6 903.81 574.01 988.44 551.66 1075.34 530.08 1150.03 509.2 1198.69 488.32 1212.7 468.62 1188.97 450.29 1132.89 432.21 1054.55 415.97 967.16 402.06 884.95 384.04 800.53 367.91 816.67 372.13 900.09 378.25 968.48 389.07 1031.77 404.27 1081.17 419.93 1112.5 438.48 1119.86 458.56 1103.35 475.73 1065.29 491.27 1009.64 502.92 942.67 506.88 868.7 503.25 795.2 490.01 727.41 465.69 667.39 430.27 619.46 383.77 584.38 328.36 561.93 265.44 551.3 198.2 550.11 131.78 558.15 69.45 571.22 16.22 586.5 -34.73 614.17 -16.16 656.16 51.4 665.33 110.04 668.52 172.72 666.71 232.02 660.24 293.73 647.17 281.63 602.47 205.07 572.54 135.54 551.66 64.25 528.48 0.05 502.94 -51.31 477.11 -82.21 448.38 -89.71 416.39 -74.24 383.47 -36.89 346.6 17.69 305.53 84.07 263.22 155.59 216.63 225.52 166.2 288.73 115.73 339.99 63 376.38 9.76 396.23 -39.81 399.89 -86.17 389.36 -126.39 365.52 -157.39 333.39 -177.86 297.01 -185.29 257.26 -180.09 220.22 -160.84 188.77 -128.2 162.38 -87.77 145.22 -40.35 137.77 8.96 138.51 51.28 148.74 83.67 167.14 100 192.5 94.76 223.75 67.18 259.07 17.23 298.45 -50.79 339.5 -131.09 380.76 -214.78 423.6 -290.74 465.13 -349.9 504.51 -383.23 544.16 -386.23 581.07 -357.45 614.91 -300.48 648.63 -226.34 679.24 -145.09 706.61 -70.88 733.91 -18.92 758.09 2.7 778.97 -11.28 799.86 -59.94 816.96 -132.5 830.33 -215.27 848.38 -326.97 865.21 -379.86 864.34 -306.61 862.85 -229.64 858.41 -144.91 851.76 -63.9 839.82 45.59 867.88 -66.39 907.44 -142.6 944.77 -184.93 990.6 -213.1 1044.36 -225.16 1103.18 -221.93 1166.28 -202.57 1230.7 -169.74 1291.74 -125.26 1347.12 -72.86 1392.71 -16.24 1424.99 44.19 1441.56 103.63 1440.35 159.87 1422.59 214.38 1388.35 263.49 1340.45 306.9 1285.83 346.85 1227.91 381.46 1173.31 411.54 1130.51 438.85 1103.12 463.02 1095.7 485.07 1111.25 505.73 1148.28 525.55 1203.78 545.29 1272.1 564.66 1345.5 584.65 1415.04 605.54Q1415.07 605.55 1415.07 605.55" opacity="0.28"></path><path d="M1360.07 517.78C1430.76 544.45 1448.19 579.32 1394.08 586.81 1339.06 590.04 1275.78 589 1209.94 583.75 1146.32 578.27 1090.01 568.98 1044.64 556.57 1003.93 538.94 1013.63 508.91 1053.99 506.27 1090.42 514.44 1128.48 530.97 1165.03 557.5 1200.01 594.04 1228.76 640.91 1249.82 697.32 1264.24 759.61 1269.51 826.49 1266.05 894 1255.19 956.19 1236.78 1009.97 1212.24 1050.32 1182.28 1073.48 1148.38 1077.09 1112.08 1059.85 1072.93 1024.92 1033.27 974.14 994.22 912.94 954.21 851.06 915.88 794.01 879.82 750.06 843.73 727.54 810.25 729.23 779.63 756.93 749.17 808.65 721.52 878.43 696.77 957.58 672.08 1035.26 650.18 1100.69 631.2 1143.69 612.21 1157.97 596.6 1140.83 584.3 1095.81 572.07 1029.87 563.29 952.26 557.94 873.72 552.76 803.78 551.07 750.98 552.72 720.51 554.33 715.08 558.94 733.1 566.05 770.2 572.2 822.55 579.78 881.01 587.76 938.06 594.7 1008.73 587.58 1046.34 566.34 1008.55 542.65 963.84 511.31 908.99 472.01 848.4 426.07 783.98 373.62 720.96 316.21 662.31 257.25 608.22 198.05 561.98 141.86 524 92.58 493.47 52.48 470.8 24.73 454.69 11.05 444.77 13 439.16 31.08 436.17 62.53 436.76 106.49 437.76 159.39 437.87 214.52 439.49 268.74 438.84 316.43 435.2 360.42 428.59 331.72 396.47 260.07 370.12 197.15 351.14 132.26 328.35 72.12 302.02 20.91 275.76 -14.82 246.11 -32.14 213.53 -30.79 181.37 -10.15 146.84 27.28 110.78 78.12 76.23 138.11 41.5 202.23 8.01 266.51 -21.89 326.06 -48.37 377.36 -69.62 432.54 -88.48 462.56 -73.31 442.85 -37.4 418.62 -5.91 390.43 31.03 360.96 70.56 329.78 106.28 301.43 137.44 277.54 159.73 256.66 167.96 242.17 161.12 234.26 137.07 231.09 95.92 234.36 39.37 243.28 -29.13 256.42 -103.12 273.97 -177.05 294.81 -243.32 318.45 -294.35 343.98 -324.73 370.36 -330.02 398.21 -310.28 425.86 -266.55 452.57 -203.94 479.85 -132.73 505.58 -60.7 529.28 1.48 553.12 42.75 574.66 57.98 593.64 43.72 612.63 0.73 628.61 -62.76 641.75 -136.69 655.03 -212.08 665.73 -276.29 674.26 -320.69 683.35 -341.08 690.87 -333.71 697.47 -300.48 705.53 -245.82 713.72 -176.41 722.98 -100.61 735.04 -25.5 749.58 40.75 767.6 92.61 789.85 126.79 816.85 141.58 849.28 138.2 886.45 117.62 929.2 84.97 977.25 45.2 1028.3 0.11 1082.71 -43.07 1138.78 -80.47 1193.13 -112.01 1245.02 -132.81 1291.67 -142.19 1330.08 -141.55 1358.65 -129.83 1375.06 -108.74 1378.74 -79.49 1368.55 -43.93 1344.59 -4.37 1310.23 39.43 1266.15 84.24 1215.79 128.4 1165.59 173.72 1117.95 216.72 1077.83 256.65 1051.11 296.34 1039.53 332.55 1045.51 365.12 1070.15 397.28 1111.48 426.03 1166.44 451.41 1230.33 476.64 1297.15 498.79 1360.07 517.78Q1360.07 517.78 1360.07 517.78" opacity="0.10"></path><path d="M1305.04 296.54C1370.47 320.49 1402.2 352.47 1365.66 361.7 1271.92 374.3 1155.01 381.73 1046.16 391.47 967.14 414.28 931.33 452.45 936.47 514.36 977.85 597.44 1035.2 702.86 1091.21 818.93 1157.9 956.83 1153.5 928.77 1097.38 773.71 1047.46 692.31 995.18 670.92 946.19 730.3 921.05 786.8 897.5 854.58 875.93 926.57 854.27 994.66 834.78 1051.12 817.69 1088.68 800.61 1102.92 786.33 1091.54 774.71 1056.76 763 1003.21 753.75 937 746.67 865.79 731.21 736.59 721.32 664.22 712.02 665.96 694.03 735.04 667.54 833.52 625.76 921.43 566.69 978.05 487.66 980.31 391.17 933.82 290.38 849.6 192.5 747.11 115.54 645.71 74.82 548.35 79.98 469.41 133.96 409.1 217.76 360.72 315.22 324.1 395.77 292.77 418.62 278.5 427.8 264.14 421.69 249.17 399.53 234.44 363.15 218.62 315.04 201.54 258.68 184.45 200.35 166.5 144.98 147.95 95.43 129.64 57.08 111.21 32.6 93.25 27.64 60.13 82.84 34.59 179.24 23.74 294.3 24.82 401.3 47.48 481.25 92.17 530.08 167.62 455.38 214.1 397.53 100.53 364.71 -22.95 348.66 -152.07 349.01 -246.21 356.96 -273.01 377.1 -220.11 405.01 -104.11 419.92 -39.49 435.84 21.69 452.38 71.86 469.08 103.27 486.06 112.93 503.15 98.71 520.23 61.16 537.02 6.43 553.6 -58.26 570.35 -126.87 587.22 -189.63 604.53 -239.55 641.07 -285.76 683.1 -244.94 734.37 -138.49 793.24 -2.85 865.57 116.73 951.05 190.43 1039.85 207.48 1132.36 176.03 1216.88 118.9 1279.21 47.62 1311.13 -8.73 1302.18 -39.15 1257.81 -48.39 1181.46 -30.29 1091.45 6.11 1020.09 55.6 984.34 110.33 1002.49 162.18 1033.57 189.06 1076.94 214.07 1129.87 236.67 1188.62 259.4 1248.68 279.46 1305.04 296.54Q1305.04 296.54 1305.04 296.54" opacity="0.80"></path><path d="M1250.07 192.54C1327.28 222.91 1355.58 253.92 1331.24 287.37 1263.18 323.71 1166.51 367.68 1063.41 423.07 970.68 486.08 903.75 563.56 868.07 653.27 864.67 742.23 885.65 829.18 919.96 899.37 965.79 938.91 1007.21 939.64 1037.47 895.83 1061.99 822.69 1071.01 731.43 1066.18 649.96 1054.82 612.27 1033.95 631.6 1007.39 711.57 978.79 831.22 948.33 953.61 917.95 1033.69 887.58 1041.69 858.72 973.86 830.04 858.87 799.32 734.64 764.92 639.93 723.65 597.46 675.84 613.55 616.79 673.27 545.46 751.38 468.38 832.5 383.35 888.37 297.71 909.42 223.58 898.18 166.59 855.13 138.36 792.43 142.41 714.61 182.1 634.87 252.56 561.5 333.4 488.64 412.78 426.74 469.12 376.4 481.74 327.67 447.28 288.2 370.07 257.82 267.17 227.44 170.53 207.59 104.18 199.04 78.44 192.09 102.01 198.72 166.05 218.95 257.4 239.68 358.28 269.39 451.56 300.4 528.47 316.29 580.26 315.74 607.43 287.17 611.2 226.32 599.71 134.44 581.69 21.69 544.42 -131.52 507.98 -154.48 517.81 -3.27 529.13 99.99 550.15 161.68 580.53 153.71 610.9 73.64 649.18 -42.58 695.15 -150.51 742.14 -218.78 798.33 -220.83 863.16 -160.89 928.67 -57.16 1000.52 61.34 1073.7 166.11 1138.54 241.55 1193.64 276.85 1229.69 277.11 1242.33 246.74 1226.57 203.4 1181.29 161.25 1119.64 118.35 1046 90.9 976.92 80.53 935.14 77.78 928.84 89.06 966.29 110.02 1044.35 133.85 1147.14 162.15 1250.04 192.53Q1250.07 192.54 1250.07 192.54" opacity="0.48"></path><path d="M1194.64 323.44C1264.53 350.02 1297.7 386.71 1290.29 432.75 1246.95 479.28 1174.81 535.52 1088.05 599.42 997.95 661.36 917.57 725.96 855.11 786.18 803.62 847.77 816.33 823.51 849.46 730.24 886.02 626.43 916.53 584.53 906.67 698.79 896.03 808.26 877.26 911.62 850.68 978.55 824.11 989.88 790.98 941.39 751.5 850.37 711.12 740.59 662.98 639.37 607.25 567.88 550.25 536.88 486.46 546.6 418.95 586.32 355.65 648.9 295.9 713.37 246.85 766.37 214.39 807.58 202.72 825.23 216.62 821.05 251.4 800.55 307.94 765.54 378.57 723.3 445.84 674.22 502.85 625.75 535.93 582.51 533.09 538.12 494.53 501.63 424.64 475.05 335.06 448.47 248.42 433.06 181.6 427.33 141.83 420.44 139.26 420.56 171.29 423.58 231.14 419.76 309.64 411 394.39 390.54 478.83 353.75 552.66 297.95 611.32 221.9 655.06 134.06 683.16 38.09 699.4 -52.16 704.49 -119.56 704.81 -153.12 705.13 -141.61 701.53 -89.61 702.79 -3.53 711.41 95.99 719.43 176.75 736.24 219.87 762.82 208.57 789.4 141.65 824.49 43.68 866.58 -55.53 908.09 -134.73 955.19 -169.25 1004.84 -154.22 1050.58 -95.96 1094.04 -7.37 1129.91 91.73 1154.63 188.93 1164.7 267.96 1155.79 322.69 1131.96 353.04 1089.65 361.38 1032.89 355.67 975.81 336.41 921.15 315.58 880.77 299.7 868.23 281.86 885.93 273.98 935.95 277.57 1013.03 281.65 1105.06 296.86 1194.64 323.44Q1194.64 323.44 1194.64 323.44" opacity="0.69"></path><path d="M1139.54 541.03C1201.27 563.82 1236.51 593.1 1242.03 627.05 1220.31 659.72 1173.4 694.39 1109.41 727.28 1034.96 754.4 958.91 774.05 888.72 781.4 826.96 777.26 778.43 756.56 743.53 718.51 721.42 672.61 709.99 617.1 705.51 560.53 708.69 518.31 713.29 494.31 715.91 498.14 721.01 534.92 720.96 601.64 714.05 690.09 707.49 784.78 693.19 868.97 670.41 923.52 647.63 936.95 617.44 905.29 581.03 838.24 544.98 749.42 503.59 655.8 459.01 573.48 416.9 512.04 374.78 478.53 336.5 471.98 305.86 491.02 284.59 525.91 276.84 567.1 281.88 614.38 303.4 654.77 341.44 683.89 387.9 707.21 443.53 717.17 501.28 715.5 548.57 708.42 582.51 693.54 595.44 673.98 581.13 652.75 541.27 629.97 479.54 607.18 403.31 584.4 327.92 562.7 264.55 540.97 217.33 517.56 195.68 490.99 200.25 458.6 227.74 420.78 275.48 373.31 336.18 314.88 405.77 250.65 476.59 177.55 543.04 100.41 605.32 29.36 658.39 -32.53 701.82 -75.29 738.19 -92.47 766.91 -79.38 790.26 -34.64 809.46 30.97 826.9 111.62 844.75 191.65 861.49 249.91 880.81 276.95 903.59 263.52 926.38 208.97 951.54 129.4 977.76 43.5 1014.88 -63.03 1067.69 -74.9 1070.84 13.25 1062.52 93.53 1042.15 176.05 1009.73 251.82 973.14 319.72 929.33 373.14 883.46 412.39 832.83 449.08 837.82 480.35 911.14 494.04 983.3 503.05 1063.31 518.25 1139.54 541.03Q1139.54 541.03 1139.54 541.03" opacity="0.54"></path><path d="M1085.07 598.83C1155.11 625.81 1169.71 659.89 1118 660.78 1066.51 655.86 1007.82 641.76 947.17 618.06 886.03 591.76 829.33 557.71 779.46 519.04 735.16 485.21 698.71 454.82 669.43 434.05 645.61 430.43 626.64 444.81 610.68 479.87 597.6 534.3 584.9 604.56 571.05 683.28 557.96 760.17 542.25 825.69 523.26 868.69 504.28 882.97 482.92 865.24 460.21 820.45 438.26 755.73 416.41 680.07 396.6 603.8 379.66 533.06 367.36 475.57 361.92 434.62 361.95 410.78 371.14 403.03 390.55 407.5 415.54 423.96 449.73 445.27 491.1 466.72 531.98 491.71 573.65 511.8 611.22 524.86 643.61 539.93 607.03 529.26 535.07 504.57 472.15 485.59 409 459.92 352.44 428.02 304.03 395.65 271.37 356.37 256.23 310.77 256.63 264.82 273.81 213.46 304.42 159.22 345.96 108.5 394.83 59.94 446.74 18.6 501.74 -10.75 554.96 -25.51 604.04 -21.44 651.8 -0.26 694.22 40.19 730.93 97.02 765.88 159.38 796.14 224.23 822.09 281.63 847.41 319.09 869.57 332.97 888.55 318.69 907.54 275.69 922.45 214.02 932.93 144.45 942.78 73.06 947.06 13.6 945.01 -26.9 941.2 -48.04 930.05 -45.39 911.54 -22.01 891.73 18.53 865.76 71.42 835.65 130.14 808.62 193.69 782.26 254.99 760.49 310.56 749.64 363.51 749.49 408.87 763 446.7 792.07 481.43 835.53 510.52 891.27 535.17 955.16 558.76 1022.15 579.85 1085.07 598.83Q1085.07 598.83 1085.07 598.83" opacity="0.15"></path><path d="M1030.07 431.17C1107.28 461.54 1132.34 464.47 1107.09 443.82 1043.99 425.32 956.98 392.6 868.32 364.48 779.46 367.46 705.16 407.44 648.78 494.01 597.64 611.2 557.56 733.61 527.19 813.69 496.81 821.69 479.01 753.06 477.51 643.24 481.25 522.01 508.14 422.71 557.19 359.45 633.43 324.04 685.97 317.82 590.07 283.3 487.17 252.92 395.81 203.33 338.49 145.36 314.4 96.07 333.1 56.79 380.25 48.32 447.15 71.77 519.78 138.85 583.57 237.82 648.85 325.37 699.47 381.69 729.84 373.69 760.23 293.61 767.49 183.51 754.86 88.59 743.7 24.28 718.49 16.52 691.39 53.35 684.04 121.28 697.56 201.4 743.9 272.54 823.48 345.83 927.14 400.78 1030.04 431.16Q1030.07 431.17 1030.07 431.17" opacity="0.56"></path><path d="M974.79 228.09C1052.58 256.59 1029.3 286.51 956.69 324 896.8 371.38 838.58 441 789.72 528.5 740.57 619.76 702.7 704.06 679.92 758.6 657.14 772.03 651.6 739.24 661.27 675 670.65 591.05 693.32 504.01 723.34 428.5 745.15 361.1 762.89 310.15 766.94 273.53 747.93 242.43 706.45 216.94 644.79 194.16 568.59 171.38 497.34 153.46 442.62 145.08 400.8 142.22 383.39 157.61 387.13 195.15 404.07 240.81 433.07 303.69 465.35 370.93 501.25 418.47 533.34 442.03 556.12 428.6 578.9 374.06 590.22 298.99 593.8 224.44 601 153.64 607.55 108.18 620.48 90.66 646.6 90.88 688.17 110.72 746.69 139.19 818.11 173.34 898.59 205.31 974.79 228.09Q974.79 228.09 974.79 228.09" opacity="0.09"></path><path d="M919.82 219.79C997.13 250.16 1015.75 309.18 990.68 398.69 942.85 501.06 887.96 623.53 857.58 703.61 827.2 711.6 827.09 641.29 835.12 550.26 820.37 447.43 777.13 368.61 699.82 338.24 596.9 307.86 516.18 331.68 480.68 394.7 462.37 445.92 476.82 491.6 507.2 483.61 537.58 403.53 578.13 305.69 636.24 243.13 711.56 193.43 816.9 189.41 919.82 219.79Q919.82 219.79 919.82 219.79" opacity="0.38"></path></g></svg>