<svg xmlns="http://www.w3.org/2000/svg" version="1.1" xmlns:xlink="http://www.w3.org/1999/xlink" xmlns:svgjs="http://svgjs.dev/svgjs" viewBox="0 0 1422 800"><defs><linearGradient x1="50%" y1="0%" x2="50%" y2="100%" id="ssscribble-grad"><stop stop-color="hsl(234.9,89.9%,53.5%)" stop-opacity="1" offset="0%"></stop><stop stop-color="hsl(330,77.2%,50.2%)" stop-opacity="1" offset="100%"></stop></linearGradient></defs><g fill="none" stroke-width="3" stroke="url(#ssscribble-grad)" stroke-linecap="round"><path d="M2003.06 482.9C2035.07 504.73 2058.92 525.92 2071.72 546.45 2072.48 566.96 2060.54 586.76 2037.4 605.79 2006.1 624.72 1969.86 642.8 1932.74 659.95 1898.97 676.92 1871.76 692.87 1853.62 707.72 1846.38 722.32 1849.77 735.76 1862.62 748.02 1883.46 760.04 1908.66 770.91 1934.83 780.67 1968.83 794.78 1987.09 819.66 1964.7 831.69 1938.07 840.73 1904.71 850.31 1867.17 860.82 1828.18 873.18 1790.42 887.14 1756.31 903.07 1727.94 921.55 1706.6 942.47 1692.9 966.08 1687.26 992.37 1688.63 1021.29 1695.71 1052.69 1707.65 1085.98 1721.81 1120.94 1736.2 1156.95 1749.78 1192.96 1759.96 1228.45 1765.39 1262.47 1765.71 1293.92 1759.62 1322.07 1747.04 1346.01 1728.48 1365.21 1704.18 1379.06 1675.09 1387.2 1642.19 1390.26 1606.69 1388.09 1569.87 1381.34 1532.64 1371.9 1496.31 1360.25 1461.81 1347.92 1429.72 1337.43 1400.76 1329.58 1375.24 1325.99 1353.38 1328.58 1335.09 1337.65 1320.09 1353.77 1308.49 1377.08 1299.48 1406.66 1292.48 1441.29 1287.71 1479.19 1283.93 1518.2 1280.56 1555.87 1270.36 1626.69 1241.13 1616.83 1224.52 1581.88 1211.79 1558.12 1197.37 1537.35 1181.41 1522.54 1164.49 1516.67 1146.27 1520.56 1126.94 1534.71 1106.89 1558.7 1086.01 1590.28 1064.48 1626.63 1042.49 1664.4 1020.1 1699.57 997.48 1728.39 974.6 1748.11 951.67 1756.3 928.82 1752.01 905.85 1736.47 883.07 1711.06 860.56 1678.92 838.03 1644.86 815.83 1612.48 793.99 1586 772.16 1569.52 750.96 1564.59 730.37 1571.52 709.75 1589.81 689.7 1616.31 670.14 1647.44 650.47 1679.89 631.18 1708.76 612.19 1730.42 592.93 1742.75 573.78 1743.43 554.6 1732.24 534.95 1710.57 515.02 1680.15 494.65 1644.03 473.56 1605.86 451.76 1569.02 429.06 1536.78 405.41 1512 380.64 1496.18 354.62 1489.98 327.53 1493.61 299.12 1505.27 269.37 1522.81 238.75 1544.44 206.99 1566.49 174.27 1586.13 141.3 1601.61 107.94 1610.11 74.61 1610.32 42.13 1602.14 10.58 1585.16 -19.41 1560.34 -47.19 1529.18 -72.4 1493.37 -94.45 1455.05 -113.1 1416.27 -127.88 1379.12 -138.49 1345.37 -123.96 1285.37 -150.56 1304.86 -186.87 1298.03 -218.07 1287.84 -253.3 1272.97 -291.16 1253.76 -329.84 1230.73 -367.52 1204.21 -402.19 1174.91 -432 1143.27 -455.31 1110.11 -470.81 1076.15 -478.24 1041.58 -477.21 1007.31 -468.32 973.81 -453.69 941.05 -434.55 909.72 -413.33 879.98 -393.55 851.69 -377.09 825.17 -366.46 800.35 -364.24 777.11 -371.01 755.39 -387.17 734.99 -412.34 715.94 -444.57 697.86 -481.41 680.51 -519.9 664.13 -556.48 648.11 -587.71 632.23 -617.36 609.23 -605.35 562.32 -568.09 537.69 -537.37 521.21 -506.5 503.95 -479.51 485.85 -460.7 467.8 -452.02 448.85 -454.97 428.95 -469.96 409.06 -494.91 388.21 -526.92 366.38 -562.36 344.55 -595.99 321.99 -623.59 298.76 -642.39 275.53 -649.36 251.65 -643.7 227.17 -626.47 202.75 -599.16 177.79 -564.9 152.4 -527.67 127.16 -491.18 101.6 -459.14 75.86 -434.91 50.46 -420.28 25.08 -416.09 -0.05 -422.56 -24.59 -437.7 -48.6 -459.05 -71.83 -484.37 -94.08 -509.58 -115.2 -531.45 -134.9 -551.92 -161.54 -533.11 -202.87 -494.31 -216.87 -459.88 -224 -421.84 -229.03 -382.84 -232.13 -345.43 -234.48 -311.87 -235.53 -283.91 -235.74 -251.74 -242.17 -280.7 -281.72 -299.47 -311.27 -309.25 -336.47 -314.6 -365.51 -314.63 -398.01 -309.3 -433.12 -297.78 -470.08 -280.32 -507.79 -257.56 -544.76 -229.99 -579.89 -198.62 -611.74 -164.32 -639.06 -128.29 -660.81 -91.66 -676.06 -55.12 -684.8 -19.82 -686.65 13.48 -681.99 44.46 -672.52 72.49 -658.9 97.41 -642.85 128.37 -620.33 171.47 -601.34 185.66 -614.3 192.59 -633.99 198.65 -661.12 204.35 -694.36 209.16 -731.77 214.32 -770.72 220.18 -808.35 242.28 -874.24 290.98 -846.8 312.87 -806.3 328.5 -780.58 345.3 -759.58 363.11 -746.34 381.37 -743.58 400.47 -751.68 420.25 -770.41 440.3 -798.46 460.88 -832.71 481.85 -869.48 502.95 -904.92 524.33 -934.69 545.9 -955.16 567.51 -964.29 589.24 -960.46 611.08 -943.98 632.91 -917.5 654.58 -884.01 676.1 -847.76 697.64 -813.44 719.1 -784.77 740.53 -764.91 762.08 -756.3 783.72 -759.11 805.55 -772.44 827.64 -794.86 850.09 -822.61 873 -851.95 896.36 -879.87 920.37 -902.03 945.16 -915.62 970.54 -919.37 996.85 -911.89 1024.17 -893.7 1052.12 -866.57 1081.12 -832.53 1111.14 -794.58 1141.62 -756 1172.96 -719.78 1204.97 -688.62 1236.95 -664.8 1269.15 -649.42 1301.21 -642.79 1332.38 -644.99 1362.69 -654.28 1391.61 -668.75 1418.57 -686.95 1443.3 -705.65 1465.28 -722.42 1492.15 -739.73 1523.21 -730.29 1527.22 -701.37 1526.38 -673.5 1522.95 -640.6 1517.64 -604.34 1512.25 -566.23 1506.83 -528.06 1502.48 -491.39 1501.07 -457.42 1502.79 -427.32 1508.65 -401.77 1519.8 -381.29 1536.21 -365.84 1558.11 -355.09 1585.36 -349.07 1617.23 -346.62 1652.79 -346.83 1690.58 -349.61 1729.14 -353.24 1766.63 -356.78 1801.17 -360.31 1831.08 -362.2 1854.72 -361.84 1875.4 -356.94 1866.34 -327.44 1841.78 -302.86 1822.26 -282.95 1802.85 -260.53 1786.19 -236.03 1775.41 -209.67 1771.78 -181.88 1776.73 -153.09 1791.21 -123.26 1814.39 -93.01 1845.02 -62.67 1881.07 -31.96 1919.54 -1.56 1957.19 28.33 1990.86 58.18 2017.37 87.34 2034.24 115.73 2040.45 143.9 2035.24 171.26 2019.44 197.84 1995.83 224.16 1966.76 249.75 1935.93 274.66 1908.07 299.38 1886.13 323.52 1873.22 347.11 1871.88 370.6 1882.12 393.65 1903.1 416.26 1932.88 438.85 1967.62 461.06 2003.06 482.9Q2003.06 482.9 2003.06 482.9" opacity="0.22"></path><path d="M1948.06 407.57C1978.8 428.45 2002.2 448.34 2015.64 467.26 2018.18 486.17 2009 504.1 1989.17 521.05 1961.15 538 1927.53 554 1891.78 569.05 1857.67 584.14 1828.2 598.34 1805.97 611.71 1791.49 631.62 1821.25 668.88 1855.57 686.97 1880.58 699.64 1902.95 712.46 1920.08 725.68 1930.58 740.01 1932.35 755.15 1924.91 771.36 1908.82 789.14 1884.64 808.38 1854.03 829.32 1819.07 852.1 1781.94 876.77 1744.99 903.4 1710.39 931.74 1679.99 961.85 1655.16 993.53 1637.04 1026.14 1625.77 1059.62 1621.08 1093.45 1622.84 1126.75 1629.45 1159.22 1639.46 1190.13 1652.13 1218.65 1665.05 1244.29 1676.65 1266.33 1687 1301.48 1633.28 1296.66 1592.8 1281.73 1561.44 1272.09 1527.97 1263.69 1493.37 1257.93 1458.26 1256.69 1423.71 1260.32 1390.43 1269.67 1358.76 1285.47 1329.4 1307.31 1302.6 1334.8 1278.49 1367.04 1257.17 1402.6 1238.5 1439.78 1222.57 1476.6 1208.92 1511.04 1197.16 1541.04 1172.68 1579.01 1143.41 1534.11 1132.72 1500.07 1120.94 1473.53 1091.06 1467.24 1072.79 1493.24 1059.82 1521.38 1045.68 1554.87 1030.47 1590.86 1014.94 1626.28 998.44 1657.64 981.1 1681.85 963.53 1696.88 945.24 1700.95 926.32 1693.64 907.28 1676.42 887.71 1650.7 867.67 1619.4 847.59 1586.86 827.1 1556.17 806.22 1531 785.34 1514.99 764.31 1509.48 743.13 1514.84 721.93 1530.8 700.53 1554.71 678.88 1583.59 657.14 1614.69 635.05 1643.64 612.55 1667.07 589.85 1682.92 566.61 1688.63 542.76 1683.49 518.58 1668.22 493.68 1643.71 468 1612.23 441.92 1576.73 414.99 1540.09 387.22 1505.37 359.11 1475.45 330.22 1452.32 300.64 1437.32 270.99 1431.41 240.91 1433.9 210.62 1443.65 180.8 1459.62 151.24 1478.96 122.33 1499.22 94.66 1518.77 68.28 1534.56 43.64 1544.75 21.11 1548.61 0.98 1544.66 -16.34 1532.8 -30.94 1513.71 -42.36 1487.94 -50.44 1456.9 -55.82 1422.15 -58.09 1385.42 -57.48 1348.51 -55.26 1312.96 -51.19 1280.31 -45.96 1251.66 -37.84 1202.81 -67.15 1192.8 -98.16 1202.15 -125.24 1209.13 -156.38 1214.82 -190.73 1218.4 -226.99 1220 -263.86 1218.28 -299.76 1212.98 -333 1204.46 -362.11 1192.12 -385.61 1176.19 -402.66 1157.1 -412.38 1134.92 -414.47 1110.17 -409.86 1083.14 -398.89 1054.38 -382.92 1024.43 -364.59 993.36 -345.29 961.9 -327.32 930.47 -313.7 898.92 -305.68 867.95 -304.9 837.79 -312.76 808.15 -328.99 779.57 -353.06 752.11 -383.77 725.43 -418.83 699.88 -455.62 675.37 -491.36 651.65 -522.97 628.84 -547.73 606.8 -563.84 585.39 -569.69 564.55 -564.86 544.14 -550.68 524.16 -528.31 504.4 -500.32 484.73 -470.7 465.32 -442.21 445.84 -418.32 426.2 -402.63 406.67 -396.57 386.86 -401.2 366.73 -416.74 346.63 -441.19 326.15 -471.93 305.26 -505.82 284.38 -538.2 263.35 -565.34 242.2 -584.8 221.09 -593.69 199.91 -591.07 178.77 -577.63 157.74 -554.29 136.84 -523.52 116.2 -488.64 95.8 -452.82 75.83 -419.45 56.43 -391.75 37.46 -371.8 19.26 -360.94 2 -360.04 -14.61 -368.04 -30.08 -383.39 -44.25 -404.59 -57.63 -428.28 -69.57 -451.57 -79.96 -485.61 -103.09 -428 -124.19 -377.11 -129.08 -339.93 -133.41 -303.03 -138.44 -268.45 -144.68 -237.97 -153.18 -212.88 -163.75 -193.95 -176.84 -181.83 -193.09 -176.08 -212.39 -175.99 -234.93 -181.23 -260.68 -189.92 -289.44 -200.58 -320.92 -212.56 -354.38 -223.57 -389.34 -232.32 -424.97 -238.45 -460.08 -240.28 -493.9 -237.27 -525.28 -229.62 -553.18 -216.73 -576.72 -198.91 -595.04 -176.71 -607.91 -150.55 -614.81 -121.22 -615.72 -89.34 -611.73 -55.86 -603.03 -21.63 -590.71 12.9 -577.02 46.78 -562.8 79.42 -549.79 110.64 -540.5 139.8 -535.72 166.73 -536.83 191.38 -545.18 213.63 -560.66 233.62 -583.14 251.29 -611.96 267.01 -645.57 281.1 -682.11 293.36 -719.37 304.51 -754.87 314.9 -786.15 328.6 -819.68 355.03 -829.17 369.02 -805.82 378.39 -782.89 388.63 -757.12 399.82 -731.57 417.21 -702.29 457.42 -696.65 480.2 -725.02 495.85 -754.57 512.46 -788.65 529.99 -823.88 547.59 -856.89 566.05 -883.93 585.34 -901.98 604.64 -909.44 624.74 -904.99 645.63 -888.99 666.51 -863.83 687.93 -832.08 709.87 -797.45 731.83 -764.05 754.34 -735.21 777.42 -713.85 800.57 -702.4 824.34 -701.33 848.75 -710.24 873.27 -728.33 898.49 -752.58 924.4 -779.94 950.45 -807.87 977.2 -832.35 1004.61 -850.54 1032.09 -860.9 1060.14 -861.43 1088.66 -851.82 1117.01 -833.02 1145.59 -806.04 1174.21 -773.07 1202.24 -736.76 1229.9 -699.71 1256.87 -664.6 1282.67 -633.88 1307.26 -609.3 1330.27 -592.03 1360.98 -582.24 1407.2 -605.73 1421.59 -629.84 1430.3 -665.7 1421.61 -645.5 1418.12 -609.44 1418.67 -579.02 1421.78 -545.27 1428.23 -509.59 1439.06 -473.15 1454.19 -437.37 1473.91 -403.4 1498.28 -372.05 1526.83 -344.16 1558.99 -320.16 1593.78 -300.39 1630.16 -284.77 1666.8 -272.99 1702.11 -265.15 1734.76 -260.31 1763.22 -257.77 1759.27 -248.11 1715.34 -197.26 1734.07 -170.6 1757.31 -150.62 1787.09 -129.12 1821.57 -106.39 1858.44 -82.54 1894.81 -57.87 1927.8 -32.66 1954.93 -6.76 1973.81 19.33 1982.85 45.44 1981.94 71.89 1971.01 98.12 1951.38 124 1926.06 150.01 1897.34 175.54 1868.58 200.5 1843.94 225.51 1825.73 249.9 1816.42 273.62 1817.94 297.34 1829.95 320.39 1851.5 342.72 1880.73 365.06 1914.17 386.68 1948.06 407.57Q1948.06 407.57 1948.06 407.57" opacity="0.41"></path><path d="M1893.06 326.48C1922.53 346.41 1945.39 365.67 1959.34 384.27 1963.49 402.88 1956.9 420.88 1940.29 438.3 1915.62 455.81 1884.91 472.83 1851.09 489.44 1817.42 506.25 1786.64 522.79 1761.28 539.18 1743.58 555.94 1734.38 572.75 1733.91 589.74 1742.13 607.34 1757.2 625.37 1777.1 644.01 1800.23 663.49 1823.34 683.82 1843.95 705.16 1860.55 727.53 1870.63 751.09 1873.04 775.92 1867.65 801.8 1854.04 828.96 1832.96 857.35 1805.77 886.51 1773.85 916.63 1739.11 947.48 1703.47 978.39 1668.82 1009.43 1636.88 1040.16 1609.11 1069.87 1586.51 1098.4 1569.65 1125.19 1559.04 1149.69 1554.18 1171.55 1554.41 1190.26 1601.97 1208.28 1556.29 1185.58 1519.01 1192.19 1490.35 1203.47 1459.72 1219.98 1427.86 1241.74 1395.15 1268.43 1362.47 1299.17 1330.4 1332.9 1299.09 1368.2 1269.22 1403.55 1241.06 1437.22 1214.62 1467.57 1190.2 1493.03 1167.79 1512.21 1147.36 1524.47 1128.81 1529.09 1111.93 1526.04 1096.81 1516.56 1082.98 1501.26 1070.17 1481.75 1058.65 1460.86 1047.71 1440.07 1037.08 1421.74 1022.3 1405.35 992.26 1421.77 976.15 1455.76 965.32 1486.53 953.69 1520.5 941.19 1554.93 928.7 1587.16 915.28 1614.23 900.91 1633.7 886.52 1644.21 871.18 1644.48 854.9 1634.51 838.6 1615.95 821.37 1590.17 803.24 1559.85 785.09 1528.87 766.05 1499.86 746.12 1476 726.19 1460.49 705.59 1454.48 684.37 1458.38 663.13 1472.09 641.24 1493.44 618.72 1519.95 596.17 1549.37 572.97 1577.87 549.13 1602.4 525.25 1621.02 500.75 1631.08 475.64 1631.51 450.55 1622.52 424.92 1604.3 398.84 1578.39 372.91 1547.04 346.66 1512.53 320.26 1477.55 294.27 1444.79 268.38 1416.4 242.83 1394.13 218.08 1379.44 194.04 1372.55 171.02 1373.19 149.28 1381.07 128.99 1394.29 110.45 1411.03 54.19 1465.71 41.45 1405.44 45.76 1357.65 47.97 1322.83 49.51 1287.62 49.64 1253.38 47.06 1221.2 41.8 1192.16 33.24 1166.96 20.6 1146.17 3.98 1129.89 -16.75 1118 -41.55 1110.62 -69.97 1106.9 -101.46 1106.13 -135.08 1108.27 -169.93 1111.88 -204.82 1116.11 -238.38 1121.04 -269.43 1125.11 -296.66 1127.71 -337.9 1121.17 -317.98 1074.49 -292.07 1046.61 -275.11 1025.2 -260.2 1001.95 -249.23 977.27 -244.37 951.23 -246.19 924.31 -255.42 896.85 -272.44 868.71 -296.31 840.48 -325.86 812.4 -359.43 784.15 -394.65 756.33 -429.03 729.08 -460.19 701.94 -485.63 675.49 -503.35 649.76 -512.37 624.26 -511.78 599.48 -501.77 575.41 -484.11 551.56 -460.11 528.35 -432.28 505.74 -404.3 483.3 -378.5 461.36 -357.77 439.89 -345.11 418.5 -341.49 397.51 -347.64 376.88 -363.59 356.29 -387.46 336.02 -416.93 316.08 -449.27 296.15 -480.36 276.79 -506.94 258.01 -526.86 239.26 -537.43 221.14 -537.62 203.7 -527.8 186.35 -508.44 169.74 -481.43 153.96 -449.47 138.33 -415.18 123.61 -381.57 109.86 -321.45 73.17 -337.41 29.26 -369.21 18.15 -418.43 -2.75 -405.03 -38.16 -366.98 -54.46 -335.14 -67.81 -300.49 -83.04 -264.89 -100.43 -230.09 -120.27 -197.75 -142.51 -169.2 -167.22 -145.53 -194.2 -127.31 -223.34 -114.71 -254.37 -107.98 -286.61 -106.27 -319.78 -108.76 -353.23 -115.13 -385.99 -123.62 -417.55 -133.02 -447.04 -149.26 -524.93 -90.18 -512.24 -52.44 -493.42 -23.95 -482.66 6.22 -474.42 37.44 -470.05 69.47 -471.22 101.49 -478.14 133.03 -491.32 164.04 -510.99 193.88 -536.41 222.31 -566.67 249.43 -600.43 274.89 -635.92 298.69 -671.15 320.92 -704.11 341.59 -732.76 360.85 -755.26 387.03 -773.96 432.94 -758.23 453.8 -728.59 466.86 -704.86 479.88 -680.73 493.05 -658.88 512.35 -637.64 552.93 -648.08 574.72 -680.95 589.4 -711.33 604.88 -744.72 621.21 -778.09 637.51 -808.55 654.69 -832.88 672.78 -848.59 690.87 -854.49 709.87 -849.49 729.8 -833.99 749.74 -810.13 770.37 -780.12 791.65 -747.14 812.94 -714.82 834.86 -686.06 857.39 -663.55 879.89 -649.63 902.95 -645 926.51 -649.66 949.98 -663.28 973.86 -683.57 998.06 -708.11 1022.04 -734.85 1046.19 -760.21 1070.35 -781.48 1094.09 -797.05 1117.61 -804.54 1140.72 -803.07 1163.09 -792.86 1184.74 -774.08 1205.42 -748.07 1225.01 -716.79 1243.28 -682.21 1260 -646.7 1275.29 -612.59 1288.74 -581.86 1300.16 -556.16 1327.26 -571.99 1336.11 -605.73 1347.65 -590.3 1359.94 -572.66 1375.75 -549.87 1395.31 -522.82 1418.7 -492.37 1445.58 -459.57 1475.59 -425.54 1507.98 -391.1 1542.07 -357.41 1576.87 -325.31 1611.12 -295.32 1643.82 -268.15 1673.74 -244.09 1699.76 -223.39 1720.92 -206.03 1736.36 -191.83 1682.78 -156.3 1670.54 -135.36 1702.6 -123.22 1732.01 -113.5 1765.37 -102.08 1800.61 -89.07 1835.45 -75.03 1867.38 -59.58 1894.04 -42.89 1913.71 -25.37 1924.77 -6.85 1926.41 12.45 1919.26 32.35 1903.74 52.81 1881.49 73.64 1855.57 94.84 1828.06 116.23 1801.94 137.65 1780.77 159.28 1766.32 180.8 1760.44 202.12 1764.57 223.53 1778.12 244.64 1800.05 265.4 1828.62 286.17 1860.72 306.54 1893.06 326.48Q1893.06 326.48 1893.06 326.48" opacity="0.34"></path><path d="M1838.06 301.21C1866.24 320.19 1888.51 339.19 1902.84 358.21 1908.42 377.25 1904.23 396.35 1890.72 415.56 1869.43 434.85 1841.86 454.34 1810.42 474.07 1777.92 494 1746.73 514.3 1719.27 535.04 1697.74 556.1 1683.29 577.72 1676.6 600 1678.13 622.69 1686.79 646.12 1701.28 670.34 1720.55 695.01 1741.92 720.48 1763.25 746.75 1783.13 773.34 1798.97 800.62 1809.24 828.45 1813.39 856.28 1810.22 884.37 1799.7 912.49 1782.52 940.03 1759.18 967.11 1730.94 993.37 1699.29 1018.3 1665.72 1041.8 1631.88 1063.45 1599.26 1083.01 1569.23 1100.15 1542.87 1114.56 1524.31 1119.12 1527.95 1132.96 1510.56 1158.14 1494.35 1180.91 1474.81 1207.61 1452.39 1237.61 1427.49 1269.95 1400.59 1303.57 1372.27 1337.17 1342.73 1369.33 1312.67 1398.75 1282.56 1424.05 1252.43 1444.26 1222.92 1458.38 1194.32 1465.8 1166.51 1466.81 1139.96 1461.3 1114.73 1449.95 1090.68 1434.59 1068 1416.07 1046.64 1396.16 1026.47 1377.51 1007.45 1361.33 989.43 1349.44 972.42 1343.9 956.16 1345.2 940.45 1353.91 925.5 1370.27 910.84 1393.22 896.31 1421.46 882.27 1453.32 868.14 1486.4 853.79 1518.23 839.72 1546.6 825.26 1569.08 810.31 1583.83 795.51 1590.04 780.12 1586.88 764.08 1574.65 748.09 1555.1 731.4 1529.5 713.96 1500.29 696.53 1470.91 678.33 1443.57 659.35 1421 640.36 1406.01 620.82 1399.58 600.75 1402.12 580.69 1413.69 560.13 1432.51 539.14 1456.55 518.2 1484.03 496.89 1511.6 475.27 1536.59 453.8 1557.22 432.14 1570.86 410.41 1576.24 388.96 1573.18 367.61 1561.31 346.5 1541.52 325.88 1515.45 305.73 1484.72 286.24 1451.54 267.5 1418.29 249.69 1387.01 233 1359.6 192.02 1322.5 151.57 1350.08 145.67 1375.35 142.15 1409.07 140.36 1390.24 136.1 1357.66 130.28 1330.22 122.11 1299.67 111.16 1267.22 96.84 1233.85 79.3 1200.78 58.41 1169.02 34.26 1139.31 7.15 1112.45 -22.52 1088.9 -54.04 1069.03 -86.8 1052.89 -119.9 1040.34 -152.25 1031.52 -182.99 1025.74 -211.04 1022.46 -217.47 1010.61 -194.04 952.28 -217.86 925.11 -242.05 905.24 -271.02 884.24 -303.24 862.37 -336.91 839.65 -369.82 816.38 -399.8 792.8 -425 768.71 -443.55 744.57 -454.13 720.53 -456.48 696.24 -450.23 672.23 -436.02 648.59 -415.88 624.86 -391.16 601.6 -364.22 578.88 -338.34 556.13 -315.45 533.95 -297.91 512.38 -288.15 490.81 -286.8 469.86 -294.29 449.56 -310.51 429.26 -333.75 409.6 -361.93 390.61 -392.71 371.63 -422.48 353.54 -448.39 336.35 -474.6 311 -469.19 264.77 -438.38 243.84 -409.79 230.15 -377.8 217.29 -344.97 205.21 -313.99 193.04 -286.95 181.57 -265.66 170.71 -248.51 154.27 -262.16 122.31 -287.3 105.94 -308 94.11 -328.61 81.8 -347.11 68.77 -362.39 54.48 -372.28 39.12 -375.75 22.45 -372.69 4.2 -362.46 -15.61 -345.51 -37.13 -322.76 -60.33 -295.08 -85.26 -263.88 -111.89 -230.59 -139.84 -196.72 -169.14 -163.73 -199.5 -132.89 -230.27 -105.31 -261.33 -81.79 -292.15 -62.99 -321.95 -49.04 -350.43 -39.82 -376.92 -66.45 -432.19 -21.16 -404.03 10.29 -412.13 34.36 -424.94 60.25 -443.15 87.48 -466.51 115.91 -494.4 144.92 -525.7 174.11 -559.09 203.55 -593.02 232.59 -625.79 261 -655.64 288.97 -681.1 316.01 -700.68 342.02 -713.26 367.26 -718.64 391.4 -716.38 414.48 -706.89 436.73 -691.83 458.02 -672.08 478.46 -649.54 498.16 -627.08 517.2 -606.24 535.69 -589.21 553.64 -578.45 571.25 -574.78 588.65 -579.04 605.7 -591.74 622.71 -611.84 639.79 -638.03 656.67 -668.58 673.76 -700.82 691.13 -732.06 708.42 -759.86 726.07 -781.52 744.15 -794.99 762.2 -799.44 780.71 -793.97 799.69 -778.99 818.68 -756.42 837.91 -728.13 857.36 -696.85 876.78 -665.73 896.38 -637.29 916.07 -613.98 935.68 -597.99 955.3 -590.16 974.83 -590.8 994.16 -599.98 1013.27 -616.01 1032.03 -637.04 1050.43 -661.55 1068.31 -686.43 1085.51 -709.25 1110.05 -734.98 1153.07 -740.04 1170.92 -717.05 1181.53 -692.83 1190.69 -663.5 1198.36 -630.94 1205.25 -597.12 1210.71 -563.9 1214.79 -533.09 1227.93 -472.96 1252.51 -507.49 1269.21 -525.3 1284.15 -534.19 1301.96 -539.11 1322.76 -539.46 1346.52 -535.34 1373.03 -526.07 1401.99 -511.86 1432.78 -493.21 1464.94 -470.41 1497.74 -444.2 1530.17 -415.24 1561.53 -384.37 1590.84 -352.47 1617.18 -320.08 1639.76 -288.14 1657.79 -257.3 1670.99 -227.88 1678.82 -200.52 1681.14 -175.47 1678.73 -152.9 1671.61 -132.93 1660.53 -115.47 1605.88 -63.89 1638.5 -35.14 1679.99 -27.87 1712.41 -22.8 1746.15 -16.77 1779.19 -9.66 1809.59 -2.24 1835.29 6.36 1854.56 16.14 1868.23 32.05 1843.4 69.99 1810.32 91.67 1784.82 106.73 1759.28 122.55 1736.26 139.04 1718.73 155.72 1707.96 172.94 1705.31 190.62 1711.78 208.4 1726.62 226.54 1748.73 245 1776.55 263.48 1807.28 282.22 1838.06 301.21Q1838.06 301.21 1838.06 301.21" opacity="0.86"></path><path d="M1782.49 350.58C1809.43 368.62 1831.17 387.2 1845.9 406.32 1852.9 425.44 1851.09 445.11 1840.69 465.32 1822.87 485.57 1798.7 506.39 1770.1 527.77 1739.41 549.22 1708.67 571.25 1680.04 593.85 1655.64 616.51 1636.77 639.73 1624.42 663.47 1619.41 687.19 1621.3 711.35 1629.41 735.86 1643.2 760.19 1660.69 784.7 1680.14 809.22 1700.44 833.29 1719.15 857.1 1734.64 880.43 1746.17 902.89 1752.06 924.51 1751.69 945.01 1745.19 964.18 1732.28 981.84 1713.52 997.72 1689.85 1011.87 1662.16 1023.93 1631.72 1033.73 1599.78 1041.64 1567.66 1047.22 1536.61 1050.46 1507.66 1052.13 1481.77 1051.79 1459.58 1049.68 1422.91 1036.28 1442.35 1057 1450.96 1080.57 1454.96 1101.33 1456.51 1125.52 1455.33 1152.75 1451.72 1182.36 1445.01 1213.61 1435.24 1245.57 1422.79 1277.13 1407.5 1307.27 1389.66 1334.85 1369.58 1358.88 1347.5 1378.41 1323.81 1392.64 1298.68 1401.38 1272.57 1404.18 1245.85 1401.09 1218.5 1393.16 1191.07 1380.67 1163.84 1364.69 1136.62 1347.27 1109.93 1329.27 1083.93 1312.33 1058.32 1298.65 1033.55 1289.05 1009.64 1284.76 986.28 1287.08 963.79 1295.93 942.11 1311.3 920.99 1332.85 900.58 1359.25 880.8 1389.02 861.47 1420.48 842.63 1451.46 824.17 1479.84 806.04 1503.85 788.15 1521.61 770.43 1531.77 752.9 1534.01 735.4 1527.84 717.89 1513.75 700.46 1493.53 682.93 1468.35 665.25 1440.36 647.6 1412.61 629.76 1386.93 611.72 1365.64 593.68 1351.19 575.67 1344.42 557.7 1345.71 539.76 1355.25 521.9 1371.59 504.2 1393.11 486.58 1418.42 469.2 1444.65 452.15 1469.49 427.06 1499.58 379.97 1516.79 358.48 1500.44 344.87 1480.38 332.21 1454.7 320.62 1425.11 309.57 1393.56 299.69 1361.82 291.03 1331.73 253.72 1288.63 231.94 1345.6 221.12 1353.59 211.17 1352.9 199.14 1346.9 184.76 1335.67 167.71 1319.68 148.1 1299.15 125.9 1274.8 101.28 1247.39 74.44 1217.75 45.69 1186.83 15.68 1155.35 -15.19 1124.28 -46.28 1094.36 -76.68 1066.1 -105.81 1040.13 -132.82 1016.79 -156.95 996.35 -177.54 978.9 -193.93 964.35 -144.05 924.91 -156.42 902.85 -191.09 889.85 -219.81 879.69 -251 868.07 -283.02 855.13 -314.19 841.3 -342.64 826.33 -366.61 810.37 -384.89 793.73 -396.18 776.31 -399.76 758.3 -396 739.8 -384.92 720.9 -367.48 701.75 -345.81 682.29 -321.2 662.74 -295.8 643.2 -272.48 623.51 -252.75 603.94 -238.5 584.58 -231.67 565.15 -232.55 546.01 -241.36 527.21 -257.89 508.39 -280.55 489.95 -307.49 471.91 -336.74 453.88 -365.12 436.46 -390.19 419.66 -416.9 394.72 -418.9 347.47 -393.74 324.92 -368.76 309.86 -339.62 295.1 -308.48 280.55 -277.68 265.69 -249.1 250.87 -224.56 235.98 -205.71 220.61 -193.29 204.95 -187.65 188.88 -189.12 172.11 -196.66 154.71 -209.17 136.53 -225.88 117.46 -244.58 97.43 -263.51 76.33 -281.69 54.26 -296.86 31.04 -307.73 6.65 -313.84 -18.59 -313.93 -44.91 -307.77 -72.17 -295.75 -99.89 -277.94 -128.2 -255.13 -156.82 -228.31 -185.14 -198.52 -213.15 -166.98 -240.43 -134.86 -266.39 -103.36 -290.84 -73.54 -313.3 -46.27 -333.39 -22.28 -350.77 -2.02 -365.07 14.41 -349.18 15.54 -354.64 28.72 -379.45 40.73 -402.07 55.29 -428.51 72.13 -458 90.95 -489.48 111.61 -521.74 133.77 -553.37 157.3 -583.01 181.82 -609.26 207.01 -630.83 232.93 -646.92 259.08 -656.6 285.21 -659.47 311.57 -656.06 337.61 -646.42 363.2 -631.43 388.68 -613.06 413.56 -592.28 437.77 -570.9 461.73 -551.49 484.99 -535.21 507.57 -523.74 529.87 -518.86 551.53 -520.89 572.6 -530.16 593.44 -546.69 613.76 -569.24 633.63 -596.41 653.34 -626.53 672.68 -657.2 691.7 -686.08 710.64 -711.17 729.32 -730.2 747.77 -741.55 766.2 -744.65 784.43 -738.79 802.47 -724.34 820.51 -703.05 838.13 -676.46 855.32 -646.9 872.49 -617.1 889.2 -589.22 905.39 -565.43 929.27 -542.48 973.63 -544.81 993.81 -567.68 1006.75 -589.1 1018.8 -612.29 1029.9 -635.16 1058.57 -676.85 1091.03 -651.34 1098.73 -613.41 1103.85 -583.24 1108.57 -551.29 1113.11 -519.2 1118.38 -488.54 1123.9 -460.65 1129.98 -436.63 1141.69 -410.47 1174.61 -392.24 1197.26 -398.19 1215.36 -406.99 1235.71 -417.7 1258.33 -429.2 1283.05 -441.1 1309.76 -451.67 1338.2 -459.98 1367.77 -465.91 1398.21 -468.19 1428.96 -466.46 1459.18 -460.93 1488.43 -451.09 1515.94 -437.14 1540.99 -419.53 1562.99 -398.44 1581.29 -374.46 1595.63 -348.06 1605.51 -319.88 1610.71 -290.57 1611.75 -260.48 1608.45 -230.38 1601.23 -200.78 1591.47 -171.85 1579.4 -144.18 1566.06 -118.06 1553.31 -93.5 1541.64 -70.81 1532.28 -50 1526.41 -22.5 1547.63 21.44 1576.15 38.92 1601.7 48.88 1630.83 58.12 1662.22 66.92 1694.38 74.84 1725.56 82.67 1753.99 90.62 1799.43 114.53 1773.28 156.05 1739.03 172.65 1714.86 184.06 1691.85 196.34 1672.16 209.49 1654.51 229.72 1667.21 274.41 1697.07 298.77 1723.95 315.28 1753.24 332.55 1782.49 350.58Q1782.49 350.58 1782.49 350.58" opacity="0.47"></path><path d="M1728.06 437.92C1753.62 455.01 1774.53 472.65 1789.24 490.81 1797.15 508.97 1797.17 527.63 1789.38 546.75 1754.02 584.89 1699.94 624.63 1641.64 665.36 1594.03 705.31 1566.85 745.34 1563.91 784.34 1584.37 821.09 1618.09 855.11 1653.53 884.9 1681.96 910.51 1692.17 930.24 1680.29 943.18 1647.89 951.68 1598.38 954.08 1539.57 951.58 1479.36 949.25 1425.34 946.94 1382.74 948.17 1354.75 958.24 1340.83 977.83 1338.17 1009.14 1345.21 1052.56 1355.23 1105.83 1363.64 1165.11 1369.56 1224.21 1367.52 1276.89 1356.41 1316.16 1337.53 1337.96 1309.7 1339.52 1274.7 1322.09 1233.99 1293.95 1189.23 1261.54 1142.51 1235.33 1093.84 1226.88 1045.59 1239.97 998.8 1275.58 952.18 1328.86 907.72 1388.33 865.6 1440.3 824 1473.08 784.47 1477.7 746.9 1452.95 728.19 1432.38 709.89 1407.82 692.01 1381.16 674.14 1355.07 656.65 1331.03 639.57 1311 614.24 1293.59 566.64 1304.84 544.45 1330.78 515.47 1378.9 489.4 1425.43 466.56 1456.11 444.23 1463.28 425.38 1442.09 410.01 1397.44 394.8 1339.65 382.36 1280.38 371.8 1231.15 359.31 1200.65 346.31 1191.22 330.91 1200.3 309.8 1223.97 283.16 1251.49 249.37 1274.02 207.82 1286.81 158.99 1282.78 104.18 1261.09 46.88 1224 -10.06 1174.42 -61.89 1117.9 -104.01 1059 -132.75 1003.01 -145.11 953.43 -142.86 912.13 -126.89 880.02 -102.26 856.17 -70.84 835.19 -98.35 813.29 -170.86 800.95 -231.35 791.15 -287.31 777.18 -327.06 759 -343.4 739.2 -332.54 715.57 -298.12 688.74 -253.01 660.86 -208.99 630.65 -180.39 598.74 -175.98 582.68 -178.56 566.3 -188.17 549.66 -204.59 533 -226.37 516.11 -251.93 499.03 -279.6 481.94 -306.63 464.85 -330.92 447.77 -351.16 430.66 -365.26 413.52 -372.17 396.3 -364.09 361.65 -327.82 326.27 -273.32 289.7 -214.88 252.09 -165.66 212.42 -135.77 170.21 -130.83 126.39 -147.37 79.67 -177.42 30.26 -212.96 -19.81 -240.59 -71.16 -251.92 -122.15 -244.04 -170.02 -214.78 -213.82 -168.42 -250.85 -111.33 -279.67 -50.92 -298.43 5.53 -306.02 52.72 -305.34 87.27 -296.27 108.84 -282.16 117.26 -266.97 101.75 -302.42 99.6 -367.8 104.92 -425.91 118.57 -486.55 140.08 -540.7 167.75 -580.26 201.66 -598.69 240.01 -593.24 281.94 -569.06 325.84 -532.04 370.21 -493.54 415.73 -468.17 460.31 -463.29 503.24 -483.64 546.26 -527.5 587.28 -584.09 626.05 -638.97 645.41 -661.32 664.23 -677.82 682.47 -687.18 700.71 -689.05 718.38 -682.87 735.47 -668.99 752.56 -648.97 768.85 -624.06 784.36 -596.26 799.87 -567.89 814.58 -540.77 828.49 -516.82 856.28 -485.3 880.86 -479.86 902.28 -499.44 923.8 -538.23 942.53 -581.38 959 -615.37 976.64 -631.7 993.43 -622.55 1010.71 -589.06 1031.59 -537.81 1055.42 -477.55 1083.87 -418.92 1118.47 -371.01 1159.29 -339.46 1206.63 -325.67 1258.86 -329.35 1314.91 -343.98 1371.9 -362.72 1425.51 -381.65 1472.64 -392.28 1508.91 -390.92 1532.13 -377.44 1540.23 -350.1 1533.39 -311.28 1517.29 -263.62 1494.93 -210.45 1473.41 -155.45 1462.64 -100.28 1466.49 -48.21 1489.09 -0.6 1530.9 42.57 1586.38 80.59 1646.97 114.2 1702.06 143.63 1740.85 170.31 1755.2 195.55 1744.6 218.56 1711.69 241.83 1666.44 266.32 1625.13 290.04 1598.92 315.89 1597.6 344.31 1607.89 358.47 1624.54 373.33 1646.49 388.92 1672.49 404.51 1700.39 420.83 1728.06 437.92Q1728.06 437.92 1728.06 437.92" opacity="0.23"></path><path d="M1673.06 496.09C1717.95 528.36 1741.38 560.96 1737.53 593.57 1708.66 625.91 1660.61 657.74 1605.02 688.37 1554.8 717.97 1519.48 745.39 1504.67 769.78 1512.3 792.12 1536.29 810.44 1568.24 824.16 1612.28 839.12 1602.05 849.78 1541.18 853.36 1486.73 861.26 1429.65 874.37 1376.08 895.04 1330.51 925.37 1295.92 964.87 1272.82 1012.93 1261.54 1066.72 1258.72 1122.98 1260.93 1176.74 1269.39 1253.29 1215.87 1192.5 1171.57 1167.34 1136.84 1174 1099.33 1200.48 1060.43 1244.5 1019.95 1299.47 979.51 1354.54 939.97 1398.09 900.01 1421.63 861.55 1419.11 825.01 1391.2 788.41 1347.43 753.86 1297.75 721.58 1256 689.31 1235.84 660.08 1240.93 633.81 1268.55 607.49 1312.17 584.01 1357.37 563.1 1391.65 541.78 1407.49 522.42 1398.26 504.35 1365.69 484.69 1316.68 464.88 1259.85 443.68 1205.56 418.87 1162.83 390.7 1136.79 357.99 1128.65 320.14 1137.87 277 1157.63 228.8 1180.88 177.54 1203.21 124.18 1216.14 71.44 1215.92 23.05 1202.33 -18.43 1174.12 -49.45 1134.06 -68.66 1085.32 -74.35 1031.82 -66.88 977.62 -51.43 925.08 -30.29 877.38 -9.44 835.8 2.4 800.77 1.95 772.17 -14.87 748.8 -49.58 730.8 -98.31 715.59 -154.8 701.51 -210.4 689.77 -255.4 677 -281.24 662.23 -284.64 647.81 -264.74 630.53 -226.97 610.15 -183.84 589.56 -145.28 565.87 -122.8 539.2 -125.34 512.42 -152.04 482.86 -196.93 450.58 -249.22 418.31 -292.53 384.09 -315.34 348.01 -313.17 311.81 -284.72 273.56 -237.08 233.29 -181.63 192.8 -129.57 150.3 -91 106.16 -72.99 62.37 -75.63 17.83 -94.8 -26.35 -125.47 -68.2 -156.47 -107.53 -179.22 -142.53 -189.33 -172.16 -181.06 -195 -154.71 -209.72 -113.55 -217.89 -61.71 -218.22 -5.39 -211.86 50.2 -203.84 99.92 -194.65 140.69 -188.21 170.64 -190.45 190.16 -202.53 201.08 -227.04 203.79 -264.93 202.84 -313.79 201.23 -369.73 198.65 -426.58 199.75 -477.62 205.81 -515.63 215.17 -536.28 230.47 -536.54 251.16 -517.47 275.45 -486.84 303.98 -451.03 335.52 -420.23 369.24 -405.86 404.51 -412.04 440.31 -440.33 476.97 -487.06 513.22 -541.76 548.45 -591.77 583.86 -625.78 617.85 -634.14 650.13 -613.99 682.4 -572.25 712.19 -519.29 739.64 -469.14 767.28 -434.84 792.97 -422.82 817.18 -433.89 842.24 -464.99 866.76 -504.64 891.6 -541.4 918.61 -567.21 947.41 -572.68 979.05 -555.69 1014.29 -519.25 1053.52 -468.2 1097.16 -410.95 1144.1 -355.77 1194.44 -309.72 1246.76 -277.2 1298.11 -260.77 1347.1 -258.39 1390.57 -266.22 1449.01 -301.27 1411.41 -251.46 1395.91 -192.16 1403.17 -145.09 1426.16 -95.47 1465.06 -45.59 1516.61 4.27 1573.91 51.79 1628.24 96.27 1671.06 138.49 1694.72 177.48 1694.91 213.7 1674.56 247.87 1637.91 280.23 1594.91 311.51 1559.74 341.74 1540.78 371.86 1545 402.38 1574.18 432.63 1620.77 463.82 1673.06 496.09Q1673.06 496.09 1673.06 496.09" opacity="0.94"></path><path d="M1617.58 480.98C1660.4 511.36 1684.64 539.88 1684.95 566.4 1662.55 592.73 1621.09 616.72 1569.63 638.04 1518.92 658.8 1477.76 676.51 1452.61 690.98 1447.28 704.87 1459.16 715.7 1483.01 723.88 1528.06 736.46 1561.41 766.21 1529.36 791.86 1489.78 817.16 1440.9 849.03 1387.97 887.95 1335.3 933.01 1287.3 982.97 1246.75 1035.35 1215.32 1086.32 1193.11 1132.73 1178.87 1170.38 1171.72 1191.59 1157.63 1114.43 1137.42 1110.53 1119.59 1131.15 1097.58 1167.94 1072.27 1216.58 1045 1269.93 1015.56 1318.46 984.85 1352.87 953.25 1367.57 921.26 1358.85 889.5 1328.63 857.52 1286.08 826.19 1239.58 795.82 1200.7 765.44 1181 736.73 1183.54 709.55 1206.54 682.15 1245.37 655.83 1288.21 630.15 1324.41 603.57 1347.06 576.74 1348.63 548.9 1328.44 519.1 1290.54 487.15 1240.42 452.35 1186.49 414.76 1136.96 373.75 1098.13 329.35 1073.7 283.09 1065.71 234.84 1071.28 186.12 1086.05 139.6 1107.13 96.45 1126.8 59.34 1140.23 30.12 1145.93 10.63 1139.64 2.24 1121.27 2.98 1092.41 13.07 1054.14 29.87 1009.46 46.94 960.5 61.99 910.37 69.94 861.51 65 814.68 46.3 771.85 13.15 733.45 -32.51 699.27 -85.43 669.22 -138.66 642.44 -184.77 618.97 -216.44 597.23 -228.25 576.17 -220.24 556.78 -193.58 536.76 -154.6 515.38 -114.86 494.58 -82.33 471.74 -65.94 446.55 -72.26 421.46 -99.58 393.78 -142.4 363.41 -191.67 333.03 -233.45 300.68 -257.86 266.6 -260.72 232.63 -239.62 197.16 -199.35 160.68 -148.63 124.77 -96.54 88.53 -52.4 52.8 -23.72 18.76 -13 -13.45 -19.25 -42.62 -40.27 -68.48 -67.85 -89.76 -94.61 -105.45 -120.53 -119.73 -80.13 -118 -17.52 -110.04 33.81 -108.82 86.79 -112.26 137.29 -123.22 182.66 -144.66 220.53 -176.28 250.35 -217.86 271.67 -267.15 286.11 -320.64 295.62 -373.35 306.84 -453.37 342.51 -388.35 368.43 -352.41 388.55 -349.37 411.74 -365.44 437.35 -399.81 463.85 -447.73 491.97 -499.51 521.17 -544.35 550.6 -573.36 580.64 -578.98 611.01 -559.28 641.39 -520.4 671.39 -470.82 701.12 -422.26 731.09 -386.04 761.27 -368.37 792.06 -371.35 823.73 -394.04 856.81 -428.06 891.81 -464.28 928.39 -495.77 967.54 -512.78 1009.41 -511.14 1052.75 -491.16 1098.37 -454.04 1145.46 -405.3 1191.8 -351.41 1237.21 -298.91 1279.65 -253.44 1316.96 -219.11 1347.73 -197.43 1369.88 -187.71 1374.5 -209.78 1330.73 -220.34 1340.87 -192.16 1366.09 -163.97 1404.34 -129.59 1452.95 -90.93 1506.8 -48.77 1559.14 -5.03 1602.42 38.81 1630.93 83.28 1640 126.4 1628.45 167.62 1601.45 208.26 1563.87 246.82 1524.88 283.34 1496.32 319.31 1484.17 353.62 1493.04 386.45 1523.45 419.1 1568.31 450.61 1617.58 480.98Q1617.58 480.98 1617.58 480.98" opacity="0.32"></path><path d="M1563.06 404.74C1603.49 433.22 1627.84 459 1631.37 482.11 1614.65 505.24 1579.7 525.73 1533.37 543.73 1484.34 561.91 1440.2 577.91 1407.45 592.16 1390.87 607.33 1390.35 621.7 1403.38 636.15 1427.35 653.09 1454.54 671.73 1478.79 693.24 1496.89 719.07 1502.87 749.19 1495.08 784.22 1474.49 823.77 1441.6 867.63 1399.69 914.7 1352.01 962.53 1302.37 1009.64 1254.26 1053.11 1209.87 1090.12 1171.47 1118.3 1139.81 1135.29 1115.4 1141.37 1097.32 1135.77 1084.18 1120.05 1066.28 1068.58 1035.14 1119.94 1014.77 1190.94 999.09 1239.78 980.38 1280.21 959.03 1305.26 937.03 1311.8 912.93 1297.88 887.12 1266.21 861.12 1225.29 833.8 1182.05 805.32 1146 776.84 1126.85 747.89 1127.11 718.42 1145.72 688.75 1179.57 658.2 1219.17 626.5 1255.7 594.14 1283.19 560.09 1293.87 524.11 1285.48 487.11 1259.86 447.94 1219.64 406.73 1170.95 365.03 1120.51 322.06 1074.4 278.8 1037.5 237.23 1013.36 197.58 1002.24 161.65 1002.61 130.9 1013.41 106.6 1029.13 90.26 1045.46 80.82 1065.24 105.37 1053.61 126.47 1018.66 134.76 985.38 135.94 946.39 126.88 903.94 105.01 858.97 71.44 813.79 27.94 769.81 -21.7 726.84 -72.09 686.48 -116.94 648.96 -150.84 613.55 -168.86 580.75 -168.35 550.08 -151.68 521.07 -121.13 493.33 -83.09 466.28 -47.75 440.04 -21.18 413.72 -10.1 386.93 -19.27 360.34 -46.5 332.87 -86.93 304.39 -133.16 275.92 -173.4 247.11 -199.25 218.23 -206.92 189.56 -193.18 161.22 -160.89 133.75 -116.46 107.09 -66.78 82.08 -19.94 59.43 -4.71 -4.64 -48.79 -21.72 -14.55 -30.88 22.15 -45.43 66.23 -67.01 114.11 -96.65 163.24 -134.35 210.38 -178.76 253.44 -227.73 291.42 -277.69 323.37 -325.12 349.57 -365.57 377.91 -403.84 413 -390.39 426.84 -349.38 440.28 -310.72 478.68 -310.14 504.93 -360.74 523.69 -408.27 545.1 -456.25 569 -495.73 593.03 -519.98 619.32 -523.14 647.79 -503.99 676.27 -467.95 706.26 -421.82 737.71 -375.27 769.27 -337.96 802.52 -315.65 837.46 -311.2 872.73 -325.25 909.86 -352.08 948.73 -384.85 987.72 -418.16 1028.06 -442.86 1069.1 -453.8 1109.05 -449.62 1148.29 -428.59 1185.48 -393.39 1219.15 -348.32 1248.55 -298.12 1272.1 -248.14 1289.79 -202.76 1300.23 -165.46 1302.99 -137.91 1281.34 -120.67 1273.9 -141.89 1310.71 -138.29 1349.83 -129.43 1396.8 -114.16 1447.47 -93.23 1496.54 -67.98 1538.33 -38.5 1567.33 -6.09 1580.8 28.8 1576.58 65.01 1555.87 101.5 1525.1 138.92 1489.02 175.67 1455.58 211.2 1434.28 246.91 1428.92 281.07 1442.22 313.41 1473.71 345.76 1516.83 376.27 1563.06 404.74Q1563.06 404.74 1563.06 404.74" opacity="0.61"></path><path d="M1507.65 324.33C1545.84 350.91 1570.35 375.74 1577.01 398.94 1565.94 422.29 1537.81 444.3 1497.55 465.31 1451.93 486.96 1407.11 508.27 1369.18 529.81 1343.16 552.85 1330.66 577.08 1331.36 603.21 1344.62 631.79 1365.22 663.11 1388.4 697.57 1411.54 734.64 1428.39 774.67 1435.94 817.11 1433.84 860.22 1419.96 903.64 1395.42 945.57 1362.17 983.81 1322.12 1016.97 1278.19 1042.9 1232.42 1060.84 1187.56 1069.36 1145.52 1068.06 1107.12 1059.6 1073.54 1044.2 1044.83 1024.64 1011.26 999.23 966.08 996.82 948.95 1033.36 939.22 1072.46 928.47 1117.96 916.08 1164.53 904.06 1206.56 889.82 1237.96 873.16 1253.89 856.45 1253.2 837.24 1235.16 815.54 1202.84 793.8 1163.94 769.63 1124 743.05 1090.74 716.47 1072.23 688.11 1070.5 658.09 1084.97 628.02 1113.78 596.21 1149.44 562.8 1184.87 529.33 1215.18 494.34 1232.94 458.14 1234.99 422.3 1221.64 385.84 1193.2 349.52 1153.53 314.77 1107.63 281.49 1060.38 250.87 1016.73 223.75 980.68 201.02 954.5 183.81 938.87 186.57 971.44 192.39 959.82 158.96 923.03 123.73 891.78 81.12 856.79 34.28 819.56 -12.6 780.35 -54.86 740.82 -87.6 701.93 -107.79 662.97 -112.59 625.49 -101.57 589.79 -78.64 554.68 -46.51 521.33 -11.15 489.67 18.85 458.47 39.16 428.63 44.97 400 33.04 371.51 5.84 343.97 -32.34 317.39 -75.51 290.82 -113.82 265.83 -140.27 242.54 -151.6 219.4 -144.23 198.23 -119.62 179.31 -82.31 160.84 -37.17 144.95 9.17 131.84 84.72 103.54 52.7 75.41 24.16 62 11.85 47.53 9.27 28.58 17.27 4.07 34.87 -26.62 62.14 -63.1 96.99 -104.72 137.46 -149.57 181.2 -195.95 225.78 -241.02 270.06 -281.61 311.89 -314.96 350.27 -338.1 385.07 -350.15 415.72 -349.73 442.59 -337.39 465.74 -317.45 486.13 -291.86 504.67 -265.43 520.83 -245.25 536.47 -234.11 552.4 -235.75 567.27 -252.8 583.34 -283.25 601.08 -323.81 618.49 -369.5 637.98 -412.98 659.75 -447.05 681.47 -466.79 705.58 -467.75 732.16 -449.25 758.74 -416 787.15 -373.36 817.21 -329.2 847.21 -291.62 878.73 -265.75 911.44 -254.81 943.83 -260.47 977 -279.18 1010.35 -306.21 1042.64 -337.78 1074.2 -365.97 1104.1 -385.6 1131.63 -394.54 1156.15 -389.11 1176.64 -369.67 1193.41 -338.54 1205.13 -298.06 1211.29 -252.34 1213.88 -205.1 1211.61 -160.11 1205.36 -120.27 1195.19 -75.25 1188.87 -35.45 1205.61 -34 1228.99 -37.9 1261.17 -41.75 1301.15 -43.9 1346.53 -45.38 1393.96 -43.04 1439.15 -36.47 1477.87 -27.29 1506.01 -13.7 1520.25 3.78 1520.43 23.71 1506.12 46.68 1479.94 71.87 1448.58 98.55 1416.13 126.48 1389.08 154.95 1374.73 184.06 1375.18 213.06 1391.77 241.49 1423.47 270.06 1464.48 297.75 1507.65 324.33Q1507.65 324.33 1507.65 324.33" opacity="0.47"></path><path d="M1453.05 301.69C1488.76 326.37 1512.86 351.16 1521.81 376.09 1515.51 401.18 1493.73 426.71 1459.86 452.91 1419.04 479.66 1375.97 507.56 1335.9 536.9 1303.55 567.23 1281.4 599.39 1270.57 633.49 1271.81 668.57 1282.23 705.45 1298.73 743.69 1319.71 781.85 1339.78 820.17 1355.67 857.53 1366.56 892.34 1368.86 923.98 1361.95 950.9 1346.78 972.37 1323.08 987.17 1292.52 994.43 1256.64 995.48 1217.26 989.53 1176.37 977.61 1134.89 963.53 1094.72 947.75 1056.89 933.12 1021.45 924.25 989.27 922.03 960.28 928.75 934.27 946.4 910.93 973.92 889.61 1009.97 870.48 1051.96 852.36 1095.72 834.58 1136.53 817.95 1170.19 800.82 1192.28 782.71 1199.75 765.04 1192.94 745.91 1171.86 725.05 1139.66 704.29 1103.12 681.62 1066.5 656.93 1035.99 632.25 1018.23 606.15 1014.78 578.84 1025.44 551.62 1049.27 523.39 1080.47 494.52 1113.56 466.08 1144.77 437.49 1167.37 409.34 1177.89 382.34 1175.75 356.63 1159.55 332.99 1131.22 311.53 1094.09 293.18 1051.42 278.66 1007.39 267.12 965.69 259.96 929.34 257.37 900.38 271.5 885.05 221.38 904.67 169.89 893.15 128.31 879.54 84.32 860.98 41.33 838.35 2.81 812.56 -27.7 784.04 -47.04 753.79 -54.3 721.89 -48.22 689.42 -29.79 657.13 -3.65 624.25 27.63 592.16 58.93 561.25 83.26 530.25 97.79 500.62 99.2 472.58 85.37 444.55 58.77 418.11 23.06 393.43 -17.01 368.75 -53.33 346.41 -80.13 326.38 -94.7 306.34 -93.31 288.6 -76.38 273.06 -46.95 257.42 -8.09 243.79 35.12 231.89 77.42 219.41 114.61 208.04 143.33 197.17 160.96 184.64 167.7 171.46 164.79 156.73 152.86 138.83 136.29 118.05 118.48 93.62 100.64 65.07 87.48 32.42 81.02 -4.2 81.07 -43.7 89.79 -85.48 106.69 -127.98 130.49 -168.9 160.63 -206.68 195.33 -238.88 233.49 -263.82 273.31 -279.73 313.28 -285.39 353.16 -282.12 391.35 -269.69 427.27 -250 461.34 -227.98 492.81 -205.42 521.85 -186.38 548.95 -176.15 574.19 -176.02 598.08 -187.8 620.68 -212.25 642.7 -246.63 664.62 -287.36 685.94 -329.98 707.75 -368.45 730.33 -397.16 752.77 -412.7 776.28 -411.75 800.96 -393.99 825.64 -363.48 850.91 -324.36 876.54 -282.93 902.03 -245.85 927.59 -217.51 952.82 -201.18 977.44 -199.12 1001.14 -209.42 1023.32 -229.16 1044.2 -256.04 1062.8 -283.74 1078.47 -307.64 1097.32 -329.3 1114.07 -300.27 1112.81 -252.64 1110.88 -212.31 1107.79 -169.05 1104.94 -125.83 1105.55 -84.77 1109.3 -48.02 1117.85 -16.72 1133.29 8.36 1155.38 27.44 1184.47 41.29 1220.07 49.68 1260.71 54.78 1304.26 58.01 1347.76 58.69 1388.25 59.7 1422.19 62.07 1453.8 66.76 1439.75 91.37 1400.83 111.66 1371.53 127.1 1344.45 144.92 1324.55 164.71 1317.14 185.06 1323.02 206.9 1342.47 229.88 1374.15 253.02 1412.97 277.01 1453.05 301.69Q1453.05 301.69 1453.05 301.69" opacity="0.97"></path><path d="M1397.71 353.21C1431.03 375.99 1454.68 400.19 1465.71 425.7 1463.9 451.28 1448.36 478.28 1421.29 506.64 1386.39 535.14 1347 565.06 1307.38 596.25 1271.62 627.43 1242.44 659.64 1221.77 692.46 1211.21 724.6 1209.73 756.58 1215.85 787.59 1229.01 816.57 1245.28 843.26 1261.94 866.64 1289.32 905.03 1245.28 896.8 1202.92 878.4 1169.72 867.81 1134.37 859.62 1098.15 856 1061.25 859.87 1025.12 871.21 990.41 890.76 956.67 918.64 924.9 953.12 895.12 992.04 866.7 1032.61 840.03 1071.26 814.84 1104.21 790.67 1128.74 767.43 1141.83 744.79 1141.86 722.67 1130.17 700.66 1107.16 678.55 1075.79 656.57 1041.88 634.22 1008.59 611.44 980.78 588.66 963.85 565.99 958.95 543.59 966.14 521.33 985.14 499.61 1011.57 478.77 1041.32 458.44 1071.68 439.47 1096.86 422.31 1113.5 406.18 1120.67 392.38 1115.88 381.32 1099.62 371.61 1073.84 364.89 1040.12 361.22 1001.47 358.53 960.82 358.34 920.98 360.13 884.41 361.96 840.42 357.4 794.81 344.08 790.45 327.8 793.53 305.88 798.27 278.11 803.15 244.92 808.82 207.45 812.36 167.37 812.97 127 811.91 88.64 807.07 55.17 798.49 28.73 787.58 11.64 773.24 5.5 756 9.47 736.9 23.82 715.68 46.73 692.96 73.49 669.17 102 644.61 128.11 619.81 146.39 594.56 155.22 569.53 152.52 545.07 136.99 520.52 111.03 496.75 77.71 473.97 40.71 451.18 6.67 429.93 -19.77 410.11 -36.52 390.19 -39.97 371.5 -29.88 353.79 -8.22 335.62 23.4 317.98 61.33 300.43 101.47 281.82 140.32 262.58 174.56 242.2 201.35 219.96 219.62 195.8 229.13 169.3 229.46 140.47 223.03 109 212.03 74.94 197.05 39.22 182.11 1.78 169.43 -36.48 159.04 -73.96 154.1 -109.98 155.32 -142.92 161.85 -171.33 174.88 -193.94 193.68 -209.32 217.21 -217.62 244.99 -217.83 275.78 -210.13 309.07 -197.29 343.59 -179.52 378.35 -159.2 413.61 -140.87 448.03 -125.71 481.16 -116.63 513.78 -117.07 544.83 -127.11 574.28 -147.13 603.07 -176.64 630.46 -212.69 656.59 -251.85 682.32 -290.38 707.13 -323.52 731.16 -347.02 755.06 -358.72 778.41 -356.13 801.19 -339.2 823.97 -311.39 845.65 -275.79 866.12 -237.37 886.47 -201.49 905.38 -171.78 922.62 -151.3 939.45 -142.54 954.26 -144.76 966.81 -156.43 978.69 -176.52 988.1 -200.34 994.96 -224.21 1007.21 -259.08 1021.19 -194.43 1033.32 -140.16 1047.11 -100.49 1065.36 -60.79 1088.7 -22.8 1117.34 12.55 1150.71 44.09 1188 71.43 1227.59 94.35 1267.89 113.19 1306.59 128.62 1378.17 156.61 1361.28 189.44 1321.99 203.72 1286.53 220.01 1267.07 263.58 1293.4 290.74 1324.36 309.6 1360.71 330.43 1397.71 353.21Q1397.71 353.21 1397.71 353.21" opacity="0.75"></path><path d="M1343.07 440.53C1373.82 461.41 1396.56 483.63 1408.91 507.01 1410.68 530.35 1400.62 554.74 1380.04 579.94 1351.58 604.88 1317.35 630.33 1280.61 655.9 1244.66 680.76 1211.95 705.18 1184.68 728.57 1158.51 760.57 1153.26 809.64 1167.94 824 1209.53 812.29 1165.9 790.63 1129.2 801.97 1101.19 818.32 1071.51 840.95 1041.02 869.46 1009.57 902.88 978.28 939.32 947.68 976.5 917.07 1012.02 887.54 1043.1 859.3 1067.05 831.35 1082.45 804.68 1087.4 779.3 1081.28 754.15 1066.01 730.13 1042.11 707.2 1012.2 684.34 981.14 662.45 951.18 641.57 926.01 620.68 910 601.3 903.96 583.48 908.07 565.73 922.51 549.68 944.05 535.44 969.7 521.44 997.73 509.42 1023.35 499.48 1043.61 486.05 1059.94 469.1 1032.38 464.26 992.09 460.46 958.25 456.85 921.63 452.68 884.48 445.97 848.51 437.32 815.41 425.89 786.31 410.39 762.01 391.07 742.67 367.56 728.04 339.82 718.4 308.29 712.39 273.68 708.99 237.3 708.68 200.33 709.22 164.59 709.67 92.01 693.79 162.1 640.13 194.63 615.21 207.15 597.7 211.05 579.03 205.15 559.48 188.67 539.82 163.82 519.49 133.07 498.61 99.18 477.72 67.52 456.78 41.7 435.77 23.3 414.64 15.68 393.22 19.46 371.36 33.46 349.08 57.18 326 88.22 301.89 123.56 277.02 160.64 250.76 196.56 222.97 228.72 194.27 255.46 163.95 275.67 132.16 288.3 99.89 294.12 66.69 294.11 33.15 288.22 0.52 279.18 -31.1 268.74 -60.67 246.77 -129.54 303.77 -95.26 339.67 -71.86 366.27 -61.37 394.06 -56.05 422.34 -57.62 451.45 -67.91 480.35 -86.22 508.58 -111.97 537.03 -144.01 564.51 -179.6 590.81 -215.69 617.1 -249.41 642.15 -277.09 665.83 -295.67 689.5 -303.91 711.83 -299.99 732.72 -283.99 753.6 -258.83 772.54 -226.75 789.55 -191.56 806.54 -157.51 821.58 -127.46 834.67 -104.13 853.36 -87.44 882.16 -109.44 893.34 -138.39 905 -169.98 931.47 -205.57 949.71 -201.37 965.68 -189.08 984.59 -169.62 1006.89 -144.24 1032.82 -114.25 1062.22 -80.89 1094.77 -45.77 1129.54 -9.75 1165.87 25.66 1202.44 59.49 1237.53 91.53 1269.83 120.9 1297.46 147.48 1319.22 171.33 1333.64 192.54 1339.64 211.51 1338.06 228.16 1328.34 243.33 1311.49 257.58 1290.87 270.37 1267.39 283.05 1243.83 296.08 1217.7 315.01 1216.04 358.1 1245.44 383.29 1275.39 400.58 1309.17 419.64 1343.06 440.52Q1343.07 440.53 1343.07 440.53" opacity="0.32"></path><path d="M1288.07 496.84C1316.25 515.83 1337.93 534.97 1351.22 554.13 1356.02 573.2 1350.92 592.11 1336.58 610.6 1314.82 628.74 1286.79 646.11 1254.78 662.37 1221.32 677.87 1188.34 691.81 1157.88 703.82 1126.98 721.31 1133.72 744.09 1117.97 772.52 1103.7 797.85 1086.55 827.12 1067.15 859.31 1045.94 893.08 1023.26 926.78 999.73 958.42 975.22 986.32 950.47 1008.52 925.92 1023.28 900.98 1030.28 876.59 1028.36 853.04 1017.55 829.39 1000.02 806.71 976.19 785.2 948.28 763.68 920.26 743.36 893.58 724.37 871.01 696.79 852.57 650.38 869.16 631.36 898.61 619.1 923.15 608.32 947.34 598.82 968.79 584.43 992.57 557.49 994.49 542.82 971.56 531.06 948.21 517.94 920.01 502.95 888.6 485.35 855.32 465.26 821.65 442.39 788.92 416.79 757.94 388.53 729.67 357.92 704.59 325.83 683.01 292.69 664.86 259.55 649.85 227.75 638.21 198.27 628.94 172.56 621.38 136.71 607.47 171.18 585.05 204.24 573.22 235.01 559.52 265.7 522.94 256.89 500.24 239.85 484.49 216.25 467.12 188.07 448.13 157.29 429.15 128.18 409 103.5 387.77 84.32 366.5 73.62 344.07 72.2 320.52 79.34 296.87 95.31 272.04 118.69 246.12 147.38 220.13 179.76 193.16 213.58 165.43 246.72 137.98 277.53 110.18 304.57 82.54 326.6 55.96 343.33 30.33 354.77 6.37 332.81 -28.83 372.63 2.6 398.51 -11 417.63 -29.09 437.91 -53.02 458.86 -81.73 480.49 -113.89 502.32 -147.14 523.97 -179.01 545.9 -207.44 567.37 -229.73 588.12 -243.74 608.93 -248.94 628.91 -243.96 647.89 -228.98 666.88 -206.41 684.42 -177.81 700.59 -146.04 716.81 -114.36 731.79 -84.95 745.66 -60.09 766.48 -36.45 806.18 -36.21 826.68 -55.12 841.74 -72.84 857.75 -91.06 875.15 -107.9 894.43 -123.16 915.62 -134.03 939 -139.6 964.45 -140.38 992.14 -135 1021.9 -123.77 1052.96 -107.64 1085.25 -86.67 1117.99 -61.9 1149.97 -34.1 1180.61 -4.21 1208.66 26.73 1233.09 58.47 1252.88 89.89 1266.91 120.38 1275.23 150.14 1276.9 178.34 1271.81 204.84 1261.71 230.05 1246.37 253.6 1227.14 275.66 1207.23 296.54 1187.21 316.32 1169.24 335.26 1156.58 353.45 1149.66 371.24 1149.86 388.92 1158.6 406.23 1174.89 423.75 1197.82 441.66 1226.25 459.48 1257.29 477.86 1288.07 496.84Q1288.07 496.84 1288.07 496.84" opacity="0.08"></path><path d="M1233.06 479.6C1258.62 496.69 1278.99 512.71 1292.73 527.61 1299.87 542.45 1298.96 556.07 1290.26 568.35 1254.06 592.33 1198.93 609.99 1138.39 620.61 1084.49 630.06 1044.74 633.17 1021.94 631.91 1017.41 634.44 1023.83 639.01 1034.23 650.67 1048.2 675.56 1055.6 713.31 1053.67 763.85 1046.18 822.93 1028.57 883.26 1003.14 934.02 973.54 966.78 939.57 973.33 903.99 951.22 885.79 932.68 867.62 909.81 849.7 884.34 831.72 859.48 814.12 836.03 797.03 816 771.86 798.39 725.8 806.41 704.47 828.84 675.6 871.62 647.4 911.41 617.79 936.11 583.99 942.32 545.32 923.67 500.15 884.61 449.41 831.94 392.95 772.56 334.19 714.26 279 660.73 232.06 615.62 201.02 579.04 188.23 550.71 197.34 527.62 226.19 506.57 261.68 489.14 297.36 469.69 320.37 446.27 322.48 434.8 318.36 422.04 307.84 407.89 290.72 393.77 268.62 378.19 243.06 361.1 215.39 344.01 188.95 325.83 165.8 306.67 146.55 287.54 133.76 267.51 128.23 246.75 137.68 205.73 174.76 163.01 229.47 121.22 290.05 83.05 346.36 49.86 390.6 25.52 424.13 22.31 419.53 61.17 438.77 23.92 457.69 -25.81 483.07 -85.05 512.81 -141.02 528.11 -163.99 544.08 -181.12 560.53 -191 577.05 -193.6 593.91 -187.87 610.99 -173.99 628.08 -153.96 644.99 -128.78 661.75 -100.54 678.58 -71.69 695.41 -43.79 712.33 -18.65 747.04 16.64 783.83 29.54 824.12 21.83 867.76 -3.87 916.74 -33.55 970.68 -57.06 1026.07 -72.02 1082.31 -69.25 1134.08 -49.36 1176.11 -16.23 1203.65 28.25 1211.53 78.39 1202.87 132.32 1177.21 185.48 1141.67 235.26 1112.01 283.86 1094.38 328.36 1098.12 368.83 1110.24 388.77 1128.06 407.95 1150.69 426.39 1177.22 444.76 1205.39 462.52 1233.06 479.6Q1233.06 479.6 1233.06 479.6" opacity="0.27"></path><path d="M1178.07 401.92C1220.76 432.3 1243.07 456.91 1240.82 475.98 1217.2 495.16 1174.72 509.24 1122.39 519.2 1068.96 530.89 1021.21 541.06 983.95 552.35 960.06 569.9 947.61 593.13 943.26 624.47 947.22 664.95 952.1 713.4 954.22 766.78 956.53 819.89 952.51 866.93 941.76 900.14 929.04 916 910.32 910.01 886.79 882.73 862.45 844.26 834.72 799.89 804.35 761.01 773.97 741.31 742.39 742.12 709.43 760.92 675.68 794.91 639.14 831.02 599.23 859.95 557.33 878.87 511.33 879.5 462.21 862.19 413.27 830.71 364.78 787.36 321 737.99 285.55 685.79 261.98 635.17 254.24 588.82 259.87 546.29 280.38 508.86 311.54 475.64 341.61 445.6 366.8 417.35 378.7 389.43 369.23 362.42 340.76 333.99 298.07 303.61 248.8 273.24 208.89 242.36 187.49 212.08 186.1 182.71 208.22 155.7 248.44 133.1 299.13 113.68 353.45 101.09 404 96.8 446.14 96.33 477.71 103.35 499.21 115.74 512.98 128.96 521.15 104.24 530.85 49.11 539.24 -2.06 553.53 -55.47 573.57 -101.18 594.06 -131.71 619.64 -138.68 650.01 -118.99 680.39 -80.11 714.12 -29.59 750.91 20.6 788.16 59.61 829.13 82.88 873.38 89.3 917.92 78.35 964.75 58.55 1011.48 37.08 1054.56 15.32 1092.68 2.88 1121.47 2.21 1139.78 10.69 1144.23 31.06 1133.72 60.33 1114.8 95.85 1087.72 135.71 1059.29 176.66 1041.34 219.34 1036.5 260.52 1049.61 298.62 1082.73 336.84 1128.79 371.54 1178.06 401.91Q1178.07 401.92 1178.07 401.92" opacity="1.00"></path><path d="M1122.85 322.63C1161 349.21 1183.87 372.43 1188.14 392.73 1175.76 413.63 1146.55 432.82 1105.87 451.56 1059.54 472.8 1012.3 495.95 969 522.6 932.53 553.99 904.09 590.55 883.25 632.18 870.51 677.04 862.34 723.93 856.08 769.09 851.25 823.69 828.32 849.01 805.69 812.38 788.85 777.21 767.14 739.13 740.56 705.87 713.99 687.36 683.79 684.17 650.52 695.17 617.12 719.8 580.56 749.22 541.68 776.98 503.3 801.6 463.88 814.98 425.57 815.4 390.86 805.07 360.88 782.54 338.78 751.02 324.78 713.11 321.71 671.37 330.51 628.97 346.14 585.85 369.53 544.8 396.38 506.86 417.58 470 431.66 436.07 433.78 404.97 419.26 374.38 391 345.74 352.85 319.16 309.69 292.58 273.12 269.32 249.66 249.79 240.22 230.77 249.29 216.34 274.52 207.14 311.25 199.02 356.04 196.3 403.25 198.45 449.18 199.89 490.51 203.47 525.47 206.55 553.41 203.23 575.23 194.25 592.64 176.91 605.09 148.81 616.39 111.59 628.53 67.5 638.96 20.26 652.36 -24.28 669.73 -59.17 686.84 -80.43 708.53 -82.63 735.11 -64.13 761.68 -30.88 791.89 12.58 824.91 58.02 857.67 97.57 892.61 127.38 928.24 145.08 962.16 148.7 994.64 142.51 1023.15 130.6 1059.89 93.57 1011.73 116.71 984 151.84 978.26 179.16 984.32 208.32 1004.02 237.55 1037.73 267.37 1079.69 296.05 1122.85 322.63Q1122.85 322.63 1122.85 322.63" opacity="0.78"></path><path d="M1067.8 302.09C1101.11 324.87 1123.34 347.98 1132.11 371.51 1128.87 395.52 1111.98 420.85 1084.27 447.97 1049.38 476.59 1009.78 508.02 969.24 542.31 929.97 578.19 894.05 616.46 862.7 655.67 836.21 693.54 814.17 729.02 795.6 759.07 774.07 788.75 735.18 779.1 712.18 740.99 696.32 710.35 677.15 678.65 654.37 650.84 631.59 633.91 606.27 627.82 579.16 632.23 552.4 647.8 524.56 668.86 496.96 691.41 470.96 715.26 446.89 733.79 426.59 744.77 404.71 747.77 401.95 702.4 421.96 661.83 438.78 630.6 457.94 598.11 476.14 566.1 487.15 533.37 491.07 502.23 485.52 473.59 467.96 444.91 441.11 418.88 407.8 396.1 370.81 373.32 338.31 354.86 314.66 340.58 299.37 321.1 347.47 299.21 399.49 292.81 439.18 286.01 479.4 277.83 517.72 266.45 553.66 249.12 585.91 226.32 614.35 197.49 639.47 162.79 661.88 123.82 682.54 83.27 701.33 44.02 720.04 10 739.53 -14.35 758.53 -27.55 779.27 -26.08 802.06 -9.15 824.84 18.65 848.58 54.96 872.54 94.4 896.02 131.63 918.76 163.94 939.44 188.78 951.19 183.89 930.69 211.49 961.25 238.49 993.69 257.94 1030.81 279.31 1067.8 302.09Q1067.8 302.09 1067.8 302.09" opacity="0.93"></path><path d="M1013.07 355.96C1041.25 374.95 1061.73 396.33 1072.97 419.78 1076.3 443.35 1069.57 469.18 1054.07 496.88 1032.09 524.72 1004.27 554.25 973.02 584.63 939.83 614.2 906.28 643.36 873.96 670.52 842.95 694.53 814.28 714.28 788.26 727.95 764.24 735.9 742.31 736.16 722.05 728.12 703.03 714.68 684.65 694.47 666.44 669.2 648.59 643.94 630.22 618.58 611.24 596.01 592.25 581.02 573.55 573.17 555.6 572.48 538 580.07 521.85 592.48 507.97 607.55 512.53 645.56 546.84 569.11 534.15 537.1 515.58 515.59 491.25 495.05 463.07 476.06 432.29 457.08 404.49 440.55 382.31 426.26 361.13 405.2 374.3 367.03 404.93 346.04 431.9 329.08 462.23 309.69 493.94 287.28 526.58 261.47 558.59 232.35 588.93 200.52 618.45 167.05 645.94 133.06 671.24 100.77 695.68 71.79 718.47 48.57 739.76 33.65 760.75 27.02 780.78 31.02 799.77 46.01 818.75 68.58 835.79 97.79 850.61 130.37 865.12 162.97 876.86 193.98 885.33 221.34 870.82 274.41 887.23 292.35 921.14 308.94 950.64 321.29 982.29 336.98 1013.07 355.96Q1013.07 355.96 1013.07 355.96" opacity="0.68"></path><path d="M958.07 443.1C1000.76 473.48 1019.63 511.29 1013.13 552.25 988.41 591 946.47 627.95 897.75 655.32 845.74 672.17 795.96 671.41 752.62 650.05 710.73 620.01 674 579.89 643.63 541.01 587.96 541.95 600.39 593.35 607.71 574.39 591.94 554.96 560.76 528.47 518.07 498.1 468.8 467.72 432.87 436.33 417.85 403.12 419.42 366.97 442.62 324.5 479.29 275.82 523.99 223.82 571.87 169.88 616.11 123.69 660.65 90.99 699.58 81.31 729.96 101.01 760.34 139.89 779.29 192.31 787.39 244.62 795.79 288.25 795.31 321.22 790.42 344.19 793.56 356.62 802.58 367.08 823.27 380.97 860.55 392.65 908.79 412.72 958.06 443.09Q958.07 443.1 958.07 443.1" opacity="0.31"></path><path d="M902.93 497.42C936.21 520.2 955.63 543.3 960.04 564.13 954.37 583.08 935.83 596.44 909.37 600.83 878.03 600.2 844.07 588.5 811.99 566.11 779.21 542.25 750.1 513.73 727.32 485.92 686.37 468.95 669.82 495.3 655.97 489.97 634.87 483.17 606.21 468.33 572.93 445.55 535.94 422.77 506.53 394.21 488.63 361.53 478.02 328.36 480.93 290.82 494.56 251.94 514.14 214.93 539.85 180.8 567.09 155.49 595.82 139.76 623.08 138.99 645.86 155.92 668.64 183.73 684.79 221.48 695.54 262.04 707.78 301.14 717.62 337 727.9 367.49 744.13 392.96 765.39 415.15 792.69 435.68 827.3 454.33 865.94 474.64 902.93 497.42Q902.93 497.42 902.93 497.42" opacity="0.61"></path><path d="M847.95 477.79C896.66 514.83 846.58 485.61 798.49 430.93 768.11 411.23 748.54 401.74 733.18 396.02 707.27 398.92 670.67 388.81 627.95 358.44 578.68 328.06 550.75 283.17 548.94 240.46 556.03 206.37 580.7 191.23 611.08 210.93 641.45 249.81 671.79 306.04 704.51 357.78 746.12 405.76 798.68 447.41 847.95 477.79Q847.95 477.79 847.95 477.79" opacity="0.16"></path></g></svg>