<svg xmlns="http://www.w3.org/2000/svg" version="1.1" xmlns:xlink="http://www.w3.org/1999/xlink" xmlns:svgjs="http://svgjs.dev/svgjs" viewBox="0 0 800 800"><defs><linearGradient x1="50%" y1="0%" x2="50%" y2="100%" id="uundulate-grad"><stop stop-color="hsl(234.9,89.9%,53.5%)" stop-opacity="1" offset="45%"></stop><stop stop-color="hsl(330,77.2%,50.2%)" stop-opacity="1" offset="100%"></stop></linearGradient></defs><g stroke-width="2" stroke="url(#uundulate-grad)" fill="none"><path d="M3956.8252579646514 -2574.3484323831617C4419.007417429468 -956.5700178469187 4244.350395532029 3766.6210246479613 2726.08305085387 4491.661449142279C1207.815706175712 5216.701873636595 -2868.675837025695 2523.6240197258103 -3330.857996490512 905.8456051895673C-3793.040155955329 -711.9328093466752 -1010.658659255419 -2548.634516137375 507.60868542273965 -3273.6749406316926C2025.8760301008988 -3998.71536512601 3494.643098499835 -4192.126846919404 3956.8252579646514 -2574.3484323831617C4419.007417429468 -956.5700178469187 4244.350395532029 3766.6210246479613 2726.08305085387 4491.661449142279 "></path><path d="M3898.516906327616 -2525.588021170137C4353.122309079895 -934.3305642492433 4181.3285170496265 3711.4311168932627 2687.9508009727488 4424.5856327893125C1194.573084895872 5137.740148685361 -2815.090728089119 2488.8111120518024 -3269.6961308413975 897.5536551309078C-3724.301533593676 -693.7038017899863 -987.532848315077 -2500.2956445349373 505.84486776180165 -3213.450160430987C1999.2225838386785 -3926.604676327037 3443.9115035753366 -4116.8454780910315 3898.516906327616 -2525.588021170137C4353.122309079895 -934.3305642492433 4181.3285170496265 3711.4311168932627 2687.9508009727488 4424.5856327893125 "></path><path d="M3840.208310549955 -2476.828769625082C4287.236956589695 -912.0922703195351 4118.3063944266 3656.2400494705953 2649.8183069510033 4357.5086567683775C1181.330219475407 5058.777264066161 -2761.505863293167 2453.997044709826 -3208.534509332908 889.2605454042796C-3655.563155372649 -675.4759539012666 -964.407281515359 -2451.9579326004687 504.08080596023683 -3153.226539898251C1972.5688934358332 -3854.495147196033 3393.179664510215 -4041.5652689306276 3840.208310549955 -2476.828769625082C4287.236956589695 -912.0922703195351 4118.3063944266 3656.2400494705953 2649.8183069510033 4357.5086567683775 "></path><path d="M3781.899714772295 -2428.0689687636195C4221.351604099497 -889.8534270734217 4055.2842718035718 3601.0495313643332 2611.685812929257 4290.432230063849C1168.087354054942 4979.814928763362 -2707.920998497216 2419.1835266842545 -3147.3728878244183 880.9679849940576C-3586.824777151621 -657.2475566961402 -941.281714715642 -2403.6196713495933 502.3167441586734 -3093.0023700491083C1945.9152030329878 -3782.385068748623 3342.4478254450914 -3966.2845104538173 3781.899714772295 -2428.0689687636195C4221.351604099497 -889.8534270734217 4055.2842718035718 3601.0495313643332 2611.685812929257 4290.432230063849 "></path><path d="M3723.5911189946337 -2379.3088322087983C4155.466251609298 -867.6142481339489 3992.262149180544 3545.8593489514324 2573.5533189075104 4223.356139052679C1154.8444886344769 4900.852929153927 -2654.3361337012643 2384.3703443520435 -3086.211266315929 872.675760277195C-3518.086398930594 -639.0188237976549 -918.1561479159245 -2355.2810744053586 500.552682357109 -3032.777864506606C1919.2615126301425 -3710.2746546078533 3291.715986379969 -3891.0034162836478 3723.5911189946337 -2379.3088322087983C4155.466251609298 -867.6142481339489 3992.262149180544 3545.8593489514324 2573.5533189075104 4223.356139052679 "></path><path d="M3665.2824926993953 -2330.5492449703834C4089.5808686015216 -845.3756185108818 3929.239996039938 3490.6686172221234 2535.420794368186 4156.279498725103C1141.6015926964337 4821.890380228082 -2600.751299422891 2349.556612703427 -3025.0496753250177 864.3829862439252C-3449.3480512271444 -620.7906402155754 -895.0306116337852 -2306.94302677753 498.7885900379674 -2972.55390828051C1892.60779170972 -3638.16478978349 3240.984116797268 -3815.7228714298844 3665.2824926993953 -2330.5492449703834C4089.5808686015216 -845.3756185108818 3929.239996039938 3490.6686172221234 2535.420794368186 4156.279498725103 "></path><path d="M3606.973896921734 -2281.7893220386086C4023.6955161113237 -823.1366531944554 3866.21787341691 3435.478221186175 2497.2883003464394 4089.2031940908864C1128.3587272759687 4742.9281669956 -2547.1664346269395 2314.7432167481693 -2963.8880538165286 856.0905479040157C-3380.609673006117 -602.562120940137 -871.9050448340677 -2258.6046434563423 497.02452823640306 -2912.329616361055C1865.9541013068747 -3566.054589265767 3190.2522777321446 -3740.4419908827617 3606.973896921734 -2281.7893220386086C4023.6955161113237 -823.1366531944554 3866.21787341691 3435.478221186175 2497.2883003464394 4089.2031940908864 "></path><path d="M3548.665301144074 -2233.0294906595686C3957.810163621124 -800.8977794307639 3803.1957507938823 3380.2877335974918 2459.155806324693 4022.126797903935C1115.1158618555037 4663.965862210382 -2493.581569830988 2279.929729240177 -2902.726432308039 847.7980180113718C-3311.87129478509 -584.3336932174329 -848.7794780343502 -2210.2663516878893 495.2604664348396 -2852.105415994334C1839.3004109040294 -3493.9444803007787 3139.520438667022 -3665.1612018883734 3548.665301144074 -2233.0294906595686C3957.810163621124 -800.8977794307639 3803.1957507938823 3380.2877335974918 2459.155806324693 4022.126797903935 "></path><path d="M3490.356705366412 -2184.2701475617787C3891.924811130926 -778.6593939483218 3740.1736281708545 3325.0967577275587 2421.0233123029466 3955.049913435735C1101.8729964350387 4585.003069143913 -2439.9967050350365 2245.115753450935 -2841.5648107995494 839.504999837478C-3243.1329165640623 -566.1057537759784 -825.6539112346327 -2161.9285482006853 493.4964046332757 -2791.881703908863C1812.646720501184 -3421.8348596170404 3088.7885996018995 -3589.8809011752355 3490.356705366412 -2184.2701475617787C3891.924811130926 -778.6593939483218 3740.1736281708545 3325.0967577275587 2421.0233123029466 3955.049913435735 "></path><path d="M3432.0478654481267 -2135.5100720421137C3826.0392145001015 -756.4202760440053 3677.1512614072035 3269.906514279499 2382.890574140575 3887.9737613894094C1088.6298868739477 4506.041008499319 -2386.41208437971 2210.3025100835675 -2780.403433431685 831.2127140854591C-3174.39478248366 -547.8770819126498 -802.5285885755402 -2113.5900122916073 491.7320986910868 -2731.657259401517C1785.9927859577137 -3349.724506511427 3038.056516396152 -3514.599868040222 3432.0478654481267 -2135.5100720421137C3826.0392145001015 -756.4202760440053 3677.1512614072035 3269.906514279499 2382.890574140575 3887.9737613894094 "></path><path d="M3373.7392696704655 -2086.750088075183C3760.1538620099036 -734.1812496924226 3614.1291387841757 3214.7161792787065 2344.7580801188287 3820.8975177903485C1075.3870214534836 4427.078856301992 -2332.8272195837585 2175.489175163466 -2719.2418119231957 822.9203367807058C-3105.6564042626323 -529.6485016020547 -779.4030217758232 -2065.251567935263 489.96803688952286 -2671.4329064469057C1759.3390955548684 -3277.614244958548 2987.3246773310293 -3439.3189264579432 3373.7392696704655 -2086.750088075183C3760.1538620099036 -734.1812496924226 3614.1291387841757 3214.7161792787065 2344.7580801188287 3820.8975177903485 "></path><path d="M3315.4306738928053 -2037.9904703191899C3694.268509519704 -711.9425895517779 3551.107016161147 3159.5254780669766 2306.6255860970823 3753.820907980351C1062.1441560330177 4348.116337893726 -2279.242354787807 2140.675474032427 -2658.080190414706 814.6275932650142C-3036.918026041605 -511.4202875023975 -756.2774549761052 -2016.9134897898568 488.2039750879594 -2611.208919703232C1732.685405152024 -3205.5043496166063 2936.592838265906 -3364.038351086602 3315.4306738928053 -2037.9904703191899C3694.268509519704 -711.9425895517779 3551.107016161147 3159.5254780669766 2306.6255860970823 3753.820907980351 "></path><path d="M3257.121833974519 -1989.2306694577278C3628.38291288888 -689.703746305664 3488.084649397494 3104.3349599607154 2268.492847934712 3686.744481275823C1048.901046471928 4269.15400259093 -2225.6577341324805 2105.8619560068564 -2596.918813046842 806.3350328547931C-2968.179891961203 -493.1918902972716 -733.1521323170132 -1968.5752285389813 486.4396691457705 -2550.984749854089C1706.0314706085537 -3133.394271169196 2885.860755060158 -3288.7575926097916 3257.121833974519 -1989.2306694577278C3628.38291288888 -689.703746305664 3488.084649397494 3104.3349599607154 2268.492847934712 3686.744481275823 "></path><path d="M3198.813482337483 -1940.4706854907972C3562.4978045393063 -667.4647199540818 3425.062770915092 3049.144624959922 2230.3605980535904 3619.668237676762C1035.6584251920876 4190.191850393602 -2172.072625195904 2071.048621086755 -2535.7569473977273 798.042655550039C-2899.44126959955 -474.96330998667645 -710.0263213766711 -1920.2367841826376 484.6758514848316 -2490.760396899477C1679.3780243463334 -3061.2840096163172 2835.1291601356606 -3213.4766510275126 3198.813482337483 -1940.4706854907972C3562.4978045393063 -667.4647199540818 3425.062770915092 3049.144624959922 2230.3605980535904 3619.668237676762 "></path><path d="M3140.504886559823 -1891.711342393007C3496.6124520491076 -645.2263344716398 3362.0406482920644 2993.953649089989 2192.228104031844 3552.5913532085624C1022.4155597716231 4111.229057327135 -2118.487760399953 2036.2346452975125 -2474.5953258892378 789.7496373761451C-2830.702891378523 -456.7353705452224 -686.9007545769532 -1871.8989806954341 482.91178968326767 -2430.5366848140065C1652.724333943488 -2989.174388932579 2784.397321070537 -3138.1963503143743 3140.504886559823 -1891.711342393007C3496.6124520491076 -645.2263344716398 3362.0406482920644 2993.953649089989 2192.228104031844 3552.5913532085624 "></path><path d="M3082.1960466415367 -1842.951266873342C3430.726855418284 -622.9872165673232 3299.0182815284115 2938.763405641931 2154.0953658694725 3485.515201162235C1009.1724502105326 4032.2669966825406 -2064.903139744626 2001.4214019301444 -2413.433948521373 781.4573516241257C-2761.9647572981203 -438.50669868189334 -663.7754319178612 -1823.5604447863557 481.14748374107876 -2370.312240306661C1626.0703994000178 -2917.0640358269657 2733.6652378647896 -3062.915317179361 3082.1960466415367 -1842.951266873342C3430.726855418284 -622.9872165673232 3299.0182815284115 2938.763405641931 2154.0953658694725 3485.515201162235 "></path><path d="M3023.8876950045014 -1794.1913134239896C3364.84174706871 -600.7482207333187 3235.9964030460096 2883.5730401235605 2115.963115988351 3418.4389270455977C995.929828930693 3953.304813967635 -2011.31803080805 1966.6080364924655 -2352.272082872259 773.1649438017944C-2693.226134936468 -420.27814888887633 -640.6496209775187 -1775.22203094759 479.38366608013985 -2310.0879178696273C1599.4169531377984 -2844.9538047916644 2682.933642940292 -2987.63440611466 3023.8876950045014 -1794.1913134239896C3364.84174706871 -600.7482207333187 3235.9964030460096 2883.5730401235605 2115.963115988351 3418.4389270455977 "></path><path d="M2965.5790992268403 -1745.4319398086213C3298.956394578511 -578.509804733299 3172.974280422982 2828.3820947712047 2077.8306219666047 3351.362073094975C982.686963510228 3874.3420514187455 -1957.7331660120985 1931.7940912208005 -2291.1104613637694 764.8719561454782C-2624.487756715441 -402.05017892984415 -617.5240541778012 -1726.8841969428083 477.61960427857593 -2249.864175266578C1572.7632627349521 -2772.844153590348 2632.2018038751694 -2912.354074883944 2965.5790992268403 -1745.4319398086213C3298.956394578511 -578.509804733299 3172.974280422982 2828.3820947712047 2077.8306219666047 3351.362073094975 "></path><path d="M2907.270472931601 -1696.6718642889564C3233.0710115707343 -556.270686828982 3109.952127282376 2773.1918513231467 2039.6980974272801 3284.2859210486495C969.4440675721848 3795.3799907741522 -1904.1483317337252 1896.9808478534342 -2229.9488703728584 756.5796703934593C-2555.7494090119912 -383.8215070665151 -594.3985178956616 -1678.54566103373 475.8555119594339 -2189.6397307592324C1546.1095418145287 -2700.7338004847347 2581.4699342924687 -2837.073041748931 2907.270472931601 -1696.6718642889564C3233.0710115707343 -556.270686828982 3109.952127282376 2773.1918513231467 2039.6980974272801 3284.2859210486495 "></path><path d="M2848.961877153941 -1647.9116056638227C3167.1856590805355 -534.0313858191967 3046.930004659348 2718.0017909805574 2001.5656034055337 3217.2099521077926C956.2012021517198 3716.418113235027 -1850.5634669377737 1862.1677875915348 -2168.787248864369 748.2875677469087C-2487.011030790964 -365.59265209771684 -571.2729510959443 -1630.2069420191829 474.09145015787 -2129.4151031464176C1519.4558514116848 -2628.6232642736527 2530.738095227346 -2761.7918255084487 2848.961877153941 -1647.9116056638227C3167.1856590805355 -534.0313858191967 3046.930004659348 2718.0017909805574 2001.5656034055337 3217.2099521077926 "></path><path d="M2790.6532813762797 -1599.1525372242354C3101.3003065903367 -511.79327499495776 2983.907882036321 2662.8105404524213 1963.4331093837873 3150.132792981388C942.9583367312548 3637.4550455103554 -1796.9786021418222 1827.3535371440903 -2107.6256273558793 739.9942749148122C-2418.2726525699363 -347.3649873144659 -548.1473842962266 -1581.8694131901825 472.3273883563061 -2069.19166571915C1492.802161008839 -2556.513918248117 2480.0062561622226 -2686.5117994535135 2790.6532813762797 -1599.1525372242354C3101.3003065903367 -511.79327499495776 2983.907882036321 2662.8105404524213 1963.4331093837873 3150.132792981388 "></path><path d="M2732.3446855986194 -1550.3920344584767C3035.414954100138 -489.55372984454743 2920.8857594132933 2607.620724250456 1925.3006153620408 3083.057068181156C929.7154713107898 3558.4934121118567 -1743.3937373458707 1792.540721022816 -2046.46400584739 731.7024164088866C-2349.534274348909 -329.13588820504265 -525.0218174965094 -1533.5304500350105 470.56332655474216 -2008.9667939657104C1466.1484706059937 -2484.40313789641 2429.274417097099 -2611.2303390724064 2732.3446855986194 -1550.3920344584767C3035.414954100138 -489.55372984454743 2920.8857594132933 2607.620724250456 1925.3006153620408 3083.057068181156 "></path><path d="M2674.0360898209583 -1501.6329355013117C2969.529601609939 -467.3155885027304 2857.8636367902654 2552.429504239898 1887.1681213402953 3015.9799395723303C916.4726058903248 3479.5303749047634 -1689.8088725499192 1757.7265010929495 -1985.3023843389005 723.4091540943678C-2280.795896127882 -310.90819290421405 -501.8962506967921 -1485.192890688432 468.7992647531787 -1948.7433260208645C1439.4947802031493 -2412.2937613532968 2378.5425780319765 -2535.950282499893 2674.0360898209583 -1501.6329355013117C2969.529601609939 -467.3155885027304 2857.8636367902654 2552.429504239898 1887.1681213402953 3015.9799395723303 "></path><path d="M2615.727494043297 -1452.872402217975C2903.6442491197404 -445.07601283474196 2794.8415141672376 2497.239718555511 1849.035627318548 2948.9042452896765C903.2297404698597 3400.568772023841 -1636.2240077539677 1722.9137154892533 -1924.140762830411 715.1173261060203C-2212.057517906854 -292.67906327721266 -478.7706838970746 -1436.853897015682 467.0352029516148 -1888.5184237498468C1412.8410898003035 -2340.1829504840116 2327.810738966854 -2460.668791601208 2615.727494043297 -1452.872402217975C2903.6442491197404 -445.07601283474196 2794.8415141672376 2497.239718555511 1849.035627318548 2948.9042452896765 "></path><path d="M2557.418898265637 -1404.113059120185C2837.7588966295416 -422.83762735229993 2731.81939154421 2442.048742685578 1810.903133296802 2881.8273608214768C889.9868750493943 3321.6059789573737 -1582.6391429580162 1688.099739700012 -1862.9791413219216 706.8243079321264C-2143.319139685827 -274.45112383575815 -455.6451170973571 -1388.5160935284785 465.2711411500509 -1828.2947116643759C1386.1873993974582 -2268.0733298002733 2277.0788999017313 -2385.3884908880696 2557.418898265637 -1404.113059120185C2837.7588966295416 -422.83762735229993 2731.81939154421 2442.048742685578 1810.903133296802 2881.8273608214768 "></path><path d="M2499.1102719703977 -1355.352800495051C2771.8735136217647 -400.5983263425146 2668.797238403604 2386.8586823429887 1772.7706087574775 2814.751391880618C876.7439791113511 3242.6441014182483 -1529.0543086796429 1653.2866794381125 -1801.8175503310104 698.5322052855759C-2074.5807919823774 -256.2222688669608 -432.519580815218 -1340.1773745139312 463.50704883090884 -1768.070084051561C1359.5336784770357 -2195.9627935891913 2226.3470303190306 -2310.1072746475875 2499.1102719703977 -1355.352800495051C2771.8735136217647 -400.5983263425146 2668.797238403604 2386.8586823429887 1772.7706087574775 2814.751391880618 "></path><path d="M2440.8016761927374 -1306.593732055464C2705.988161131567 -378.3602155182755 2605.775115780576 2331.6674318148525 1734.6381147357315 2747.674232754215C863.5011136908861 3163.681033693578 -1475.4694438836916 1618.4724289906676 -1740.6559288225208 690.2389124534789C-2005.8424137613501 -237.99460408370942 -409.3940140155005 -1291.8398456849309 461.74298702934493 -1707.8466466242935C1332.87998807419 -2123.8534475636557 2175.615191253908 -2234.8272485926527 2440.8016761927374 -1306.593732055464C2705.988161131567 -378.3602155182755 2605.775115780576 2331.6674318148525 1734.6381147357315 2747.674232754215 "></path><path d="M2382.4928362744513 -1257.833412395174C2640.102564500743 -356.12085347333414 2542.752749016924 2276.4774325074195 1696.50537657336 2680.5983248485136C850.2580041297961 3084.7192171896086 -1421.8848232283651 1583.659429763925 -1679.4945514546564 681.9468708420845C-1937.1042796809477 -219.7656880797549 -386.268691356408 -1243.5010656352276 459.978681087156 -1647.6219579763224C1306.22605353072 -2051.7428503174174 2124.8831080481596 -2159.5459713170144 2382.4928362744513 -1257.833412395174C2640.102564500743 -356.12085347333414 2542.752749016924 2276.4774325074195 1696.50537657336 2680.5983248485136 "></path><path d="M2324.1843625671027 -1209.0741303325403C2574.2173340808567 -333.88252902604836 2479.730748464209 2221.2863956023302 1658.3730046219262 2613.5213793451576C837.0152607796435 3005.756363087985 -1368.2998363621011 1548.8453929395268 -1618.3328078758545 673.6537916330349C-1868.3657793896077 -201.53780967345733 -363.14300248637824 -1195.1633231831804 458.2147413559046 -1587.398306926008C1279.5724851981872 -1979.6332906688353 2074.15139105335 -2084.2657316390323 2324.1843625671027 -1209.0741303325403C2574.2173340808567 -333.88252902604836 2479.730748464209 2221.2863956023302 1658.3730046219262 2613.5213793451576 "></path><path d="M2265.8757667894424 -1160.3136275667816C2508.331981590658 -311.6429838756378 2416.708625841182 2166.096579400365 1620.2405106001802 2546.4456545449248C823.7723953591785 2926.7947296894845 -1314.7149715661496 1514.032576818253 -1557.171186367365 665.3619331271093C-1799.6274011685805 -183.3087105640343 -340.01743568666075 -1146.8243600280084 456.4506795543407 -1527.1734351725681C1252.918794795342 -1907.522510317128 2023.4195519882269 -2008.984271257925 2265.8757667894424 -1160.3136275667816C2508.331981590658 -311.6429838756378 2416.708625841182 2166.096579400365 1620.2405106001802 2546.4456545449248 "></path><path d="M2207.5671710117817 -1111.554009810788C2442.446629100459 -289.4043237349929 2353.686503218154 2110.905878188635 1582.1080165784338 2479.369044734928C810.5295299387135 2847.83221128122 -1261.1301067701982 1479.2188756872142 -1496.0095648588756 657.0691896114186C-1730.889022947553 -165.0804964643769 -316.89186888694326 -1098.4862818826018 454.6866177527768 -1466.9494484288941C1226.265104392497 -1835.4126149751867 1972.6877129231038 -1933.7036958865838 2207.5671710117817 -1111.554009810788C2442.446629100459 -289.4043237349929 2353.686503218154 2110.905878188635 1582.1080165784338 2479.369044734928 "></path><path d="M2149.258453163808 -1062.7939953262794C2376.561154539948 -267.16526686583256 2290.6642585248132 2055.7155737054204 1543.9754004863744 2412.2928316534453C797.286542447936 2768.8700896014698 -1207.5453640445594 1444.4055712846903 -1434.8480654206987 648.776842824243C-1662.150766796838 -146.8518856362041 -293.7664241575385 -1050.1478070086796 452.9224338809008 -1406.7250649567045C1199.6112919193392 -1763.3023229047294 1921.9557517876683 -1858.4227237867267 2149.258453163808 -1062.7939953262794C2376.561154539948 -267.16526686583256 2290.6642585248132 2055.7155737054204 1543.9754004863744 2412.2928316534453 "></path><path d="M2090.949704798257 -1014.0345606757551C2310.675649461858 -244.92678983065616 2227.6419833138953 2000.5246893882213 1505.8427538767378 2345.216038737979C784.0435244395803 2689.907388087736 -1153.9606518364985 1409.591687048182 -1373.6865965000998 640.4839162030835C-1593.4125411637012 -128.62385464201543 -270.64100994571163 -1001.809911968742 451.1582194914463 -1346.5012613184995C1172.9574489286033 -1691.1926106682567 1871.223760134655 -1783.142331520854 2090.949704798257 -1014.0345606757551C2310.675649461858 -244.92678983065616 2227.6419833138953 2000.5246893882213 1505.8427538767378 2345.216038737979 "></path><path d="M2032.641109020596 -965.2745156736681C2244.7902969716592 -222.6877024439175 2164.6198606908674 1945.3344154225852 1467.7102598549914 2278.1398561740752C770.8006590191153 2610.9452969255644 -1100.375787040547 1374.778413163237 -1312.5249749916104 632.191599933486C-1524.6741629426738 -110.39521329626427 -247.51544314599414 -953.4714065772416 449.3941576898824 -1286.2768473287315C1146.3037585257584 -1619.0822880802216 1820.4919210695325 -1707.8613289034188 2032.641109020596 -965.2745156736681C2244.7902969716592 -222.6877024439175 2164.6198606908674 1945.3344154225852 1467.7102598549914 2278.1398561740752 "></path><path d="M1974.3325132429354 -916.5147758473624C2178.9049444814605 -200.44892023296006 2101.5977380678396 1890.1438362811678 1429.577765833245 2211.0633684343893C757.5577935986503 2531.9829005876127 -1046.7909222445955 1339.9648341025104 -1251.363353483121 623.8989784881078C-1455.9357847216465 -92.1668771262946 -224.38987634627665 -905.1332063615226 447.63009588831846 -1226.0527385147452C1119.6500681229131 -1546.9722706679675 1769.7600820044095 -1632.5806314617648 1974.3325132429354 -916.5147758473624C2178.9049444814605 -200.44892023296006 2101.5977380678396 1890.1438362811678 1429.577765833245 2211.0633684343893 "></path><path d="M1916.0239174652743 -867.7549139507444C2113.0195919912617 -178.21001595169014 2038.5756154448127 1834.953379210062 1391.4452718114985 2143.987002765017C744.3149281781848 2453.0206263199725 -993.2060574486441 1305.1513771120963 -1190.2017319746315 615.606479113042C-1387.197406500619 -73.93841888601241 -201.26430954655916 -856.7948840754912 445.8660340867543 -1165.828507630446C1092.9963777200678 -1474.862131185401 1719.0282429392869 -1557.2998119497986 1916.0239174652743 -867.7549139507444C2113.0195919912617 -178.21001595169014 2038.5756154448127 1834.953379210062 1391.4452718114985 2143.987002765017 "></path><path d="M1857.715443757926 -818.9951130892824C2047.1343615713754 -155.97117270557646 1975.553614892097 1779.7628611038008 1353.3128998600646 2076.910576060488C731.0721848280323 2374.0582910171756 -939.6210705823801 1270.337859086526 -1129.0399883958296 607.3139187028196C-1318.4589062092791 -55.71002168088626 -178.13862067652917 -808.4566228246159 444.10209435550314 -1105.6043377813035C1066.3428093875355 -1402.7520527379907 1668.2965259444763 -1482.0190534729884 1857.715443757926 -818.9951130892824C2047.1343615713754 -155.97117270557646 1975.553614892097 1779.7628611038008 1353.3128998600646 2076.910576060488 "></path><path d="M1799.4067259099525 -770.2353427453986C1981.248887010864 -133.73235997704091 1912.531370198757 1724.572312479961 1315.1802837680061 2009.834118838381C717.8291973372548 2295.095925196801 -886.0363278567412 1235.5243105433774 -1067.8784889576527 599.0213277750195C-1249.7206500585642 -37.481654993338225 -155.01317594712464 -760.1183920913188 442.33791048362673 -1045.3801984497386C1039.6889969143776 -1330.6420048081586 1617.5645648090413 -1406.7383255137563 1799.4067259099525 -770.2353427453986C1981.248887010864 -133.73235997704091 1912.531370198757 1724.572312479961 1315.1802837680061 2009.834118838381 "></path><path d="M1741.0982522026043 -721.4755113663585C1915.3636565909778 -111.49348621334912 1849.5093696460417 1669.381824891278 1277.0479118165722 1942.75772265143C704.5864539871022 2216.133620411583 -832.4513409904772 1200.7108230353847 -1006.7167453788508 590.7287978823751C-1180.9821497672242 -19.25322727063417 -131.88748707709465 -711.7801003228653 440.5739707523753 -985.1559980830178C1013.0354285818448 -1258.5318958431703 1566.8328478142307 -1331.457536519368 1741.0982522026043 -721.4755113663585C1915.3636565909778 -111.49348621334912 1849.5093696460417 1669.381824891278 1277.0479118165722 1942.75772265143 "></path><path d="M1682.789534354631 -672.7157410224747C1849.4781820304665 -89.25467348481357 1786.4871249527018 1614.1912762674383 1238.9152957245133 1875.6812654293235C691.3434664963249 2137.1712545912087 -778.8665982648383 1165.8972744922362 -945.5552459406738 582.436206954575C-1112.2438936165095 -1.024860583086138 -108.76204234768966 -663.4418695895682 438.8097868804989 -924.9318587514531C986.381616108687 -1186.421847913338 1516.1008866787956 -1256.1768085601361 1682.789534354631 -672.7157410224747C1849.4781820304665 -89.25467348481357 1786.4871249527018 1614.1912762674383 1238.9152957245133 1875.6812654293235 "></path><path d="M1624.4806944363454 -623.9559401610129C1783.5925853996428 -67.01583023869989 1723.464758189049 1559.0007581611771 1200.7825575621418 1808.6048387247947C678.1003569352349 2058.208919288412 -725.2819776095118 1131.0837564666658 -884.3938685728094 574.1436465443528C-1043.505759536107 17.20353662204002 -85.63671968859717 -615.103608338693 437.04548093831 -864.7076889023103C959.7276815652176 -1114.311769465928 1465.368803473048 -1180.896050083326 1624.4806944363454 -623.9559401610129C1783.5925853996428 -67.01583023869989 1723.464758189049 1559.0007581611771 1200.7825575621418 1808.6048387247947 "></path><path d="M1566.1722207289972 -575.1961392995509C1717.7073549797565 -44.77698699258622 1660.4427576363341 1503.8102400549155 1162.650185610708 1741.5284120202655C664.8576135850824 1979.2465839856159 -671.6969907432479 1096.2702384410954 -823.2321249940074 565.8510861341308C-974.767259244767 35.431933827166176 -62.51103081856718 -566.7653470878178 435.2815412070586 -804.4835190531677C933.0741132326843 -1042.2016910185175 1414.637086478237 -1105.6152916065157 1566.1722207289972 -575.1961392995509C1717.7073549797565 -44.77698699258622 1660.4427576363341 1503.8102400549155 1162.650185610708 1741.5284120202655 "></path><path d="M1507.863624951336 -526.436338438089C1651.8220024895577 -22.538143746472542 1597.4206350133063 1448.619721948654 1124.5176915889615 1674.4519853157367C651.6147481646174 1900.284248682819 -618.1121259472964 1061.456720415525 -762.070503485518 557.5585257239086C-906.0288810237396 53.660331032292106 -39.38546401884969 -518.4270858369425 433.5174794054949 -744.2593492040249C906.4204228298393 -970.0916125711074 1363.9052474131145 -1030.3345331297055 1507.863624951336 -526.436338438089C1651.8220024895577 -22.538143746472542 1597.4206350133063 1448.619721948654 1124.5176915889615 1674.4519853157367 "></path><path d="M1449.5549986560973 -477.67650705904896C1585.9366194817808 -0.2992699827807428 1534.3984818727004 1393.429234359971 1086.385167049637 1607.3755891287856C638.371852226574 1821.3219438976007 -564.527291668923 1026.6432329075328 -700.9089124946067 549.2659958312645C-837.2905333202904 71.88875875499616 -16.25992773671055 -470.08879406848905 431.75338708635286 -684.035148837304C879.7667019094163 -897.981503606119 1313.1733778304138 -955.0537441353172 1449.5549986560973 -477.67650705904896C1585.9366194817808 -0.2992699827807428 1534.3984818727004 1393.429234359971 1086.385167049637 1607.3755891287856 "></path><path d="M1391.2464028784366 -428.916706197587C1520.0512669915825 21.93957326333293 1471.376359249673 1338.2387162537098 1048.252673027891 1540.2991624242568C625.128986806109 1742.3596085948043 -510.9424268729716 991.8297148819624 -639.7472909861173 540.9734354210423C-768.552155099263 90.11715596012255 6.865639063006938 -421.7505328176138 429.98932528478895 -623.8109789881612C853.113011506571 -825.8714251587087 1262.4415387652907 -879.7729856585071 1391.2464028784366 -428.916706197587C1520.0512669915825 21.93957326333293 1471.376359249673 1338.2387162537098 1048.252673027891 1540.2991624242568 "></path><path d="M1332.937807100776 -380.1569358537033C1454.1659145013837 44.17838599186871 1408.3542366266456 1283.04816762987 1010.1201790061448 1473.2227052021499C611.886121385644 1663.3972427744297 -457.35756207702013 957.016166338814 -578.5856694776278 532.6808444932421C-699.8137768782356 108.34552264767035 29.991205862724314 -373.4123020843167 428.22526348322504 -563.5868396565966C826.4593211037256 -753.7613772288765 1211.7096997001681 -804.4922576992751 1332.937807100776 -380.1569358537033C1454.1659145013837 44.17838599186871 1408.3542366266456 1283.04816762987 1010.1201790061448 1473.2227052021499 "></path><path d="M1274.6292113231148 -331.39713499224126C1388.2805620111849 66.41722923798216 1345.3321140036178 1227.8576495236084 971.9876849843981 1406.146278497621C598.6432559651789 1584.4349074716333 -403.7726972810687 922.2026483132436 -517.4240479691384 524.3882840830199C-631.0753986572081 126.57391985279628 53.11677266244169 -325.07404083344136 426.46120168166135 -503.36266980745387C799.8056307008806 -681.6512987814663 1160.977860635045 -729.2114992224649 1274.6292113231148 -331.39713499224126C1388.2805620111849 66.41722923798216 1345.3321140036178 1227.8576495236084 971.9876849843981 1406.146278497621 "></path><path d="M1216.3206155454543 -282.63733413077944C1322.395209520986 88.65607248409594 1282.30999138059 1172.6671314173473 933.8551909626519 1339.0698517930923C585.4003905447139 1505.472572168837 -350.18783248511727 887.3891302876732 -456.26242646064895 516.0957236727977C-562.3370204361806 144.80231705792266 76.24233946215918 -276.7357795825661 424.69713988009744 -443.1384999583111C773.1519402980355 -609.5412203340561 1110.2460215699225 -653.9307407456547 1216.3206155454543 -282.63733413077944C1322.395209520986 88.65607248409594 1282.30999138059 1172.6671314173473 933.8551909626519 1339.0698517930923 "></path><path d="M1158.0119587326371 -233.8775332693175C1256.5097959956308 110.89491573020962 1219.2878077224063 1117.4766133110857 895.7226359057493 1271.9934250885635C572.1574640890924 1426.510236866041 -296.60302872432203 852.5756122621028 -395.1008659873158 507.8031632625757C-493.59870325030954 163.0307142630486 99.36784522672042 -228.3975183316909 422.9330170433773 -382.91433010916836C746.4981888600339 -537.4311418866458 1059.5141214696434 -578.6499822688445 1158.0119587326371 -233.8775332693175C1256.5097959956308 110.89491573020962 1219.2878077224063 1117.4766133110857 895.7226359057493 1271.9934250885635 "></path><path d="M1099.7033629549762 -185.1176713726993C1190.624443505432 133.13382001147954 1156.2656850993785 1062.2861562399805 857.5901418840031 1204.9170594191905C558.9145986686274 1347.5479625984008 -243.0181639283706 817.7621552716887 -333.93924447882637 499.51066388750974C-424.8603250292821 181.2591725033309 122.49341202643768 -180.0591960456594 421.16895524181336 -322.69009922486936C719.8444984571888 -465.3210024040793 1008.7822824045206 -503.36916275687815 1099.7033629549762 -185.1176713726993C1190.624443505432 133.13382001147954 1156.2656850993785 1062.2861562399805 857.5901418840031 1204.9170594191905 "></path><path d="M1041.3947671773155 -136.35783999365924C1124.7390910152333 155.37269377517134 1093.243562476351 1007.0956686512973 819.4576478622566 1137.8406632322399C545.6717332481626 1268.5856578131825 -189.43329913241917 782.9486677636962 -272.7776229703369 491.21813399486564C-356.1219468082547 199.48760022603506 145.61897882615517 -131.72090427720605 419.40489344024945 -262.4658988581484C693.1908080543435 -393.2108934390909 958.0504433393978 -428.0883737624899 1041.3947671773155 -136.35783999365924C1124.7390910152333 155.37269377517134 1093.243562476351 1007.0956686512973 819.4576478622566 1137.8406632322399 "></path><path d="M983.0861103644986 -87.59806964977543C1058.8536774898782 177.6115065037069 1030.221378818167 951.9051200274578 781.325092805354 1070.7642060101327C532.4288067925413 1189.623291992808 -135.84849537162393 748.1351192205477 -211.61606249700372 482.9255430670655C-287.3836296223835 217.7159669135831 168.7444845907164 -83.38267354390882 417.6407706035293 -202.24175952658385C666.5370566163422 -321.1008455092588 907.3185432391185 -352.80764580325786 983.0861103644986 -87.59806964977543C1058.8536774898782 177.6115065037069 1030.221378818167 951.9051200274578 781.325092805354 1070.7642060101327 "></path><path d="M924.7775145868377 -38.8382687883136C992.9683249996795 199.85034974982057 967.1992561951392 896.7146019211964 743.1925987836075 1003.6877793056037C519.1859413720761 1110.6609566900113 -82.26363057567244 713.3216011949773 -150.4544409885143 474.63298265684307C-218.64525140135612 235.94436411870902 191.8700513904338 -35.04441229303359 415.8767088019655 -142.01758967744104C639.8833662134971 -248.99076706184854 856.5867041739959 -277.52688732644765 924.7775145868377 -38.8382687883136C992.9683249996795 199.85034974982057 967.1992561951392 896.7146019211964 743.1925987836075 1003.6877793056037 "></path><path d="M866.468918809177 9.921532073148342C927.0829725094809 222.08919299593435 904.1771335721119 841.524083814935 705.0601047618616 936.6113526010749C505.94307595161104 1031.6986213872149 -28.678765779721004 678.508083169407 -89.29281948002483 466.3404222466211C-149.90687318032872 254.17276132383518 214.99561819015116 13.293848957841647 414.1126470004016 -81.79341982829828C613.2296758106518 -176.88068861443827 805.8548651088731 -202.2461288496375 866.468918809177 9.921532073148342C927.0829725094809 222.08919299593435 904.1771335721119 841.524083814935 705.0601047618616 936.6113526010749 "></path><path d="M808.1603230315163 58.68133293461028C861.1976200192821 244.32803624204803 841.155010949084 786.3335657086736 666.9276107401151 869.5349258965462C492.700210531146 952.7362860844185 24.906099016230428 643.6945651438366 -28.131197971535414 458.04786183639885C-81.16849495930126 272.40115852896133 238.12118498986865 61.632110208716995 412.3485851988378 -21.56924997915553C586.5759854078068 -104.77061016702805 755.1230260437503 -126.96537037282735 808.1603230315163 58.68133293461028C861.1976200192821 244.32803624204803 841.155010949084 786.3335657086736 666.9276107401151 869.5349258965462 "></path><path d="M749.8516967362771 107.44113379607222C795.3122370115052 266.5668794881617 778.1328578084783 731.143047602412 628.7950862007906 802.4584991920171C479.45731459310275 873.7739507816223 78.49093329460379 608.8810471182662 33.03039301937588 449.75530142617674C-12.430147255851978 290.62955573408726 261.2467212720079 109.97037145959217 410.58449287969574 38.654919869987225C559.9222644873835 -32.66053171961778 704.3911564610494 -51.6846118960172 749.8516967362771 107.44113379607222C795.3122370115052 266.5668794881617 778.1328578084783 731.143047602412 628.7950862007906 802.4584991920171 "></path><path d="M691.5430704410384 156.20093465753416C729.4268540037282 288.8057227342754 715.1107046678726 675.9525294961508 590.662561661466 735.3820724874881C466.2144186550597 794.8116154788258 132.0757675729771 574.0675290926957 94.19198401028717 441.46274101595463C56.3082004475973 308.8579529392134 284.37225755414727 158.30863271046746 408.8204005605537 98.87908971912998C533.2685435669601 39.449546727792494 653.6592868783483 23.596146580792947 691.5430704410384 156.20093465753416C729.4268540037282 288.8057227342754 715.1107046678726 675.9525294961508 590.662561661466 735.3820724874881 "></path><path d="M633.2344594045885 204.96076603657417C663.5414862547404 311.0445964979672 652.0885667860559 620.7620419074675 552.5300523809308 668.3056763005375C452.9715379758055 715.8493106936074 185.66061711013947 539.2540415847035 155.35359025998758 433.17021112331054C125.04656340983564 327.0863806619176 307.4978090950756 206.64692447892082 407.05632350020073 159.10329008585086C506.6148379053259 111.55965569278084 602.9274325544366 98.87693557518122 633.2344594045885 204.96076603657417C663.5414862547404 311.0445964979672 652.0885667860559 620.7620419074675 552.5300523809308 668.3056763005375 "></path><path d="M574.9258483681385 253.72058215682517C597.6561185057526 333.2834550028699 589.0664289042392 565.5715390599951 514.3975431003953 601.2292648547976C439.7286572965513 636.8869906496002 239.2454666473019 504.4405388179222 216.51519650968794 424.8776659718774C193.78492637207398 345.3147931258327 330.62336063600395 254.98520098858518 405.2922464398479 219.32747519378267C479.96113224369174 183.66974939898017 552.1955782305247 174.15770931078043 574.9258483681385 253.72058215682517C597.6561185057526 333.2834550028699 589.0664289042392 565.5715390599951 514.3975431003953 601.2292648547976 "></path><path d="M516.6172068141107 302.4803830182871C531.7707202391866 355.5222982489836 526.0442605048444 510.3810209537337 476.2650033022818 534.1528381502687C426.48574609971917 557.9246553468038 292.83028566688614 469.6270207923517 277.67677224181017 416.58510556165527C262.52325881673426 363.5431903309588 353.7488816593542 303.3234622394604 403.5281388619168 279.55164504292543C453.30739606447935 255.77982784639045 501.4636933890347 249.43846778759064 516.6172068141107 302.4803830182871C531.7707202391866 355.5222982489836 526.0442605048444 510.3810209537337 476.2650033022818 534.1528381502687 "></path><path d="M458.30861103644986 351.24019913853806C465.88536774898785 377.7611567538863 463.0221378818167 455.1905181062614 438.13250928053543 467.0764267045289C413.2428806792541 478.9623353027964 346.41515046283763 434.8135180255704 338.83839375029964 408.29256041022217C331.26163703776166 381.77160279487396 376.87444845907163 351.66173874912477 401.7640770603529 339.77583015085725C426.6537056616342 327.8899215525897 450.7318543239119 324.71924152318985 458.30861103644986 351.24019913853806C465.88536774898785 377.7611567538863 463.0221378818167 455.1905181062614 438.13250928053543 467.0764267045289 "></path></g></svg>